<?xml version="1.0" encoding="UTF-8" standalone="no"?>
<!DOCTYPE svg PUBLIC "-//W3C//DTD SVG 1.1//EN" "http://www.w3.org/Graphics/SVG/1.1/DTD/svg11.dtd">
<svg width="100%" height="100%" viewBox="0 0 12 12" version="1.1" xmlns="http://www.w3.org/2000/svg" xmlns:xlink="http://www.w3.org/1999/xlink" xml:space="preserve" xmlns:serif="http://www.serif.com/" style="fill-rule:evenodd;clip-rule:evenodd;stroke-linejoin:round;stroke-miterlimit:2;">
    <g transform="matrix(1,0,0,1,-2906.26,-4107.23)">
        <g transform="matrix(1.55482,0,0,1.20853,755.627,1281.07)">
            <g transform="matrix(0.0425816,0,0,0.054783,1265.63,2114.87)">
                <path d="M2915.73,4150.03C2897.21,4150.03 2887.43,4167.74 2879.56,4181.97C2874.52,4191.09 2869.31,4200.51 2864.19,4201.02C2858.61,4199.92 2854.79,4196.49 2850.39,4192.56C2844.19,4187 2837.21,4180.78 2824.91,4181.24C2809.91,4181.89 2796.34,4192.51 2784.59,4212.82C2784.04,4213.77 2783.75,4214.85 2783.75,4215.95C2783.75,4219.38 2786.57,4222.2 2790,4222.2C2792.23,4222.2 2794.3,4221.01 2795.41,4219.08C2804.88,4202.71 2814.99,4194.18 2825.44,4193.72C2832.65,4193.44 2836.56,4196.96 2842.04,4201.86C2847.29,4206.57 2853.24,4211.89 2862.72,4213.46C2863.05,4213.52 2863.4,4213.55 2863.74,4213.55C2876.38,4213.55 2883.55,4200.57 2890.49,4188.02C2896.03,4177.99 2901.72,4167.71 2909.47,4163.98L2909.47,4236.24L2773.48,4236.24L2773.48,4111.67L2868.83,4111.67C2872.25,4111.67 2875.08,4108.85 2875.08,4105.42C2875.08,4102 2872.25,4099.17 2868.83,4099.17L2767.23,4099.17C2763.8,4099.17 2760.98,4102 2760.98,4105.42L2760.98,4242.5C2760.98,4245.93 2763.8,4248.75 2767.23,4248.75L2915.73,4248.75C2919.16,4248.75 2921.98,4245.93 2921.98,4242.5L2921.98,4156.28C2921.98,4152.85 2919.16,4150.03 2915.73,4150.03ZM2783.83,4149.3C2783.83,4160.62 2793.04,4169.83 2804.36,4169.83C2815.68,4169.83 2824.89,4160.62 2824.89,4149.3C2824.89,4137.98 2815.68,4128.77 2804.36,4128.77C2793.04,4128.77 2783.83,4137.98 2783.83,4149.3ZM2812.39,4149.3C2812.22,4153.59 2808.65,4157.02 2804.36,4157.02C2800.07,4157.02 2796.49,4153.59 2796.33,4149.3C2796.49,4145.01 2800.07,4141.58 2804.36,4141.58C2808.65,4141.58 2812.22,4145.01 2812.39,4149.3ZM2935.98,4100.54L2923.99,4100.54L2923.99,4088.55C2923.99,4085.12 2921.17,4082.3 2917.74,4082.3C2914.32,4082.3 2911.49,4085.12 2911.49,4088.55L2911.49,4100.53L2895.48,4100.53C2892.05,4100.53 2889.23,4103.35 2889.23,4106.78C2889.23,4110.21 2892.05,4113.03 2895.48,4113.03L2911.49,4113.03L2911.49,4129.04C2911.49,4132.47 2914.32,4135.29 2917.74,4135.29C2921.17,4135.29 2923.99,4132.47 2923.99,4129.04L2923.99,4113.04L2935.98,4113.04C2939.41,4113.04 2942.23,4110.22 2942.23,4106.79C2942.23,4103.36 2939.41,4100.54 2935.98,4100.54Z" style="fill-rule:nonzero;"/>
            </g>
        </g>
    </g>
</svg>
