<?xml version="1.0" encoding="UTF-8" standalone="no"?>
<!DOCTYPE svg PUBLIC "-//W3C//DTD SVG 1.1//EN" "http://www.w3.org/Graphics/SVG/1.1/DTD/svg11.dtd">
<svg width="100%" height="100%" viewBox="0 0 12 12" version="1.1" xmlns="http://www.w3.org/2000/svg" xmlns:xlink="http://www.w3.org/1999/xlink" xml:space="preserve" xmlns:serif="http://www.serif.com/" style="fill-rule:evenodd;clip-rule:evenodd;stroke-linejoin:round;stroke-miterlimit:2;">
    <g transform="matrix(1,0,0,1,-1039.39,-3344.94)">
        <g transform="matrix(1.00029,0,0,6.02179,-422.113,-11494)">
            <g transform="matrix(0.1383,0,0,0.0177752,1215.45,2460.66)">
                <rect x="1776" y="200" width="24" height="32" style="fill:white;fill-opacity:0.2;"/>
            </g>
            <g transform="matrix(0.1383,0,0,0.0177752,1215.45,2461.37)">
                <rect x="1776" y="200" width="24" height="32" style="fill:white;fill-opacity:0.2;"/>
            </g>
            <g transform="matrix(0.1383,0,0,0.0177752,1215.45,2462.08)">
                <rect x="1776" y="200" width="24" height="32" style="fill:white;fill-opacity:0.2;"/>
            </g>
            <g transform="matrix(0.1383,0,0,0.0177752,1219.79,2460.66)">
                <rect x="1776" y="200" width="24" height="32" style="fill:white;fill-opacity:0.2;"/>
            </g>
            <g transform="matrix(0.1383,0,0,0.0177752,1219.79,2461.37)">
                <rect x="1776" y="200" width="24" height="32" style="fill:white;fill-opacity:0.2;"/>
            </g>
            <g transform="matrix(0.1383,0,0,0.0177752,1219.79,2462.08)">
                <rect x="1776" y="200" width="24" height="32" style="fill:white;"/>
            </g>
            <g transform="matrix(0.1383,0,0,0.0177752,1224.13,2460.66)">
                <rect x="1776" y="200" width="24" height="32" style="fill:white;fill-opacity:0.2;"/>
            </g>
            <g transform="matrix(0.1383,0,0,0.0177752,1224.13,2461.37)">
                <rect x="1776" y="200" width="24" height="32" style="fill:white;fill-opacity:0.2;"/>
            </g>
            <g transform="matrix(0.1383,0,0,0.0177752,1224.13,2462.08)">
                <rect x="1776" y="200" width="24" height="32" style="fill:white;fill-opacity:0.2;"/>
            </g>
        </g>
    </g>
</svg>
