<svg id="图层_1" data-name="图层 1" xmlns="http://www.w3.org/2000/svg" viewBox="0 0 48 48"><defs><style>.cls-1{fill:#7c6ae5;}.cls-2{fill:#fff;}</style></defs><rect class="cls-1" x="2" y="2" width="44" height="44"/><path class="cls-2" d="M10.7,17.64a16,16,0,0,0,4.76,2A32.51,32.51,0,0,0,24,20.75a32.51,32.51,0,0,0,8.54-1.07,16,16,0,0,0,4.76-2c1.1-.77,1.7-1.57,1.7-2.26C39,13.17,33.15,10,24,10S9,13.17,9,15.38C9,16.07,9.6,16.87,10.7,17.64Z"/><path class="cls-2" d="M29.32,24a37.86,37.86,0,0,1-5.32.38A37.86,37.86,0,0,1,18.68,24a27.55,27.55,0,0,1-8-2.26,17.14,17.14,0,0,1-1.7-1V24c0,.7.6,1.49,1.7,2.26a15.53,15.53,0,0,0,4.76,2A31.66,31.66,0,0,0,24,29.38a31.66,31.66,0,0,0,8.54-1.08,15.53,15.53,0,0,0,4.76-2C38.4,25.49,39,24.7,39,24V20.78a17.14,17.14,0,0,1-1.7,1A27.55,27.55,0,0,1,29.32,24Z"/><path class="cls-2" d="M24,33a32,32,0,0,1-13.3-2.64A19.37,19.37,0,0,1,9,29.42v3.2C9,34.81,14.85,38,24,38s15-3.19,15-5.38v-3.2a19.37,19.37,0,0,1-1.7.94A32,32,0,0,1,24,33Z"/></svg>