<svg id="图层_1" data-name="图层 1" xmlns="http://www.w3.org/2000/svg" viewBox="0 0 48 48"><rect x="34" y="14" width="4" height="4"/><rect x="26" y="14" width="4" height="4"/><rect x="42" y="14" width="4" height="4"/><rect x="42" y="42" width="4" height="4"/><rect x="38" y="42" width="4" height="4"/><rect x="30" y="42" width="4" height="4"/><rect x="14" y="34" width="4" height="4"/><rect x="14" y="42" width="4" height="4"/><rect x="14" y="26" width="4" height="4"/><rect x="42" y="30" width="4" height="4"/><rect x="42" y="38" width="4" height="4"/><rect x="22" y="42" width="4" height="4"/><rect x="42" y="22" width="4" height="4"/><path d="M46,6V2H2V46H6V18h8v4h4V18h4V14H18V6ZM6,14V6h8v8Z"/></svg>