<?xml version="1.0" encoding="UTF-8" standalone="no"?>
<!DOCTYPE svg PUBLIC "-//W3C//DTD SVG 1.1//EN" "http://www.w3.org/Graphics/SVG/1.1/DTD/svg11.dtd">
<svg width="100%" height="100%" viewBox="0 0 18 18" version="1.1" xmlns="http://www.w3.org/2000/svg" xmlns:xlink="http://www.w3.org/1999/xlink" xml:space="preserve" xmlns:serif="http://www.serif.com/" style="fill-rule:evenodd;clip-rule:evenodd;stroke-linejoin:round;stroke-miterlimit:2;">
    <g transform="matrix(1,0,0,1,-2899.26,-4500.36)">
        <g transform="matrix(1.55482,0,0,1.48461,755.627,971.702)">
            <g transform="matrix(4.4305e-17,-0.757773,0.361778,2.32001e-17,1185.33,4225.76)">
                <rect x="2427.96" y="534.5" width="8" height="3" style="fill:white;fill-opacity:0.1;"/>
            </g>
            <g transform="matrix(4.4305e-17,-0.757773,0.361778,2.32001e-17,1195.82,4225.76)">
                <rect x="2427.96" y="534.5" width="8" height="3" style="fill:white;"/>
            </g>
            <g transform="matrix(0.723555,0,0,0.378886,-375.176,2179.8)">
                <rect x="2427.96" y="534.5" width="8" height="3" style="fill:white;"/>
            </g>
            <g transform="matrix(0.723555,-8.70004e-18,-2.6583e-17,0.378886,-375.176,2174.31)">
                <rect x="2427.96" y="534.5" width="8" height="3" style="fill:white;"/>
            </g>
            <g transform="matrix(0.723555,-8.70004e-18,-2.6583e-17,0.378886,-375.176,2185.29)">
                <rect x="2427.96" y="534.5" width="8" height="3" style="fill:white;fill-opacity:0.1;"/>
            </g>
            <g transform="matrix(2.21525e-17,0.757773,-0.361778,4.64002e-17,1578.4,540.007)">
                <rect x="2427.96" y="534.5" width="8" height="3" style="fill:white;"/>
            </g>
        </g>
    </g>
</svg>
