<?xml version="1.0" encoding="UTF-8" standalone="no"?>
<!DOCTYPE svg PUBLIC "-//W3C//DTD SVG 1.1//EN" "http://www.w3.org/Graphics/SVG/1.1/DTD/svg11.dtd">
<svg width="100%" height="100%" viewBox="0 0 7 28" version="1.1" xmlns="http://www.w3.org/2000/svg" xmlns:xlink="http://www.w3.org/1999/xlink" xml:space="preserve" xmlns:serif="http://www.serif.com/" style="fill-rule:evenodd;clip-rule:evenodd;stroke-linejoin:round;stroke-miterlimit:2;">
    <g transform="matrix(1,0,0,1,-2719.59,-4521.36)">
        <g transform="matrix(1.55482,0,0,1.48461,755.627,971.702)">
            <g transform="matrix(0.64316,0,0,0.673576,-485.989,-654.515)">
                <path d="M2723.56,4547.45L2723.55,4546.07L2722.55,4546.07L2722.56,4547.45L2720.4,4545.32L2719.7,4546.03L2723.07,4549.36L2726.4,4545.99L2725.69,4545.29L2723.56,4547.45ZM2722.52,4540.07C2722.53,4541.12 2722.53,4542.13 2722.53,4543.07L2723.53,4543.07C2723.53,4542.13 2723.53,4541.12 2723.52,4540.07L2722.52,4540.07ZM2722.49,4534.07C2722.49,4535.07 2722.5,4536.08 2722.51,4537.07L2723.51,4537.07C2723.5,4536.07 2723.49,4535.07 2723.49,4534.07L2722.49,4534.07ZM2722.46,4528.07C2722.47,4529.02 2722.47,4530.03 2722.48,4531.07L2723.48,4531.07C2723.47,4530.02 2723.47,4529.02 2723.46,4528.07L2722.46,4528.07ZM2722.44,4523.28L2722.45,4525.07L2723.45,4525.07L2723.44,4523.28L2725.59,4525.41L2726.3,4524.7L2722.93,4521.36L2719.59,4524.73L2720.3,4525.44L2722.44,4523.28Z" style="fill:white;fill-opacity:0.2;"/>
            </g>
        </g>
    </g>
</svg>
