<svg id="图层_1" data-name="图层 1" xmlns="http://www.w3.org/2000/svg" viewBox="0 0 48 48"><defs><style>.cls-1{fill:#f3641a;}.cls-2{fill:#fff;}</style></defs><rect class="cls-1" x="2" y="2" width="44" height="44"/><path class="cls-2" d="M12.77,31.7V28.4A6.25,6.25,0,0,0,12,25.47,6,6,0,0,0,10.9,24,6,6,0,0,0,12,22.53a6.25,6.25,0,0,0,.74-2.93V16.3a2.72,2.72,0,0,1,2.74-2.77H17V10.26h-1.6a5.67,5.67,0,0,0-3.49,1.21,5.81,5.81,0,0,0-1.6,1.89,6.07,6.07,0,0,0-.74,2.93v3.3a2.78,2.78,0,0,1-2.76,2.78l-.48.1v2.66l.07.49h.49A2.74,2.74,0,0,1,9.59,28.4v3.3a6.07,6.07,0,0,0,.74,2.93,5.81,5.81,0,0,0,1.6,1.89,5.75,5.75,0,0,0,3.5,1.22H17V34.48H15.45A2.73,2.73,0,0,1,12.77,31.7Z"/><path class="cls-2" d="M41.13,22.37v.25h0l0-.25a2.74,2.74,0,0,1-2.68-2.77V16.3a6.07,6.07,0,0,0-.74-2.93,5.81,5.81,0,0,0-1.6-1.89,5.75,5.75,0,0,0-3.5-1.22H31v3.26h1.57a2.73,2.73,0,0,1,2.68,2.78v3.3A6,6,0,0,0,37.1,24,6,6,0,0,0,36,25.47a6.25,6.25,0,0,0-.74,2.93v3.3a2.75,2.75,0,0,1-2.73,2.77H31v3.26h1.6a5.67,5.67,0,0,0,3.49-1.21,5.81,5.81,0,0,0,1.6-1.89,6.07,6.07,0,0,0,.74-2.93V28.4a2.76,2.76,0,0,1,2.72-2.77h.52V22.37Z"/><rect class="cls-2" x="15.59" y="22.07" width="3.76" height="3.86"/><rect class="cls-2" x="22.12" y="22.07" width="3.76" height="3.86"/><rect class="cls-2" x="28.64" y="22.07" width="3.76" height="3.86"/></svg>