<svg id="图层_1" data-name="图层 1" xmlns="http://www.w3.org/2000/svg" viewBox="0 0 48 48"><defs><style>.cls-1{fill:#2aac4a;}.cls-2{fill:#fff;}</style></defs><rect class="cls-1" x="2" y="2" width="44" height="44"/><path class="cls-2" d="M7.5,31.4V16.72h4.36a6.35,6.35,0,0,1,3.86,1A3.31,3.31,0,0,1,17,20.52v6.86a3.45,3.45,0,0,1-1.41,3,7,7,0,0,1-4,1Zm2.95-12.7V29.42h1.36A2.78,2.78,0,0,0,13.57,29a1.73,1.73,0,0,0,.52-1.39V20.52a1.79,1.79,0,0,0-.49-1.34,2.58,2.58,0,0,0-1.79-.48Z"/><path class="cls-2" d="M19.81,31.4V16.72h4.31a8.45,8.45,0,0,1,2.41.31,4.8,4.8,0,0,1,1.63.83A2.9,2.9,0,0,1,29.07,19a3.71,3.71,0,0,1,.28,1.39V21a3.59,3.59,0,0,1-.13,1,2.17,2.17,0,0,1-.39.72,3.74,3.74,0,0,1-1.51,1,2.93,2.93,0,0,1,1.53,1,3.09,3.09,0,0,1,.5,1.86v.82a3.55,3.55,0,0,1-1.32,3,6.82,6.82,0,0,1-4.2,1Zm3-12.7v4h1.33a2.78,2.78,0,0,0,2-.52,2.18,2.18,0,0,0,.5-1.54A1.88,1.88,0,0,0,26,19.2a3.16,3.16,0,0,0-2-.5Zm0,5.9v4.7H24a4,4,0,0,0,1.4-.19,1.68,1.68,0,0,0,.77-.51,1.5,1.5,0,0,0,.31-.79,7.52,7.52,0,0,0,.06-1,5.5,5.5,0,0,0-.08-1,1.6,1.6,0,0,0-.35-.7,1.72,1.72,0,0,0-.78-.42,5.1,5.1,0,0,0-1.3-.13Z"/><path class="cls-2" d="M31.72,31.4v-2L37,22.27a2.22,2.22,0,0,0,.47-.94,9.09,9.09,0,0,0,0-1c0-.18,0-.37,0-.57a1,1,0,0,0-.16-.52,1.15,1.15,0,0,0-.43-.38,1.77,1.77,0,0,0-.84-.16,1.83,1.83,0,0,0-1.06.27.89.89,0,0,0-.39.78V21H31.72V19.79a2.35,2.35,0,0,1,.34-1.23,3.28,3.28,0,0,1,1-1,4.46,4.46,0,0,1,1.38-.69,6.32,6.32,0,0,1,3.72,0,4,4,0,0,1,1.37.81,3.19,3.19,0,0,1,.76,1.18,3.82,3.82,0,0,1,.25,1.4q0,.54,0,.9a5,5,0,0,1-.11.69,2.71,2.71,0,0,1-.29.66c-.14.22-.32.48-.55.8l-4.34,6H40.5v2.1Z"/></svg>