<svg id="图层_1" data-name="图层 1" xmlns="http://www.w3.org/2000/svg" viewBox="0 0 48 48"><defs><style>.cls-1{fill:#ff4949;}.cls-2{fill:#fff;}</style></defs><rect class="cls-1" x="2" y="2" width="44" height="44"/><path class="cls-2" d="M31.38,33.3H16.64c-2.67,0-4.81-.67-5.93-3.32H8.37a8.51,8.51,0,0,0,8.27,5.31H31.36A8.5,8.5,0,0,0,39.63,30H37.31C36.19,32.63,34.05,33.3,31.38,33.3ZM16.64,14.7H31.38c2.67,0,4.81.67,5.93,3.32h2.32a8.5,8.5,0,0,0-8.27-5.31H16.64A8.51,8.51,0,0,0,8.37,18h2.34C11.83,15.36,14,14.7,16.64,14.7Zm-1.87,9.37a4,4,0,0,0-4.06-4H7.23a4,4,0,1,0,0,8h3.48A4,4,0,0,0,14.77,24.07Zm-9.67,0A2.11,2.11,0,0,1,7.23,22h3.48a2.08,2.08,0,1,1,0,4.16H7.23A2.1,2.1,0,0,1,5.1,24.07Zm19.38-1a3,3,0,0,0-3-2.93H15.68v8h1.93V24.19l3.7,3.88H24l-2-2.14A3,3,0,0,0,24.48,23Zm-3,1H17.61V22h3.88a1,1,0,1,1,0,2.08ZM29.41,22h4l1.93-1.89H29.41a4,4,0,1,0,0,7.94h4l1.93-1.89H29.4a2.08,2.08,0,1,1,0-4.16Zm8.76,3.79V20.1H35.85v8h6.67l2.32-2.27H38.17Z"/></svg>