<svg id="图层_1" data-name="图层 1" xmlns="http://www.w3.org/2000/svg" viewBox="0 0 48 48"><defs><style>.cls-1{fill:#00b294;}.cls-2{fill:#fff;}</style></defs><rect class="cls-1" x="2" y="2" width="44" height="44"/><path class="cls-2" d="M7.38,33,12.85,15h2.93L21.26,33H17.75l-1-3.88H11.92l-1,3.88Zm8.68-6.32-1.72-6.54h-.07l-1.73,6.54Z"/><path class="cls-2" d="M23,33V15h5.28a10.17,10.17,0,0,1,2.54.28,5.29,5.29,0,0,1,2,1A3.72,3.72,0,0,1,34,17.9a7.71,7.71,0,0,1,.35,2.57,9.9,9.9,0,0,1-.19,2.06,3.75,3.75,0,0,1-.81,1.57,4.79,4.79,0,0,1-1.93,1.38,8.45,8.45,0,0,1-3.17.5H26.5V33ZM26.5,17.4v6.14h1.69a4.52,4.52,0,0,0,1.65-.23,1.75,1.75,0,0,0,.86-.63,1.85,1.85,0,0,0,.33-.94c0-.37,0-.78,0-1.24s0-.82,0-1.21a2.18,2.18,0,0,0-.31-1,1.85,1.85,0,0,0-.83-.66,4.38,4.38,0,0,0-1.59-.23Z"/><path class="cls-2" d="M37.11,33V15h3.51V33Z"/></svg>