<svg id="图层_1" data-name="图层 1" xmlns="http://www.w3.org/2000/svg" viewBox="0 0 48 48"><defs><style>.cls-1{fill:#005267;}.cls-2{fill:#fff;}</style></defs><rect class="cls-1" x="2" y="2" width="44" height="44"/><path class="cls-2" d="M39.35,39.63a7.92,7.92,0,0,1-2-1.59l-.09-.11c1.47-.21,2.93-.47,4.39-.79l2.3-.5-1.53-1.78a19,19,0,0,0-4.57-3.79c-.84-.51-1.69-1-2.56-1.38-.69-.32-1.37-.61-2.09-.88L32,25.9c-.53-1.15-1.15-2.27-1.73-3.41s-1.31-2.2-2-3.3-1.44-2.14-2.3-3.12a25.17,25.17,0,0,0-5.76-5.36,16.58,16.58,0,0,0-3.61-1.84,13.57,13.57,0,0,0-2-.56A11.8,11.8,0,0,0,13,8.13a15.87,15.87,0,0,0-2-1.51A6.67,6.67,0,0,0,7.55,5.48a3.22,3.22,0,0,0-2.28,1,3.11,3.11,0,0,0-.41.63A2.26,2.26,0,0,0,4.65,8a2.75,2.75,0,0,0,.27,1.37,30,30,0,0,0,1.7,2.53A5.73,5.73,0,0,1,7.51,14a18.91,18.91,0,0,0,.76,3,18.44,18.44,0,0,0,1.22,2.83c.13.23.27.46.42.7a3.94,3.94,0,0,0,.72.87l.08.06A25.72,25.72,0,0,0,10,24.33a15.89,15.89,0,0,0-.25,3.54,8.46,8.46,0,0,0,1,3.72,5.87,5.87,0,0,0,1.34,1.61,4.88,4.88,0,0,0,2,1.07l1.91.5-.23-2.05A9.13,9.13,0,0,1,16,29.86h0a22.49,22.49,0,0,0,1.83,2.67,21.44,21.44,0,0,0,4.55,4.33A20.84,20.84,0,0,1,19,31.77a21.49,21.49,0,0,1-1.76-5.63h0l-.57-3-1.88,2.51a8.07,8.07,0,0,0-1,1.8,11.12,11.12,0,0,0-.56,1.84c0,.19-.07.38-.1.58a5.86,5.86,0,0,1-.52-2.16,12.43,12.43,0,0,1,.21-2.89,26.55,26.55,0,0,1,.72-3l.08-.28v-.21a4.08,4.08,0,0,0-.24-1.14,2.21,2.21,0,0,0-.49-.78,2.07,2.07,0,0,0-.41-.3,2.1,2.1,0,0,1-.15-.22A5.1,5.1,0,0,1,12,18.4a15.82,15.82,0,0,1-1-2.38,16.89,16.89,0,0,1-.65-2.54A8.6,8.6,0,0,0,9,10.35c-.52-.79-1.16-1.56-1.42-2l.06,0A4.16,4.16,0,0,1,9.49,9a14.46,14.46,0,0,1,2,1.54L12,11l.66-.07a7.26,7.26,0,0,1,1.43.12,10.09,10.09,0,0,1,1.58.45,14,14,0,0,1,3,1.54,22.49,22.49,0,0,1,5.12,4.78c.79.89,1.41,1.93,2.13,2.89s1.27,2.05,1.85,3.11S28.9,26,29.41,27.1l1.47,3.35.27.6.6.21a23.48,23.48,0,0,1,2.38,1,25.1,25.1,0,0,1,2.29,1.24,17.48,17.48,0,0,1,2,1.42c-1.23.22-2.46.4-3.67.52h0l-2.64.25,1.56,1.9A10.18,10.18,0,0,0,36,39.66a9.77,9.77,0,0,0,2.72,1.25,11,11,0,0,1,4.38,2.94A11.54,11.54,0,0,0,39.35,39.63ZM12.21,19a.5.5,0,0,1,.14.08.6.6,0,0,0-.11-.06L12.05,19A.76.76,0,0,1,12.21,19Zm-1.08,2.61,0,0,.14.06Z"/><path class="cls-2" d="M13.49,12.74s1.21,1.42,1.81,2.34a1.66,1.66,0,0,0,0-2A1.51,1.51,0,0,0,13.49,12.74Z"/></svg>