<svg id="图层_1" data-name="图层 1" xmlns="http://www.w3.org/2000/svg" viewBox="0 0 48 48"><defs><style>.cls-1{fill:#ef8d22;}.cls-2{fill:#fff;}</style></defs><rect class="cls-1" x="2" y="2" width="44" height="44"/><path class="cls-2" d="M7.38,31.21l4.37-14.42h2.34l4.37,14.42H15.65l-.82-3.1H11l-.83,3.1Zm6.93-5-1.38-5.23h0L11.5,26.17Z"/><path class="cls-2" d="M19.83,31.21V16.79H24a6,6,0,0,1,3.67,1,3.31,3.31,0,0,1,1.25,2.76v6.74a3.46,3.46,0,0,1-1.33,3,6.52,6.52,0,0,1-3.84,1Zm2.81-12.47V29.26h1.29a2.55,2.55,0,0,0,1.68-.43,1.74,1.74,0,0,0,.49-1.37V20.52a1.78,1.78,0,0,0-.46-1.32,2.43,2.43,0,0,0-1.71-.46Z"/><path class="cls-2" d="M40.62,20.94h-2.8v-.46a1.81,1.81,0,0,0-.45-1.23,2,2,0,0,0-1.53-.51,2.27,2.27,0,0,0-.94.16,1.76,1.76,0,0,0-.57.4,1.56,1.56,0,0,0-.31.6,3.19,3.19,0,0,0-.08.7,4.78,4.78,0,0,0,0,.71,1.12,1.12,0,0,0,.21.5,1.37,1.37,0,0,0,.48.39,5.12,5.12,0,0,0,.87.32l2.14.63a5.88,5.88,0,0,1,1.51.62,2.91,2.91,0,0,1,.91.82,3,3,0,0,1,.41,1.1,7.47,7.47,0,0,1,.11,1.41,5.7,5.7,0,0,1-.24,1.69,3.27,3.27,0,0,1-.8,1.33,4.2,4.2,0,0,1-1.51.89,7.27,7.27,0,0,1-2.29.32,6.74,6.74,0,0,1-1.89-.26,5,5,0,0,1-1.52-.73,3.69,3.69,0,0,1-1-1.09A2.53,2.53,0,0,1,31,27.91v-.77h2.8v.65a1.41,1.41,0,0,0,.46,1,2.11,2.11,0,0,0,1.52.45,3.32,3.32,0,0,0,1.12-.15A1.26,1.26,0,0,0,37.78,28a7.9,7.9,0,0,0,0-.88,5.85,5.85,0,0,0-.06-.93,1.22,1.22,0,0,0-.22-.59,1.27,1.27,0,0,0-.5-.36,8.24,8.24,0,0,0-.84-.31l-2-.61a4.42,4.42,0,0,1-2.44-1.44,3.93,3.93,0,0,1-.61-2.26,4,4,0,0,1,.3-1.54,3.31,3.31,0,0,1,.91-1.26A4.17,4.17,0,0,1,33.82,17,6.38,6.38,0,0,1,36,16.67a6.08,6.08,0,0,1,1.91.28,5.27,5.27,0,0,1,1.5.75,2.79,2.79,0,0,1,1.26,2.23Z"/></svg>