<svg id="图层_1" data-name="图层 1" xmlns="http://www.w3.org/2000/svg" viewBox="0 0 48 48"><defs><style>.cls-1{fill:#36a2ea;}.cls-2{fill:#fff;}</style></defs><rect class="cls-1" x="2" y="2" width="44" height="44"/><path class="cls-2" d="M30.45,9.92a13.55,13.55,0,0,0-3.69.54l-.08,0a13.56,13.56,0,0,0-2.29-.22,7.62,7.62,0,0,0-4,1,15.55,15.55,0,0,0-5.66-.89,6.88,6.88,0,0,0-4.75,2c-1.33,1.4-2,3.56-1.88,6.51a25.53,25.53,0,0,0,.66,3.85,43.29,43.29,0,0,0,1.6,5.56,12.11,12.11,0,0,0,2.56,4.6,3.21,3.21,0,0,0,2.3,1A3,3,0,0,0,17,33.14a2.19,2.19,0,0,0,.76.6,3.83,3.83,0,0,0,.91.36,6.48,6.48,0,0,0,2.61.13,4.9,4.9,0,0,0,1.17-.36c0,.44,0,.87.05,1.31A12.46,12.46,0,0,0,23,39a5,5,0,0,0,1,2,3.91,3.91,0,0,0,3.75,1,5.5,5.5,0,0,0,3.55-2.05c.95-1.36,1.38-3.3,1.47-6.44a3.5,3.5,0,0,1,.07-.45L33,33h0a8,8,0,0,0,3.63-.63,4.88,4.88,0,0,0,2.25-1.72,1.64,1.64,0,0,0,.33-.86,1.74,1.74,0,0,0-.6-1.37,1.8,1.8,0,0,0-1.84-.27,7.88,7.88,0,0,1-1.61.2,31.08,31.08,0,0,0,3.3-7.83,17.41,17.41,0,0,0,.6-3.94,4.6,4.6,0,0,0-.78-3.1,9.55,9.55,0,0,0-7.63-3.58Zm-.06.86A8.71,8.71,0,0,1,37.57,14a4,4,0,0,1,.58,2.52,16.62,16.62,0,0,1-.57,3.74A30.13,30.13,0,0,1,33.7,29a1,1,0,0,0,.21.11A5.64,5.64,0,0,0,37,29a1.19,1.19,0,0,1,1.11.1.71.71,0,0,1,.24.57,1.08,1.08,0,0,1-.17.45,4.61,4.61,0,0,1-1.88,1.4,7.51,7.51,0,0,1-2.83.55,4.48,4.48,0,0,1-1.32-.15h0c-.14,1.42-.48,4.22-.7,5.5a4.51,4.51,0,0,1-1.08,2.46,4.78,4.78,0,0,1-2.55,1.23,3.46,3.46,0,0,1-3-.58,4.08,4.08,0,0,1-1.13-1.72,4.71,4.71,0,0,1-.25-1.24c-.06-.53-.11-1.19-.14-1.92,0-1.13-.05-2.25,0-3.38a4.08,4.08,0,0,1-2.08,1,5.51,5.51,0,0,1-2.24-.12,2.91,2.91,0,0,1-.69-.27,1.25,1.25,0,0,1-.59-.53.76.76,0,0,1-.08-.51.9.9,0,0,1,.29-.45A2.71,2.71,0,0,1,18.89,31a3.51,3.51,0,0,0,1.5-.5,7.92,7.92,0,0,0,.72-.83v0a4,4,0,0,1-1.78-.48c-.2.21-1.23,1.29-2.48,2.8a2.43,2.43,0,0,1-1.72,1,2.23,2.23,0,0,1-1.64-.74,11.87,11.87,0,0,1-2.35-4.26,45.64,45.64,0,0,1-1.56-5.45A25.83,25.83,0,0,1,9,18.78c-.14-2.79.51-4.67,1.63-5.85a5.94,5.94,0,0,1,4.14-1.72,14.75,14.75,0,0,1,5.75,1,6.67,6.67,0,0,1,3.88-1.07,10.05,10.05,0,0,1,2.25.29h0a9.17,9.17,0,0,1,1-.28,12.37,12.37,0,0,1,2.78-.34Zm.2.89H30.4a12.55,12.55,0,0,0-2.29.26,10.11,10.11,0,0,1,3.82,3,11.15,11.15,0,0,1,1.52,2.58,7.7,7.7,0,0,1,.3.88,1.24,1.24,0,0,1,0,.31.67.67,0,0,1,0,.2v0c0,1.17-.25,2-.29,3.08,0,.81.18,1.77.23,2.81a5.23,5.23,0,0,1-.7,3.1l.15.2a29.42,29.42,0,0,0,3.54-8.07,15.67,15.67,0,0,0,.54-3.52,3.41,3.41,0,0,0-.39-2,7.69,7.69,0,0,0-6.27-2.9ZM24.18,12a5.34,5.34,0,0,0-3.58,1.2A6.68,6.68,0,0,0,18.72,16,11.82,11.82,0,0,0,18,19.24h0a6.74,6.74,0,0,1,1.78-.69,3.53,3.53,0,0,1,2.06.05,2.33,2.33,0,0,1,1.39,1.76c.94,4.36-.29,6-.75,7.21a12.52,12.52,0,0,0-.44,1.35,1,1,0,0,1,.17,0A1.52,1.52,0,0,1,23,29a1.78,1.78,0,0,1,.94,1.05,2.34,2.34,0,0,1,.09.38.47.47,0,0,1,0,.17c-.05,1.67-.05,3.34,0,5,0,.72.07,1.36.13,1.86a5.6,5.6,0,0,0,.19,1,3.3,3.3,0,0,0,.88,1.37,2.46,2.46,0,0,0,2.28.38,3.88,3.88,0,0,0,2.09-1,3.54,3.54,0,0,0,.84-2c.24-1.41.73-5.48.79-6.25a2.58,2.58,0,0,1,.24-1.36,1.68,1.68,0,0,1,1.09-.8l-.33-.44A5.66,5.66,0,0,1,31.38,27c-.11-.22-.22-.44-.35-.65s-.4-.72-.63-1.17a13.91,13.91,0,0,1-1.25-3.07,3.19,3.19,0,0,1,.37-2.95c.6-.69,1.66-1,3.25-.81-.05-.14-.07-.26-.15-.45a10.42,10.42,0,0,0-1.4-2.36A8.63,8.63,0,0,0,24.33,12Zm-8.9.07h-.5a5.11,5.11,0,0,0-3.55,1.44c-.92,1-1.52,2.56-1.39,5.19a30,30,0,0,0,.62,3.55A42.22,42.22,0,0,0,12,27.61a11.54,11.54,0,0,0,2.13,3.94,1.36,1.36,0,0,0,1,.48,1.56,1.56,0,0,0,1.07-.69c.78-.94,1.58-1.86,2.42-2.74A4.68,4.68,0,0,1,17,24.38a16,16,0,0,0,.14-2.65c0-.71-.07-1.18-.07-1.48v0h0a13.4,13.4,0,0,1,.79-4.52,7.87,7.87,0,0,1,1.77-2.83,15.26,15.26,0,0,0-3.86-.76Zm16.61,7.07a2.21,2.21,0,0,0-1.69.55A2.4,2.4,0,0,0,30,21.85a14.19,14.19,0,0,0,1.17,2.87c.23.44.45.83.63,1.15a8.2,8.2,0,0,1,.39.74,4.47,4.47,0,0,0,.24.49,4.6,4.6,0,0,0,.38-2.24c0-.94-.27-1.9-.24-2.87,0-1.14.27-1.89.29-2.77a8.22,8.22,0,0,0-1-.06Zm-11,.15a4.48,4.48,0,0,0-.82.1,6.64,6.64,0,0,0-1.55.6,3.46,3.46,0,0,0-.47.31l0,0c0,.19.05.67.07,1.36a19.22,19.22,0,0,1-.15,2.79,3.55,3.55,0,0,0,3.29,4.19,13.77,13.77,0,0,1,.49-1.45c.54-1.46,1.61-2.53.71-6.7a1.3,1.3,0,0,0-.84-1.11,2.06,2.06,0,0,0-.7-.12Zm10.6.28h.07a1,1,0,0,1,.24,0,.48.48,0,0,1,.18.07.2.2,0,0,1,.1.15h0A.3.3,0,0,1,32,20a1,1,0,0,1-.15.2.89.89,0,0,1-.52.28.77.77,0,0,1-.55-.13,1.29,1.29,0,0,1-.17-.16.56.56,0,0,1-.09-.17.24.24,0,0,1,.06-.17.38.38,0,0,1,.16-.12,1.34,1.34,0,0,1,.5-.16l.21,0ZM21,19.81l.22,0a1.51,1.51,0,0,1,.53.16.86.86,0,0,1,.18.14.33.33,0,0,1,.07.23.41.41,0,0,1-.1.21,1,1,0,0,1-.19.17.81.81,0,0,1-.6.15,1,1,0,0,1-.57-.3,1.07,1.07,0,0,1-.15-.22.31.31,0,0,1,.2-.5,1.13,1.13,0,0,1,.41-.05Zm12.13,9.83h0c-.2.08-.36.11-.5.17a.59.59,0,0,0-.32.28,1.71,1.71,0,0,0-.13.89.5.5,0,0,0,.19.1,4,4,0,0,0,1,.11,7,7,0,0,0,2.46-.47,5.29,5.29,0,0,0,1.26-.83h0a6.18,6.18,0,0,1-3.56,0,2.07,2.07,0,0,1-.45-.27Zm-10.75.13h0c-.07,0-.17,0-.37.25a10,10,0,0,1-1,1.16,4.27,4.27,0,0,1-1.88.67,2.77,2.77,0,0,0-.62.19l.1.08a2.18,2.18,0,0,0,.48.19,4.74,4.74,0,0,0,1.87.1A3.17,3.17,0,0,0,23.05,31a.67.67,0,0,0,0-.64,1,1,0,0,0-.44-.53.92.92,0,0,0-.27-.08Z"/></svg>