<?xml version="1.0" encoding="UTF-8" standalone="no"?>
<!DOCTYPE svg PUBLIC "-//W3C//DTD SVG 1.1//EN" "http://www.w3.org/Graphics/SVG/1.1/DTD/svg11.dtd">
<svg width="100%" height="100%" viewBox="0 0 80 80" version="1.1" xmlns="http://www.w3.org/2000/svg" xmlns:xlink="http://www.w3.org/1999/xlink" xml:space="preserve" xmlns:serif="http://www.serif.com/" style="fill-rule:evenodd;clip-rule:evenodd;stroke-linecap:round;stroke-linejoin:round;stroke-miterlimit:1;">
    <g transform="matrix(1,0,0,1,-209,-244)">
        <g transform="matrix(0.494183,0,0,0.494183,-1289.53,416.385)">
            <g>
                <g transform="matrix(1.05457,0,0,1.05457,2125.45,-313.591)">
                    <rect x="859.943" y="-33.506" width="153.506" height="153.506" style="fill:none;"/>
                </g>
                <g transform="matrix(1.82658,0,0,1.82658,-4690.87,-2506.71)">
                    <g transform="matrix(1.2028,0,0,1.25927,2845.83,-1713.52)">
                        <path d="M1153.05,2356.73L1165.6,2343L1179.2,2341L1192.8,2310.62L1206.4,2327L1220,2322" style="fill:none;stroke:rgb(17,155,255);stroke-width:1.8px;"/>
                    </g>
                    <g transform="matrix(3.54506,0,0,3.54506,213.006,-7156.99)">
                        <circle cx="1152" cy="2362" r="1" style="fill:rgb(51,211,255);"/>
                        <path d="M1152,2361C1152.55,2361 1153,2361.45 1153,2362C1153,2362.55 1152.55,2363 1152,2363C1151.45,2363 1151,2362.55 1151,2362C1151,2361.45 1151.45,2361 1152,2361ZM1152,2361.31C1152.38,2361.31 1152.69,2361.62 1152.69,2362C1152.69,2362.38 1152.38,2362.69 1152,2362.69C1151.62,2362.69 1151.31,2362.38 1151.31,2362C1151.31,2361.62 1151.62,2361.31 1152,2361.31Z" style="fill:rgb(17,155,255);"/>
                    </g>
                    <g transform="matrix(3.54506,0,0,3.54506,228.227,-7163.02)">
                        <circle cx="1152" cy="2362" r="1" style="fill:rgb(51,211,255);"/>
                        <path d="M1152,2361C1152.55,2361 1153,2361.45 1153,2362C1153,2362.55 1152.55,2363 1152,2363C1151.45,2363 1151,2362.55 1151,2362C1151,2361.45 1151.45,2361 1152,2361ZM1152,2361.31C1152.38,2361.31 1152.69,2361.62 1152.69,2362C1152.69,2362.38 1152.38,2362.69 1152,2362.69C1151.62,2362.69 1151.31,2362.38 1151.31,2362C1151.31,2361.62 1151.62,2361.31 1152,2361.31Z" style="fill:rgb(17,155,255);"/>
                    </g>
                    <g transform="matrix(3.54506,0,0,3.54506,196.678,-7176.72)">
                        <circle cx="1152" cy="2362" r="1" style="fill:rgb(51,211,255);"/>
                        <path d="M1152,2361C1152.55,2361 1153,2361.45 1153,2362C1153,2362.55 1152.55,2363 1152,2363C1151.45,2363 1151,2362.55 1151,2362C1151,2361.45 1151.45,2361 1152,2361ZM1152,2361.31C1152.38,2361.31 1152.69,2361.62 1152.69,2362C1152.69,2362.38 1152.38,2362.69 1152,2362.69C1151.62,2362.69 1151.31,2362.38 1151.31,2362C1151.31,2361.62 1151.62,2361.31 1152,2361.31Z" style="fill:rgb(17,155,255);"/>
                    </g>
                    <g transform="matrix(3.54506,0,0,3.54506,180.35,-7139.2)">
                        <circle cx="1152" cy="2362" r="1" style="fill:rgb(51,211,255);"/>
                        <path d="M1152,2361C1152.55,2361 1153,2361.45 1153,2362C1153,2362.55 1152.55,2363 1152,2363C1151.45,2363 1151,2362.55 1151,2362C1151,2361.45 1151.45,2361 1152,2361ZM1152,2361.31C1152.38,2361.31 1152.69,2361.62 1152.69,2362C1152.69,2362.38 1152.38,2362.69 1152,2362.69C1151.62,2362.69 1151.31,2362.38 1151.31,2362C1151.31,2361.62 1151.62,2361.31 1152,2361.31Z" style="fill:rgb(17,155,255);"/>
                    </g>
                    <g transform="matrix(3.54506,0,0,3.54506,164.021,-7136.31)">
                        <circle cx="1152" cy="2362" r="1" style="fill:rgb(51,211,255);"/>
                        <path d="M1152,2361C1152.55,2361 1153,2361.45 1153,2362C1153,2362.55 1152.55,2363 1152,2363C1151.45,2363 1151,2362.55 1151,2362C1151,2361.45 1151.45,2361 1152,2361ZM1152,2361.31C1152.38,2361.31 1152.69,2361.62 1152.69,2362C1152.69,2362.38 1152.38,2362.69 1152,2362.69C1151.62,2362.69 1151.31,2362.38 1151.31,2362C1151.31,2361.62 1151.62,2361.31 1152,2361.31Z" style="fill:rgb(17,155,255);"/>
                    </g>
                    <g transform="matrix(3.54506,0,0,3.54506,148.801,-7119.19)">
                        <circle cx="1152" cy="2362" r="1" style="fill:rgb(51,211,255);"/>
                        <path d="M1152,2361C1152.55,2361 1153,2361.45 1153,2362C1153,2362.55 1152.55,2363 1152,2363C1151.45,2363 1151,2362.55 1151,2362C1151,2361.45 1151.45,2361 1152,2361ZM1152,2361.31C1152.38,2361.31 1152.69,2361.62 1152.69,2362C1152.69,2362.38 1152.38,2362.69 1152,2362.69C1151.62,2362.69 1151.31,2362.38 1151.31,2362C1151.31,2361.62 1151.62,2361.31 1152,2361.31Z" style="fill:rgb(17,155,255);"/>
                    </g>
                </g>
            </g>
        </g>
        <g transform="matrix(1,0,0,1,206.54,255.555)">
            <text x="12.137px" y="35.609px" style="font-family:'ArialMT', 'Arial', sans-serif;font-size:20px;fill:white;">DEMO</text>
        </g>
    </g>
</svg>
