<?xml version="1.0" encoding="UTF-8" standalone="no"?>
<!DOCTYPE svg PUBLIC "-//W3C//DTD SVG 1.1//EN" "http://www.w3.org/Graphics/SVG/1.1/DTD/svg11.dtd">
<svg width="100%" height="100%" viewBox="0 0 80 80" version="1.1" xmlns="http://www.w3.org/2000/svg" xmlns:xlink="http://www.w3.org/1999/xlink" xml:space="preserve" xmlns:serif="http://www.serif.com/" style="fill-rule:evenodd;clip-rule:evenodd;stroke-miterlimit:10;">
    <g transform="matrix(1,0,0,1,-1868.05,-2737.74)">
        <g transform="matrix(1,0,0,1,3325.04,644.064)">
            <g transform="matrix(0.521152,0,0,0.521152,-1905.15,2111.14)">
                <rect x="859.943" y="-33.506" width="153.506" height="153.506" style="fill:none;"/>
            </g>
            <g transform="matrix(1,0,0,1,1216.03,0)">
                <g transform="matrix(0.93877,0,0,0.93877,-2618.86,2145.91)">
                    <path d="M0,-44.912C-16.82,-11.874 16.462,2.85 16.462,2.85C-15.355,-12.867 -9.542,-46.909 -8.689,-47.762" style="fill:none;fill-rule:nonzero;stroke:white;stroke-opacity:0.5;stroke-width:0.27px;"/>
                </g>
                <g transform="matrix(0.93877,0,0,0.93877,-2603.89,2140.26)">
                    <path d="M0,-23.701C-31.23,-6.93 0.509,8.866 0.509,8.866C-31.204,-6.956 -8.085,-30.702 -6.773,-32.567" style="fill:none;fill-rule:nonzero;stroke:white;stroke-opacity:0.5;stroke-width:0.27px;"/>
                </g>
                <g transform="matrix(0.93877,0,0,0.93877,-2648.47,2103.75)">
                    <path d="M0,63.518C16.259,31.96 51.165,25.869 51.165,25.869C16.285,31.987 1.972,1.056 0.917,0" style="fill:none;fill-rule:nonzero;stroke:white;stroke-opacity:0.5;stroke-width:0.27px;"/>
                </g>
                <g transform="matrix(0.834481,-0.430037,-0.430037,-0.834481,-2647.13,2168.48)">
                    <path d="M-3.761,15.509C30.129,26.084 33.701,25.478 63.949,15.509" style="fill:none;fill-rule:nonzero;stroke:white;stroke-opacity:0.5;stroke-width:0.27px;"/>
                </g>
                <g transform="matrix(0.93877,0,0,0.93877,-2638.48,2100.77)">
                    <path d="M0,70.188C5.592,35.115 21.837,66.692 21.837,66.692C5.592,35.167 1.013,3.573 1.013,0" style="fill:none;fill-rule:nonzero;stroke:white;stroke-opacity:0.5;stroke-width:0.27px;"/>
                </g>
                <g transform="matrix(0.93877,0,0,0.93877,-2666.18,2158.13)">
                    <path d="M0,-20.839C35.238,-26.431 51.285,4.56 51.342,5.592C35.162,-25.959 4.564,-10.974 3.338,-10.151" style="fill:none;fill-rule:nonzero;stroke:white;stroke-opacity:0.5;stroke-width:0.27px;"/>
                </g>
                <g transform="matrix(0.93877,0,0,0.93877,-2662.6,2163.38)">
                    <path d="M0,-48.217C31.343,-31.525 47.536,0 47.536,0C31.343,-31.577 -2.132,-37.628 -3.645,-37.628" style="fill:none;fill-rule:nonzero;stroke:white;stroke-opacity:0.5;stroke-width:0.27px;"/>
                </g>
                <g transform="matrix(0.54526,0.764187,0.764187,-0.54526,-2626.4,2105.4)">
                    <path d="M-14.712,-28.571C20.388,-23.502 20.342,-23.453 55.483,-28.571" style="fill:none;fill-rule:nonzero;stroke:white;stroke-opacity:0.5;stroke-width:0.27px;"/>
                </g>
                <g transform="matrix(-0.900787,-0.264334,-0.264334,0.900787,-2619.98,2105.48)">
                    <path d="M-0.618,-4.301C-1.83,-4.3 -2.813,-3.318 -2.813,-2.106C-2.812,-0.894 -1.83,0.089 -0.618,0.089C0.594,0.088 1.577,-0.894 1.577,-2.106C1.576,-3.318 0.594,-4.301 -0.618,-4.301" style="fill:rgb(62,191,218);fill-rule:nonzero;"/>
                </g>
                <g transform="matrix(-0.307828,-0.886866,-0.886866,0.307828,-2602.31,2125.67)">
                    <path d="M-3.039,-4.272C-4.817,-4.273 -6.257,-2.832 -6.258,-1.055C-6.257,0.722 -4.817,2.162 -3.039,2.162C-1.263,2.163 0.177,0.722 0.177,-1.055C0.178,-2.832 -1.262,-4.272 -3.039,-4.272" style="fill:rgb(17,155,255);fill-rule:nonzero;"/>
                </g>
                <g transform="matrix(0.277534,-0.896808,-0.896808,-0.277534,-2601.14,2145.27)">
                    <path d="M-4.093,-3.017C-6.458,-3.017 -8.376,-1.098 -8.377,1.267C-8.377,3.633 -6.459,5.551 -4.093,5.551C-1.727,5.552 0.192,3.633 0.191,1.267C0.191,-1.099 -1.726,-3.017 -4.093,-3.017" style="fill:rgb(17,155,255);fill-rule:nonzero;"/>
                </g>
                <g transform="matrix(0.754893,-0.558056,-0.558056,-0.754893,-2612.14,2165.17)">
                    <path d="M-3.869,-1.275C-7.463,-1.275 -10.376,1.639 -10.376,5.234C-10.376,8.827 -7.462,11.741 -3.869,11.741C-0.273,11.741 2.64,8.826 2.64,5.233C2.639,1.639 -0.275,-1.275 -3.869,-1.275" style="fill:rgb(17,155,255);fill-rule:nonzero;"/>
                </g>
                <g transform="matrix(0.938768,-0.00213842,-0.00213842,-0.938768,-2638.47,2168.72)">
                    <path d="M-0.005,0C-1.217,0.001 -2.2,0.983 -2.2,2.194C-2.2,3.407 -1.217,4.39 -0.005,4.39C1.207,4.39 2.19,3.407 2.189,2.195C2.189,0.983 1.207,0 -0.005,0" style="fill:rgb(255,189,109);fill-rule:nonzero;"/>
                </g>
                <g transform="matrix(0.892649,0.290635,0.290635,-0.892649,-2649.68,2165.05)">
                    <path d="M0.68,-0.108C-0.532,-0.108 -1.515,0.874 -1.515,2.088C-1.515,3.299 -0.533,4.281 0.68,4.282C1.891,4.282 2.874,3.3 2.874,2.086C2.874,0.875 1.892,-0.107 0.68,-0.108" style="fill:rgb(255,189,109);fill-rule:nonzero;"/>
                </g>
                <g transform="matrix(0.757586,0.554394,0.554394,-0.757586,-2658.9,2157.78)">
                    <path d="M1.296,-0.424C0.084,-0.423 -0.899,0.559 -0.899,1.771C-0.898,2.983 0.084,3.966 1.296,3.966C2.508,3.965 3.491,2.983 3.491,1.771C3.49,0.559 2.508,-0.424 1.296,-0.424" style="fill:rgb(255,189,109);fill-rule:nonzero;"/>
                </g>
                <g transform="matrix(0.546943,0.762983,0.762983,-0.546943,-2664.99,2147.94)">
                    <path d="M1.783,-0.916C0.571,-0.917 -0.411,0.066 -0.412,1.279C-0.411,2.491 0.571,3.473 1.783,3.473C2.996,3.472 3.978,2.49 3.978,1.278C3.978,0.066 2.995,-0.916 1.783,-0.916" style="fill:rgb(255,234,146);fill-rule:nonzero;"/>
                </g>
                <g transform="matrix(0.28168,0.895515,0.895515,-0.28168,-2667.36,2136.87)">
                    <path d="M2.093,-1.536C0.881,-1.536 -0.102,-0.554 -0.101,0.659C-0.102,1.871 0.88,2.854 2.093,2.854C3.305,2.853 4.287,1.871 4.288,0.659C4.288,-0.553 3.305,-1.535 2.093,-1.536" style="fill:rgb(255,234,146);fill-rule:nonzero;"/>
                </g>
                <g transform="matrix(-0.0115493,0.938699,0.938699,0.0115493,-2665.97,2125.99)">
                    <path d="M2.195,-2.221C0.983,-2.221 0,-1.239 0.001,-0.027C0.001,1.185 0.983,2.168 2.195,2.168C3.407,2.168 4.389,1.185 4.39,-0.027C4.39,-1.238 3.407,-2.221 2.195,-2.221" style="fill:rgb(255,234,146);fill-rule:nonzero;"/>
                </g>
                <g transform="matrix(-0.303722,0.888281,0.888281,0.303722,-2661.34,2116.48)">
                    <path d="M2.077,-2.905C0.865,-2.904 -0.118,-1.922 -0.118,-0.709C-0.119,0.502 0.864,1.484 2.077,1.485C3.288,1.484 4.271,0.503 4.271,-0.709C4.272,-1.922 3.289,-2.904 2.077,-2.905" style="fill:rgb(181,228,170);fill-rule:nonzero;"/>
                </g>
                <g transform="matrix(0,-0.93877,-0.93877,0,-2610.25,2107.63)">
                    <path d="M-2.194,-2.195C-3.406,-2.195 -4.389,-1.213 -4.389,-0.001C-4.389,1.212 -3.406,2.194 -2.194,2.194C-0.982,2.194 0,1.212 0,-0.001C0,-1.213 -0.982,-2.195 -2.194,-2.195" style="fill:rgb(62,191,218);fill-rule:nonzero;"/>
                </g>
                <g transform="matrix(0,-0.93877,-0.93877,0,-2603.89,2115.95)">
                    <path d="M-2.195,-2.194C-3.407,-2.194 -4.389,-1.212 -4.389,0C-4.389,1.213 -3.407,2.195 -2.195,2.195C-0.982,2.195 0,1.213 0,0C0,-1.212 -0.982,-2.194 -2.195,-2.194" style="fill:rgb(17,155,255);fill-rule:nonzero;"/>
                </g>
                <g transform="matrix(-0.56545,0.749371,0.749371,0.56545,-2654.27,2109.17)">
                    <path d="M1.752,-3.517C0.54,-3.517 -0.442,-2.534 -0.443,-1.322C-0.442,-0.109 0.54,0.873 1.752,0.873C2.964,0.872 3.947,-0.11 3.947,-1.322C3.947,-2.534 2.964,-3.516 1.752,-3.517" style="fill:rgb(181,228,170);fill-rule:nonzero;"/>
                </g>
                <g transform="matrix(-0.770955,0.535647,0.535647,0.770955,-2645.68,2104.47)">
                    <path d="M1.251,-3.998C0.04,-3.998 -0.943,-3.015 -0.944,-1.803C-0.943,-0.591 0.039,0.391 1.251,0.39C2.464,0.392 3.446,-0.591 3.446,-1.803C3.447,-3.015 2.464,-3.998 1.251,-3.998" style="fill:rgb(108,221,195);fill-rule:nonzero;"/>
                </g>
                <g transform="matrix(-0.89952,0.268615,0.268615,0.89952,-2636.4,2102.49)">
                    <path d="M0.628,-4.298C-0.584,-4.298 -1.567,-3.316 -1.566,-2.103C-1.567,-0.89 -0.584,0.091 0.628,0.092C1.841,0.092 2.823,-0.89 2.823,-2.103C2.823,-3.316 1.841,-4.298 0.628,-4.298" style="fill:rgb(108,221,195);fill-rule:nonzero;"/>
                </g>
                <g transform="matrix(-0.938431,-0.0252358,-0.0252358,0.938431,-2627.13,2103.13)">
                    <path d="M-0.06,-4.389C-1.271,-4.388 -2.254,-3.406 -2.255,-2.194C-2.254,-0.982 -1.271,0 -0.06,0.001C1.152,0 2.135,-0.982 2.135,-2.194C2.134,-3.405 1.152,-4.388 -0.06,-4.389" style="fill:rgb(108,221,195);fill-rule:nonzero;"/>
                </g>
            </g>
        </g>
    </g>
</svg>
