<?xml version="1.0" encoding="UTF-8" standalone="no"?>
<!DOCTYPE svg PUBLIC "-//W3C//DTD SVG 1.1//EN" "http://www.w3.org/Graphics/SVG/1.1/DTD/svg11.dtd">
<svg width="100%" height="100%" viewBox="0 0 12 12" version="1.1" xmlns="http://www.w3.org/2000/svg" xmlns:xlink="http://www.w3.org/1999/xlink" xml:space="preserve" xmlns:serif="http://www.serif.com/" style="fill-rule:evenodd;clip-rule:evenodd;stroke-linejoin:round;stroke-miterlimit:2;">
    <g transform="matrix(1,0,0,1,-143.078,-2848.78)">
        <g transform="matrix(1.00029,0,0,4.16667,-1176.45,-7224.41)">
            <g transform="matrix(0.101568,0,0,0.0867137,1200.02,2210.85)">
                <g transform="matrix(0.590561,0,0,0.166064,1172.74,2383.87)">
                    <path d="M100,0C44.766,0 0,44.766 0,100C0,155.234 44.766,200 100,200C155.234,200 200,155.234 200,100C200,44.766 155.234,0 100,0ZM100,181.816C54.883,181.816 18.184,145.117 18.184,100C18.184,54.883 54.883,18.184 100,18.184C145.117,18.184 181.816,54.883 181.816,100C181.816,145.117 145.117,181.816 100,181.816Z" style="fill-rule:nonzero;"/>
                </g>
                <g transform="matrix(0.590561,0,0,0.166064,1172.74,2383.87)">
                    <path d="M85.527,116.074L56.621,87.148L43.75,100L85.527,141.777L85.547,141.777L156.25,71.074L143.379,58.223L85.527,116.074Z" style="fill-rule:nonzero;"/>
                </g>
            </g>
        </g>
    </g>
</svg>
