<svg id="图层_1" data-name="图层 1" xmlns="http://www.w3.org/2000/svg" viewBox="0 0 48 48"><polygon points="42 42 30 42 30 46 46 46 46 30 42 30 42 42"/><polygon points="2 18 6 18 6 6 18 6 18 2 2 2 2 18"/><polygon points="30 2 30 6 42 6 42 18 46 18 46 2 30 2"/><polygon points="6 30 2 30 2 46 18 46 18 42 6 42 6 30"/><path d="M31.74,22A8,8,0,0,0,26,16.26V8H22v8.26A8,8,0,0,0,16.26,22H8v4h8.26A8,8,0,0,0,22,31.74V40h4V31.74A8,8,0,0,0,31.74,26H40V22ZM26,27.44a3.85,3.85,0,0,1-4,0A4,4,0,0,1,20.56,26a3.85,3.85,0,0,1,0-4A4,4,0,0,1,22,20.56a3.85,3.85,0,0,1,4,0A4,4,0,0,1,27.44,22a3.85,3.85,0,0,1,0,4A4,4,0,0,1,26,27.44Z"/></svg>