<svg id="图层_1" data-name="图层 1" xmlns="http://www.w3.org/2000/svg" viewBox="0 0 48 48"><polygon points="6 42 6 2 2 2 2 42 2 46 6 46 46 46 46 42 6 42"/><circle cx="16.52" cy="27.54" r="2.38"/><path d="M26.73,24.07a3.92,3.92,0,1,0-3.93-3.92A3.92,3.92,0,0,0,26.73,24.07Z"/><circle cx="28.95" cy="33.21" r="2.43"/><circle cx="33.05" cy="9.92" r="3.22"/><path d="M14.68,17.13a2.41,2.41,0,1,0-2.4-2.4A2.4,2.4,0,0,0,14.68,17.13Z"/><path d="M38.91,28a2.63,2.63,0,1,0-2.64-2.63A2.63,2.63,0,0,0,38.91,28Z"/><path d="M12.93,37.41A2.43,2.43,0,1,0,10.51,35,2.43,2.43,0,0,0,12.93,37.41Z"/></svg>