<svg id="图层_1" data-name="图层 1" xmlns="http://www.w3.org/2000/svg" viewBox="0 0 48 48"><polygon points="22 14 14 14 14 18 22 18 22 34 26 34 26 18 34 18 34 14 26 14 22 14"/><polygon points="34 2 34 6 42 6 42 14 46 14 46 2 34 2"/><rect x="26" y="2" width="4" height="4"/><rect x="18" y="2" width="4" height="4"/><polygon points="2 14 6 14 6 6 14 6 14 2 2 2 2 14"/><rect x="2" y="18" width="4" height="4"/><rect x="2" y="26" width="4" height="4"/><polygon points="6 34 2 34 2 46 14 46 14 42 6 42 6 34"/><rect x="18" y="42" width="4" height="4"/><rect x="26" y="42" width="4" height="4"/><polygon points="42 42 34 42 34 46 46 46 46 34 42 34 42 42"/><rect x="42" y="26" width="4" height="4"/><rect x="42" y="18" width="4" height="4"/></svg>