<svg id="图层_1" data-name="图层 1" xmlns="http://www.w3.org/2000/svg" viewBox="0 0 48 48"><path d="M43,23a5,5,0,0,0-4.34,2.56L36,25c0-.31,0-.63,0-.95a12,12,0,0,0-5.88-10.31L31.74,10a4.36,4.36,0,0,0,.52.05A5,5,0,1,0,29,8.76l-1.62,3.73A12.09,12.09,0,0,0,24,12a11.93,11.93,0,0,0-7.35,2.53L9.42,7.3A5,5,0,1,0,5,10a5,5,0,0,0,2.3-.58l7.23,7.23a12,12,0,0,0-.59,13.89l-6.27,5.3A5,5,0,1,0,10,40.06a4.93,4.93,0,0,0-.39-1.93l6.28-5.31a11.93,11.93,0,0,0,12.58,2.31L31,39.57A5,5,0,1,0,34.57,38a5.58,5.58,0,0,0-1,.1l-2.47-4.44a12,12,0,0,0,4.25-5.77l2.71.56A5,5,0,1,0,43,23ZM29.13,30.13A8,8,0,0,1,19,30.21a8,8,0,0,1-1.58-10.7,7.64,7.64,0,0,1,2.12-2.12A7.9,7.9,0,0,1,24,16a7.76,7.76,0,0,1,1.75.2A8,8,0,0,1,32,24s0,.08,0,.13a8,8,0,0,1-.6,2.94A8.07,8.07,0,0,1,29.13,30.13Z"/></svg>