<svg id="图层_1" data-name="图层 1" xmlns="http://www.w3.org/2000/svg" viewBox="0 0 48 48"><path d="M46.37,17.43,46,17.16,36,9.89,34.38,8.72,26,2.63l-.37-.27L24,1.17,22.37,2.36,22,2.63,13.62,8.72,12,9.89,2,17.16l-.37.27L0,18.61l.62,1.91L.76,21,8.4,44.47l.15.44.62,1.92H38.83l.62-1.92.15-.44L47.24,21l.14-.44L48,18.61ZM26,20.25V7.57L32,12l3.24,2.35,6,4.39L29.24,22.61,26,23.66ZM12.73,14.3,16,12l6-4.38V23.66l-3.24-1.05L6.7,18.69ZM11.31,40.47,9,33.38l-1.24-3.8-2.3-7.09,12.06,3.92,3.23,1.05-2,2.75ZM26,42.83H14.55L22,32.57l2-2.76,2,2.76,7.45,10.26ZM40.23,29.58,39,33.38l-2.3,7.09L29.24,30.21l-2-2.75,3.23-1.05,12.06-3.92Z"/></svg>