<svg xmlns="http://www.w3.org/2000/svg" xmlns:xlink="http://www.w3.org/1999/xlink" viewBox="0 0 16 11.56"><defs><style>.cls-1{fill:none;}.cls-2{isolation:isolate;}.cls-3{clip-path:url(#clip-path);}.cls-4{fill:#fff;}</style><clipPath id="clip-path" transform="translate(0 -2.22)"><rect class="cls-1" width="16" height="16"/></clipPath></defs><title>其他_明文</title><g id="图层_2" data-name="图层 2"><g id="图层_1-2" data-name="图层 1"><g class="cls-2"><g class="cls-3"><path class="cls-4" d="M8,12.62A7.33,7.33,0,0,1,1.2,8,7.31,7.31,0,0,1,14.8,8,7.33,7.33,0,0,1,8,12.62ZM8,2.22A8.48,8.48,0,0,0,0,7.8a.55.55,0,0,0,0,.4A8.47,8.47,0,0,0,16,8.2a.55.55,0,0,0,0-.4A8.48,8.48,0,0,0,8,2.22Z" transform="translate(0 -2.22)"/><path class="cls-4" d="M8,9.73A1.73,1.73,0,1,1,9.73,8,1.74,1.74,0,0,1,8,9.73ZM8,5.11A2.89,2.89,0,1,0,10.89,8,2.91,2.91,0,0,0,8,5.11Z" transform="translate(0 -2.22)"/></g></g></g></g></svg>