<?xml version="1.0" encoding="UTF-8" standalone="no"?>
<!DOCTYPE svg PUBLIC "-//W3C//DTD SVG 1.1//EN" "http://www.w3.org/Graphics/SVG/1.1/DTD/svg11.dtd">
<svg width="100%" height="100%" viewBox="0 0 16 16" version="1.1" xmlns="http://www.w3.org/2000/svg" xmlns:xlink="http://www.w3.org/1999/xlink" xml:space="preserve" xmlns:serif="http://www.serif.com/" style="fill-rule:evenodd;clip-rule:evenodd;stroke-linecap:round;stroke-linejoin:round;stroke-miterlimit:9;">
    <g transform="matrix(1,0,0,1,-7474.97,-11671.3)">
        <g transform="matrix(1,0,0,1,-32992.9,-1493.2)">
            <g transform="matrix(0.921999,0,0,0.838986,41039.3,13609.2)">
                <g transform="matrix(0.361533,0,0,0.397305,-641.171,-914.468)">
                    <rect x="59.217" y="967.416" width="48" height="48" style="fill:none;"/>
                </g>
                <g transform="matrix(0.361533,0,0,0.397305,-641.171,-915.263)">
                    <path d="M62.217,983.416C62.217,983.416 82.513,1010.21 104.217,983.416" style="fill:none;stroke:rgb(221,221,221);stroke-width:6px;"/>
                </g>
                <g transform="matrix(0.361533,0,0,0.505661,-641.532,-1023.3)">
                    <path d="M87.217,995.773C87.217,994.472 85.872,993.416 84.217,993.416C82.561,993.416 81.217,994.472 81.217,995.773L81.217,1002.06C81.217,1003.36 82.561,1004.42 84.217,1004.42C85.872,1004.42 87.217,1003.36 87.217,1002.06L87.217,995.773Z" style="fill:rgb(221,221,221);"/>
                </g>
                <g transform="matrix(0.255643,0.280937,-0.325364,0.357556,-313.451,-900.142)">
                    <path d="M87.217,995.773C87.217,994.472 85.872,993.416 84.217,993.416C82.561,993.416 81.217,994.472 81.217,995.773L81.217,1002.06C81.217,1003.36 82.561,1004.42 84.217,1004.42C85.872,1004.42 87.217,1003.36 87.217,1002.06L87.217,995.773Z" style="fill:rgb(221,221,221);"/>
                </g>
                <g transform="matrix(-0.255643,0.280937,0.325364,0.357556,-908.72,-900.21)">
                    <path d="M87.217,995.773C87.217,994.472 85.872,993.416 84.217,993.416C82.561,993.416 81.217,994.472 81.217,995.773L81.217,1002.06C81.217,1003.36 82.561,1004.42 84.217,1004.42C85.872,1004.42 87.217,1003.36 87.217,1002.06L87.217,995.773Z" style="fill:rgb(221,221,221);"/>
                </g>
            </g>
        </g>
    </g>
</svg>
