<svg id="图层_1" data-name="图层 1" xmlns="http://www.w3.org/2000/svg" viewBox="0 0 48 48"><path d="M31.9,7.19a2.22,2.22,0,0,1-.65,1.64,2.11,2.11,0,0,1-1.67.68,1.68,1.68,0,0,1-1.47-.59A6.93,6.93,0,0,1,27.19,7a2,2,0,0,0-.43-.79,1.06,1.06,0,0,0-.7-.24,1,1,0,0,0-.9.47,4.86,4.86,0,0,0-.54,1.24l-2.74,8.64H25.7l-.66,2H21.22l-4,12.39a50.53,50.53,0,0,1-2.55,6.47A14.1,14.1,0,0,1,11.07,42a8.6,8.6,0,0,1-5.78,2,6.08,6.08,0,0,1-3.9-1.06A3,3,0,0,1,0,40.53a2.52,2.52,0,0,1,.8-1.76A2.51,2.51,0,0,1,2.7,38a2,2,0,0,1,1.82.7,4.36,4.36,0,0,1,.55,1.86c0,1,.54,1.49,1.32,1.49a2.25,2.25,0,0,0,1.92-1.22A18.4,18.4,0,0,0,9.84,37L15.9,18.29H11.79l.64-2h4l.43-1.4a35.73,35.73,0,0,1,2-5.19A11.45,11.45,0,0,1,22,5.74,8.09,8.09,0,0,1,27.29,4a7,7,0,0,1,2.27.33,4,4,0,0,1,1.67,1.1,2.4,2.4,0,0,1,.63,1.63ZM48,18.29a8.59,8.59,0,0,1-.39,2.56H45.49a8.93,8.93,0,0,0,.44-2.61,1.33,1.33,0,0,0-.16-.59.72.72,0,0,0-.66-.31.92.92,0,0,0-.58.19,14.68,14.68,0,0,0-1.22,1.14l-4.09,4.09,1.85,5.5a13.85,13.85,0,0,0,.61,1.55c.21.39.47.59.77.59a2,2,0,0,0,1.39-1.12,12.27,12.27,0,0,0,.88-2h2A11.58,11.58,0,0,1,45,31a7.3,7.3,0,0,1-2.27,2.08,5,5,0,0,1-2.28.67,3.29,3.29,0,0,1-2.72-1.22,10.07,10.07,0,0,1-1.6-3.19l-.86-2.6-4.82,4.83a5.76,5.76,0,0,1-3.52,2.1c-1.27,0-1.91-.81-1.91-2.44a8.16,8.16,0,0,1,.77-3.46h2.36a10.79,10.79,0,0,0-.8,2.78c0,.42.13.64.42.64s.62-.27,1.2-.81l5.63-5.64L33.5,21.48c-.16-.49-.34-1-.53-1.47a2.57,2.57,0,0,0-.5-.76,1,1,0,0,0-.74-.28c-.83,0-1.61,1-2.1,3.1H27.7a15.7,15.7,0,0,1,1.61-3.63,7.29,7.29,0,0,1,2.05-2.2,4.35,4.35,0,0,1,2.45-.78,3.58,3.58,0,0,1,2.75,1.16,9,9,0,0,1,1.7,3.19l.35,1.05L42,17.42a5.36,5.36,0,0,1,3.55-2,2,2,0,0,1,2,.95A4.54,4.54,0,0,1,48,18.32v0Z"/></svg>