<?xml version="1.0" encoding="UTF-8"?>
<svg width="100%" height="100%" viewBox="0 0 40 40" version="1.1" xmlns="http://www.w3.org/2000/svg" xmlns:xlink="http://www.w3.org/1999/xlink">
    <title>Examples - Apache ECharts</title>
    <defs>
        <linearGradient x1="50%" y1="100%" x2="50%" y2="0%" id="linearGradient-1">
            <stop stop-color="#F7E7A1" offset="0%"></stop>
            <stop stop-color="#289AE9" offset="100%"></stop>
        </linearGradient>
    </defs>
    <g id="图标" stroke="none" stroke-width="1" fill="none" fill-rule="evenodd">
        <g id="画板" transform="translate(-286.000000, -95.000000)">
            <g id="Examples---Apache-ECharts" transform="translate(286.000000, 95.000000)">
                <rect id="矩形备份" x="0" y="0" width="40" height="40"></rect>
                <path d="M26.5904803,28.7317679 L13.8349304,28.7317679 C13.4693295,28.7317679 13.1302981,28.9227755 12.9410054,29.2355571 C12.7517127,29.5483387 12.7397045,29.9373181 12.9093434,30.2611804 L15.1742109,34.569443 C15.3542052,34.9130768 15.709789,35.1286796 16.0977085,35.1293918 L24.3277022,35.1293918 C24.7156217,35.1286796 25.0712055,34.9130768 25.2511998,34.569443 L27.5160672,30.2611804 C27.685706,29.9373181 27.6736979,29.5483387 27.4844051,29.2355571 C27.2951125,28.9227755 26.9560813,28.7317679 26.5904803,28.7317679 L26.5904803,28.7317679 Z M30.8506877,20.2029702 L9.57681238,20.2029702 C9.20933513,20.2004298 8.86775715,20.3918967 8.67818269,20.7067104 C8.48860824,21.0215241 8.47915569,21.4129902 8.65331475,21.7365868 L10.9348971,26.0448495 C11.1162308,26.3863893 11.4717032,26.5995119 11.8583947,26.5985353 L28.5774627,26.5985353 C28.9642477,26.5997382 29.319516,26.3854493 29.498871,26.0427601 L31.7741852,21.7344974 C31.9446691,21.4108036 31.9334039,21.0215129 31.7444874,20.7082192 C31.5555709,20.3949255 31.2165323,20.2032827 30.8506877,20.2029702 L30.8506877,20.2029702 Z M35.1171629,12.1025425 L5.31033694,12.1025425 C4.94449224,12.1028295 4.60545361,12.2944723 4.41653707,12.607766 C4.22762054,12.9210598 4.21635548,13.3103504 4.38683929,13.6340443 L6.66215357,17.9402176 C6.84200294,18.2837106 7.19792344,18.4987123 7.58565122,18.4980784 L32.8481169,18.4980784 C33.2355831,18.4977729 33.5910553,18.283042 33.7716144,17.9402176 L36.0406608,13.6319549 C36.2101277,13.3084223 36.1983278,12.9198771 36.0095402,12.6072245 C35.8207528,12.2945718 35.4823918,12.1032125 35.1171629,12.1025425 L35.1171629,12.1025425 Z M40,5.04468056 C40,5.21438851 39.9581539,5.38147993 39.8788172,5.53150173 L37.6097709,9.83976441 C37.4286483,10.1817798 37.0732874,10.3956396 36.6862733,10.3955356 L3.31290765,10.3955356 C2.92576401,10.3961069 2.57018028,10.1821131 2.38941004,9.83976441 L0.12036383,5.53150173 C-0.0501199623,5.20780792 -0.038854916,4.81851724 0.150061616,4.50522352 C0.33897815,4.19192981 0.678016762,4.00028703 1.04386144,4 L38.9553196,4 C39.5322806,4 40,4.46771942 40,5.04468056 L40,5.04468056 Z" id="Shape" fill="url(#linearGradient-1)" fill-rule="nonzero"></path>
            </g>
        </g>
    </g>
</svg>