<?xml version="1.0" encoding="UTF-8" standalone="no"?>
<!DOCTYPE svg PUBLIC "-//W3C//DTD SVG 1.1//EN" "http://www.w3.org/Graphics/SVG/1.1/DTD/svg11.dtd">
<svg width="100%" height="100%" viewBox="0 0 12 12" version="1.1" xmlns="http://www.w3.org/2000/svg" xmlns:xlink="http://www.w3.org/1999/xlink" xml:space="preserve" xmlns:serif="http://www.serif.com/" style="fill-rule:evenodd;clip-rule:evenodd;stroke-linejoin:round;stroke-miterlimit:2;">
    <g transform="matrix(1,0,0,1,-2639.59,-1367.88)">
        <g transform="matrix(1.65517,0,0,1.77049,675.384,1176.03)">
            <g transform="matrix(0.04062,0,0,0.0379743,1186.27,107.832)">
                <path d="M17.598,45.527L17.715,45.527C17.852,45.527 30.703,45.332 49.687,45.293C52.617,55.664 62.168,63.281 73.477,63.281C87.109,63.281 98.184,52.188 98.184,38.574C98.184,24.961 87.09,13.867 73.457,13.867C62.246,13.867 52.754,21.367 49.746,31.621C30.605,31.66 17.637,31.855 17.48,31.855C13.711,31.914 10.703,35.02 10.762,38.809C10.82,42.539 13.867,45.527 17.598,45.527ZM73.457,27.539C79.551,27.539 84.492,32.5 84.492,38.574C84.492,44.648 79.551,49.609 73.457,49.609C67.363,49.609 62.422,44.648 62.422,38.574C62.422,32.5 67.363,27.539 73.457,27.539ZM114.531,45.41L182.402,45.41C186.172,45.41 189.238,42.344 189.238,38.574C189.238,34.805 186.172,31.738 182.402,31.738L114.531,31.738C110.762,31.738 107.695,34.805 107.695,38.574C107.695,42.344 110.762,45.41 114.531,45.41ZM182.695,91.289C182.48,91.289 177.617,91.074 160.02,91.035C157.012,80.781 147.52,73.281 136.309,73.281C122.676,73.281 111.602,84.375 111.602,97.988C111.602,111.621 122.695,122.695 136.309,122.695C147.598,122.695 157.168,115.078 160.098,104.707C177.109,104.746 182.012,104.941 182.129,104.941L182.422,104.941C186.055,104.941 189.082,102.07 189.238,98.398C189.395,94.648 186.484,91.445 182.695,91.289ZM136.309,109.043C130.215,109.043 125.273,104.082 125.273,98.008C125.273,91.934 130.234,86.973 136.309,86.973C142.383,86.973 147.344,91.934 147.344,98.008C147.344,104.082 142.402,109.043 136.309,109.043ZM95.645,91.152L17.598,91.152C13.828,91.152 10.762,94.219 10.762,97.988C10.762,101.758 13.828,104.824 17.598,104.824L95.645,104.824C99.414,104.824 102.48,101.758 102.48,97.988C102.48,94.219 99.414,91.152 95.645,91.152ZM73.457,136.719C62.246,136.719 52.754,144.219 49.746,154.473C30.605,154.512 17.637,154.707 17.48,154.707C13.711,154.766 10.703,157.871 10.762,161.66C10.82,165.391 13.867,168.379 17.598,168.379L17.715,168.379C17.852,168.379 30.703,168.184 49.688,168.145C52.617,178.516 62.168,186.133 73.477,186.133C87.109,186.133 98.184,175.039 98.184,161.426C98.164,147.813 87.09,136.719 73.457,136.719ZM73.457,172.461C67.363,172.461 62.422,167.5 62.422,161.426C62.422,155.352 67.383,150.391 73.457,150.391C79.531,150.391 84.492,155.352 84.492,161.426C84.492,167.5 79.551,172.461 73.457,172.461ZM182.402,154.59L114.531,154.59C110.762,154.59 107.695,157.656 107.695,161.426C107.695,165.195 110.762,168.262 114.531,168.262L182.402,168.262C186.172,168.262 189.238,165.195 189.238,161.426C189.238,157.656 186.191,154.59 182.402,154.59Z" style="fill:white;fill-rule:nonzero;"/>
            </g>
        </g>
    </g>
</svg>
