<?xml version="1.0" encoding="UTF-8"?>
<svg width="100%" height="100%" viewBox="0 0 40 40" version="1.1" xmlns="http://www.w3.org/2000/svg" xmlns:xlink="http://www.w3.org/1999/xlink">
    <title>编组 2</title>
    <g id="图标" stroke="none" stroke-width="1" fill="none" fill-rule="evenodd">
        <g id="画板" transform="translate(-152.000000, -95.000000)">
            <g id="编组-2" transform="translate(152.000000, 95.000000)">
                <g id="编组" opacity="0.761968568" transform="translate(3.000000, 2.000000)" stroke="#979797" stroke-width="0.3">
                    <line x1="2.84772206e-14" y1="1" x2="18" y2="20" id="路径"></line>
                    <polyline id="路径-2" points="1 13 8 9 12 -1.38555833e-13"></polyline>
                    <polyline id="路径-3" points="25 3 18 20 -1.42073853e-13 24"></polyline>
                    <polyline id="路径-4" points="10 36 18 20 35 13"></polyline>
                    <polyline id="路径-5" points="35 26 18 20 26 35"></polyline>
                </g>
                <path d="M11,15 C13.209139,15 15,13.209139 15,11 C15,8.790861 13.209139,7 11,7 C8.790861,7 7,8.790861 7,11 C7,13.209139 8.790861,15 11,15 Z" id="椭圆形" fill="#039CFC"></path>
                <path d="M15,4 C16.1045695,4 17,3.1045695 17,2 C17,0.8954305 16.1045695,0 15,0 C13.8954305,0 13,0.8954305 13,2 C13,3.1045695 13.8954305,4 15,4 Z" id="椭圆形备份-2" fill="#F7966D"></path>
                <path d="M3,5 C4.1045695,5 5,4.1045695 5,3 C5,1.8954305 4.1045695,1 3,1 C1.8954305,1 1,1.8954305 1,3 C1,4.1045695 1.8954305,5 3,5 Z" id="椭圆形备份-5" fill="#FFBD76"></path>
                <path d="M2,18 C3.1045695,18 4,17.1045695 4,16 C4,14.8954305 3.1045695,14 2,14 C0.8954305,14 0,14.8954305 0,16 C0,17.1045695 0.8954305,18 2,18 Z" id="椭圆形备份-4" fill="#FFE88F"></path>
                <path d="M13,40 C14.1045695,40 15,39.1045695 15,38 C15,36.8954305 14.1045695,36 13,36 C11.8954305,36 11,36.8954305 11,38 C11,39.1045695 11.8954305,40 13,40 Z" id="椭圆形备份-7" fill="#70DCC2"></path>
                <path d="M3,28 C4.1045695,28 5,27.1045695 5,26 C5,24.8954305 4.1045695,24 3,24 C1.8954305,24 1,24.8954305 1,26 C1,27.1045695 1.8954305,28 3,28 Z" id="椭圆形备份-12" fill="#B8E4A7"></path>
                <path d="M29,39 C30.1045695,39 31,38.1045695 31,37 C31,35.8954305 30.1045695,35 29,35 C27.8954305,35 27,35.8954305 27,37 C27,38.1045695 27.8954305,39 29,39 Z" id="椭圆形备份-8" fill="#42BEDF"></path>
                <path d="M38,30 C39.1045695,30 40,29.1045695 40,28 C40,26.8954305 39.1045695,26 38,26 C36.8954305,26 36,26.8954305 36,28 C36,29.1045695 36.8954305,30 38,30 Z" id="椭圆形备份-9" fill="#3D96DD"></path>
                <path d="M38,17 C39.1045695,17 40,16.1045695 40,15 C40,13.8954305 39.1045695,13 38,13 C36.8954305,13 36,13.8954305 36,15 C36,16.1045695 36.8954305,17 38,17 Z" id="椭圆形备份-10" fill="#3D84DD"></path>
                <path d="M28,7 C29.1045695,7 30,6.1045695 30,5 C30,3.8954305 29.1045695,3 28,3 C26.8954305,3 26,3.8954305 26,5 C26,6.1045695 26.8954305,7 28,7 Z" id="椭圆形备份-11" fill="#4670D1"></path>
                <circle id="椭圆形备份" fill="#039CFC" cx="21" cy="22" r="5"></circle>
            </g>
        </g>
    </g>
</svg>