<?xml version="1.0" encoding="UTF-8" standalone="no"?>
<!DOCTYPE svg PUBLIC "-//W3C//DTD SVG 1.1//EN" "http://www.w3.org/Graphics/SVG/1.1/DTD/svg11.dtd">
<svg width="100%" height="100%" viewBox="0 0 12 12" version="1.1" xmlns="http://www.w3.org/2000/svg" xmlns:xlink="http://www.w3.org/1999/xlink" xml:space="preserve" xmlns:serif="http://www.serif.com/" style="fill-rule:evenodd;clip-rule:evenodd;stroke-linejoin:round;stroke-miterlimit:2;">
    <g transform="matrix(1,0,0,1,-131.078,-2979.28)">
        <g transform="matrix(1.00029,0,0,4.16667,-1176.45,-7096.41)">
            <g transform="matrix(0.0719788,0,0,0.01728,1305.94,2417.88)">
                <path d="M100,183.333C54.285,183.333 16.667,145.715 16.667,100C16.667,54.285 54.285,16.667 100,16.667C145.715,16.667 183.333,54.285 183.333,100C183.333,145.715 145.715,183.333 100,183.333ZM32.25,100C32.25,100.012 32.25,100.024 32.25,100.036C32.25,137.162 62.8,167.711 99.925,167.711C115.384,167.711 130.385,162.414 142.417,152.708L46.667,58.45C37.334,70.286 32.254,84.927 32.25,100ZM100,32.292C84.564,32.286 69.585,37.584 57.583,47.292L153.333,141.542C162.641,129.697 167.692,115.056 167.667,99.992C167.639,62.875 137.116,32.337 100,32.292Z" style="fill-rule:nonzero;"/>
            </g>
        </g>
    </g>
</svg>
