<?xml version="1.0" encoding="UTF-8" standalone="no"?>
<!DOCTYPE svg PUBLIC "-//W3C//DTD SVG 1.1//EN" "http://www.w3.org/Graphics/SVG/1.1/DTD/svg11.dtd">
<svg width="100%" height="100%" viewBox="0 0 15 16" version="1.1" xmlns="http://www.w3.org/2000/svg" xmlns:xlink="http://www.w3.org/1999/xlink" xml:space="preserve" xmlns:serif="http://www.serif.com/" style="fill-rule:evenodd;clip-rule:evenodd;stroke-linejoin:round;stroke-miterlimit:2;">
    <g transform="matrix(1,0,0,1,-3278.5,-1329.39)">
        <g transform="matrix(1.65517,0,0,1.77049,1387.3,1176.03)">
            <g transform="matrix(0.0556793,0,0,0.0520527,1141.54,85.9016)">
                <path d="M180.098,134.941C179.375,133.672 178.262,132.773 177.012,132.266L154.668,119.375L177.773,106.035C180.762,104.316 181.777,100.488 180.059,97.5C179.453,96.445 178.594,95.645 177.598,95.117L154.707,81.895L177.051,68.984C178.359,68.496 179.492,67.559 180.254,66.27C181.973,63.281 180.957,59.453 177.969,57.734L103.34,14.648C102.383,14.102 101.348,13.828 100.332,13.809L100.059,13.809C99.043,13.828 98.008,14.102 97.051,14.648L23.145,57.324C21.836,57.813 20.703,58.75 19.941,60.039C18.223,63.027 19.238,66.855 22.227,68.574L45.156,81.816L22.266,95.059C20.566,96.035 19.512,97.695 19.219,99.492C18.75,102.012 19.883,104.668 22.246,106.035L45.234,119.297L22.266,132.559C19.922,133.906 18.789,136.563 19.238,139.082C19.531,140.879 20.586,142.52 22.285,143.496L96.914,186.582C97.871,187.129 98.906,187.402 99.922,187.422L100.195,187.422C101.211,187.402 102.246,187.129 103.203,186.582L177.422,143.73C177.93,143.477 178.398,143.164 178.828,142.793C178.848,142.773 178.867,142.754 178.906,142.734L178.926,142.715C181.016,140.762 181.602,137.539 180.098,134.941ZM100,99.043L62.168,77.207C61.426,76.504 60.547,75.996 59.59,75.723L37.93,63.223L100.195,27.285L162.266,63.125L139.688,76.172C139.258,76.367 138.848,76.602 138.457,76.875L100,99.043ZM96.855,111.68C97.812,112.227 98.848,112.5 99.863,112.52L100.137,112.52C101.152,112.5 102.187,112.227 103.145,111.68L142.207,89.121L162.148,100.625L100,136.504L62.051,114.59C61.387,113.984 60.605,113.555 59.785,113.281L37.754,100.566L57.695,89.063L96.855,111.68ZM96.855,149.121C97.812,149.668 98.848,149.941 99.863,149.961L100.137,149.961C101.152,149.941 102.187,149.668 103.145,149.121L142.168,126.582L162.129,138.105L100.039,173.945L37.793,138.008L57.715,126.504L96.855,149.121Z" style="fill:white;fill-rule:nonzero;"/>
            </g>
        </g>
    </g>
</svg>
