<?xml version="1.0" encoding="UTF-8" standalone="no"?>
<!DOCTYPE svg PUBLIC "-//W3C//DTD SVG 1.1//EN" "http://www.w3.org/Graphics/SVG/1.1/DTD/svg11.dtd">
<svg width="100%" height="100%" viewBox="0 0 11 11" version="1.1" xmlns="http://www.w3.org/2000/svg" xmlns:xlink="http://www.w3.org/1999/xlink" xml:space="preserve" xmlns:serif="http://www.serif.com/" style="fill-rule:evenodd;clip-rule:evenodd;stroke-linejoin:round;stroke-miterlimit:2;">
    <g transform="matrix(1,0,0,1,-2817.22,-4109.74)">
        <g transform="matrix(1.55482,0,0,1.20853,755.627,1281.07)">
            <g transform="matrix(0.64316,0,0,0.827451,-485.989,-1060.03)">
                <path d="M2822.07,4109.74C2822.51,4109.74 2822.93,4109.89 2823.28,4110.15L2824.2,4110.85L2825.72,4110.85C2827.1,4110.85 2828.22,4111.97 2828.22,4113.35L2828.22,4117.74C2828.22,4119.12 2827.1,4120.24 2825.72,4120.24L2819.72,4120.24C2818.34,4120.24 2817.22,4119.12 2817.22,4117.74L2817.22,4112.24C2817.22,4110.86 2818.34,4109.74 2819.72,4109.74L2822.07,4109.74ZM2822.07,4110.62L2819.72,4110.62C2818.85,4110.62 2818.13,4111.32 2818.1,4112.19L2818.1,4112.24L2818.1,4117.74C2818.1,4118.61 2818.79,4119.34 2819.66,4119.37L2819.72,4119.37L2825.72,4119.37C2826.59,4119.37 2827.31,4118.67 2827.35,4117.8L2827.35,4117.74L2827.35,4113.35C2827.35,4112.48 2826.65,4111.76 2825.78,4111.73L2824.2,4111.72C2824.03,4111.72 2823.86,4111.67 2823.72,4111.58L2823.67,4111.55L2822.75,4110.85C2822.57,4110.71 2822.36,4110.63 2822.13,4110.62L2822.07,4110.62ZM2822.22,4116.31C2822.46,4116.31 2822.66,4116.5 2822.66,4116.74C2822.66,4116.97 2822.48,4117.16 2822.26,4117.18L2822.22,4117.18L2820.22,4117.18C2819.98,4117.18 2819.78,4116.98 2819.78,4116.74C2819.78,4116.52 2819.96,4116.33 2820.18,4116.31L2820.22,4116.31L2822.22,4116.31Z" style="fill-rule:nonzero;"/>
            </g>
        </g>
    </g>
</svg>
