<?xml version="1.0" encoding="UTF-8" standalone="no"?>
<!DOCTYPE svg PUBLIC "-//W3C//DTD SVG 1.1//EN" "http://www.w3.org/Graphics/SVG/1.1/DTD/svg11.dtd">
<svg 
  t="1654593578423" 
  class="icon" 
  style="width: 1em;height: 1em;vertical-align: middle;fill:#6BC0E8;overflow: hidden;" viewBox="0 0 1024 1024" version="1.1" xmlns="http://www.w3.org/2000/svg" p-id="22069"
>
  <path d="M716.8 238.94016H170.67008C133.13024 238.94016 102.4 269.6704 102.4 307.2v546.14016C102.4 890.86976 133.13024 921.6 170.67008 921.6H716.8c37.5296 0 68.27008-30.73024 68.27008-68.25984V307.2c0-37.5296-30.74048-68.25984-68.27008-68.25984zM580.27008 375.47008a68.25984 68.25984 0 1 1 0 136.52992 68.25984 68.25984 0 0 1 0-136.52992zM716.8 853.34016H170.67008V375.1424L446.6688 685.59872l99.46112-99.46112L716.8 756.79744v96.54272z" p-id="22070" fill="#6BC0E8"></path>
  <path d="M238.92992 102.4v85.34016h597.34016v597.32992H921.6V102.4z" p-id="22071" fill="#6BC0E8"></path>
</svg>