<svg id="图层_1" data-name="图层 1" xmlns="http://www.w3.org/2000/svg" viewBox="0 0 48 48"><path d="M24,13.05A20,20,0,0,0,6.18,24a20,20,0,0,0,35.64,0A20,20,0,0,0,24,13.05ZM24,31A16,16,0,0,1,10.82,24a16,16,0,0,1,26.36,0A16,16,0,0,1,24,31Z"/><polygon points="14 2 2 2 2 14 6 14 6 6 14 6 14 2 14 2"/><polygon points="46 2 34 2 34 6 42 6 42 14 46 14 46 2 46 2"/><polygon points="46 34 42 34 42 42 34 42 34 46 46 46 46 34 46 34"/><polygon points="6 34 2 34 2 46 14 46 14 42 6 42 6 34 6 34"/><path d="M24,22a2,2,0,1,1-2,2,2,2,0,0,1,2-2m0-4a6,6,0,1,0,6,6,6,6,0,0,0-6-6Z"/></svg>