<?xml version="1.0" encoding="UTF-8"?>
<svg width="16px" height="16px" viewBox="0 0 16 16" version="1.1" xmlns="http://www.w3.org/2000/svg" xmlns:xlink="http://www.w3.org/1999/xlink">
    <title>隐藏</title>
    <g id="登录注册（SaaS）" stroke="none" stroke-width="1" fill="none" fill-rule="evenodd">
        <g id="密码登录" transform="translate(-1350.000000, -475.000000)" fill="#000000" fill-rule="nonzero">
            <g id="隐藏" transform="translate(1350.000000, 475.000000)">
                <rect id="矩形" opacity="0" x="0" y="0" width="16" height="16"></rect>
                <path d="M15.2,9.296 L16,7.912 L13.88,6.704 C14.048,6.576 14.216,6.44 14.376,6.296 C14.9868064,5.74859323 15.5245637,5.12479479 15.976,4.44 L14.64,3.56 C14.2649173,4.12913957 13.8186355,4.64800948 13.312,5.104 C11.8559985,6.41989106 9.96252394,7.14705375 8,7.144 C6.05825159,7.14398357 4.18444997,6.42920514 2.736,5.136 C2.22707458,4.68298135 1.77810719,4.16680327 1.4,3.6 L0.072,4.488 C0.524956664,5.16684771 1.06262596,5.7851674 1.672,6.328 C1.816,6.456 1.96,6.568 2.112,6.68 L0,7.904 L0.8,9.288 L3.616,7.688 C3.90723391,7.84214427 4.20630652,7.98099941 4.512,8.104 L2.864,10.936 L4.248,11.736 L6.088,8.536 C6.4525467,8.61092116 6.8211826,8.66434665 7.192,8.696 L7.192,12 L8.792,12 L8.792,8.704 C9.1410534,8.6751835 9.48824882,8.62711029 9.832,8.56 L11.664,11.76 L13.048,10.96 L11.448,8.136 C11.7703148,8.00933581 12.0854531,7.86511999 12.392,7.704 L15.2,9.296 Z" id="路径" fill-opacity="0.5"></path>
            </g>
        </g>
    </g>
</svg>