<?xml version="1.0" encoding="UTF-8"?>
<svg width="14px" height="14px" viewBox="0 0 14 14" version="1.1" xmlns="http://www.w3.org/2000/svg" xmlns:xlink="http://www.w3.org/1999/xlink">
    <title>隐藏</title>
    <g id="发布分享" stroke="none" stroke-width="1" fill="none" fill-rule="evenodd">
        <g id="页面2-加密" transform="translate(-1185.000000, -495.000000)" fill-rule="nonzero">
            <g id="隐藏" transform="translate(1185.000000, 495.000000)">
                <rect id="矩形" fill="#000000" opacity="0" x="0" y="0" width="14" height="14"></rect>
                <path d="M13.3,8.134 L14,6.923 L12.145,5.866 C12.292,5.754 12.439,5.635 12.579,5.509 C13.1134556,5.03001907 13.5839932,4.48419544 13.979,3.885 L12.81,3.115 C12.4818027,3.61299712 12.091306,4.06700829 11.648,4.466 C10.3739987,5.61740468 8.71720844,6.25367203 7,6.251 C5.30097015,6.25098563 3.66139373,5.6255545 2.394,4.494 C1.94869026,4.09760868 1.55584379,3.64595286 1.225,3.15 L0.063,3.927 C0.459337081,4.52099175 0.929797716,5.06202147 1.463,5.537 C1.589,5.649 1.715,5.747 1.848,5.845 L0,6.916 L0.7,8.127 L3.164,6.727 C3.41882967,6.86187624 3.68051821,6.98337448 3.948,7.091 L2.506,9.569 L3.717,10.269 L5.327,7.469 C5.64597836,7.53455602 5.96853478,7.58130332 6.293,7.609 L6.293,10.5 L7.693,10.5 L7.693,7.616 C7.99842172,7.59078556 8.30221772,7.5487215 8.603,7.49 L10.206,10.29 L11.417,9.59 L10.017,7.119 C10.2990255,7.00816884 10.5747715,6.88197999 10.843,6.741 L13.3,8.134 Z" id="路径" fill-opacity="0.5" fill="#FFFFFF"></path>
            </g>
        </g>
    </g>
</svg>