<svg id="图层_1" data-name="图层 1" xmlns="http://www.w3.org/2000/svg" viewBox="0 0 48 48"><defs><style>.cls-1{fill:#ef8d22;}.cls-2{fill:#fff;}</style></defs><rect class="cls-1" x="2" y="2" width="44" height="44"/><polygon class="cls-2" points="17.66 20.17 22.05 21.91 24 22.68 25.95 21.91 30.32 20.17 35.6 18.07 40 16.34 24 10 8 16.34 12.38 18.07 17.66 20.17"/><polygon class="cls-2" points="31.2 24 25.95 26.08 24 26.85 22.05 26.08 16.77 24 12.38 22.26 8 24 12.38 25.74 17.66 27.83 24 30.34 30.32 27.83 35.6 25.74 40 24 35.6 22.26 31.2 24"/><polygon class="cls-2" points="24 34.51 12.38 29.91 8 31.65 24 38 40 31.65 35.6 29.91 24 34.51"/></svg>