<?xml version="1.0" encoding="UTF-8"?>
<svg width="16px" height="16px" viewBox="0 0 16 16" version="1.1" xmlns="http://www.w3.org/2000/svg" xmlns:xlink="http://www.w3.org/1999/xlink">
    <title>密码可见@2x</title>
    <g id="登录注册（SaaS）" stroke="none" stroke-width="1" fill="none" fill-rule="evenodd">
        <g id="密码登录" transform="translate(-1350.000000, -475.000000)" fill="#000000" fill-rule="nonzero">
            <g id="密码可见@2x" transform="translate(1350.000000, 475.000000)">
                <rect id="矩形" opacity="0" x="0" y="0" width="16" height="16"></rect>
                <path d="M15.2126667,8 C14.586,11.4133333 11.5946667,14 7.99933333,14 C4.40533333,14 1.41466666,11.4133333 0.787333328,8 C1.41333333,4.58666667 4.40533333,2 8,2 C11.5946667,2 14.5853333,4.58666667 15.2126667,8 Z M11.742,11.3566667 C12.8049232,10.508912 13.5486047,9.32546179 13.8513333,8 C13.2256107,5.27246562 10.7983875,3.33901884 8,3.33901884 C5.2016125,3.33901884 2.7743893,5.27246562 2.14866667,8 C2.77211643,10.7297936 5.19991743,12.6660597 8,12.6666667 C9.36,12.6666667 10.6786667,12.2046667 11.742,11.3566667 L11.742,11.3566667 Z M5.87866667,10.1213333 C4.70708663,8.94975328 4.70708663,7.05024672 5.87866667,5.87866667 C7.05024672,4.70708663 8.94975328,4.70708663 10.1213333,5.87866667 C11.2929133,7.05024673 11.2929133,8.94975325 10.1213333,10.1213333 C8.94975325,11.2929133 7.05024673,11.2929133 5.87866667,10.1213333 L5.87866667,10.1213333 Z M9.17866667,9.17866667 C9.59976374,8.75756963 9.76422087,8.14380731 9.61008866,7.56857804 C9.45595644,6.99334876 9.00665124,6.54404356 8.43142196,6.38991134 C7.85619269,6.23577913 7.24243037,6.40023626 6.82133333,6.82133333 C6.17037373,7.47229296 6.17037375,8.52770702 6.82133336,9.17866664 C7.47229298,9.82962625 8.52770704,9.82962627 9.17866667,9.17866667 L9.17866667,9.17866667 Z" id="形状" fill-opacity="0.5"></path>
            </g>
        </g>
    </g>
</svg>