<!-- <svg id="图层_1" data-name="图层 1" xmlns="http://www.w3.org/2000/svg" viewBox="0 0 48 48"><path d="M20,6a14,14,0,1,1-9.9,4.1A13.92,13.92,0,0,1,20,6m0-4A18,18,0,1,0,32.73,7.27,18,18,0,0,0,20,2Z"/><rect x="37.99" y="33.49" width="4" height="12.99" transform="translate(-16.57 39.99) rotate(-45)"/></svg> -->
<svg class="icon" style="width: 0.5em;height: 0.5em;vertical-align: middle;fill: currentColor;overflow: hidden;" viewBox="0 0 1024 1024" version="1.1" xmlns="http://www.w3.org/2000/svg" p-id="613"><path d="M955.069071 864.311021 740.015134 649.258107c-3.752464-3.751441-8.841366-5.860475-14.149255-5.860475-5.306866 0-10.395768 2.108011-14.149255 5.860475l-16.692171 16.692171-38.34226-38.34226c53.03796-59.810201 85.298711-138.442072 85.298711-224.478588 0-186.774871-151.952784-338.727655-338.727655-338.727655S64.527642 216.35456 64.527642 403.12943c0 186.775894 151.952784 338.728678 338.727655 338.728678 86.36909 0 165.276231-32.510438 225.170343-85.913718l38.303374 38.303374-17.34504 17.34504c-7.812943 7.813966-7.812943 20.48352 0 28.297486l215.051891 215.052914c3.753487 3.751441 8.841366 5.860475 14.149255 5.860475 5.306866 0 10.395768-2.108011 14.149255-5.860475l62.334697-62.334697C962.883037 884.794541 962.883037 872.124987 955.069071 864.311021zM104.546078 403.12943c0-164.709319 133.9999-298.709219 298.709219-298.709219s298.709219 133.9999 298.709219 298.709219S567.964616 701.839673 403.255297 701.839673 104.546078 567.838749 104.546078 403.12943zM878.585119 912.496463 691.829691 725.741036l34.036187-34.036187 186.755428 186.755428L878.585119 912.496463z" p-id="614"></path></svg>