<?xml version="1.0" encoding="UTF-8" standalone="no"?>
<!DOCTYPE svg PUBLIC "-//W3C//DTD SVG 1.1//EN" "http://www.w3.org/Graphics/SVG/1.1/DTD/svg11.dtd">
<svg width="100%" height="100%" viewBox="0 0 10 10" version="1.1" xmlns="http://www.w3.org/2000/svg" xmlns:xlink="http://www.w3.org/1999/xlink" xml:space="preserve" xmlns:serif="http://www.serif.com/" style="fill-rule:evenodd;clip-rule:evenodd;stroke-linejoin:round;stroke-miterlimit:2;">
    <g transform="matrix(1,0,0,1,-1097.62,-3628.2)">
        <g transform="matrix(1.00029,0,0,4.16667,-405.771,-6270.49)">
            <g transform="matrix(0.0801562,0,0,0.0192431,1500.1,2374.89)">
                <path d="M97.826,41.098C49.093,41.098 35.588,54.944 35.588,103.676C35.588,152.409 49.095,165.816 97.826,165.816C146.557,165.816 160.308,152.409 160.308,103.676C160.308,54.944 146.554,41.098 97.826,41.098ZM130.918,89.104L93.829,126.004C91.549,128.269 87.858,128.269 85.583,126.004L64.975,105.513C62.7,103.247 62.7,99.579 64.975,97.313C67.252,95.048 70.943,95.048 73.218,97.313L89.704,113.707L122.678,80.91C124.952,78.644 128.643,78.644 130.918,80.91C133.196,83.17 133.196,86.844 130.918,89.104Z" style="fill:rgb(0,126,255);fill-rule:nonzero;"/>
            </g>
        </g>
    </g>
</svg>
