<?xml version="1.0" encoding="UTF-8" standalone="no"?>
<!DOCTYPE svg PUBLIC "-//W3C//DTD SVG 1.1//EN" "http://www.w3.org/Graphics/SVG/1.1/DTD/svg11.dtd">
<svg width="100%" height="100%" viewBox="0 0 16 16" version="1.1" xmlns="http://www.w3.org/2000/svg" xmlns:xlink="http://www.w3.org/1999/xlink" xml:space="preserve" xmlns:serif="http://www.serif.com/" style="fill-rule:evenodd;clip-rule:evenodd;stroke-linejoin:round;stroke-miterlimit:2;">
    <g transform="matrix(1,0,0,1,-3246,-1329.69)">
        <g transform="matrix(1.65517,0,0,1.77049,1387.3,1176.03)">
            <g transform="matrix(0.604167,0,0,0.564815,-838.158,-664.238)">
                <path d="M3260.44,1338.14L3259.22,1338.14L3259.22,1341.29C3258.47,1341.49 3257.88,1342.07 3257.66,1342.81C3257.3,1342.81 3255.93,1342.81 3254.48,1342.81L3254.48,1344.04C3255.77,1344.03 3257.01,1344.03 3257.66,1344.03C3257.92,1344.96 3258.77,1345.64 3259.79,1345.64C3261.01,1345.64 3262,1344.65 3262,1343.43C3262,1342.43 3261.34,1341.59 3260.44,1341.31L3260.44,1338.14ZM3248.89,1338.14L3247.67,1338.14L3247.67,1341.28C3246.71,1341.53 3246,1342.4 3246,1343.43C3246,1344.65 3247,1345.64 3248.22,1345.64C3249.22,1345.64 3250.08,1344.97 3250.35,1344.05C3251.28,1344.05 3252.06,1344.04 3252.57,1344.04C3252.87,1344.04 3253.2,1344.04 3253.53,1344.04L3253.53,1342.81C3251.87,1342.81 3250.35,1342.82 3250.35,1342.82C3250.14,1342.11 3249.59,1341.54 3248.89,1341.32L3248.89,1338.14ZM3259.79,1342.44C3260.33,1342.44 3260.78,1342.88 3260.78,1343.43C3260.78,1343.97 3260.33,1344.42 3259.79,1344.42C3259.24,1344.42 3258.8,1343.97 3258.8,1343.43C3258.8,1342.88 3259.24,1342.44 3259.79,1342.44ZM3248.22,1342.44C3248.77,1342.44 3249.21,1342.88 3249.21,1343.43C3249.21,1343.97 3248.76,1344.42 3248.22,1344.42C3247.68,1344.42 3247.23,1343.97 3247.23,1343.43C3247.23,1342.88 3247.67,1342.44 3248.22,1342.44ZM3254.48,1331.29L3254.48,1332.52C3255.89,1332.51 3257.22,1332.51 3257.66,1332.51C3257.87,1333.26 3258.46,1333.85 3259.22,1334.05L3259.22,1337.19L3260.44,1337.19L3260.44,1334.02C3261.34,1333.74 3262,1332.9 3262,1331.91C3262,1330.69 3261.01,1329.69 3259.79,1329.69C3258.78,1329.69 3257.93,1330.36 3257.66,1331.28C3257.01,1331.29 3255.77,1331.29 3254.48,1331.29ZM3247.67,1337.19L3248.89,1337.19L3248.89,1334.02C3249.59,1333.79 3250.14,1333.23 3250.35,1332.53C3250.77,1332.53 3252.1,1332.53 3253.53,1332.52L3253.53,1331.29L3253.32,1331.29L3253.22,1331.28C3253.21,1331.28 3252.97,1331.29 3252.55,1331.29L3250.35,1331.29C3250.08,1330.37 3249.23,1329.69 3248.22,1329.69C3246.99,1329.69 3246,1330.69 3246,1331.91C3246,1332.94 3246.71,1333.81 3247.67,1334.05L3247.67,1337.19ZM3259.79,1330.92C3260.33,1330.92 3260.78,1331.36 3260.78,1331.91C3260.78,1332.45 3260.33,1332.9 3259.79,1332.9C3259.24,1332.9 3258.8,1332.45 3258.8,1331.91C3258.8,1331.36 3259.24,1330.92 3259.79,1330.92ZM3248.22,1330.92C3248.77,1330.92 3249.21,1331.36 3249.21,1331.91C3249.21,1332.45 3248.76,1332.9 3248.22,1332.9C3247.68,1332.9 3247.23,1332.45 3247.23,1331.91C3247.23,1331.36 3247.67,1330.92 3248.22,1330.92Z" style="fill:white;"/>
            </g>
        </g>
    </g>
</svg>
