<?xml version="1.0" encoding="UTF-8"?>
<svg width="100%" height="100%"  viewBox="0 0 40 40" version="1.1" xmlns="http://www.w3.org/2000/svg" xmlns:xlink="http://www.w3.org/1999/xlink">
    <title>Examples - Apache ECharts</title>
    <defs>
        <radialGradient cx="50%" cy="41.4427661%" fx="50%" fy="41.4427661%" r="56.3608592%" gradientTransform="translate(0.500000,0.414428),scale(0.900000,1.000000),rotate(-90.000000),translate(-0.500000,-0.414428)" id="radialGradient-1">
            <stop stop-color="#F39975" offset="0%"></stop>
            <stop stop-color="#FAEA97" offset="35.9812063%"></stop>
            <stop stop-color="#84DEC9" offset="67.6682692%"></stop>
            <stop stop-color="#039CFC" offset="100%"></stop>
        </radialGradient>
    </defs>
    <g id="图标" stroke="none" stroke-width="1" fill="none" fill-rule="evenodd">
        <g id="画板" transform="translate(-222.000000, -95.000000)">
            <g id="Examples---Apache-ECharts" transform="translate(222.000000, 95.000000)">
                <rect id="矩形" x="0" y="0" width="40" height="40"></rect>
                <path d="M7.57474824,29.4014253 C10.5541006,32.6819478 14.6485333,34.6543206 19.005914,34.9080539 L19.005914,38 C13.7612559,37.7407604 8.82722665,35.3658294 5.27330558,31.3899871 L7.57474824,29.4014253 Z M11.4171569,26.0871554 C13.6723493,28.4593368 16.7629725,29.7946674 19.9885299,29.7904917 C22.482093,29.7904917 24.7995456,29.0082417 26.7187488,27.6701825 L28.6559631,30.0457524 C26.122965,31.8930472 23.0935632,32.8830736 19.9885299,32.8783377 C15.8757598,32.8830428 11.9422644,31.1469723 9.11171172,28.077776 L11.4171569,26.0871554 Z M35.5702975,24.4650159 L38.39807,25.5251704 C37.2621884,28.2542304 35.5664584,30.6986109 33.4269538,32.6909924 L31.4957431,30.3257154 C33.2344763,28.6840578 34.6220745,26.6881838 35.5702975,24.4650159 Z M3.00588425,18.4684518 C3.19500825,21.8488759 4.33759518,25.0993723 6.2939454,27.8225153 L3.99050145,29.8110773 C1.58451378,26.5274507 0.194137511,22.5754368 0,18.4684518 L3.00588425,18.4684518 Z M30.8553418,22.7008362 L33.6851156,23.7589323 C32.8614747,25.6428462 31.6795254,27.3380927 30.2089366,28.744747 L28.2757247,26.3774114 C29.3476395,25.3250954 30.222082,24.0788044 30.8553418,22.7008362 Z M15.2675705,22.7625928 C16.5123508,23.9318507 18.1693895,24.64411 19.9885299,24.64411 C21.2110005,24.6455289 22.4124223,24.316876 23.4727141,23.6910001 L25.423937,26.0809798 C23.8061709,27.1619658 21.9176596,27.7355854 19.9885299,27.7319564 C17.3540625,27.7357661 14.8251571,26.6671194 12.9541203,24.7593889 L15.2675705,22.7625928 Z M8.02102804,18.4684518 C8.19480388,20.6373701 8.92472924,22.720072 10.136354,24.5041284 L7.83090883,26.4947489 C6.17282154,24.1469956 5.19516199,21.3641471 5.01114127,18.4684518 L8.02102804,18.4684518 Z M29.9367661,16.3213814 C29.9747897,16.6898623 29.9928132,17.0624603 29.9928132,17.4391755 C29.9969975,20.2081477 28.9120788,22.861109 26.9849156,24.7943843 L25.0497025,22.4208731 C26.4088509,20.9627136 27.1083925,18.9833352 26.9769106,16.9677669 L29.9367661,16.3213814 Z M39.7509181,14.1763694 C40.2362822,17.3255143 40.0103084,20.5473259 39.090504,23.5921896 L36.2647327,22.5340935 C36.7519222,20.8822613 36.9987497,19.1653524 36.9971918,17.4391755 C36.9972561,16.5621671 36.9350518,15.6863249 36.8110752,14.8186379 L39.7509181,14.1763694 Z M12.7559962,10.3248173 L14.7032168,12.7106799 C13.5926564,14.0208431 12.9818495,15.7009287 12.9841392,17.4391755 C12.9841392,18.8060545 13.3543712,20.0844157 13.9967739,21.1733901 L11.67732,23.1743033 C10.5689865,21.4792217 9.97868508,19.4819774 9.98224132,17.4391755 C9.98224132,14.6786563 11.0369185,12.1733977 12.7559962,10.3248173 Z M20,12.285725 C22.7614236,12.285725 25,14.5882596 25,17.42858 C25,20.2689004 22.7614236,22.571435 20,22.571435 C17.2385762,22.571435 15,20.2689004 15,17.42858 C15,14.5882596 17.2385762,12.285725 20,12.285725 Z M34.8478445,15.2468168 C35.1474918,17.4504362 34.9885518,19.6943969 34.3815522,21.8300684 L31.5537797,20.7699138 C31.985069,19.1838311 32.1034659,17.5250122 31.9019979,15.8911438 L34.8478445,15.2468168 Z M20,15.371438 C18.8954305,15.371438 18,16.2924518 18,17.42858 C18,18.5647082 18.8954305,19.485722 20,19.485722 C21.1045695,19.485722 22,18.5647082 22,17.42858 C22,16.2924518 21.1045695,15.371438 20,15.371438 Z M6.30395165,2.4158578 L8.23716351,4.78525198 C5.12450247,7.83837047 3.25476988,11.9931824 3.00588425,16.4098991 L0,16.4098991 C0.253904579,11.0798889 2.51484825,6.0608563 6.30395165,2.4158578 Z M9.52797265,6.36622042 L11.4631858,8.73973171 C9.47286851,10.7992729 8.25376928,13.5157944 8.02102804,16.4098991 L5.01114127,16.4098991 C5.25401763,12.6017344 6.86378767,9.02223108 9.52797265,6.36622042 Z M23.2042697,7.69287789 C26.2111231,8.74239978 28.5555934,11.1970768 29.5225063,14.3081168 L26.5646522,14.9545024 C25.8325941,12.9059152 24.2374477,11.308938 22.2267908,10.6116623 C20.2161339,9.91438672 18.0066037,10.1919403 16.2181665,11.366445 L14.2769495,8.98675805 C16.8848093,7.12346835 20.1974165,6.643356 23.2042697,7.69287789 Z M23.7368795,2.48584858 C28.9043309,3.86137973 32.9754377,7.95189628 34.4335847,13.2335523 L31.4877381,13.8778793 C30.2985702,9.82530614 27.17763,6.67946428 23.2145522,5.53868224 L23.7348784,2.502317 L23.7368795,2.48584858 Z M19.9885299,2.00001502 C20.5909075,2.00001502 21.1852801,2.03502553 21.7716477,2.10707487 L21.7636427,2.14618737 L21.2493202,5.15579145 C18.3197383,4.8321208 15.3771378,5.63263442 12.9861404,7.40373099 L11.0509273,5.03227826 C13.6354048,3.05878374 16.7697738,1.99539072 19.9885299,2.00001502 Z" id="形状结合" fill="url(#radialGradient-1)" fill-rule="nonzero"></path>
            </g>
        </g>
    </g>
</svg>