<svg id="图层_1" data-name="图层 1" xmlns="http://www.w3.org/2000/svg" viewBox="0 0 48 48"><path d="M24,11A10,10,0,1,0,34,21,10,10,0,0,0,24,11Zm0,16a6,6,0,1,1,6-6A6,6,0,0,1,24,27Z"/><rect x="22" width="4" height="7"/><rect x="9.48" y="4.77" width="4" height="7.41" transform="translate(-2.63 10.6) rotate(-45)"/><rect x="2" y="19" width="8" height="4"/><rect x="38" y="19" width="8" height="4"/><rect x="32.81" y="6.48" width="7.41" height="4" transform="translate(4.7 28.31) rotate(-45)"/><rect x="18" y="36" width="12" height="4"/><rect x="20" y="44" width="8" height="4"/></svg>