<?xml version="1.0" encoding="UTF-8" standalone="no"?>
<!DOCTYPE svg PUBLIC "-//W3C//DTD SVG 1.1//EN" "http://www.w3.org/Graphics/SVG/1.1/DTD/svg11.dtd">
<svg width="100%" height="100%" viewBox="0 0 80 80" version="1.1" xmlns="http://www.w3.org/2000/svg" xmlns:xlink="http://www.w3.org/1999/xlink" xml:space="preserve" xmlns:serif="http://www.serif.com/" style="fill-rule:evenodd;clip-rule:evenodd;stroke-linejoin:round;stroke-miterlimit:2;">
    <g transform="matrix(1,0,0,1,-209,-3198)">
        <g transform="matrix(1,0,0,1,2801.35,545.427)">
            <g transform="matrix(0.521152,0,0,0.521152,-3040.51,2670.08)">
                <rect x="859.943" y="-33.506" width="153.506" height="153.506" style="fill:none;"/>
            </g>
            <g transform="matrix(1.79259,0,0,6.19632,-3731.25,-1775.26)">
                <g transform="matrix(2.85803e-17,0.135031,-0.561925,9.95418e-18,2378.41,610.047)">
                    <rect x="780.258" y="3027.51" width="45.811" height="69.498" style="fill:rgb(17,155,255);"/>
                </g>
                <g transform="matrix(2.36033e-17,0.111516,-0.12887,2.28285e-18,1053.51,634.58)">
                    <rect x="780.258" y="3027.51" width="45.811" height="69.498" style="fill:rgb(108,221,195);"/>
                </g>
                <g transform="matrix(1.18017e-17,0.0557582,-0.198841,3.52235e-18,1279.17,678.086)">
                    <rect x="780.258" y="3027.51" width="45.811" height="69.498" style="fill:rgb(181,228,170);"/>
                </g>
                <g transform="matrix(5.90083e-18,0.0278791,-0.0994203,1.76117e-18,978.172,702.393)">
                    <rect x="780.258" y="3027.51" width="45.811" height="69.498" style="fill:rgb(255,189,109);"/>
                </g>
                <g transform="matrix(5.90083e-18,0.0278791,-0.0994203,1.76117e-18,978.172,703.67)">
                    <rect x="780.258" y="3027.51" width="45.811" height="69.498" style="fill:rgb(253,146,109);"/>
                </g>
                <g transform="matrix(1.18017e-17,0.0557582,-0.0994203,1.76117e-18,971.263,680.64)">
                    <rect x="780.258" y="3027.51" width="45.811" height="69.498" style="fill:rgb(255,234,146);"/>
                </g>
                <g transform="matrix(2.36033e-17,0.111516,-0.234214,4.14897e-18,1363.49,634.58)">
                    <rect x="780.258" y="3027.51" width="45.811" height="69.498" style="fill:rgb(62,191,218);"/>
                </g>
            </g>
        </g>
    </g>
</svg>
