<?xml version="1.0" encoding="UTF-8" standalone="no"?>
<!DOCTYPE svg PUBLIC "-//W3C//DTD SVG 1.1//EN" "http://www.w3.org/Graphics/SVG/1.1/DTD/svg11.dtd">
<svg width="100%" height="100%" viewBox="0 0 13 11" version="1.1" xmlns="http://www.w3.org/2000/svg" xmlns:xlink="http://www.w3.org/1999/xlink" xml:space="preserve" xmlns:serif="http://www.serif.com/" style="fill-rule:evenodd;clip-rule:evenodd;stroke-linejoin:round;stroke-miterlimit:2;">
    <g transform="matrix(1,0,0,1,-2874.54,-4108.05)">
        <g transform="matrix(1.55482,0,0,1.20853,755.627,1281.07)">
            <g transform="matrix(0.64316,0,0,0.827451,-485.989,-1060.03)">
                <path d="M2884.11,4116.72L2882.47,4115.08L2881.62,4115.93L2884.1,4118.41L2884.11,4118.41L2884.11,4118.41L2886.59,4115.93L2885.74,4115.08L2884.11,4116.72ZM2880.75,4115.92L2874.54,4115.92L2874.54,4117.12L2880.75,4117.12L2880.75,4115.92ZM2884.11,4109.68L2882.47,4108.05L2881.62,4108.9L2884.1,4111.38L2884.11,4111.38L2884.11,4111.38L2886.59,4108.9L2885.74,4108.05L2884.11,4109.68ZM2880.75,4108.76L2874.54,4108.76L2874.54,4109.96L2880.75,4109.96L2880.75,4108.76Z"/>
            </g>
        </g>
    </g>
</svg>
