<?xml version="1.0" encoding="UTF-8" standalone="no"?>
<!DOCTYPE svg PUBLIC "-//W3C//DTD SVG 1.1//EN" "http://www.w3.org/Graphics/SVG/1.1/DTD/svg11.dtd">
<svg width="100%" height="100%" viewBox="0 0 80 80" version="1.1" xmlns="http://www.w3.org/2000/svg" xmlns:xlink="http://www.w3.org/1999/xlink" xml:space="preserve" xmlns:serif="http://www.serif.com/" style="fill-rule:evenodd;clip-rule:evenodd;stroke-linecap:round;stroke-linejoin:round;stroke-miterlimit:1;">
    <g transform="matrix(1,0,0,1,-339,-244)">
        <g transform="matrix(1,0,0,1,3128.79,888.42)">
            <g transform="matrix(1,0,0,1,21.3785,-276.632)">
                <g transform="matrix(0.521152,0,0,0.521152,-3259.33,-350.375)">
                    <rect x="859.943" y="-33.506" width="153.506" height="153.506" style="fill:none;"/>
                </g>
                <g transform="matrix(0.901595,0,0,0.901595,-6623.27,-1432.87)">
                    <g>
                        <g transform="matrix(1.2028,0,0,1.25927,2845.83,-1713.52)">
                            <path d="M1153.05,2356.73L1165.6,2343L1179.2,2341L1192.8,2310.62L1206.4,2327L1219.08,2321.93" style="fill:none;stroke:rgb(17,155,255);stroke-width:1.8px;"/>
                        </g>
                        <g transform="matrix(3.54506,0,0,3.54506,213.006,-7156.99)">
                            <circle cx="1152" cy="2362" r="1" style="fill:rgb(51,211,255);"/>
                            <path d="M1152,2361C1152.55,2361 1153,2361.45 1153,2362C1153,2362.55 1152.55,2363 1152,2363C1151.45,2363 1151,2362.55 1151,2362C1151,2361.45 1151.45,2361 1152,2361ZM1152,2361.31C1152.38,2361.31 1152.69,2361.62 1152.69,2362C1152.69,2362.38 1152.38,2362.69 1152,2362.69C1151.62,2362.69 1151.31,2362.38 1151.31,2362C1151.31,2361.62 1151.62,2361.31 1152,2361.31Z" style="fill:rgb(17,155,255);"/>
                        </g>
                        <g transform="matrix(3.54506,0,0,3.54506,228.225,-7163.02)">
                            <circle cx="1152" cy="2362" r="1" style="fill:rgb(51,211,255);"/>
                            <path d="M1152,2361C1152.55,2361 1153,2361.45 1153,2362C1153,2362.55 1152.55,2363 1152,2363C1151.45,2363 1151,2362.55 1151,2362C1151,2361.45 1151.45,2361 1152,2361ZM1152,2361.31C1152.38,2361.31 1152.69,2361.62 1152.69,2362C1152.69,2362.38 1152.38,2362.69 1152,2362.69C1151.62,2362.69 1151.31,2362.38 1151.31,2362C1151.31,2361.62 1151.62,2361.31 1152,2361.31Z" style="fill:rgb(17,155,255);"/>
                        </g>
                        <g transform="matrix(3.54506,0,0,3.54506,196.678,-7176.72)">
                            <circle cx="1152" cy="2362" r="1" style="fill:rgb(51,211,255);"/>
                            <path d="M1152,2361C1152.55,2361 1153,2361.45 1153,2362C1153,2362.55 1152.55,2363 1152,2363C1151.45,2363 1151,2362.55 1151,2362C1151,2361.45 1151.45,2361 1152,2361ZM1152,2361.31C1152.38,2361.31 1152.69,2361.62 1152.69,2362C1152.69,2362.38 1152.38,2362.69 1152,2362.69C1151.62,2362.69 1151.31,2362.38 1151.31,2362C1151.31,2361.62 1151.62,2361.31 1152,2361.31Z" style="fill:rgb(17,155,255);"/>
                        </g>
                        <g transform="matrix(3.54506,0,0,3.54506,180.35,-7139.2)">
                            <circle cx="1152" cy="2362" r="1" style="fill:rgb(51,211,255);"/>
                            <path d="M1152,2361C1152.55,2361 1153,2361.45 1153,2362C1153,2362.55 1152.55,2363 1152,2363C1151.45,2363 1151,2362.55 1151,2362C1151,2361.45 1151.45,2361 1152,2361ZM1152,2361.31C1152.38,2361.31 1152.69,2361.62 1152.69,2362C1152.69,2362.38 1152.38,2362.69 1152,2362.69C1151.62,2362.69 1151.31,2362.38 1151.31,2362C1151.31,2361.62 1151.62,2361.31 1152,2361.31Z" style="fill:rgb(17,155,255);"/>
                        </g>
                        <g transform="matrix(3.54506,0,0,3.54506,164.021,-7136.31)">
                            <circle cx="1152" cy="2362" r="1" style="fill:rgb(51,211,255);"/>
                            <path d="M1152,2361C1152.55,2361 1153,2361.45 1153,2362C1153,2362.55 1152.55,2363 1152,2363C1151.45,2363 1151,2362.55 1151,2362C1151,2361.45 1151.45,2361 1152,2361ZM1152,2361.31C1152.38,2361.31 1152.69,2361.62 1152.69,2362C1152.69,2362.38 1152.38,2362.69 1152,2362.69C1151.62,2362.69 1151.31,2362.38 1151.31,2362C1151.31,2361.62 1151.62,2361.31 1152,2361.31Z" style="fill:rgb(17,155,255);"/>
                        </g>
                        <g transform="matrix(3.54506,0,0,3.54506,148.802,-7119.19)">
                            <circle cx="1152" cy="2362" r="1" style="fill:rgb(51,211,255);"/>
                            <path d="M1152,2361C1152.55,2361 1153,2361.45 1153,2362C1153,2362.55 1152.55,2363 1152,2363C1151.45,2363 1151,2362.55 1151,2362C1151,2361.45 1151.45,2361 1152,2361ZM1152,2361.31C1152.38,2361.31 1152.69,2361.62 1152.69,2362C1152.69,2362.38 1152.38,2362.69 1152,2362.69C1151.62,2362.69 1151.31,2362.38 1151.31,2362C1151.31,2361.62 1151.62,2361.31 1152,2361.31Z" style="fill:rgb(17,155,255);"/>
                        </g>
                    </g>
                </g>
                <g transform="matrix(1.07699,0,0,0.979441,-7373.96,-1494.22)">
                    <g transform="matrix(1,0,0,1,3087.65,-1134.02)">
                        <path d="M1152.78,2325.27L1165.48,2320.26L1179.11,2351.17L1192.74,2327.26L1206.37,2331.75L1219.07,2298.3" style="fill:none;stroke:rgb(108,221,195);stroke-width:1.94px;"/>
                    </g>
                    <g transform="matrix(2.96698,0,0,3.26247,822.47,-6514.69)">
                        <circle cx="1152" cy="2362" r="1" style="fill:rgb(186,255,214);"/>
                        <path d="M1152,2361C1152.55,2361 1153,2361.45 1153,2362C1153,2362.55 1152.55,2363 1152,2363C1151.45,2363 1151,2362.55 1151,2362C1151,2361.45 1151.45,2361 1152,2361ZM1152,2361.31C1152.38,2361.31 1152.69,2361.62 1152.69,2362C1152.69,2362.38 1152.38,2362.69 1152,2362.69C1151.62,2362.69 1151.31,2362.38 1151.31,2362C1151.31,2361.62 1151.62,2361.31 1152,2361.31Z" style="fill:rgb(108,221,195);"/>
                    </g>
                    <g transform="matrix(2.96698,0,0,3.26247,835.172,-6519.7)">
                        <circle cx="1152" cy="2362" r="1" style="fill:rgb(186,255,214);"/>
                        <path d="M1152,2361C1152.55,2361 1153,2361.45 1153,2362C1153,2362.55 1152.55,2363 1152,2363C1151.45,2363 1151,2362.55 1151,2362C1151,2361.45 1151.45,2361 1152,2361ZM1152,2361.31C1152.38,2361.31 1152.69,2361.62 1152.69,2362C1152.69,2362.38 1152.38,2362.69 1152,2362.69C1151.62,2362.69 1151.31,2362.38 1151.31,2362C1151.31,2361.62 1151.62,2361.31 1152,2361.31Z" style="fill:rgb(108,221,195);"/>
                    </g>
                    <g transform="matrix(2.96698,0,0,3.26247,848.803,-6488.79)">
                        <circle cx="1152" cy="2362" r="1" style="fill:rgb(186,255,214);"/>
                        <path d="M1152,2361C1152.55,2361 1153,2361.45 1153,2362C1153,2362.55 1152.55,2363 1152,2363C1151.45,2363 1151,2362.55 1151,2362C1151,2361.45 1151.45,2361 1152,2361ZM1152,2361.31C1152.38,2361.31 1152.69,2361.62 1152.69,2362C1152.69,2362.38 1152.38,2362.69 1152,2362.69C1151.62,2362.69 1151.31,2362.38 1151.31,2362C1151.31,2361.62 1151.62,2361.31 1152,2361.31Z" style="fill:rgb(108,221,195);"/>
                    </g>
                    <g transform="matrix(2.96698,0,0,3.26247,862.433,-6512.7)">
                        <circle cx="1152" cy="2362" r="1" style="fill:rgb(186,255,214);"/>
                        <path d="M1152,2361C1152.55,2361 1153,2361.45 1153,2362C1153,2362.55 1152.55,2363 1152,2363C1151.45,2363 1151,2362.55 1151,2362C1151,2361.45 1151.45,2361 1152,2361ZM1152,2361.31C1152.38,2361.31 1152.69,2361.62 1152.69,2362C1152.69,2362.38 1152.38,2362.69 1152,2362.69C1151.62,2362.69 1151.31,2362.38 1151.31,2362C1151.31,2361.62 1151.62,2361.31 1152,2361.31Z" style="fill:rgb(108,221,195);"/>
                    </g>
                    <g transform="matrix(2.96698,0,0,3.26247,876.064,-6508.21)">
                        <circle cx="1152" cy="2362" r="1" style="fill:rgb(186,255,214);"/>
                        <path d="M1152,2361C1152.55,2361 1153,2361.45 1153,2362C1153,2362.55 1152.55,2363 1152,2363C1151.45,2363 1151,2362.55 1151,2362C1151,2361.45 1151.45,2361 1152,2361ZM1152,2361.31C1152.38,2361.31 1152.69,2361.62 1152.69,2362C1152.69,2362.38 1152.38,2362.69 1152,2362.69C1151.62,2362.69 1151.31,2362.38 1151.31,2362C1151.31,2361.62 1151.62,2361.31 1152,2361.31Z" style="fill:rgb(108,221,195);"/>
                    </g>
                    <g transform="matrix(2.96698,0,0,3.26247,888.766,-6541.66)">
                        <circle cx="1152" cy="2362" r="1" style="fill:rgb(186,255,214);"/>
                        <path d="M1152,2361C1152.55,2361 1153,2361.45 1153,2362C1153,2362.55 1152.55,2363 1152,2363C1151.45,2363 1151,2362.55 1151,2362C1151,2361.45 1151.45,2361 1152,2361ZM1152,2361.31C1152.38,2361.31 1152.69,2361.62 1152.69,2362C1152.69,2362.38 1152.38,2362.69 1152,2362.69C1151.62,2362.69 1151.31,2362.38 1151.31,2362C1151.31,2361.62 1151.62,2361.31 1152,2361.31Z" style="fill:rgb(108,221,195);"/>
                    </g>
                </g>
            </g>
        </g>
    </g>
</svg>
