<?xml version="1.0" encoding="UTF-8" standalone="no"?>
<!DOCTYPE svg PUBLIC "-//W3C//DTD SVG 1.1//EN" "http://www.w3.org/Graphics/SVG/1.1/DTD/svg11.dtd">
<svg width="100%" height="100%" viewBox="0 0 80 80" version="1.1" xmlns="http://www.w3.org/2000/svg" xmlns:xlink="http://www.w3.org/1999/xlink" xml:space="preserve" xmlns:serif="http://www.serif.com/" style="fill-rule:evenodd;clip-rule:evenodd;stroke-linejoin:round;stroke-miterlimit:2;">
    <g transform="matrix(1,0,0,1,-859,-916)">
        <g transform="matrix(1,0,0,1,2857.41,692.718)">
            <g transform="matrix(0.521152,0,0,0.521152,-2446.57,240.628)">
                <rect x="859.943" y="-33.506" width="153.506" height="153.506" style="fill:none;"/>
            </g>
            <g transform="matrix(1,0,0,1,-2208.01,-1230.76)">
                <g transform="matrix(0.143443,0,0,0.13194,360.6,1328.34)">
                    <g transform="matrix(0.946711,0,0,1.45918,-1201,-820.043)">
                        <rect x="192.646" y="1264.99" width="515.468" height="10.388" style="fill:white;fill-opacity:0.2;"/>
                    </g>
                    <g transform="matrix(0.946711,0,0,2.91835,-1201,-2665.89)">
                        <rect x="192.646" y="1264.99" width="515.468" height="10.388" style="fill:rgb(17,155,255);"/>
                    </g>
                    <g transform="matrix(0.749644,0,0,0.815003,-2061.79,957.043)">
                        <text x="1389.46px" y="70.325px" style="font-family:'PingFangSC-Light', 'PingFang SC', sans-serif;font-weight:300;font-size:37.198px;fill:white;fill-opacity:0.8;">01</text>
                    </g>
                    <g transform="matrix(0.749644,0,0,0.815003,-2005.42,957.043)">
                        <text x="1389.46px" y="70.325px" style="font-family:'PingFangSC-Light', 'PingFang SC', sans-serif;font-weight:300;font-size:37.198px;fill:white;fill-opacity:0.8;">指标A</text>
                    </g>
                    <g transform="matrix(0.749644,0,0,0.815003,-1604.13,957.043)">
                        <text x="1389.46px" y="70.325px" style="font-family:'PingFangSC-Light', 'PingFang SC', sans-serif;font-weight:300;font-size:37.198px;fill:white;fill-opacity:0.8;">90</text>
                    </g>
                </g>
                <g transform="matrix(0.143443,0,0,0.13194,360.6,1343.4)">
                    <g transform="matrix(0.946711,0,0,2.91835,-1201,-2665.89)">
                        <rect x="192.646" y="1264.99" width="515.468" height="10.388" style="fill:white;fill-opacity:0.2;"/>
                    </g>
                    <g transform="matrix(0.734744,0,0,2.91835,-1160.17,-2665.89)">
                        <rect x="192.646" y="1264.99" width="515.468" height="10.388" style="fill:rgb(62,191,218);"/>
                    </g>
                    <g transform="matrix(0.749644,0,0,0.815003,-2061.79,957.043)">
                        <text x="1389.46px" y="70.325px" style="font-family:'PingFangSC-Light', 'PingFang SC', sans-serif;font-weight:300;font-size:37.198px;fill:white;fill-opacity:0.8;">02</text>
                    </g>
                    <g transform="matrix(0.749644,0,0,0.815003,-2005.42,957.043)">
                        <text x="1389.46px" y="70.325px" style="font-family:'PingFangSC-Light', 'PingFang SC', sans-serif;font-weight:300;font-size:37.198px;fill:white;fill-opacity:0.8;">指标B</text>
                    </g>
                    <g transform="matrix(0.749644,0,0,0.815003,-1604.13,957.043)">
                        <text x="1389.46px" y="70.325px" style="font-family:'PingFangSC-Light', 'PingFang SC', sans-serif;font-weight:300;font-size:37.198px;fill:white;fill-opacity:0.8;">90</text>
                    </g>
                </g>
                <g transform="matrix(0.143443,0,0,0.13194,360.6,1358.47)">
                    <g transform="matrix(0.946711,0,0,2.91835,-1201,-2665.89)">
                        <rect x="192.646" y="1264.99" width="515.468" height="10.388" style="fill:white;fill-opacity:0.2;"/>
                    </g>
                    <g transform="matrix(0.571447,0,0,2.91835,-1128.71,-2665.89)">
                        <rect x="192.646" y="1264.99" width="515.468" height="10.388" style="fill:rgb(108,221,195);"/>
                    </g>
                    <g transform="matrix(0.749644,0,0,0.815003,-2061.79,957.043)">
                        <text x="1389.46px" y="70.325px" style="font-family:'PingFangSC-Light', 'PingFang SC', sans-serif;font-weight:300;font-size:37.198px;fill:white;fill-opacity:0.8;">03</text>
                    </g>
                    <g transform="matrix(0.749644,0,0,0.815003,-2005.42,957.043)">
                        <text x="1389.46px" y="70.325px" style="font-family:'PingFangSC-Light', 'PingFang SC', sans-serif;font-weight:300;font-size:37.198px;fill:white;fill-opacity:0.8;">指标C</text>
                    </g>
                    <g transform="matrix(0.749644,0,0,0.815003,-1604.13,957.043)">
                        <text x="1389.46px" y="70.325px" style="font-family:'PingFangSC-Light', 'PingFang SC', sans-serif;font-weight:300;font-size:37.198px;fill:white;fill-opacity:0.8;">90</text>
                    </g>
                </g>
                <g transform="matrix(0.143443,0,0,0.13194,360.6,1373.53)">
                    <g transform="matrix(0.946711,0,0,2.91835,-1201,-2665.89)">
                        <rect x="192.646" y="1264.99" width="515.468" height="10.388" style="fill:white;fill-opacity:0.2;"/>
                    </g>
                    <g transform="matrix(0.493084,0,0,2.91835,-1113.61,-2665.89)">
                        <rect x="192.646" y="1264.99" width="515.468" height="10.388" style="fill:rgb(181,228,170);"/>
                    </g>
                    <g transform="matrix(0.749644,0,0,0.815003,-2061.79,957.043)">
                        <text x="1389.46px" y="70.325px" style="font-family:'PingFangSC-Light', 'PingFang SC', sans-serif;font-weight:300;font-size:37.198px;fill:white;fill-opacity:0.8;">04</text>
                    </g>
                    <g transform="matrix(0.749644,0,0,0.815003,-2005.42,957.043)">
                        <text x="1389.46px" y="70.325px" style="font-family:'PingFangSC-Light', 'PingFang SC', sans-serif;font-weight:300;font-size:37.198px;fill:white;fill-opacity:0.8;">指标D</text>
                    </g>
                    <g transform="matrix(0.749644,0,0,0.815003,-1604.13,957.043)">
                        <text x="1389.46px" y="70.325px" style="font-family:'PingFangSC-Light', 'PingFang SC', sans-serif;font-weight:300;font-size:37.198px;fill:white;fill-opacity:0.8;">90</text>
                    </g>
                </g>
                <g transform="matrix(0.143443,0,0,0.13194,360.6,1388.59)">
                    <g transform="matrix(0.946711,0,0,2.91835,-1201,-2658.31)">
                        <rect x="192.646" y="1264.99" width="515.468" height="10.388" style="fill:white;fill-opacity:0.2;"/>
                    </g>
                    <g transform="matrix(0.267712,0,0,2.91835,-1070.2,-2658.31)">
                        <rect x="192.646" y="1264.99" width="515.468" height="10.388" style="fill:rgb(255,234,146);"/>
                    </g>
                    <g transform="matrix(0.749644,0,0,0.815003,-2061.79,957.043)">
                        <text x="1389.46px" y="70.325px" style="font-family:'PingFangSC-Light', 'PingFang SC', sans-serif;font-weight:300;font-size:37.198px;fill:white;fill-opacity:0.8;">05</text>
                    </g>
                    <g transform="matrix(0.749644,0,0,0.815003,-2005.42,957.043)">
                        <text x="1389.46px" y="70.325px" style="font-family:'PingFangSC-Light', 'PingFang SC', sans-serif;font-weight:300;font-size:37.198px;fill:white;fill-opacity:0.8;">指标E</text>
                    </g>
                    <g transform="matrix(0.749644,0,0,0.815003,-1604.13,957.043)">
                        <text x="1389.46px" y="70.325px" style="font-family:'PingFangSC-Light', 'PingFang SC', sans-serif;font-weight:300;font-size:37.198px;fill:white;fill-opacity:0.8;">90</text>
                    </g>
                </g>
            </g>
        </g>
    </g>
</svg>
