<?xml version="1.0" encoding="UTF-8" standalone="no"?>
<!DOCTYPE svg PUBLIC "-//W3C//DTD SVG 1.1//EN" "http://www.w3.org/Graphics/SVG/1.1/DTD/svg11.dtd">
<svg width="100%" height="100%" viewBox="0 0 80 80" version="1.1" xmlns="http://www.w3.org/2000/svg" xmlns:xlink="http://www.w3.org/1999/xlink" xml:space="preserve" xmlns:serif="http://www.serif.com/" style="fill-rule:evenodd;clip-rule:evenodd;stroke-linejoin:round;stroke-miterlimit:2;">
    <g transform="matrix(1,0,0,1,-469,-2792)">
        <g transform="matrix(1,0,0,1,3175.83,515.134)">
            <g transform="matrix(0.521152,0,0,0.521152,-3154.99,2294.38)">
                <rect x="859.943" y="-33.506" width="153.506" height="153.506" style="fill:none;"/>
            </g>
            <g transform="matrix(1,0,0,1,-33.8076,394.068)">
                <g transform="matrix(1,0,0,1,-5,2.42846)">
                    <circle cx="-2660.16" cy="1912.97" r="2.864" style="fill:rgb(17,155,255);fill-opacity:0.8;"/>
                    <g transform="matrix(1,0,0,1,5.72845,-6.84239)">
                        <circle cx="-2660.16" cy="1912.97" r="2.864" style="fill:rgb(17,155,255);fill-opacity:0.8;"/>
                    </g>
                    <g transform="matrix(1,0,0,1,5.72845,-12.4719)">
                        <circle cx="-2660.16" cy="1912.97" r="2.864" style="fill:rgb(17,155,255);fill-opacity:0.8;"/>
                    </g>
                    <g transform="matrix(1,0,0,1,5.72845,-2.2741)">
                        <circle cx="-2660.16" cy="1912.97" r="2.864" style="fill:rgb(17,155,255);fill-opacity:0.8;"/>
                    </g>
                    <g transform="matrix(1,0,0,1,12.1032,-9.70661)">
                        <circle cx="-2660.16" cy="1912.97" r="2.864" style="fill:rgb(17,155,255);fill-opacity:0.8;"/>
                    </g>
                    <g transform="matrix(1,0,0,1,12.1032,-15.3361)">
                        <circle cx="-2660.16" cy="1912.97" r="2.864" style="fill:rgb(17,155,255);fill-opacity:0.8;"/>
                    </g>
                    <g transform="matrix(1,0,0,1,17.8316,-16.5534)">
                        <circle cx="-2660.16" cy="1912.97" r="2.864" style="fill:rgb(17,155,255);fill-opacity:0.8;"/>
                    </g>
                    <g transform="matrix(1,0,0,1,22.3115,-24.6914)">
                        <circle cx="-2660.16" cy="1912.97" r="2.864" style="fill:rgb(17,155,255);fill-opacity:0.8;"/>
                    </g>
                </g>
                <g transform="matrix(1,0,0,1,-5,42.0087)">
                    <circle cx="-2660.16" cy="1912.97" r="2.864" style="fill:rgb(255,234,146);fill-opacity:0.8;"/>
                    <g transform="matrix(1,0,0,1,5.72845,-6.84239)">
                        <circle cx="-2660.16" cy="1912.97" r="2.864" style="fill:rgb(255,234,146);fill-opacity:0.8;"/>
                    </g>
                    <g transform="matrix(1,0,0,1,5.72845,-12.4719)">
                        <circle cx="-2660.16" cy="1912.97" r="2.864" style="fill:rgb(255,234,146);fill-opacity:0.8;"/>
                    </g>
                    <g transform="matrix(1,0,0,1,5.72845,-2.2741)">
                        <circle cx="-2660.16" cy="1912.97" r="2.864" style="fill:rgb(255,234,146);fill-opacity:0.8;"/>
                    </g>
                    <g transform="matrix(1,0,0,1,12.1032,-9.70661)">
                        <circle cx="-2660.16" cy="1912.97" r="2.864" style="fill:rgb(255,234,146);fill-opacity:0.8;"/>
                    </g>
                    <g transform="matrix(1,0,0,1,12.1032,-15.3361)">
                        <circle cx="-2660.16" cy="1912.97" r="2.864" style="fill:rgb(255,234,146);fill-opacity:0.8;"/>
                    </g>
                    <g transform="matrix(1,0,0,1,17.8316,-16.5534)">
                        <circle cx="-2660.16" cy="1912.97" r="2.864" style="fill:rgb(255,234,146);fill-opacity:0.8;"/>
                    </g>
                    <g transform="matrix(1,0,0,1,22.3115,-24.6914)">
                        <circle cx="-2660.16" cy="1912.97" r="2.864" style="fill:rgb(255,234,146);fill-opacity:0.8;"/>
                    </g>
                </g>
                <g transform="matrix(1,0,0,1,36.96,2.42846)">
                    <circle cx="-2660.16" cy="1912.97" r="2.864" style="fill:rgb(108,221,195);fill-opacity:0.8;"/>
                    <g transform="matrix(1,0,0,1,5.72845,-6.84239)">
                        <circle cx="-2660.16" cy="1912.97" r="2.864" style="fill:rgb(108,221,195);fill-opacity:0.8;"/>
                    </g>
                    <g transform="matrix(1,0,0,1,5.72845,-12.4719)">
                        <circle cx="-2660.16" cy="1912.97" r="2.864" style="fill:rgb(108,221,195);fill-opacity:0.8;"/>
                    </g>
                    <g transform="matrix(1,0,0,1,5.72845,-2.2741)">
                        <circle cx="-2660.16" cy="1912.97" r="2.864" style="fill:rgb(108,221,195);fill-opacity:0.8;"/>
                    </g>
                    <g transform="matrix(1,0,0,1,12.1032,-9.70661)">
                        <circle cx="-2660.16" cy="1912.97" r="2.864" style="fill:rgb(108,221,195);fill-opacity:0.8;"/>
                    </g>
                    <g transform="matrix(1,0,0,1,12.1032,-15.3361)">
                        <circle cx="-2660.16" cy="1912.97" r="2.864" style="fill:rgb(108,221,195);fill-opacity:0.8;"/>
                    </g>
                    <g transform="matrix(1,0,0,1,17.8316,-16.5534)">
                        <circle cx="-2660.16" cy="1912.97" r="2.864" style="fill:rgb(108,221,195);fill-opacity:0.8;"/>
                    </g>
                    <g transform="matrix(1,0,0,1,22.3115,-24.6914)">
                        <circle cx="-2660.16" cy="1912.97" r="2.864" style="fill:rgb(108,221,195);fill-opacity:0.8;"/>
                    </g>
                </g>
                <g transform="matrix(1,0,0,1,36.96,42.0087)">
                    <circle cx="-2660.16" cy="1912.97" r="2.864" style="fill:rgb(253,146,109);fill-opacity:0.8;"/>
                    <g transform="matrix(1,0,0,1,5.72845,-6.84239)">
                        <circle cx="-2660.16" cy="1912.97" r="2.864" style="fill:rgb(253,146,109);fill-opacity:0.8;"/>
                    </g>
                    <g transform="matrix(1,0,0,1,5.72845,-12.4719)">
                        <circle cx="-2660.16" cy="1912.97" r="2.864" style="fill:rgb(253,146,109);fill-opacity:0.8;"/>
                    </g>
                    <g transform="matrix(1,0,0,1,5.72845,-2.2741)">
                        <circle cx="-2660.16" cy="1912.97" r="2.864" style="fill:rgb(253,146,109);fill-opacity:0.8;"/>
                    </g>
                    <g transform="matrix(1,0,0,1,12.1032,-9.70661)">
                        <circle cx="-2660.16" cy="1912.97" r="2.864" style="fill:rgb(253,146,109);fill-opacity:0.8;"/>
                    </g>
                    <g transform="matrix(1,0,0,1,12.1032,-15.3361)">
                        <circle cx="-2660.16" cy="1912.97" r="2.864" style="fill:rgb(253,146,109);fill-opacity:0.8;"/>
                    </g>
                    <g transform="matrix(1,0,0,1,17.8316,-16.5534)">
                        <circle cx="-2660.16" cy="1912.97" r="2.864" style="fill:rgb(253,146,109);fill-opacity:0.8;"/>
                    </g>
                    <g transform="matrix(1,0,0,1,22.3115,-24.6914)">
                        <circle cx="-2660.16" cy="1912.97" r="2.864" style="fill:rgb(253,146,109);fill-opacity:0.8;"/>
                    </g>
                </g>
            </g>
        </g>
    </g>
</svg>
