<?xml version="1.0" encoding="UTF-8" standalone="no"?>
<!DOCTYPE svg PUBLIC "-//W3C//DTD SVG 1.1//EN" "http://www.w3.org/Graphics/SVG/1.1/DTD/svg11.dtd">
<svg width="100%" height="100%" viewBox="0 0 80 80" version="1.1" xmlns="http://www.w3.org/2000/svg" xmlns:xlink="http://www.w3.org/1999/xlink" xml:space="preserve" xmlns:serif="http://www.serif.com/" style="fill-rule:evenodd;clip-rule:evenodd;stroke-linejoin:round;stroke-miterlimit:2;">
    <g transform="matrix(1,0,0,1,-209,-1728)">
        <g transform="matrix(1,0,0,1,3075.68,538.27)">
            <g transform="matrix(0.521152,0,0,0.521152,-3314.84,1207.24)">
                <rect x="859.943" y="-33.506" width="153.506" height="153.506" style="fill:none;"/>
            </g>
            <g transform="matrix(1,-1.2326e-32,9.86076e-32,1,-2809.85,-794.952)">
                <g>
                    <g transform="matrix(-4.37911e-19,-0.27655,-0.269399,-4.37911e-19,-9.55,2028.07)">
                        <path d="M-11.509,-11.508C-17.864,-11.508 -23.016,-6.356 -23.016,0C-23.016,6.355 -17.864,11.509 -11.509,11.509C-5.153,11.509 -0.001,6.355 -0.001,0C-0.001,-6.356 -5.153,-11.508 -11.509,-11.508" style="fill:rgb(253,146,109);fill-opacity:0.9;fill-rule:nonzero;"/>
                    </g>
                    <g transform="matrix(-4.37911e-19,-0.27655,-0.269399,-4.37911e-19,-9.55,2031.25)">
                        <path d="M-11.509,-11.508C-17.864,-11.508 -23.016,-6.356 -23.016,0C-23.016,6.355 -17.864,11.509 -11.509,11.509C-5.153,11.509 -0.001,6.355 -0.001,0C-0.001,-6.356 -5.153,-11.508 -11.509,-11.508" style="fill:rgb(17,155,255);fill-opacity:0.9;fill-rule:nonzero;"/>
                    </g>
                    <g transform="matrix(-4.37911e-19,-0.27655,-0.269399,-4.37911e-19,-9.55,2035.49)">
                        <path d="M-11.509,-11.508C-17.864,-11.508 -23.016,-6.356 -23.016,0C-23.016,6.355 -17.864,11.509 -11.509,11.509C-5.153,11.509 -0.001,6.355 -0.001,0C-0.001,-6.356 -5.153,-11.508 -11.509,-11.508" style="fill:rgb(17,155,255);fill-opacity:0.9;fill-rule:nonzero;"/>
                    </g>
                    <g transform="matrix(-4.37911e-19,-0.27655,-0.269399,-4.37911e-19,-31.2507,2024.89)">
                        <path d="M-11.509,-11.508C-17.864,-11.508 -23.016,-6.356 -23.016,0C-23.016,6.355 -17.864,11.509 -11.509,11.509C-5.153,11.509 -0.001,6.355 -0.001,0C-0.001,-6.356 -5.153,-11.508 -11.509,-11.508" style="fill:rgb(17,155,255);fill-opacity:0.9;fill-rule:nonzero;"/>
                    </g>
                    <g transform="matrix(-4.37911e-19,-0.27655,-0.269399,-4.37911e-19,-15.7502,2043.98)">
                        <path d="M-11.509,-11.508C-17.864,-11.508 -23.016,-6.356 -23.016,0C-23.016,6.355 -17.864,11.509 -11.509,11.509C-5.153,11.509 -0.001,6.355 -0.001,0C-0.001,-6.356 -5.153,-11.508 -11.509,-11.508" style="fill:rgb(17,155,255);fill-opacity:0.9;fill-rule:nonzero;"/>
                    </g>
                    <g transform="matrix(-4.37911e-19,-0.27655,-0.269399,-4.37911e-19,-15.7502,2048.22)">
                        <path d="M-11.509,-11.508C-17.864,-11.508 -23.016,-6.356 -23.016,0C-23.016,6.355 -17.864,11.509 -11.509,11.509C-5.153,11.509 -0.001,6.355 -0.001,0C-0.001,-6.356 -5.153,-11.508 -11.509,-11.508" style="fill:rgb(17,155,255);fill-opacity:0.9;fill-rule:nonzero;"/>
                    </g>
                    <g transform="matrix(-4.37911e-19,-0.27655,-0.269399,-4.37911e-19,-15.7502,2038.68)">
                        <path d="M-11.509,-11.508C-17.864,-11.508 -23.016,-6.356 -23.016,0C-23.016,6.355 -17.864,11.509 -11.509,11.509C-5.153,11.509 -0.001,6.355 -0.001,0C-0.001,-6.356 -5.153,-11.508 -11.509,-11.508" style="fill:rgb(17,155,255);fill-opacity:0.9;fill-rule:nonzero;"/>
                    </g>
                    <g transform="matrix(-5.3521e-19,-0.337996,-0.329256,-5.3521e-19,19.9581,2039.1)">
                        <path d="M-9.416,-9.415C-14.615,-9.415 -18.831,-5.2 -18.831,0C-18.831,5.2 -14.615,9.416 -9.416,9.416C-4.216,9.416 0,5.2 0,0C0,-5.2 -4.216,-9.415 -9.416,-9.415" style="fill:rgb(17,155,255);fill-opacity:0.9;fill-rule:nonzero;"/>
                    </g>
                    <g transform="matrix(-5.3521e-19,-0.337996,-0.329256,-5.3521e-19,-21.7028,2016.82)">
                        <path d="M-9.416,-9.415C-14.615,-9.415 -18.831,-5.2 -18.831,0C-18.831,5.2 -14.615,9.416 -9.416,9.416C-4.216,9.416 0,5.2 0,0C0,-5.2 -4.216,-9.415 -9.416,-9.415" style="fill:rgb(17,155,255);fill-opacity:0.9;fill-rule:nonzero;"/>
                    </g>
                    <g transform="matrix(-9.55039e-19,-0.603128,-0.587531,-9.55039e-19,12.5318,2015.93)">
                        <path d="M-5.278,-5.277C-8.191,-5.277 -10.554,-2.914 -10.554,0C-10.554,2.914 -8.191,5.278 -5.278,5.278C-2.363,5.278 0,2.914 0,0C0,-2.914 -2.363,-5.277 -5.278,-5.277" style="fill:rgb(17,155,255);fill-opacity:0.9;fill-rule:nonzero;"/>
                    </g>
                    <g transform="matrix(-1.60563e-18,-1.01399,-0.987767,-1.60563e-18,19.9169,1994.59)">
                        <path d="M-3.138,-3.139C-4.871,-3.139 -6.277,-1.734 -6.277,0C-6.277,1.733 -4.871,3.138 -3.138,3.138C-1.405,3.138 0,1.733 0,0C0,-1.734 -1.405,-3.139 -3.138,-3.139" style="fill:rgb(17,155,255);fill-opacity:0.9;fill-rule:nonzero;"/>
                    </g>
                    <g transform="matrix(-2.40768e-18,-1.5205,-1.48118,-2.40768e-18,2.00311,2025.42)">
                        <path d="M-2.092,-2.092C-3.247,-2.092 -4.185,-1.155 -4.185,-0.001C-4.185,1.156 -3.247,2.092 -2.092,2.092C-0.937,2.092 0.001,1.156 0.001,-0.001C0.001,-1.155 -0.937,-2.092 -2.092,-2.092" style="fill:rgb(253,146,109);fill-opacity:0.9;fill-rule:nonzero;"/>
                    </g>
                    <g transform="matrix(-2.40768e-18,-1.5205,-1.48118,-2.40768e-18,-2.13036,2010.56)">
                        <path d="M-2.092,-2.092C-3.247,-2.092 -4.185,-1.155 -4.185,-0.001C-4.185,1.156 -3.247,2.092 -2.092,2.092C-0.937,2.092 0.001,1.156 0.001,-0.001C0.001,-1.155 -0.937,-2.092 -2.092,-2.092" style="fill:rgb(17,155,255);fill-opacity:0.9;fill-rule:nonzero;"/>
                    </g>
                    <g transform="matrix(-2.40768e-18,-1.5205,-1.48118,-2.40768e-18,-2.13036,2006.32)">
                        <path d="M-2.092,-2.092C-3.247,-2.092 -4.185,-1.155 -4.185,-0.001C-4.185,1.156 -3.247,2.092 -2.092,2.092C-0.937,2.092 0.001,1.156 0.001,-0.001C0.001,-1.155 -0.937,-2.092 -2.092,-2.092" style="fill:rgb(255,234,146);fill-opacity:0.9;fill-rule:nonzero;"/>
                    </g>
                    <g transform="matrix(-2.40825e-18,-1.52086,-1.48153,-2.40825e-18,-48.6743,2036.07)">
                        <path d="M-2.093,-2.092C-3.248,-2.092 -4.185,-1.155 -4.185,0C-4.185,1.156 -3.248,2.093 -2.093,2.093C-0.937,2.093 0,1.156 0,0C0,-1.155 -0.937,-2.092 -2.093,-2.092" style="fill:rgb(17,155,255);fill-opacity:0.9;fill-rule:nonzero;"/>
                    </g>
                    <g transform="matrix(-2.40825e-18,-1.52086,-1.48153,-2.40825e-18,-53.8411,2029.7)">
                        <path d="M-2.093,-2.092C-3.248,-2.092 -4.185,-1.155 -4.185,0C-4.185,1.156 -3.248,2.093 -2.093,2.093C-0.937,2.093 0,1.156 0,0C0,-1.155 -0.937,-2.092 -2.093,-2.092" style="fill:rgb(17,155,255);fill-opacity:0.9;fill-rule:nonzero;"/>
                    </g>
                    <g transform="matrix(-1.20413e-18,-0.760431,-0.740766,-1.20413e-18,-24.5759,2032.33)">
                        <path d="M-4.185,-4.185C-6.497,-4.185 -8.37,-2.311 -8.37,0C-8.37,2.311 -6.497,4.185 -4.185,4.185C-1.874,4.185 0,2.311 0,0C0,-2.311 -1.874,-4.185 -4.185,-4.185" style="fill:rgb(17,155,255);fill-opacity:0.9;fill-rule:nonzero;"/>
                    </g>
                    <g transform="matrix(-1.20413e-18,-0.760431,-0.740766,-1.20413e-18,-42.1432,2023.85)">
                        <path d="M-4.185,-4.185C-6.497,-4.185 -8.37,-2.311 -8.37,0C-8.37,2.311 -6.497,4.185 -4.185,4.185C-1.874,4.185 0,2.311 0,0C0,-2.311 -1.874,-4.185 -4.185,-4.185" style="fill:rgb(17,155,255);fill-opacity:0.9;fill-rule:nonzero;"/>
                    </g>
                </g>
                <g transform="matrix(-3.70521e-19,-0.233992,-0.227941,-3.70521e-19,-31.5412,2017.33)">
                    <path d="M-13.6,-13.6C-21.112,-13.6 -27.2,-7.511 -27.2,0C-27.2,7.511 -21.112,13.6 -13.6,13.6C-6.089,13.6 0,7.511 0,0C0,-7.511 -6.089,-13.6 -13.6,-13.6" style="fill:rgb(255,234,146);fill-opacity:0.9;fill-rule:nonzero;"/>
                </g>
                <g transform="matrix(-4.37911e-19,-0.27655,-0.269399,-4.37911e-19,-9.55,2017.46)">
                    <path d="M-11.509,-11.508C-17.864,-11.508 -23.016,-6.356 -23.016,0C-23.016,6.355 -17.864,11.509 -11.509,11.509C-5.153,11.509 -0.001,6.355 -0.001,0C-0.001,-6.356 -5.153,-11.508 -11.509,-11.508" style="fill:rgb(255,234,146);fill-opacity:0.9;fill-rule:nonzero;"/>
                </g>
                <g transform="matrix(-5.3521e-19,-0.337996,-0.329256,-5.3521e-19,-21.7028,2011.52)">
                    <path d="M-9.416,-9.415C-14.615,-9.415 -18.831,-5.2 -18.831,0C-18.831,5.2 -14.615,9.416 -9.416,9.416C-4.216,9.416 0,5.2 0,0C0,-5.2 -4.216,-9.415 -9.416,-9.415" style="fill:rgb(253,146,109);fill-opacity:0.9;fill-rule:nonzero;"/>
                </g>
                <g transform="matrix(-9.55039e-19,-0.603128,-0.587531,-9.55039e-19,16.6653,2002.14)">
                    <path d="M-5.278,-5.277C-8.191,-5.277 -10.554,-2.914 -10.554,0C-10.554,2.914 -8.191,5.278 -5.278,5.278C-2.363,5.278 0,2.914 0,0C0,-2.914 -2.363,-5.277 -5.278,-5.277" style="fill:rgb(255,234,146);fill-opacity:0.9;fill-rule:nonzero;"/>
                </g>
                <g transform="matrix(-9.55039e-19,-0.603128,-0.587531,-9.55039e-19,-36.0365,2037.15)">
                    <path d="M-5.278,-5.277C-8.191,-5.277 -10.554,-2.914 -10.554,0C-10.554,2.914 -8.191,5.278 -5.278,5.278C-2.363,5.278 0,2.914 0,0C0,-2.914 -2.363,-5.277 -5.278,-5.277" style="fill:rgb(108,221,195);fill-opacity:0.9;fill-rule:nonzero;"/>
                </g>
                <g transform="matrix(-9.55039e-19,-0.603128,-0.587531,-9.55039e-19,-36.0365,2032.9)">
                    <path d="M-5.278,-5.277C-8.191,-5.277 -10.554,-2.914 -10.554,0C-10.554,2.914 -8.191,5.278 -5.278,5.278C-2.363,5.278 0,2.914 0,0C0,-2.914 -2.363,-5.277 -5.278,-5.277" style="fill:rgb(108,221,195);fill-opacity:0.9;fill-rule:nonzero;"/>
                </g>
                <g transform="matrix(-5.3521e-19,-0.337996,-0.329256,-5.3521e-19,2.06468,2030.61)">
                    <path d="M-9.416,-9.415C-14.615,-9.415 -18.831,-5.2 -18.831,0C-18.831,5.2 -14.615,9.416 -9.416,9.416C-4.216,9.416 0,5.2 0,0C0,-5.2 -4.216,-9.415 -9.416,-9.415" style="fill:rgb(108,221,195);fill-opacity:0.9;fill-rule:nonzero;"/>
                </g>
                <g transform="matrix(-2.40825e-18,-1.52086,-1.48153,-2.40825e-18,-48.6743,2041.37)">
                    <path d="M-2.093,-2.092C-3.248,-2.092 -4.185,-1.155 -4.185,0C-4.185,1.156 -3.248,2.093 -2.093,2.093C-0.937,2.093 0,1.156 0,0C0,-1.155 -0.937,-2.092 -2.093,-2.092" style="fill:rgb(255,234,146);fill-opacity:0.9;fill-rule:nonzero;"/>
                </g>
                <g transform="matrix(-2.40825e-18,-1.52086,-1.48153,-2.40825e-18,-48.6743,2045.61)">
                    <path d="M-2.093,-2.092C-3.248,-2.092 -4.185,-1.155 -4.185,0C-4.185,1.156 -3.248,2.093 -2.093,2.093C-0.937,2.093 0,1.156 0,0C0,-1.155 -0.937,-2.092 -2.093,-2.092" style="fill:rgb(108,221,195);fill-opacity:0.9;fill-rule:nonzero;"/>
                </g>
                <g transform="matrix(-1.20413e-18,-0.760431,-0.740766,-1.20413e-18,-47.6414,2005.73)">
                    <path d="M-4.185,-4.185C-6.497,-4.185 -8.37,-2.311 -8.37,0C-8.37,2.311 -6.497,4.185 -4.185,4.185C-1.874,4.185 0,2.311 0,0C0,-2.311 -1.874,-4.185 -4.185,-4.185" style="fill:rgb(17,155,255);fill-opacity:0.9;fill-rule:nonzero;"/>
                </g>
                <g transform="matrix(-1.20413e-18,-0.760431,-0.740766,-1.20413e-18,-17.962,2025.54)">
                    <path d="M-4.185,-4.185C-6.497,-4.185 -8.37,-2.311 -8.37,0C-8.37,2.311 -6.497,4.185 -4.185,4.185C-1.874,4.185 0,2.311 0,0C0,-2.311 -1.874,-4.185 -4.185,-4.185" style="fill:rgb(108,221,195);fill-opacity:0.9;fill-rule:nonzero;"/>
                </g>
                <g transform="matrix(-1.20413e-18,-0.760431,-0.740766,-1.20413e-18,-42.1432,2027.03)">
                    <path d="M-4.185,-4.185C-6.497,-4.185 -8.37,-2.311 -8.37,0C-8.37,2.311 -6.497,4.185 -4.185,4.185C-1.874,4.185 0,2.311 0,0C0,-2.311 -1.874,-4.185 -4.185,-4.185" style="fill:rgb(255,234,146);fill-opacity:0.9;fill-rule:nonzero;"/>
                </g>
                <g transform="matrix(-1.20413e-18,-0.760431,-0.740766,-1.20413e-18,-24.5759,2036.58)">
                    <path d="M-4.185,-4.185C-6.497,-4.185 -8.37,-2.311 -8.37,0C-8.37,2.311 -6.497,4.185 -4.185,4.185C-1.874,4.185 0,2.311 0,0C0,-2.311 -1.874,-4.185 -4.185,-4.185" style="fill:rgb(108,221,195);fill-opacity:0.9;fill-rule:nonzero;"/>
                </g>
            </g>
        </g>
    </g>
</svg>
