<?xml version="1.0" encoding="UTF-8" standalone="no"?>
<!DOCTYPE svg PUBLIC "-//W3C//DTD SVG 1.1//EN" "http://www.w3.org/Graphics/SVG/1.1/DTD/svg11.dtd">
<svg width="100%" height="100%" viewBox="0 0 80 80" version="1.1" xmlns="http://www.w3.org/2000/svg" xmlns:xlink="http://www.w3.org/1999/xlink" xml:space="preserve" xmlns:serif="http://www.serif.com/" style="fill-rule:evenodd;clip-rule:evenodd;stroke-linejoin:round;stroke-miterlimit:2;">
    <g transform="matrix(1,0,0,1,-599,-1322.05)">
        <g transform="matrix(1,0,0,1,2839.35,518.053)">
            <g transform="matrix(0.521152,0,0,0.521152,-2688.51,821.457)">
                <rect x="859.943" y="-33.506" width="153.506" height="153.506" style="fill:none;"/>
            </g>
            <g transform="matrix(0.149918,-1.15299e-17,-3.92443e-17,0.0980664,-1506.97,770.218)">
                <g transform="matrix(0.692475,9.84855e-33,-3.47958e-32,1.05861,-10859.8,-2036.8)">
                    <path d="M9001.88,2407.92C8980.87,2407.92 8959.95,2410.86 8939.75,2416.66L8963.62,2499.88C8976.06,2496.31 8988.94,2494.5 9001.88,2494.5L9001.88,2407.92Z" style="fill:rgb(255,221,209);"/>
                </g>
                <g transform="matrix(0.960298,3.42562e-32,6.34889e-32,1.46805,-13270.7,-3114.97)">
                    <path d="M8939.75,2416.66C8911.94,2424.63 8885.92,2437.89 8863.11,2455.71L8949.92,2566.81C8958.46,2560.14 8968.2,2555.18 8978.62,2552.19L8939.75,2416.66Z" style="fill:rgb(255,229,199);"/>
                </g>
                <g transform="matrix(0.79901,0,0,1.22148,-11818.8,-2465.68)">
                    <path d="M8863.11,2455.71C8829.83,2481.71 8804.52,2516.54 8790.07,2556.23L8922.57,2604.46C8927.98,2589.6 8937.45,2576.55 8949.92,2566.81L8863.11,2455.71Z" style="fill:rgb(255,245,205);"/>
                </g>
                <g transform="matrix(0.661583,1.37202e-32,4.6886e-32,1.01139,-10581.7,-1912.44)">
                    <path d="M8790.07,2556.23C8781.08,2580.94 8776.48,2607.03 8776.48,2633.33C8776.48,2667.57 8784.28,2701.36 8799.29,2732.14L8899.2,2683.41C8891.59,2667.81 8887.64,2650.68 8887.64,2633.33C8887.64,2620 8889.97,2606.77 8894.53,2594.25L8790.07,2556.23Z" style="fill:rgb(209,246,200);"/>
                </g>
                <g transform="matrix(1.13389,1.59729e-32,6.82533e-32,1.73342,-14833.4,-3813.8)">
                    <path d="M8799.29,2732.14C8830.92,2796.99 8891.68,2842.77 8962.74,2855.3L8987.23,2716.45C8960.62,2711.76 8937.86,2694.61 8926.02,2670.33L8799.29,2732.14Z" style="fill:rgb(158,227,211);"/>
                </g>
                <g transform="matrix(0.736801,0,1.48094e-31,1.12638,-11258.8,-2215.24)">
                    <path d="M8962.74,2855.3C8975.66,2857.58 8988.76,2858.73 9001.88,2858.73C9103.9,2858.73 9193.2,2790.21 9219.6,2691.66L9104.39,2660.79C9091.96,2707.19 9049.91,2739.45 9001.88,2739.45C8995.7,2739.45 8989.54,2738.91 8983.45,2737.84L8962.74,2855.3Z" style="fill:rgb(94,207,230);"/>
                </g>
                <g transform="matrix(0.952536,8.29014e-32,0,1.45618,-13200.9,-3083.72)">
                    <path d="M9219.6,2691.66C9224.7,2672.64 9227.28,2653.02 9227.28,2633.33C9227.28,2508.84 9126.37,2407.92 9001.88,2407.92L9001.88,2548.92C9048.5,2548.92 9086.29,2586.71 9086.29,2633.33C9086.29,2640.7 9085.32,2648.05 9083.41,2655.17L9219.6,2691.66Z" style="fill:rgb(111,193,252);"/>
                </g>
            </g>
            <g transform="matrix(0.112681,-8.66605e-18,-2.94966e-17,0.0737082,-1679.24,788.508)">
                <g transform="matrix(0.692475,9.84855e-33,-3.47958e-32,1.05861,-10859.8,-2036.8)">
                    <path d="M9001.88,2407.92C8980.87,2407.92 8959.95,2410.86 8939.75,2416.66L8967.75,2514.3C8978.85,2511.12 8990.34,2509.5 9001.88,2509.5L9001.88,2407.92Z" style="fill:rgb(253,146,109);"/>
                </g>
                <g transform="matrix(0.745742,1.2326e-32,4.93038e-32,1.14005,-11339.3,-2251.24)">
                    <path d="M8939.75,2416.66C8911.94,2424.63 8885.92,2437.89 8863.11,2455.71L8930.84,2542.39C8942.51,2533.28 8955.84,2526.49 8970.08,2522.4L8939.75,2416.66Z" style="fill:rgb(255,189,109);"/>
                </g>
                <g transform="matrix(0.79901,0,0,1.22148,-11818.8,-2465.68)">
                    <path d="M8863.11,2455.71C8829.83,2481.71 8804.52,2516.54 8790.07,2556.23L8900.79,2596.53C8907.68,2577.59 8919.76,2560.96 8935.65,2548.55L8863.11,2455.71Z" style="fill:rgb(255,234,146);"/>
                </g>
                <g transform="matrix(0.698695,0,-2.98914e-33,1.06812,-10915.8,-2061.84)">
                    <path d="M8790.07,2556.23C8781.08,2580.94 8776.48,2607.03 8776.48,2633.33C8776.48,2667.57 8784.28,2701.36 8799.29,2732.14L8891.75,2687.04C8883.59,2670.31 8879.35,2651.94 8879.35,2633.33C8879.35,2619.03 8881.85,2604.85 8886.74,2591.42L8790.07,2556.23Z" style="fill:rgb(181,228,170);"/>
                </g>
                <g transform="matrix(0.975338,-8.58399e-33,-6.82533e-32,1.49104,-13406.1,-3175.52)">
                    <path d="M8799.29,2732.14C8830.92,2796.99 8891.68,2842.77 8962.74,2855.3L8986.6,2719.99C8958.86,2715.09 8935.14,2697.22 8922.79,2671.9L8799.29,2732.14Z" style="fill:rgb(108,221,195);"/>
                </g>
                <g transform="matrix(0.717621,-2.18165e-32,-1.20369e-32,1.09706,-11086.2,-2138.03)">
                    <path d="M8962.74,2855.3C8975.66,2857.58 8988.76,2858.73 9001.88,2858.73C9103.9,2858.73 9193.2,2790.21 9219.6,2691.66L9117.6,2664.33C9103.57,2716.71 9056.1,2753.13 9001.88,2753.13C8994.91,2753.13 8987.95,2752.52 8981.08,2751.31L8962.74,2855.3Z" style="fill:rgb(62,191,218);"/>
                </g>
                <g transform="matrix(1.01487,5.95692e-32,1.35293e-31,1.55147,-13762,-3334.66)">
                    <path d="M9219.6,2691.66C9224.7,2672.64 9227.28,2653.02 9227.28,2633.33C9227.28,2508.84 9126.37,2407.92 9001.88,2407.92L9001.88,2548.92C9048.5,2548.92 9086.29,2586.71 9086.29,2633.33C9086.29,2640.7 9085.32,2648.05 9083.41,2655.17L9219.6,2691.66Z" style="fill:rgb(17,155,255);"/>
                </g>
            </g>
        </g>
    </g>
</svg>
