<?xml version="1.0" encoding="UTF-8" standalone="no"?>
<!DOCTYPE svg PUBLIC "-//W3C//DTD SVG 1.1//EN" "http://www.w3.org/Graphics/SVG/1.1/DTD/svg11.dtd">
<svg width="100%" height="100%" viewBox="0 0 80 80" version="1.1" xmlns="http://www.w3.org/2000/svg" xmlns:xlink="http://www.w3.org/1999/xlink" xml:space="preserve" xmlns:serif="http://www.serif.com/" style="fill-rule:evenodd;clip-rule:evenodd;stroke-linejoin:round;stroke-miterlimit:2;">
    <g transform="matrix(1,0,0,1,-859,-3996)">
        <g transform="matrix(1,0,0,1,2561.35,1470.24)">
            <g transform="matrix(0.521152,0,0,0.521152,-2150.51,2543.27)">
                <rect x="859.943" y="-33.506" width="153.506" height="153.506" style="fill:none;"/>
            </g>
            <g transform="matrix(0.0744321,0,0,0.0744321,-1662.43,2566.12)">
                <g transform="matrix(13.8709,0,0,13.8709,-11265.3,-28591.7)">
                    <rect x="773.49" y="2022.22" width="77.486" height="77.486" style="fill:none;"/>
                </g>
                <g transform="matrix(1,0,0,1,-700,-694.16)">
                    <path d="M523.07,751.648C510.932,714.29 510.932,674.03 523.07,636.672L557.342,647.807C547.554,677.929 547.554,710.391 557.342,740.513L530.532,749.223L557.342,740.513C567.129,770.634 586.209,796.896 611.832,815.513C637.455,834.129 668.328,844.16 700,844.16L700.371,844.16C731.913,844.082 762.645,834.056 788.168,815.513C813.791,796.896 832.871,770.634 842.658,740.513C852.446,710.391 852.446,677.929 842.658,647.807L873.914,637.652C885.846,674.373 885.846,713.947 873.914,750.668L888.657,755.458C875.714,795.293 850.481,830.022 816.596,854.641L821.773,861.767C786.384,887.479 743.744,901.333 700,901.333L700,902.038C656.107,902.038 613.322,888.136 577.813,862.337L585.06,852.361C551.657,828.092 526.783,793.856 514.023,754.587L523.07,751.648ZM700,505.659C739.801,505.659 778.598,518.265 810.798,541.659L804.586,550.21C834.981,572.293 857.614,603.445 869.224,639.176L842.658,647.807C832.871,617.686 813.791,591.424 788.168,572.807C762.545,554.191 731.672,544.16 700,544.16L699.629,544.16C668.087,544.238 637.355,554.264 611.832,572.807L593.56,547.657L611.832,572.807C586.209,591.424 567.129,617.686 557.342,647.807L505.982,631.12C519.293,590.154 545.242,554.437 580.09,529.119L582.575,532.539C616.701,507.745 657.818,494.385 700,494.385L700,505.659Z" style="fill:rgb(253,146,109);fill-rule:nonzero;"/>
                </g>
                <g transform="matrix(1,0,0,1,-700,-694.16)">
                    <path d="M486.453,763.546L478.412,766.158C463.21,719.371 463.21,668.949 478.412,622.162L523.07,636.672C510.932,674.03 510.932,714.29 523.07,751.648L502.045,758.479L514.023,754.587C526.783,793.856 551.657,828.092 585.06,852.361L577.813,862.337C613.322,888.136 656.107,902.038 700,902.038L700,901.333C743.744,901.333 786.384,887.479 821.773,861.767L852.894,904.6C808.46,936.883 754.923,954.279 700,954.279L700,931.027C649.986,931.027 601.235,915.187 560.773,885.789L568.021,875.814C529.665,847.947 501.104,808.635 486.453,763.546ZM943.032,773.126C926.359,824.441 893.853,869.181 850.202,900.895L816.596,854.641C850.481,830.022 875.714,795.293 888.657,755.458L943.032,773.126ZM899.475,629.347C913.16,671.465 913.16,716.855 899.475,758.973L873.914,750.668C885.846,713.947 885.846,674.373 873.914,637.652L899.475,629.347ZM700,454.827C750.534,454.827 799.793,470.832 840.676,500.535L824.675,522.559L828.459,517.351C865.791,544.475 893.591,582.738 907.851,626.625L869.224,639.176C857.614,603.445 834.981,572.293 804.586,550.21L810.798,541.659C778.598,518.265 739.801,505.659 700,505.659L700,494.385C657.818,494.385 616.701,507.745 582.575,532.539L580.09,529.119C545.242,554.437 519.293,590.154 505.982,631.12L480.757,622.924C495.798,576.631 525.122,536.271 564.5,507.661L571.461,517.242L550.419,488.28C593.89,456.696 646.267,439.678 700,439.678L700,454.827Z" style="fill:rgb(255,189,109);fill-rule:nonzero;"/>
                </g>
                <g transform="matrix(1,0,0,1,-700,-694.16)">
                    <path d="M700,987.848C637.989,987.848 577.543,968.208 527.375,931.758L560.773,885.789C601.235,915.187 649.986,931.027 700,931.027L700,954.279C754.923,954.279 808.46,936.883 852.894,904.6L869.519,927.483C820.254,963.277 760.895,982.563 700,982.563L700,987.848ZM979.314,784.915C960.151,843.891 922.793,895.309 872.625,931.758L850.202,900.895C893.853,869.181 926.359,824.441 943.032,773.126L979.314,784.915ZM453.187,774.354L425.377,783.39C406.536,725.405 406.536,662.915 425.377,604.93L478.412,622.162C463.21,668.949 463.21,719.371 478.412,766.158L457.451,772.969L486.453,763.546C501.104,808.635 529.665,847.947 568.021,875.814L547.461,904.112C503.13,871.904 470.12,826.468 453.187,774.354ZM934.081,618.102C950.14,667.528 950.14,720.792 934.081,770.218L899.475,758.973C913.16,716.855 913.16,671.465 899.475,629.347L934.081,618.102ZM700,401.881C761.714,401.881 821.87,421.427 871.797,457.702L847.569,491.049C890.455,522.207 922.391,566.162 938.772,616.578L907.851,626.625C893.591,582.738 865.791,544.475 828.459,517.351L840.676,500.535C799.793,470.832 750.534,454.827 700,454.827L700,439.678C646.267,439.678 593.89,456.696 550.419,488.28L531.309,461.977C580.334,426.358 639.402,407.166 700,407.166L700,401.881ZM439.785,609.611C457.637,554.667 492.44,506.764 539.178,472.807L564.5,507.661C525.122,536.271 495.798,576.631 480.757,622.924L439.785,609.611Z" style="fill:rgb(255,234,146);fill-rule:nonzero;"/>
                </g>
                <g transform="matrix(1,0,0,1,-700,-694.16)">
                    <path d="M408.529,788.865L370.667,801.167C348.073,731.629 348.073,656.691 370.667,587.153L425.377,604.93C406.536,662.915 406.536,725.405 425.377,783.39L453.187,774.354C470.12,826.468 503.13,871.904 547.461,904.112L527.375,931.758C577.543,968.208 637.989,987.848 700,987.848L700,1025.64C630.008,1025.64 561.783,1003.48 505.158,962.337L519.861,942.1C467.509,904.065 428.525,850.408 408.529,788.865ZM887.594,952.361C833.076,991.971 767.388,1013.31 700,1013.31L700,982.563C760.895,982.563 820.254,963.277 869.519,927.483L887.594,952.361ZM1014.93,796.485C993.32,862.981 951.199,920.955 894.635,962.052L872.625,931.758C922.793,895.309 960.151,843.891 979.314,784.915L1014.93,796.485ZM700,354.573C771.703,354.573 841.596,377.282 899.604,419.428L874.134,454.485C924.741,491.253 962.425,543.121 981.755,602.612L938.772,616.578L988.456,600.435C1008.25,661.341 1008.25,726.979 988.456,787.885L934.081,770.218C950.14,720.792 950.14,667.528 934.081,618.102L938.772,616.578C922.391,566.162 890.455,522.207 847.569,491.049L871.797,457.702C821.87,421.427 761.714,401.881 700,401.881L700,407.166C639.402,407.166 580.334,426.358 531.309,461.977L539.178,472.807C492.44,506.764 457.637,554.667 439.785,609.611L388.76,593.032C410.113,527.315 451.741,470.019 507.643,429.404L507.436,429.119C563.399,388.459 630.826,366.551 700,366.551L700,354.573Z" style="fill:rgb(181,228,170);fill-rule:nonzero;"/>
                </g>
                <g transform="matrix(1,0,0,1,-700,-694.16)">
                    <path d="M496.402,974.389C437.233,931.4 393.172,870.756 370.571,801.198L408.529,788.865C428.525,850.408 467.509,904.065 519.861,942.1L505.158,962.337C561.783,1003.48 630.008,1025.64 700,1025.64L700,1013.31C767.388,1013.31 833.076,991.971 887.594,952.361L894.635,962.052C951.199,920.955 993.32,862.981 1014.93,796.485L1067.62,813.609C1042.4,891.231 993.235,958.907 927.205,1006.88L910.225,983.509C849.129,1027.9 775.518,1051.82 700,1051.82L700,1062.38C622.251,1062.38 546.464,1037.76 483.563,992.06L496.402,974.389ZM333.38,813.282C308.228,735.872 308.228,652.448 333.38,575.038L370.667,587.153C348.073,656.691 348.073,731.629 370.667,801.167L333.38,813.282ZM1018.71,590.606C1040.57,657.9 1040.57,730.42 1018.71,797.714L988.456,787.885C1008.25,726.979 1008.25,661.341 988.456,600.435L1018.71,590.606ZM890.759,431.602C946.197,471.88 987.48,528.7 1008.65,593.872L981.755,602.612C962.425,543.121 924.741,491.253 874.134,454.485L890.759,431.602ZM487.498,401.676C549.255,356.806 623.664,332.629 700,332.629L700,366.551C630.826,366.551 563.399,388.459 507.436,429.119L507.643,429.404C451.741,470.019 410.113,527.315 388.76,593.032L355.159,582.114C378.817,509.302 424.939,445.821 486.876,400.821L487.498,401.676ZM700,303.389C782.51,303.389 862.938,329.521 929.69,378.019L899.604,419.428C841.596,377.282 771.703,354.573 700,354.573L700,303.389Z" style="fill:rgb(108,221,195);fill-rule:nonzero;"/>
                </g>
                <g transform="matrix(1,0,0,1,-700,-694.16)">
                    <path d="M470.044,1010.67C403.215,962.113 353.45,893.618 327.923,815.055L370.571,801.198C393.172,870.756 437.233,931.4 496.402,974.389L470.044,1010.67ZM483.563,992.06C546.464,1037.76 622.251,1062.38 700,1062.38L700,1111.81C611.815,1111.81 525.856,1083.88 454.513,1032.04L483.563,992.06ZM926.229,1005.54C860.482,1053.3 781.267,1079.04 700,1079.04L700,1051.82C775.518,1051.82 849.129,1027.9 910.225,983.509L926.229,1005.54ZM1115.97,829.317C1087.43,917.147 1031.8,993.722 957.083,1048L927.205,1006.88C993.235,958.907 1042.4,891.231 1067.62,813.609L1115.97,829.317ZM282.021,829.97C253.345,741.715 253.345,646.605 282.021,558.35L333.38,575.038C308.228,652.448 308.228,735.872 333.38,813.282L282.021,829.97ZM1018.71,590.606L1008.65,593.872C987.48,528.7 946.197,471.88 890.759,431.602L907.799,408.15C968.189,452.025 1013.16,513.921 1036.22,584.914L1023.3,589.112L1043.6,582.519C1067.17,655.068 1067.17,733.252 1043.6,805.801L1018.71,797.714C1040.57,730.42 1040.57,657.9 1018.71,590.606ZM316.532,569.564C342.84,488.596 394.128,418.003 463.003,367.962L486.876,400.821C424.939,445.821 378.817,509.302 355.159,582.114L316.532,569.564ZM700,249.386C793.912,249.386 885.455,279.13 961.432,334.33L929.69,378.019C862.938,329.521 782.51,303.389 700,303.389L700,332.629C623.664,332.629 549.255,356.806 487.498,401.676L468.387,375.373C535.698,326.468 616.799,300.117 700,300.117L700,249.386Z" style="fill:rgb(62,191,218);fill-rule:nonzero;"/>
                </g>
                <g transform="matrix(1,0,0,1,-700,-694.16)">
                    <path d="M700,1142.56C605.322,1142.56 513.034,1112.57 436.439,1056.92L452.077,1035.4L442.651,1048.37C367.86,994.032 312.168,917.378 283.6,829.456L327.923,815.055C353.45,893.618 403.215,962.113 470.044,1010.67L454.513,1032.04C525.856,1083.88 611.815,1111.81 700,1111.81L700,1079.04C781.267,1079.04 860.482,1053.3 926.229,1005.54L948.238,1035.83C876.095,1088.25 789.173,1116.49 700,1116.49L700,1142.56ZM1156.94,842.629C1125.59,939.111 1064.48,1023.23 982.405,1082.86L957.083,1048C1031.8,993.722 1087.43,917.147 1115.97,829.317L1156.94,842.629ZM247.749,841.105C216.722,745.614 216.722,642.706 247.749,547.215L282.021,558.35C253.345,646.605 253.345,741.715 282.021,829.97L247.749,841.105ZM1089.6,567.573C1116.32,649.834 1116.32,738.486 1089.6,820.747L1043.6,805.801C1067.17,733.252 1067.17,655.068 1043.6,582.519L1089.6,567.573ZM927.53,380.992C993.655,429.034 1042.89,496.806 1068.15,574.54L1036.22,584.914C1013.16,513.921 968.189,452.025 907.799,408.15L927.53,380.992ZM284.605,559.19C313.104,471.481 368.662,395.011 443.272,340.804L463.003,367.962C394.128,418.003 342.84,488.596 316.532,569.564L284.605,559.19ZM450.934,351.35C523.317,298.76 610.53,270.423 700,270.423L700,300.117C616.799,300.117 535.698,326.468 468.387,375.373L450.934,351.35ZM700,194.679C805.464,194.679 908.266,228.081 993.588,290.071L961.432,334.33C885.455,279.13 793.912,249.386 700,249.386L700,194.679Z" style="fill:rgb(17,155,255);fill-rule:nonzero;"/>
                </g>
                <g transform="matrix(1,0,0,1,-700,-694.16)">
                    <path d="M700,1187.05C595.928,1187.05 494.483,1154.09 410.288,1092.91L436.439,1056.92C513.034,1112.57 605.322,1142.56 700,1142.56L700,1187.05ZM976.459,1074.67C896.115,1133.05 799.311,1164.5 700,1164.5L700,1116.49C789.173,1116.49 876.095,1088.25 948.238,1035.83L976.459,1074.67ZM1184.51,851.587C1151.27,953.89 1086.47,1043.08 999.445,1106.31L982.405,1082.86C1064.48,1023.23 1125.59,939.111 1156.94,842.629L1184.51,851.587ZM409.459,1094.06C325.023,1032.71 262.147,946.167 229.895,846.906L283.6,829.456C312.168,917.378 367.86,994.032 442.651,1048.37L409.459,1094.06ZM443.272,340.804C368.662,395.011 313.104,471.481 284.605,559.19L247.749,547.215C216.722,642.706 216.722,745.614 247.749,841.105L208.117,853.983C174.371,750.123 174.371,638.197 208.117,534.337L239.947,544.68C271.509,447.541 333.041,362.851 415.672,302.816L433.944,327.965L431.202,324.192C509.32,267.436 603.442,236.854 700,236.854L700,270.423C610.53,270.423 523.317,298.76 450.934,351.35L443.272,340.804ZM1133.58,553.28C1163.33,644.83 1163.33,743.49 1133.58,835.04L1089.6,820.747C1116.32,738.486 1116.32,649.834 1089.6,567.573L1133.58,553.28ZM956.58,341.008C1031.15,395.184 1086.67,471.609 1115.15,559.268L1068.15,574.54C1042.89,496.806 993.655,429.034 927.53,380.992L956.58,341.008ZM700,162.519C812.254,162.519 921.675,198.072 1012.49,264.053L993.588,290.071C908.266,228.081 805.464,194.679 700,194.679L700,162.519Z" style="fill:rgb(11,120,255);fill-rule:nonzero;"/>
                </g>
            </g>
        </g>
    </g>
</svg>
