<?xml version="1.0" encoding="UTF-8" standalone="no"?>
<!DOCTYPE svg PUBLIC "-//W3C//DTD SVG 1.1//EN" "http://www.w3.org/Graphics/SVG/1.1/DTD/svg11.dtd">
<svg width="100%" height="100%" viewBox="0 0 80 80" version="1.1" xmlns="http://www.w3.org/2000/svg" xmlns:xlink="http://www.w3.org/1999/xlink" xml:space="preserve" xmlns:serif="http://www.serif.com/" style="fill-rule:evenodd;clip-rule:evenodd;stroke-linejoin:round;stroke-miterlimit:2;">
    <g transform="matrix(1,0,0,1,-209,-4934)">
        <g transform="matrix(1,0,0,1,1101.16,1451.78)">
            <g transform="matrix(0.521152,0,0,0.521152,-1340.32,3499.73)">
                <rect x="859.943" y="-33.506" width="153.506" height="153.506" style="fill:none;"/>
            </g>
            <g transform="matrix(1,0,0,1,-1528.91,-1.73975)">
                <path d="M711.746,3554.01L641.746,3554.01L641.746,3494.01L711.746,3494.01L711.746,3554.01ZM663.489,3550.01L663.489,3533.43L645.746,3533.43L645.746,3550.01L663.489,3550.01ZM667.489,3533.43L667.489,3550.01L686.318,3550.01L686.318,3533.43L667.489,3533.43ZM707.746,3533.43L690.318,3533.43L690.318,3550.01L707.746,3550.01L707.746,3533.43ZM707.746,3515.09L690.318,3515.09L690.318,3529.43L707.746,3529.43L707.746,3515.09ZM663.489,3529.43L663.489,3515.09L645.746,3515.09L645.746,3529.43L663.489,3529.43ZM667.489,3515.09L667.489,3529.43L686.318,3529.43L686.318,3515.09L667.489,3515.09ZM707.746,3511.09L707.746,3498.01L645.746,3498.01L645.746,3511.09L707.746,3511.09Z" style="fill:url(#_Linear1);"/>
            </g>
        </g>
    </g>
    <defs>
        <linearGradient id="_Linear1" x1="0" y1="0" x2="1" y2="0" gradientUnits="userSpaceOnUse" gradientTransform="matrix(3.77196e-15,61.6008,-61.6008,3.77196e-15,687.563,3495.07)"><stop offset="0" style="stop-color:rgb(17,155,255);stop-opacity:1"/><stop offset="0.47" style="stop-color:rgb(108,221,195);stop-opacity:1"/><stop offset="1" style="stop-color:rgb(255,234,146);stop-opacity:1"/></linearGradient>
    </defs>
</svg>
