<?xml version="1.0" encoding="UTF-8" standalone="no"?>
<!DOCTYPE svg PUBLIC "-//W3C//DTD SVG 1.1//EN" "http://www.w3.org/Graphics/SVG/1.1/DTD/svg11.dtd">
<svg width="100%" height="100%" viewBox="0 0 80 80" version="1.1" xmlns="http://www.w3.org/2000/svg" xmlns:xlink="http://www.w3.org/1999/xlink" xml:space="preserve" xmlns:serif="http://www.serif.com/" style="fill-rule:evenodd;clip-rule:evenodd;stroke-linejoin:round;stroke-miterlimit:2;">
    <g transform="matrix(1,0,0,1,-729,-650)">
        <g transform="matrix(1,0,0,1,2961.59,182.882)">
            <g transform="matrix(0.521152,0,0,0.521152,-2680.75,484.574)">
                <rect x="859.943" y="-33.506" width="153.506" height="153.506" style="fill:none;"/>
            </g>
            <g transform="matrix(0.33855,0,0,0.296309,-2132.74,250.011)">
                <g transform="matrix(0.494431,0,0,0.998422,815.071,1299.58)">
                    <g transform="matrix(1.02109,0,0,0.904893,-37888.2,-3990.88)">
                        <path d="M34919.8,3990.68C34926.1,3978.31 34935,3964.32 34935,3949.5C34935,3931.89 34930,3915.44 34921.3,3901.5L35012.6,3901.5C35004,3915.44 34998.9,3931.89 34998.9,3949.5C34998.9,3964.32 35007.5,3978.31 35013.8,3990.68L34919.8,3990.68Z" style="fill:url(#_Linear1);"/>
                    </g>
                    <g transform="matrix(0.760194,0,0,0.430125,-28765.8,-2146.63)">
                        <circle cx="34967.4" cy="3878.59" r="80.592" style="fill:rgb(11,120,255);"/>
                    </g>
                    <g transform="matrix(0.595485,0,0,0.336931,-23006.3,-1686.56)">
                        <circle cx="34967.4" cy="3878.59" r="80.592" style="fill:rgb(108,221,195);"/>
                    </g>
                    <g transform="matrix(0.0506796,0,0,0.028675,-3955.89,-589.567)">
                        <circle cx="34967.4" cy="3878.59" r="80.592" style="fill:white;"/>
                    </g>
                    <g transform="matrix(0.0506796,0,0,0.028675,-3955.89,-490.958)">
                        <circle cx="34967.4" cy="3878.59" r="80.592" style="fill:white;"/>
                    </g>
                </g>
                <g transform="matrix(0.494431,0,0,0.998422,763.089,1299.58)">
                    <g transform="matrix(1.02109,0,0,0.761947,-37924.9,-3419.69)">
                        <path d="M35402.6,3989.71C35409.3,3975.91 35417,3960.39 35417,3944C35417,3924.65 35411.7,3906.52 35402.5,3891L35487.3,3891C35478.1,3906.53 35472.8,3924.65 35472.8,3944C35472.8,3960.39 35484.8,3975.91 35491.6,3989.71L35402.6,3989.71Z" style="fill:url(#_Linear2);"/>
                    </g>
                    <g transform="matrix(0.846069,0,0,0.478714,-31315,-2335.08)">
                        <circle cx="34967.4" cy="3878.59" r="80.592" style="fill:rgb(11,120,255);"/>
                    </g>
                    <g transform="matrix(0.564046,0,0,0.319143,-21453.4,-1617.56)">
                        <circle cx="34967.4" cy="3878.59" r="80.592" style="fill:rgb(108,221,195);"/>
                    </g>
                    <g transform="matrix(0.0506796,0,0,0.028675,-3502.28,-589.567)">
                        <circle cx="34967.4" cy="3878.59" r="80.592" style="fill:white;"/>
                    </g>
                    <g transform="matrix(0.0506796,0,0,0.028675,-3502.28,-490.958)">
                        <circle cx="34967.4" cy="3878.59" r="80.592" style="fill:white;"/>
                    </g>
                </g>
                <g transform="matrix(0.494431,0,0,0.998422,739.57,1299.58)">
                    <g>
                        <g transform="matrix(0.717725,0,0,0.617054,-27183.2,-2854.43)">
                            <path d="M35333.7,3850.5C35333.7,3850.5 35310.5,3880.32 35310.5,3896.5C35310.5,3930.41 35325.6,3960.83 35349.4,3981.37L35356,4010.5L35208.8,4010.5L35221.7,3982.22C35246.1,3961.67 35264.3,3930.89 35264.3,3896.5C35264.3,3880.11 35246.5,3864.54 35240.1,3850.5L35333.7,3850.5Z" style="fill:url(#_Linear3);"/>
                        </g>
                        <g transform="matrix(0.418107,0,0,0.236569,-16476.9,-1395.9)">
                            <circle cx="34967.4" cy="3878.59" r="80.592" style="fill:rgb(11,120,255);"/>
                        </g>
                        <g transform="matrix(0.696844,0,0,0.394281,-26223.7,-1909)">
                            <circle cx="34967.4" cy="3878.59" r="80.592" style="fill:rgb(108,221,195);"/>
                        </g>
                        <g transform="matrix(0.0506796,0,0,0.028675,-3628.95,-589.567)">
                            <circle cx="34967.4" cy="3878.59" r="80.592" style="fill:white;"/>
                        </g>
                        <g transform="matrix(0.0506796,0,0,0.028675,-3628.95,-490.958)">
                            <circle cx="34967.4" cy="3878.59" r="80.592" style="fill:white;"/>
                        </g>
                    </g>
                </g>
            </g>
        </g>
    </g>
    <defs>
        <linearGradient id="_Linear1" x1="0" y1="0" x2="1" y2="0" gradientUnits="userSpaceOnUse" gradientTransform="matrix(5.72522e-15,93.5,-93.5,5.72522e-15,34966,3901.5)"><stop offset="0" style="stop-color:rgb(11,120,255);stop-opacity:0.6"/><stop offset="1" style="stop-color:rgb(108,221,195);stop-opacity:0.6"/></linearGradient>
        <linearGradient id="_Linear2" x1="0" y1="0" x2="1" y2="0" gradientUnits="userSpaceOnUse" gradientTransform="matrix(5.31956e-15,103.489,-86.8751,6.33687e-15,35444,3891)"><stop offset="0" style="stop-color:rgb(11,120,255);stop-opacity:0.6"/><stop offset="1" style="stop-color:rgb(108,221,195);stop-opacity:0.6"/></linearGradient>
        <linearGradient id="_Linear3" x1="0" y1="0" x2="1" y2="0" gradientUnits="userSpaceOnUse" gradientTransform="matrix(8.65163e-15,167.75,-141.292,1.02717e-14,35285.5,3850.5)"><stop offset="0" style="stop-color:rgb(11,120,255);stop-opacity:0.6"/><stop offset="1" style="stop-color:rgb(108,221,195);stop-opacity:0.6"/></linearGradient>
    </defs>
</svg>
