<?xml version="1.0" encoding="UTF-8" standalone="no"?>
<!DOCTYPE svg PUBLIC "-//W3C//DTD SVG 1.1//EN" "http://www.w3.org/Graphics/SVG/1.1/DTD/svg11.dtd">
<svg width="100%" height="100%" viewBox="0 0 80 80" version="1.1" xmlns="http://www.w3.org/2000/svg" xmlns:xlink="http://www.w3.org/1999/xlink" xml:space="preserve" xmlns:serif="http://www.serif.com/" style="fill-rule:evenodd;clip-rule:evenodd;stroke-miterlimit:1;">
    <g transform="matrix(1,0,0,1,-995.487,-649.994)">
        <g transform="matrix(1,0,0,1,2123.1,118.88)">
            <g transform="matrix(6.12323e-17,1,-1,6.12323e-17,-516.499,1658.73)">
                <g transform="matrix(0.521152,0,0,0.521152,-1575.77,548.576)">
                    <rect x="859.943" y="-33.506" width="153.506" height="153.506" style="fill:none;"/>
                </g>
                <g transform="matrix(1,0,0,1,-1276.23,426.151)">
                    <g transform="matrix(-0.442315,0,0,0.174603,186.38,162.514)">
                        <rect x="60.75" y="36.125" width="13.565" height="63" style="fill:rgb(17,155,255);"/>
                    </g>
                    <g transform="matrix(-0.442315,0,0,0.314286,202.38,138.359)">
                        <rect x="60.75" y="36.125" width="13.565" height="63" style="fill:rgb(62,191,218);"/>
                    </g>
                    <g transform="matrix(-0.444444,0,0,0.481832,258.51,92.4149)">
                        <rect x="114.75" y="36.125" width="13.5" height="69.75" style="fill:rgb(181,228,170);"/>
                    </g>
                    <g transform="matrix(-0.444444,0,0,0.139683,230.51,138.206)">
                        <rect x="87.75" y="36.125" width="13.5" height="47.25" style="fill:rgb(108,221,195);"/>
                    </g>
                    <g transform="matrix(-0.444444,0,0,2.22222,286.51,29.5433)">
                        <rect x="141.75" y="36.125" width="13.5" height="31.5" style="fill:white;fill-opacity:0.3;"/>
                    </g>
                    <g transform="matrix(0.466667,0,0,1,-351.823,-1944.93)">
                        <path d="M1198.57,2055L1220,2055" style="fill:none;stroke:white;stroke-opacity:0.6;stroke-width:0.64px;stroke-dasharray:1.6,0.64,1.6,0.64;stroke-dashoffset:0.64;"/>
                    </g>
                    <g transform="matrix(0.466667,0,0,1,-367.824,-1911.75)">
                        <path d="M1198.57,2055L1220,2055" style="fill:none;stroke:white;stroke-opacity:0.6;stroke-width:0.64px;stroke-dasharray:1.6,0.64,1.6,0.64;stroke-dashoffset:0.64;"/>
                    </g>
                    <g transform="matrix(0.443333,0,0,1,-355.857,-1905.25)">
                        <path d="M1198.57,2055L1220,2055" style="fill:none;stroke:white;stroke-opacity:0.6;stroke-width:0.65px;stroke-dasharray:1.62,0.65,1.62,0.65;stroke-dashoffset:0.65;"/>
                    </g>
                    <g transform="matrix(0.466667,0,0,1,-399.824,-1885.75)">
                        <path d="M1198.57,2055L1220,2055" style="fill:none;stroke:white;stroke-opacity:0.6;stroke-width:0.64px;stroke-dasharray:1.6,0.64,1.6,0.64;stroke-dashoffset:0.64;"/>
                    </g>
                </g>
            </g>
        </g>
    </g>
</svg>
