<?xml version="1.0" encoding="UTF-8" standalone="no"?>
<!DOCTYPE svg PUBLIC "-//W3C//DTD SVG 1.1//EN" "http://www.w3.org/Graphics/SVG/1.1/DTD/svg11.dtd">
<svg width="100%" height="100%" viewBox="0 0 80 80" version="1.1" xmlns="http://www.w3.org/2000/svg" xmlns:xlink="http://www.w3.org/1999/xlink" xml:space="preserve" xmlns:serif="http://www.serif.com/" style="fill-rule:evenodd;clip-rule:evenodd;stroke-linejoin:round;stroke-miterlimit:2;">
    <g transform="matrix(1,0,0,1,1979.29,-3526.51)">
        <g>
            <g>
                <g transform="matrix(0.521152,0,0,0.521152,-2427.45,3544.03)">
                    <rect x="859.943" y="-33.506" width="153.506" height="153.506" style="fill:none;"/>
                </g>
                <g transform="matrix(1,0,0,1,-2046.99,154.161)">
                    <g transform="matrix(1.09645,0,0,1.09645,-12.4875,-331.198)">
                        <path d="M118.986,3382.58C116.894,3382.21 114.774,3382.02 112.651,3382.02L112.651,3418.5L118.986,3382.58Z" style="fill:rgb(17,155,255);"/>
                    </g>
                    <g transform="matrix(0.389987,-0.0687653,0.0687653,0.389987,-167.978,2091.6)">
                        <path d="M118.986,3382.58C116.894,3382.21 114.774,3382.02 112.651,3382.02L112.651,3418.5L118.986,3382.58Z" style="fill:rgb(253,146,109);"/>
                    </g>
                    <g transform="matrix(0.53556,-0.194928,0.194928,0.53556,-615.664,1608.17)">
                        <path d="M118.986,3382.58C116.894,3382.21 114.774,3382.02 112.651,3382.02L112.651,3418.5L118.986,3382.58Z" style="fill:rgb(253,146,109);"/>
                    </g>
                    <g transform="matrix(0.619867,-0.357881,0.357881,0.619867,-1182.22,1338.32)">
                        <path d="M118.986,3382.58C116.894,3382.21 114.774,3382.02 112.651,3382.02L112.651,3418.5L118.986,3382.58Z" style="fill:rgb(253,146,109);"/>
                    </g>
                    <g transform="matrix(0.285824,-0.239835,0.239835,0.285824,-741.046,2466.95)">
                        <path d="M118.986,3382.58C116.894,3382.21 114.774,3382.02 112.651,3382.02L112.651,3418.5L118.986,3382.58Z" style="fill:rgb(255,189,109);"/>
                    </g>
                    <g transform="matrix(0.364608,-0.434523,0.434523,0.364608,-1415.46,2219.56)">
                        <path d="M118.986,3382.58C116.894,3382.21 114.774,3382.02 112.651,3382.02L112.651,3418.5L118.986,3382.58Z" style="fill:rgb(255,189,109);"/>
                    </g>
                    <g transform="matrix(0.421393,-0.729875,0.729875,0.421393,-2431.52,2058.71)">
                        <path d="M118.986,3382.58C116.894,3382.21 114.774,3382.02 112.651,3382.02L112.651,3418.5L118.986,3382.58Z" style="fill:rgb(255,189,109);"/>
                    </g>
                    <g transform="matrix(0.122416,-0.336336,0.336336,0.122416,-1052.53,3036.43)">
                        <path d="M118.986,3382.58C116.894,3382.21 114.774,3382.02 112.651,3382.02L112.651,3418.5L118.986,3382.58Z" style="fill:rgb(255,234,146);"/>
                    </g>
                    <g transform="matrix(0.084774,-0.480777,0.480777,0.084774,-1542.06,3181.38)">
                        <path d="M118.986,3382.58C116.894,3382.21 114.774,3382.02 112.651,3382.02L112.651,3418.5L118.986,3382.58Z" style="fill:rgb(255,234,146);"/>
                    </g>
                    <g transform="matrix(2.9599e-17,-0.584636,0.584636,2.9599e-17,-1887.55,3482.88)">
                        <path d="M118.986,3382.58C116.894,3382.21 114.774,3382.02 112.651,3382.02L112.651,3418.5L118.986,3382.58Z" style="fill:rgb(255,234,146);"/>
                    </g>
                    <g transform="matrix(-0.12066,-0.684296,0.684296,-0.12066,-2214.65,3906.58)">
                        <path d="M118.986,3382.58C116.894,3382.21 114.774,3382.02 112.651,3382.02L112.651,3418.5L118.986,3382.58Z" style="fill:rgb(255,234,146);"/>
                    </g>
                    <g transform="matrix(-0.339377,-0.932432,0.932432,-0.339377,-3038.26,4682.22)">
                        <path d="M118.986,3382.58C116.894,3382.21 114.774,3382.02 112.651,3382.02L112.651,3418.5L118.986,3382.58Z" style="fill:rgb(255,234,146);"/>
                    </g>
                    <g transform="matrix(-0.122883,-0.21284,0.21284,-0.122883,-602.722,3861.07)">
                        <path d="M118.986,3382.58C116.894,3382.21 114.774,3382.02 112.651,3382.02L112.651,3418.5L118.986,3382.58Z" style="fill:rgb(181,228,170);"/>
                    </g>
                    <g transform="matrix(-0.232201,-0.276726,0.276726,-0.232201,-808.803,4241.97)">
                        <path d="M118.986,3382.58C116.894,3382.21 114.774,3382.02 112.651,3382.02L112.651,3418.5L118.986,3382.58Z" style="fill:rgb(181,228,170);"/>
                    </g>
                    <g transform="matrix(-0.335723,-0.281705,0.281705,-0.335723,-814.161,4596.42)">
                        <path d="M118.986,3382.58C116.894,3382.21 114.774,3382.02 112.651,3382.02L112.651,3418.5L118.986,3382.58Z" style="fill:rgb(181,228,170);"/>
                    </g>
                    <g transform="matrix(-0.453172,-0.261639,0.261639,-0.453172,-732.336,4995.67)">
                        <path d="M118.986,3382.58C116.894,3382.21 114.774,3382.02 112.651,3382.02L112.651,3418.5L118.986,3382.58Z" style="fill:rgb(181,228,170);"/>
                    </g>
                    <g transform="matrix(-0.683299,-0.2487,0.2487,-0.683299,-662.181,5780.9)">
                        <path d="M118.986,3382.58C116.894,3382.21 114.774,3382.02 112.651,3382.02L112.651,3418.5L118.986,3382.58Z" style="fill:rgb(181,228,170);"/>
                    </g>
                    <g transform="matrix(-0.843201,-0.148679,0.148679,-0.843201,-302.245,6316.26)">
                        <path d="M118.986,3382.58C116.894,3382.21 114.774,3382.02 112.651,3382.02L112.651,3418.5L118.986,3382.58Z" style="fill:rgb(181,228,170);"/>
                    </g>
                    <g transform="matrix(-0.327338,-4.97175e-17,4.97175e-17,-0.327338,147.903,4536.03)">
                        <path d="M118.986,3382.58C116.894,3382.21 114.774,3382.02 112.651,3382.02L112.651,3418.5L118.986,3382.58Z" style="fill:rgb(108,221,195);"/>
                    </g>
                    <g transform="matrix(-0.412882,0.0728023,-0.0728023,-0.412882,406.415,4820.26)">
                        <path d="M118.986,3382.58C116.894,3382.21 114.774,3382.02 112.651,3382.02L112.651,3418.5L118.986,3382.58Z" style="fill:rgb(108,221,195);"/>
                    </g>
                    <g transform="matrix(-0.447206,0.16277,-0.16277,-0.447206,717.835,4927.46)">
                        <path d="M118.986,3382.58C116.894,3382.21 114.774,3382.02 112.651,3382.02L112.651,3418.5L118.986,3382.58Z" style="fill:rgb(108,221,195);"/>
                    </g>
                    <g transform="matrix(-0.524276,0.302691,-0.302691,-0.524276,1204.84,5175.16)">
                        <path d="M118.986,3382.58C116.894,3382.21 114.774,3382.02 112.651,3382.02L112.651,3418.5L118.986,3382.58Z" style="fill:rgb(108,221,195);"/>
                    </g>
                    <g transform="matrix(-0.537444,0.450969,-0.450969,-0.537444,1713.21,5203.48)">
                        <path d="M118.986,3382.58C116.894,3382.21 114.774,3382.02 112.651,3382.02L112.651,3418.5L118.986,3382.58Z" style="fill:rgb(108,221,195);"/>
                    </g>
                    <g transform="matrix(-0.635045,0.756817,-0.756817,-0.635045,2769.75,5502.67)">
                        <path d="M118.986,3382.58C116.894,3382.21 114.774,3382.02 112.651,3382.02L112.651,3418.5L118.986,3382.58Z" style="fill:rgb(108,221,195);"/>
                    </g>
                    <g transform="matrix(-0.153457,0.265795,-0.265795,-0.153457,1036.94,3911.67)">
                        <path d="M118.986,3382.58C116.894,3382.21 114.774,3382.02 112.651,3382.02L112.651,3418.5L118.986,3382.58Z" style="fill:rgb(62,191,218);"/>
                    </g>
                    <g transform="matrix(-0.145627,0.400106,-0.400106,-0.145627,1495.2,3869.77)">
                        <path d="M118.986,3382.58C116.894,3382.21 114.774,3382.02 112.651,3382.02L112.651,3418.5L118.986,3382.58Z" style="fill:rgb(62,191,218);"/>
                    </g>
                    <g transform="matrix(-0.0897431,0.508959,-0.508959,-0.0897431,1861.01,3666.47)">
                        <path d="M118.986,3382.58C116.894,3382.21 114.774,3382.02 112.651,3382.02L112.651,3418.5L118.986,3382.58Z" style="fill:rgb(62,191,218);"/>
                    </g>
                    <g transform="matrix(-9.22832e-17,0.607589,-0.607589,-9.22832e-17,2188.07,3348.58)">
                        <path d="M118.986,3382.58C116.894,3382.21 114.774,3382.02 112.651,3382.02L112.651,3418.5L118.986,3382.58Z" style="fill:rgb(62,191,218);"/>
                    </g>
                    <g transform="matrix(0.117794,0.668044,-0.668044,0.117794,2381.47,2939.09)">
                        <path d="M118.986,3382.58C116.894,3382.21 114.774,3382.02 112.651,3382.02L112.651,3418.5L118.986,3382.58Z" style="fill:rgb(62,191,218);"/>
                    </g>
                    <g transform="matrix(0.276052,0.758448,-0.758448,0.276052,2672.69,2387.9)">
                        <path d="M118.986,3382.58C116.894,3382.21 114.774,3382.02 112.651,3382.02L112.651,3418.5L118.986,3382.58Z" style="fill:rgb(62,191,218);"/>
                    </g>
                    <g transform="matrix(0.164641,0.285167,-0.285167,0.164641,1067.33,2822.07)">
                        <path d="M118.986,3382.58C116.894,3382.21 114.774,3382.02 112.651,3382.02L112.651,3418.5L118.986,3382.58Z" style="fill:rgb(17,155,255);"/>
                    </g>
                    <g transform="matrix(0.242959,0.289548,-0.289548,0.242959,1073.48,2553.85)">
                        <path d="M118.986,3382.58C116.894,3382.21 114.774,3382.02 112.651,3382.02L112.651,3418.5L118.986,3382.58Z" style="fill:rgb(17,155,255);"/>
                    </g>
                    <g transform="matrix(0.343433,0.288174,-0.288174,0.343433,1057.47,2210.53)">
                        <path d="M118.986,3382.58C116.894,3382.21 114.774,3382.02 112.651,3382.02L112.651,3418.5L118.986,3382.58Z" style="fill:rgb(17,155,255);"/>
                    </g>
                    <g transform="matrix(0.471723,0.27235,-0.27235,0.471723,988.917,1773.75)">
                        <path d="M118.986,3382.58C116.894,3382.21 114.774,3382.02 112.651,3382.02L112.651,3418.5L118.986,3382.58Z" style="fill:rgb(17,155,255);"/>
                    </g>
                    <g transform="matrix(0.622866,0.226705,-0.226705,0.622866,815.853,1262.21)">
                        <path d="M118.986,3382.58C116.894,3382.21 114.774,3382.02 112.651,3382.02L112.651,3418.5L118.986,3382.58Z" style="fill:rgb(17,155,255);"/>
                    </g>
                    <g transform="matrix(0.785133,0.13844,-0.13844,0.785133,495.841,717.446)">
                        <path d="M118.986,3382.58C116.894,3382.21 114.774,3382.02 112.651,3382.02L112.651,3418.5L118.986,3382.58Z" style="fill:rgb(17,155,255);"/>
                    </g>
                </g>
            </g>
        </g>
    </g>
</svg>
