<?xml version="1.0" encoding="UTF-8" standalone="no"?>
<!DOCTYPE svg PUBLIC "-//W3C//DTD SVG 1.1//EN" "http://www.w3.org/Graphics/SVG/1.1/DTD/svg11.dtd">
<svg width="100%" height="100%" viewBox="0 0 80 80" version="1.1" xmlns="http://www.w3.org/2000/svg" xmlns:xlink="http://www.w3.org/1999/xlink" xml:space="preserve" xmlns:serif="http://www.serif.com/" style="fill-rule:evenodd;clip-rule:evenodd;stroke-linejoin:round;stroke-miterlimit:1.5;">
    <g transform="matrix(1,0,0,1,-469,-3464)">
        <g transform="matrix(1,0,0,1,3014.16,593.603)">
            <g transform="matrix(1,0,0,1,-2479.61,2029.83)">
                <g transform="matrix(0.873599,0,0,0.7,-2471.69,761.619)">
                    <path d="M2762.86,220L2760.57,220L2760.57,219.286L2762.86,219.286L2762.86,220ZM2764.01,220L2764.01,219.286L2766.3,219.286L2766.3,220L2764.01,220ZM2769.73,220L2767.44,220L2767.44,219.286L2769.73,219.286L2769.73,220ZM2770.88,220L2770.88,219.286L2773.16,219.286L2773.16,220L2770.88,220ZM2774.31,220L2774.31,219.286L2776.6,219.286L2776.6,220L2774.31,220ZM2777.74,220L2777.74,219.286L2780.03,219.286L2780.03,220L2777.74,220ZM2781.18,220L2781.18,219.286L2783.47,219.286L2783.47,220L2781.18,220ZM2784.61,220L2784.61,219.286L2786.9,219.286L2786.9,220L2784.61,220ZM2790.33,220L2788.05,220L2788.05,219.286L2790.33,219.286L2790.33,220ZM2791.48,220L2791.48,219.286L2793.77,219.286L2793.77,220L2791.48,220ZM2797.2,220L2794.91,220L2794.91,219.286L2797.2,219.286L2797.2,220ZM2800.64,220L2798.35,220L2798.35,219.286L2800.64,219.286L2800.64,220ZM2804.07,220L2801.78,220L2801.78,219.286L2804.07,219.286L2804.07,220ZM2805.22,220L2805.22,219.286L2807.51,219.286L2807.51,220L2805.22,220ZM2810.94,220L2808.65,220L2808.65,219.286L2810.94,219.286L2810.94,220ZM2812.08,220L2812.08,219.286L2814.37,219.286L2814.37,220L2812.08,220ZM2815.52,220L2815.52,219.286L2817.81,219.286L2817.81,220L2815.52,220ZM2821.24,220L2818.95,220L2818.95,219.286L2821.24,219.286L2821.24,220ZM2822.39,220L2822.39,219.286L2824.68,219.286L2824.68,220L2822.39,220ZM2828.11,220L2825.82,220L2825.82,219.286L2828.11,219.286L2828.11,220ZM2831.54,220L2829.25,220L2829.25,219.286L2831.54,219.286L2831.54,220ZM2832.69,220L2832.69,219.286L2834.98,219.286L2834.98,220L2832.69,220ZM2838.41,220L2836.12,220L2836.12,219.286L2838.41,219.286L2838.41,220ZM2840.13,220L2839.56,220L2839.56,219.286L2839.56,217.857L2840.13,217.857L2840.13,220ZM2760,216.429L2760.57,216.429L2760.57,219.286L2760,219.286L2760,216.429ZM2840.13,213.572L2840.13,216.429L2839.56,216.429L2839.56,213.572L2840.13,213.572ZM2760,212.143L2760.57,212.143L2760.57,215L2760,215L2760,212.143ZM2840.13,209.286L2840.13,212.143L2839.56,212.143L2839.56,209.286L2840.13,209.286ZM2760,207.857L2760.57,207.857L2760.57,210.714L2760,210.714L2760,207.857ZM2840.13,205L2840.13,207.857L2839.56,207.857L2839.56,205L2840.13,205ZM2760,203.571L2760.57,203.571L2760.57,206.429L2760,206.429L2760,203.571ZM2840.13,200.715L2840.13,203.572L2839.56,203.572L2839.56,200.715L2840.13,200.715ZM2760,199.286L2760.57,199.286L2760.57,202.143L2760,202.143L2760,199.286ZM2840.13,196.429L2840.13,199.286L2839.56,199.286L2839.56,196.429L2840.13,196.429ZM2760,195L2760.57,195L2760.57,197.857L2760,197.857L2760,195ZM2840.13,192.143L2840.13,195L2839.56,195L2839.56,192.143L2840.13,192.143ZM2760,190.714L2760.57,190.714L2760.57,193.572L2760,193.572L2760,190.714ZM2840.13,187.857L2840.13,190.714L2839.56,190.714L2839.56,187.857L2840.13,187.857ZM2760,186.429L2760.57,186.429L2760.57,189.286L2760,189.286L2760,186.429ZM2840.13,183.571L2840.13,186.428L2839.56,186.428L2839.56,183.571L2840.13,183.571ZM2760,182.143L2760.57,182.143L2760.57,185L2760,185L2760,182.143ZM2840.13,179.286L2840.13,182.143L2839.56,182.143L2839.56,179.286L2840.13,179.286ZM2760,177.857L2760.57,177.857L2760.57,180.714L2760,180.714L2760,177.857ZM2840.13,175L2840.13,177.857L2839.56,177.857L2839.56,175L2840.13,175ZM2760,173.572L2760.57,173.572L2760.57,176.429L2760,176.429L2760,173.572ZM2840.13,170.714L2840.13,173.571L2839.56,173.571L2839.56,170.714L2840.13,170.714ZM2760,169.286L2760.57,169.286L2760.57,172.143L2760,172.143L2760,169.286ZM2840.13,166.428L2840.13,169.286L2839.56,169.286L2839.56,166.428L2840.13,166.428ZM2760,165L2760.57,165L2760.57,167.857L2760,167.857L2760,165ZM2840.13,162.143L2840.13,165L2839.56,165L2839.56,162.143L2840.13,162.143ZM2760,160.715L2760.57,160.715L2760.57,163.572L2760,163.572L2760,160.715ZM2840.13,157.857L2840.13,160.714L2839.56,160.714L2839.56,157.857L2840.13,157.857ZM2760,156.429L2760.57,156.429L2760.57,159.286L2760,159.286L2760,156.429ZM2840.13,153.571L2840.13,156.428L2839.56,156.428L2839.56,153.571L2840.13,153.571ZM2760,152.143L2760.57,152.143L2760.57,155L2760,155L2760,152.143ZM2840.13,149.286L2840.13,152.143L2839.56,152.143L2839.56,149.286L2840.13,149.286ZM2760,147.858L2760.57,147.858L2760.57,150.715L2760,150.715L2760,147.858ZM2840.13,145L2840.13,147.857L2839.56,147.857L2839.56,145L2840.13,145ZM2760,143.572L2760.57,143.572L2760.57,146.429L2760,146.429L2760,143.572ZM2840.13,140.714L2840.13,143.571L2839.56,143.571L2839.56,140.714L2840.13,140.714ZM2760,139.286L2760.57,139.286L2760.57,142.143L2760,142.143L2760,139.286ZM2840.13,136.428L2840.13,139.286L2839.56,139.286L2839.56,136.428L2840.13,136.428ZM2760,135L2760.57,135L2760.57,137.857L2760,137.857L2760,135ZM2840.13,132.143L2840.13,135L2839.56,135L2839.56,132.143L2840.13,132.143ZM2760,130.714L2760.57,130.714L2760.57,133.572L2760,133.572L2760,130.714ZM2840.13,127.857L2840.13,130.714L2839.56,130.714L2839.56,127.857L2840.13,127.857ZM2760,126.429L2760.57,126.429L2760.57,129.286L2760,129.286L2760,126.429ZM2840.13,123.571L2840.13,126.428L2839.56,126.428L2839.56,123.571L2840.13,123.571ZM2760,122.143L2760.57,122.143L2760.57,125L2760,125L2760,122.143ZM2840.13,122.143L2839.56,122.143L2839.56,120.714L2838.41,120.714L2838.41,120L2840.13,120L2840.13,122.143ZM2761.72,120L2761.72,120.714L2760.57,120.714L2760,120.714L2760,120L2761.72,120ZM2792.62,120L2792.62,120.714L2790.33,120.714L2790.33,120L2792.62,120ZM2785.76,120L2785.76,120.714L2783.47,120.714L2783.47,120L2785.76,120ZM2823.53,120L2823.53,120.714L2821.24,120.714L2821.24,120L2823.53,120ZM2778.89,120L2778.89,120.714L2776.6,120.714L2776.6,120L2778.89,120ZM2768.59,120L2768.59,120.714L2766.3,120.714L2766.3,120L2768.59,120ZM2775.45,120L2775.45,120.714L2773.16,120.714L2773.16,120L2775.45,120ZM2789.19,120L2789.19,120.714L2786.9,120.714L2786.9,120L2789.19,120ZM2806.36,120L2806.36,120.714L2804.07,120.714L2804.07,120L2806.36,120ZM2820.1,120L2820.1,120.714L2817.81,120.714L2817.81,120L2820.1,120ZM2826.96,120L2826.96,120.714L2824.68,120.714L2824.68,120L2826.96,120ZM2830.4,120L2830.4,120.714L2828.11,120.714L2828.11,120L2830.4,120ZM2833.83,120L2833.83,120.714L2831.54,120.714L2831.54,120L2833.83,120ZM2782.32,120L2782.32,120.714L2780.03,120.714L2780.03,120L2782.32,120ZM2765.15,120L2765.15,120.714L2762.86,120.714L2762.86,120L2765.15,120ZM2772.02,120L2772.02,120.714L2769.73,120.714L2769.73,120L2772.02,120ZM2796.06,120L2796.06,120.714L2793.77,120.714L2793.77,120L2796.06,120ZM2799.49,120L2799.49,120.714L2797.2,120.714L2797.2,120L2799.49,120ZM2809.79,120L2809.79,120.714L2807.5,120.714L2807.5,120L2809.79,120ZM2813.23,120L2813.23,120.714L2810.94,120.714L2810.94,120L2813.23,120ZM2816.66,120L2816.66,120.714L2814.37,120.714L2814.37,120L2816.66,120ZM2837.27,120L2837.27,120.714L2834.98,120.714L2834.98,120L2837.27,120ZM2802.93,120L2802.93,120.714L2800.64,120.714L2800.64,120L2802.93,120Z" style="fill:white;fill-opacity:0.3;"/>
                </g>
                <g transform="matrix(0.998399,0,0,0.6,-2821.14,778.619)">
                    <path d="M2760.5,220L2760.5,219.167L2762.5,219.167L2762.5,220L2760.5,220ZM2765.51,220L2763.51,220L2763.51,219.167L2765.51,219.167L2765.51,220ZM2766.51,220L2766.51,219.167L2768.51,219.167L2768.51,220L2766.51,220ZM2771.52,220L2769.52,220L2769.52,219.167L2771.52,219.167L2771.52,220ZM2774.52,220L2772.52,220L2772.52,219.167L2774.52,219.167L2774.52,220ZM2777.53,220L2775.53,220L2775.53,219.167L2777.53,219.167L2777.53,220ZM2780.53,220L2778.53,220L2778.53,219.167L2780.53,219.167L2780.53,220ZM2781.53,220L2781.53,219.167L2783.54,219.167L2783.54,220L2781.53,220ZM2786.54,220L2784.54,220L2784.54,219.167L2786.54,219.167L2786.54,220ZM2789.55,220L2787.54,220L2787.54,219.167L2789.55,219.167L2789.55,220ZM2792.55,220L2790.55,220L2790.55,219.167L2792.55,219.167L2792.55,220ZM2795.56,220L2793.55,220L2793.55,219.167L2795.56,219.167L2795.56,220ZM2798.56,220L2796.56,220L2796.56,219.167L2798.56,219.167L2798.56,220ZM2801.57,220L2799.56,220L2799.56,219.167L2801.57,219.167L2801.57,220ZM2802.57,220L2802.57,219.167L2804.57,219.167L2804.57,220L2802.57,220ZM2807.58,220L2805.57,220L2805.57,219.167L2807.58,219.167L2807.58,220ZM2808.58,220L2808.58,219.167L2810.58,219.167L2810.58,220L2808.58,220ZM2813.59,220L2811.58,220L2811.58,219.167L2813.59,219.167L2813.59,220ZM2816.59,220L2814.59,220L2814.59,219.167L2816.59,219.167L2816.59,220ZM2817.59,220L2817.59,219.167L2819.6,219.167L2819.6,220L2817.59,220ZM2822.6,220L2820.6,220L2820.6,219.167L2822.6,219.167L2822.6,220ZM2825.61,220L2823.6,220L2823.6,219.167L2825.61,219.167L2825.61,220ZM2828.61,220L2826.61,220L2826.61,219.167L2828.61,219.167L2828.61,220ZM2831.62,220L2829.61,220L2829.61,219.167L2831.62,219.167L2831.62,220ZM2834.62,220L2832.62,220L2832.62,219.167L2834.62,219.167L2834.62,220ZM2837.62,220L2835.62,220L2835.62,219.167L2837.62,219.167L2837.62,220ZM2840.13,220L2838.63,220L2838.63,219.167L2839.63,219.167L2840.13,219.166L2840.13,220ZM2760,215.834L2760.5,215.834L2760.5,219.167L2760,219.167L2760,215.834ZM2840.13,214.166L2840.13,217.499L2839.63,217.499L2839.63,214.166L2840.13,214.166ZM2760,210.834L2760.5,210.834L2760.5,214.167L2760,214.167L2760,210.834ZM2840.13,209.166L2840.13,212.499L2839.63,212.499L2839.63,209.166L2840.13,209.166ZM2760,205.834L2760.5,205.834L2760.5,209.167L2760,209.167L2760,205.834ZM2840.13,204.166L2840.13,207.499L2839.63,207.499L2839.63,204.166L2840.13,204.166ZM2760,200.834L2760.5,200.834L2760.5,204.167L2760,204.167L2760,200.834ZM2840.13,199.166L2840.13,202.499L2839.63,202.499L2839.63,199.166L2840.13,199.166ZM2760,195.834L2760.5,195.834L2760.5,199.167L2760,199.167L2760,195.834ZM2840.13,194.166L2840.13,197.5L2839.63,197.5L2839.63,194.166L2840.13,194.166ZM2760,190.834L2760.5,190.834L2760.5,194.167L2760,194.167L2760,190.834ZM2840.13,189.166L2840.13,192.499L2839.63,192.499L2839.63,189.166L2840.13,189.166ZM2760,185.834L2760.5,185.834L2760.5,189.167L2760,189.167L2760,185.834ZM2840.13,184.166L2840.13,187.499L2839.63,187.499L2839.63,184.166L2840.13,184.166ZM2760,180.834L2760.5,180.834L2760.5,184.167L2760,184.167L2760,180.834ZM2840.13,179.166L2840.13,182.499L2839.63,182.499L2839.63,179.166L2840.13,179.166ZM2760,175.834L2760.5,175.834L2760.5,179.167L2760,179.167L2760,175.834ZM2840.13,174.166L2840.13,177.499L2839.63,177.499L2839.63,174.166L2840.13,174.166ZM2760,170.834L2760.5,170.834L2760.5,174.167L2760,174.167L2760,170.834ZM2840.13,169.166L2840.13,172.499L2839.63,172.499L2839.63,169.166L2840.13,169.166ZM2760,165.834L2760.5,165.834L2760.5,169.167L2760,169.167L2760,165.834ZM2840.13,164.166L2840.13,167.499L2839.63,167.499L2839.63,164.166L2840.13,164.166ZM2760,160.834L2760.5,160.834L2760.5,164.167L2760,164.167L2760,160.834ZM2840.13,159.166L2840.13,162.499L2839.63,162.499L2839.63,159.166L2840.13,159.166ZM2760,155.834L2760.5,155.834L2760.5,159.167L2760,159.167L2760,155.834ZM2840.13,154.166L2840.13,157.499L2839.63,157.499L2839.63,154.166L2840.13,154.166ZM2760,150.834L2760.5,150.834L2760.5,154.167L2760,154.167L2760,150.834ZM2840.13,149.166L2840.13,152.499L2839.63,152.499L2839.63,149.166L2840.13,149.166ZM2760,145.834L2760.5,145.834L2760.5,149.167L2760,149.167L2760,145.834ZM2840.13,144.166L2840.13,147.499L2839.63,147.499L2839.63,144.166L2840.13,144.166ZM2760,140.834L2760.5,140.834L2760.5,144.167L2760,144.167L2760,140.834ZM2840.13,139.166L2840.13,142.499L2839.63,142.499L2839.63,139.166L2840.13,139.166ZM2760,135.834L2760.5,135.834L2760.5,139.167L2760,139.167L2760,135.834ZM2840.13,134.166L2840.13,137.499L2839.63,137.499L2839.63,134.166L2840.13,134.166ZM2760,130.834L2760.5,130.834L2760.5,134.167L2760,134.167L2760,130.834ZM2840.13,129.166L2840.13,132.499L2839.63,132.499L2839.63,129.166L2840.13,129.166ZM2760,125.834L2760.5,125.834L2760.5,129.167L2760,129.167L2760,125.834ZM2840.13,124.166L2840.13,127.499L2839.63,127.499L2839.63,124.166L2840.13,124.166ZM2760,120.834L2760.5,120.834L2760.5,124.167L2760,124.167L2760,120.834ZM2840.13,122.499L2839.63,122.499L2839.63,120.833L2838.63,120.833L2838.63,120L2840.13,120L2840.13,122.499ZM2789.55,120L2789.55,120.833L2787.54,120.833L2787.54,120L2789.55,120ZM2786.54,120L2786.54,120.833L2784.54,120.833L2784.54,120L2786.54,120ZM2783.54,120L2783.54,120.833L2781.53,120.833L2781.53,120L2783.54,120ZM2795.56,120L2795.56,120.833L2793.55,120.833L2793.55,120L2795.56,120ZM2792.55,120L2792.55,120.833L2790.55,120.833L2790.55,120L2792.55,120ZM2798.56,120L2798.56,120.833L2796.56,120.833L2796.56,120L2798.56,120ZM2801.57,120L2801.57,120.833L2799.56,120.833L2799.56,120L2801.57,120ZM2774.52,120L2774.52,120.833L2772.52,120.833L2772.52,120L2774.52,120ZM2768.51,120L2768.51,120.833L2766.51,120.833L2766.51,120L2768.51,120ZM2780.53,120L2780.53,120.833L2778.53,120.833L2778.53,120L2780.53,120ZM2804.57,120L2804.57,120.833L2802.57,120.833L2802.57,120L2804.57,120ZM2819.6,120L2819.6,120.833L2817.59,120.833L2817.59,120L2819.6,120ZM2762.5,120L2762.5,120.833L2760.5,120.833L2760.5,120L2762.5,120ZM2777.53,120L2777.53,120.833L2775.53,120.833L2775.53,120L2777.53,120ZM2813.59,120L2813.59,120.833L2811.58,120.833L2811.58,120L2813.59,120ZM2816.59,120L2816.59,120.833L2814.59,120.833L2814.59,120L2816.59,120ZM2822.6,120L2822.6,120.833L2820.6,120.833L2820.6,120L2822.6,120ZM2825.61,120L2825.61,120.833L2823.6,120.833L2823.6,120L2825.61,120ZM2834.62,120L2834.62,120.833L2832.62,120.833L2832.62,120L2834.62,120ZM2837.62,120L2837.62,120.833L2835.62,120.833L2835.62,120L2837.62,120ZM2765.51,120L2765.51,120.833L2763.51,120.833L2763.51,120L2765.51,120ZM2771.52,120L2771.52,120.833L2769.51,120.833L2769.51,120L2771.52,120ZM2807.58,120L2807.58,120.833L2805.57,120.833L2805.57,120L2807.58,120ZM2810.58,120L2810.58,120.833L2808.58,120.833L2808.58,120L2810.58,120ZM2828.61,120L2828.61,120.833L2826.61,120.833L2826.61,120L2828.61,120ZM2831.62,120L2831.62,120.833L2829.61,120.833L2829.61,120L2831.62,120Z" style="fill:white;fill-opacity:0.3;"/>
                </g>
                <g transform="matrix(6.11343e-17,0.998399,-0.6,3.67394e-17,76.4449,-1914.96)">
                    <path d="M2838.63,220L2838.63,219.167L2839.63,219.167L2840.13,219.166L2840.13,220L2838.63,220ZM2840.13,214.166L2840.13,217.499L2839.63,217.499L2839.63,214.166L2840.13,214.166ZM2840.13,209.166L2840.13,212.499L2839.63,212.499L2839.63,209.166L2840.13,209.166ZM2840.13,204.166L2840.13,207.499L2839.63,207.499L2839.63,204.166L2840.13,204.166ZM2840.13,199.166L2840.13,202.499L2839.63,202.499L2839.63,199.166L2840.13,199.166ZM2840.13,194.166L2840.13,197.5L2839.63,197.5L2839.63,194.166L2840.13,194.166ZM2840.13,189.166L2840.13,192.499L2839.63,192.499L2839.63,189.166L2840.13,189.166ZM2840.13,187.499L2839.63,187.499L2839.63,184.166L2840.13,184.166L2840.13,187.499ZM2840.13,179.166L2840.13,182.499L2839.63,182.499L2839.63,179.166L2840.13,179.166ZM2840.13,174.166L2840.13,177.499L2839.63,177.499L2839.63,174.166L2840.13,174.166ZM2840.13,172.499L2839.63,172.499L2839.63,169.166L2840.13,169.166L2840.13,172.499ZM2840.13,164.166L2840.13,167.499L2839.63,167.499L2839.63,164.166L2840.13,164.166ZM2840.13,159.166L2840.13,162.499L2839.63,162.499L2839.63,159.166L2840.13,159.166ZM2840.13,154.166L2840.13,157.499L2839.63,157.499L2839.63,154.166L2840.13,154.166ZM2840.13,149.166L2840.13,152.499L2839.63,152.499L2839.63,149.166L2840.13,149.166ZM2840.13,147.499L2839.63,147.499L2839.63,144.166L2840.13,144.166L2840.13,147.499ZM2840.13,142.499L2839.63,142.499L2839.63,139.166L2840.13,139.166L2840.13,142.499ZM2840.13,137.499L2839.63,137.499L2839.63,134.166L2840.13,134.166L2840.13,137.499ZM2840.13,129.166L2840.13,132.499L2839.63,132.499L2839.63,129.166L2840.13,129.166ZM2840.13,124.166L2840.13,127.499L2839.63,127.499L2839.63,124.166L2840.13,124.166ZM2840.13,120L2840.13,122.499L2839.63,122.499L2839.63,120.833L2838.63,120.833L2838.63,120L2840.13,120ZM2835.62,220L2835.62,219.167L2837.62,219.167L2837.62,220L2835.62,220ZM2835.62,120L2837.62,120L2837.62,120.833L2835.62,120.833L2835.62,120ZM2832.62,220L2832.62,219.167L2834.62,219.167L2834.62,220L2832.62,220ZM2832.62,120L2834.62,120L2834.62,120.833L2832.62,120.833L2832.62,120ZM2829.61,220L2829.61,219.167L2831.62,219.167L2831.62,220L2829.61,220ZM2829.61,120L2831.62,120L2831.62,120.833L2829.61,120.833L2829.61,120ZM2826.61,220L2826.61,219.167L2828.61,219.167L2828.61,220L2826.61,220ZM2826.61,120L2828.61,120L2828.61,120.833L2826.61,120.833L2826.61,120ZM2823.6,220L2823.6,219.167L2825.61,219.167L2825.61,220L2823.6,220ZM2823.6,120L2825.61,120L2825.61,120.833L2823.6,120.833L2823.6,120ZM2820.6,220L2820.6,219.167L2822.6,219.167L2822.6,220L2820.6,220ZM2820.6,120L2822.6,120L2822.6,120.833L2820.6,120.833L2820.6,120ZM2817.59,220L2817.59,219.167L2819.6,219.167L2819.6,220L2817.59,220ZM2817.59,120L2819.6,120L2819.6,120.833L2817.59,120.833L2817.59,120ZM2814.59,220L2814.59,219.167L2816.59,219.167L2816.59,220L2814.59,220ZM2814.59,120L2816.59,120L2816.59,120.833L2814.59,120.833L2814.59,120ZM2811.58,220L2811.58,219.167L2813.59,219.167L2813.59,220L2811.58,220ZM2811.58,120L2813.59,120L2813.59,120.833L2811.58,120.833L2811.58,120ZM2808.58,220L2808.58,219.167L2810.58,219.167L2810.58,220L2808.58,220ZM2808.58,120L2810.58,120L2810.58,120.833L2808.58,120.833L2808.58,120ZM2805.57,220L2805.57,219.167L2807.58,219.167L2807.58,220L2805.57,220ZM2805.57,120L2807.58,120L2807.58,120.833L2805.57,120.833L2805.57,120ZM2802.57,220L2802.57,219.167L2804.57,219.167L2804.57,220L2802.57,220ZM2802.57,120L2804.57,120L2804.57,120.833L2802.57,120.833L2802.57,120ZM2799.56,220L2799.56,219.167L2801.57,219.167L2801.57,220L2799.56,220ZM2799.56,120L2801.57,120L2801.57,120.833L2799.56,120.833L2799.56,120ZM2796.56,220L2796.56,219.167L2798.56,219.167L2798.56,220L2796.56,220ZM2796.56,120L2798.56,120L2798.56,120.833L2796.56,120.833L2796.56,120ZM2793.55,220L2793.55,219.167L2795.56,219.167L2795.56,220L2793.55,220ZM2793.55,120L2795.56,120L2795.56,120.833L2793.55,120.833L2793.55,120ZM2790.55,220L2790.55,219.167L2792.55,219.167L2792.55,220L2790.55,220ZM2790.55,120L2792.55,120L2792.55,120.833L2790.55,120.833L2790.55,120ZM2787.54,220L2787.54,219.167L2789.55,219.167L2789.55,220L2787.54,220ZM2787.54,120L2789.55,120L2789.55,120.833L2787.54,120.833L2787.54,120ZM2784.54,220L2784.54,219.167L2786.54,219.167L2786.54,220L2784.54,220ZM2784.54,120L2786.54,120L2786.54,120.833L2784.54,120.833L2784.54,120ZM2781.53,220L2781.53,219.167L2783.54,219.167L2783.54,220L2781.53,220ZM2781.53,120L2783.54,120L2783.54,120.833L2781.53,120.833L2781.53,120ZM2778.53,220L2778.53,219.167L2780.53,219.167L2780.53,220L2778.53,220ZM2778.53,120L2780.53,120L2780.53,120.833L2778.53,120.833L2778.53,120ZM2775.53,220L2775.53,219.167L2777.53,219.167L2777.53,220L2775.53,220ZM2775.53,120L2777.53,120L2777.53,120.833L2775.53,120.833L2775.53,120ZM2772.52,220L2772.52,219.167L2774.52,219.167L2774.52,220L2772.52,220ZM2772.52,120L2774.52,120L2774.52,120.833L2772.52,120.833L2772.52,120ZM2769.52,220L2769.52,219.167L2771.52,219.167L2771.52,220L2769.52,220ZM2769.51,120L2771.52,120L2771.52,120.833L2769.51,120.833L2769.51,120ZM2766.51,220L2766.51,219.167L2768.51,219.167L2768.51,220L2766.51,220ZM2766.51,120L2768.51,120L2768.51,120.833L2766.51,120.833L2766.51,120ZM2763.51,220L2763.51,219.167L2765.51,219.167L2765.51,220L2763.51,220ZM2763.51,120L2765.51,120L2765.51,120.833L2763.51,120.833L2763.51,120ZM2760.5,220L2760.5,219.167L2762.5,219.167L2762.5,220L2760.5,220ZM2760.5,120L2762.5,120L2762.5,120.833L2760.5,120.833L2760.5,120ZM2760,190.834L2760.5,190.834L2760.5,194.167L2760,194.167L2760,190.834ZM2760,210.834L2760.5,210.834L2760.5,214.167L2760,214.167L2760,210.834ZM2760,195.834L2760.5,195.834L2760.5,199.167L2760,199.167L2760,195.834ZM2760,185.834L2760.5,185.834L2760.5,189.167L2760,189.167L2760,185.834ZM2760,175.834L2760.5,175.834L2760.5,179.167L2760,179.167L2760,175.834ZM2760,180.834L2760.5,180.834L2760.5,184.167L2760,184.167L2760,180.834ZM2760,170.834L2760.5,170.834L2760.5,174.167L2760,174.167L2760,170.834ZM2760,165.834L2760.5,165.834L2760.5,169.167L2760,169.167L2760,165.834ZM2760,200.834L2760.5,200.834L2760.5,204.167L2760,204.167L2760,200.834ZM2760,160.834L2760.5,160.834L2760.5,164.167L2760,164.167L2760,160.834ZM2760,155.834L2760.5,155.834L2760.5,159.167L2760,159.167L2760,155.834ZM2760,145.834L2760.5,145.834L2760.5,149.167L2760,149.167L2760,145.834ZM2760,215.834L2760.5,215.834L2760.5,219.167L2760,219.167L2760,215.834ZM2760,205.834L2760.5,205.834L2760.5,209.167L2760,209.167L2760,205.834ZM2760,150.834L2760.5,150.834L2760.5,154.167L2760,154.167L2760,150.834ZM2760,120.834L2760.5,120.834L2760.5,124.167L2760,124.167L2760,120.834ZM2760,140.834L2760.5,140.834L2760.5,144.167L2760,144.167L2760,140.834ZM2760,135.834L2760.5,135.834L2760.5,139.167L2760,139.167L2760,135.834ZM2760,130.834L2760.5,130.834L2760.5,134.167L2760,134.167L2760,130.834ZM2760,125.834L2760.5,125.834L2760.5,129.167L2760,129.167L2760,125.834Z" style="fill:white;fill-opacity:0.3;"/>
                </g>
                <g transform="matrix(0.994631,0,0,0.994631,28.9358,-615.586)">
                    <circle cx="-54.785" cy="1504.28" r="40.216" style="fill:none;stroke:white;stroke-opacity:0.3;stroke-width:0.5px;stroke-dasharray:2.01,1.01,2.01,1.01;stroke-dashoffset:-15.58;"/>
                </g>
            </g>
            <g transform="matrix(0.521152,0,0,0.521152,-2993.32,2887.91)">
                <rect x="859.943" y="-33.506" width="153.506" height="153.506" style="fill:none;"/>
            </g>
            <g transform="matrix(1,0,0,1,127.654,582.395)">
                <g transform="matrix(1,0,0,1,0.276682,-1.23085)">
                    <clipPath id="_clip1">
                        <circle cx="-2633.3" cy="2329.28" r="40"/>
                    </clipPath>
                    <g clip-path="url(#_clip1)">
                        <path d="M-2657.42,2361.73L-2657.42,2361.74L-2658.59,2360.62L-2657.21,2360.21L-2656.05,2359.86L-2654.22,2360.13L-2651.77,2358.3L-2650.73,2357.47L-2647.74,2357.87L-2647.38,2358.89L-2645.79,2356.89L-2638.23,2356.07L-2634.87,2356.89L-2631.73,2357.47L-2630.78,2358.3L-2632.27,2359.42L-2631.73,2360.13L-2632.89,2360.96C-2632.44,2361.69 -2631.73,2362.24 -2630.78,2362.63C-2629.83,2363.02 -2628.18,2363.24 -2625.83,2363.31L-2625.83,2361.89L-2625.1,2361.5L-2625.83,2360.34L-2621.56,2360.13L-2618.9,2360.34L-2617.35,2360.96L-2616.86,2360.34L-2614.05,2361.5L-2612.11,2360.96L-2610.72,2360.13L-2608.18,2358.89C-2608.95,2359.87 -2609.79,2360.74 -2610.72,2361.49C-2611.65,2362.25 -2612.76,2362.63 -2614.05,2362.63L-2614.39,2363.83L-2611.72,2364.6C-2611.72,2364.6 -2621.62,2371.49 -2635.67,2371.1C-2647.69,2370.76 -2657.42,2361.73 -2657.42,2361.73ZM-2605.66,2315.98C-2605.77,2315.82 -2606.25,2315.15 -2605.65,2316.38C-2604.93,2317.84 -2605.65,2316.78 -2605.82,2318.14C-2605.98,2319.49 -2605.07,2319.94 -2604.93,2320.61C-2604.78,2321.28 -2604.7,2321.81 -2605.26,2320.99C-2605.82,2320.16 -2606.18,2319.16 -2606.83,2319.25C-2607.47,2319.34 -2607.78,2319.52 -2607.36,2319.76C-2606.94,2320 -2607.23,2320.24 -2607.71,2320C-2608.18,2319.76 -2608.77,2319.86 -2608.62,2320.82C-2608.48,2321.78 -2608.43,2322.68 -2608.18,2323.08C-2607.92,2323.47 -2607.42,2324.86 -2606.83,2324.17C-2606.23,2323.48 -2606.76,2323.42 -2606.33,2323.08C-2605.91,2322.74 -2605.82,2322.88 -2605.82,2323.28C-2605.82,2323.69 -2605.97,2325.08 -2605.65,2325.21C-2605.33,2325.33 -2604.28,2324.96 -2604.35,2325.63C-2604.41,2326.3 -2604.17,2327.47 -2603.91,2327.7C-2603.65,2327.94 -2603.63,2328.3 -2603.28,2327.79C-2602.94,2327.28 -2602.67,2328.46 -2602.5,2328.3C-2602.32,2328.15 -2602.55,2327.24 -2602.22,2327.02C-2601.88,2326.8 -2601.79,2326.38 -2601.68,2326.38C-2601.61,2326.4 -2601.58,2326.46 -2601.58,2326.59L-2600.49,2327.17L-2600.02,2327.3L-2599.71,2327.03L-2599.17,2327.43L-2598.93,2327.95C-2598.71,2328.1 -2598.54,2328.27 -2598.42,2328.45C-2598.24,2328.72 -2598.21,2329.08 -2597.79,2329.08C-2597.37,2329.08 -2596.86,2329.2 -2596.61,2330.52C-2596.36,2331.84 -2597,2332.41 -2596.61,2332.13C-2596.23,2331.85 -2596.1,2331.97 -2596.1,2332.26C-2596.1,2332.55 -2595.85,2331.96 -2595.61,2332.26C-2595.36,2332.55 -2595.38,2333.44 -2595.13,2333.31C-2594.88,2333.18 -2594.12,2333.36 -2593.93,2333.84C-2593.75,2334.32 -2593.16,2334.27 -2593.33,2335.05C-2593.49,2335.83 -2593.99,2336.94 -2594.52,2338.02C-2595.05,2339.09 -2595.05,2341.12 -2596.1,2342.19C-2597.14,2343.27 -2597.91,2342.87 -2598.42,2344.03C-2598.93,2345.19 -2599.64,2346.06 -2600.49,2346.91C-2601.34,2347.76 -2601.19,2347.55 -2601.44,2347.23C-2601.69,2346.91 -2601.57,2347.78 -2601.87,2348.23C-2602.18,2348.67 -2602.95,2348.68 -2603.15,2348.68C-2603.35,2348.68 -2603.43,2349.52 -2603.9,2349.38C-2604.38,2349.24 -2604.1,2349.45 -2604.4,2349.93C-2604.71,2350.43 -2604.65,2350.57 -2605.03,2350.74C-2605.41,2350.91 -2605.69,2351.07 -2605.55,2351.42C-2605.4,2351.77 -2605.52,2351.82 -2606.14,2352.21C-2606.78,2352.6 -2607.39,2353.58 -2607.19,2353.89C-2606.99,2354.19 -2606.39,2354.59 -2606.93,2354.49C-2607.46,2354.4 -2608.46,2354.87 -2608.17,2353.23C-2607.89,2351.59 -2606.08,2349.84 -2605.81,2349.38C-2605.55,2348.91 -2605.96,2348.88 -2604.4,2346.34C-2602.85,2343.8 -2601.62,2340.41 -2601.96,2339.53C-2602.31,2338.65 -2602.75,2338.9 -2602.75,2336.97C-2602.75,2335.05 -2603.94,2334.95 -2603.34,2332.74C-2602.75,2330.53 -2602.32,2330.94 -2602.49,2329.61C-2602.66,2328.29 -2603.01,2328.03 -2603.34,2328.16C-2603.68,2328.3 -2603.04,2328.33 -2603.28,2328.62C-2603.51,2328.9 -2603.34,2328.32 -2603.78,2328.32C-2604.22,2328.32 -2604.21,2327.98 -2604.34,2327.7C-2604.46,2327.43 -2604.88,2326.78 -2605.11,2326.59C-2605.34,2326.4 -2605.9,2326.28 -2606.49,2325.73C-2607.07,2325.17 -2607.08,2325.09 -2607.35,2325.35C-2607.62,2325.62 -2609.52,2324.41 -2609.82,2323.71C-2610.11,2323 -2610.93,2322.05 -2611.74,2321C-2612.56,2319.95 -2613.03,2319.51 -2612.76,2320.01C-2612.49,2320.51 -2610.79,2322.54 -2610.98,2322.75C-2611.16,2322.95 -2611.58,2322.07 -2611.94,2321.66C-2612.31,2321.25 -2613.23,2319.41 -2613.81,2319.05C-2614.39,2318.68 -2614.03,2319.48 -2615.03,2317.84C-2616.03,2316.2 -2616.17,2314.73 -2616.58,2314.15C-2616.99,2313.56 -2617.46,2313.82 -2617.77,2313.07C-2618.08,2312.31 -2618.61,2311.88 -2618.61,2312.21C-2618.61,2312.54 -2617.99,2313.45 -2618.44,2313.07C-2618.89,2312.69 -2618.71,2312.28 -2620.05,2311.28C-2621.39,2310.28 -2621.68,2310.51 -2622.25,2310.32C-2622.82,2310.14 -2622.64,2310.29 -2622.64,2310.49C-2622.64,2310.68 -2622.98,2310.72 -2623.08,2310.88C-2623.18,2311.02 -2624.1,2312.27 -2624.59,2312.55C-2625.08,2312.82 -2625.57,2313.74 -2627.09,2314.04C-2628.1,2314.24 -2628.93,2314.14 -2629.59,2313.74C-2628.63,2314.13 -2627.66,2314.13 -2626.68,2313.74C-2625.22,2313.16 -2624.36,2312.03 -2624.21,2311.55C-2624.06,2311.07 -2624.2,2311.28 -2624.4,2311.28C-2624.59,2311.28 -2625.01,2311.51 -2625.01,2311.28C-2625.01,2311.05 -2625.73,2311.43 -2625.84,2310.88C-2625.94,2310.32 -2625.95,2310.1 -2625.54,2309.82C-2625.13,2309.54 -2625.16,2309.12 -2625.54,2309.33C-2625.92,2309.54 -2626.17,2309.24 -2626.47,2309.03C-2626.77,2308.82 -2626.32,2308.64 -2626.08,2308.64C-2625.84,2308.64 -2625.21,2308.92 -2625.84,2308.44C-2626.47,2307.96 -2626.74,2308.15 -2626.29,2307.62C-2625.84,2307.09 -2625.82,2306.96 -2625.21,2306.96L-2623.17,2306.96C-2622.65,2306.96 -2621.95,2307.21 -2621.68,2307.21C-2621.4,2307.21 -2621.18,2306.7 -2620.62,2306.57C-2620.06,2306.44 -2618.38,2306.85 -2618.62,2306.57C-2618.87,2306.29 -2618.81,2305.36 -2619.36,2305.83C-2619.91,2306.29 -2620.52,2306.35 -2620.76,2305.83C-2621,2305.3 -2621.19,2304.41 -2620.76,2303.96C-2620.33,2303.52 -2618.77,2302.73 -2617.78,2301.93C-2616.79,2301.14 -2614.71,2300.95 -2614.37,2300.95C-2614.04,2300.95 -2613.98,2300.77 -2614.37,2301.35C-2614.77,2301.93 -2615.03,2302.13 -2614.8,2302.89C-2614.57,2303.65 -2614.13,2303.96 -2613.56,2303.96C-2612.99,2303.96 -2610.76,2304.78 -2610.17,2305.09C-2609.58,2305.4 -2608.96,2305.82 -2609.39,2305.82C-2609.82,2305.82 -2609.86,2306.02 -2609.39,2306.29C-2608.93,2306.56 -2608.19,2306.96 -2609.01,2306.96C-2609.82,2306.96 -2610.25,2306.57 -2610.71,2306.57C-2611.17,2306.57 -2611.45,2306.92 -2611.45,2305.82C-2611.45,2304.72 -2612.72,2304.83 -2612.96,2305.09C-2613.19,2305.35 -2612.72,2305.38 -2612.96,2306.3C-2613.19,2307.21 -2613.57,2308.24 -2613.17,2309.03C-2612.77,2309.81 -2612.21,2309.82 -2611.75,2309.82C-2611.3,2309.82 -2610.76,2309.92 -2610.17,2310.12C-2609.58,2310.32 -2608.19,2312.42 -2609.01,2310.73C-2609.82,2309.03 -2609.63,2309.16 -2610.17,2308.64C-2610.71,2308.1 -2611.24,2307.35 -2610.31,2307.35C-2609.39,2307.35 -2609.22,2307.65 -2609.01,2307.92C-2608.79,2308.2 -2607.92,2308.33 -2608.3,2307.77C-2608.68,2307.21 -2607.43,2308.29 -2606.49,2308.81C-2605.55,2309.33 -2604.45,2309.63 -2604.78,2309.97C-2605.11,2310.31 -2605.48,2310.63 -2605.82,2310.87C-2606.05,2311.03 -2605.96,2311.19 -2605.99,2311.48C-2606.09,2311.59 -2606.17,2311.82 -2606.23,2312.1C-2606.5,2312.78 -2606.55,2314.03 -2606.93,2314.03C-2607.35,2314.03 -2606.95,2314.65 -2607.35,2314.65C-2607.75,2314.65 -2607.86,2314.01 -2607.81,2313.74C-2607.75,2313.47 -2607.83,2313.17 -2608.3,2313.32C-2608.77,2313.47 -2608.96,2312.54 -2609.39,2312.54C-2609.82,2312.54 -2609.73,2312.52 -2610.02,2312.92C-2610.32,2313.32 -2610.26,2313.71 -2609.82,2313.32C-2609.39,2312.92 -2609.41,2313.32 -2609.01,2313.32C-2608.61,2313.32 -2608.65,2313.21 -2608.89,2313.47C-2609.12,2313.74 -2608.93,2314.9 -2608.55,2315.08C-2608.18,2315.26 -2608.93,2313.63 -2608.55,2313.63C-2608.18,2313.63 -2608.4,2314.06 -2608.18,2314.14C-2607.96,2314.22 -2607.71,2314.6 -2607.71,2314.84C-2607.71,2315.08 -2607.46,2315.13 -2607.2,2314.84C-2606.94,2314.55 -2607.34,2313.97 -2606.83,2314.14C-2606.49,2314.25 -2606.42,2312.95 -2606.23,2312.1C-2606.21,2312.04 -2606.18,2311.99 -2606.15,2311.93C-2606.05,2311.75 -2606.01,2311.6 -2605.99,2311.48C-2605.94,2311.42 -2605.88,2311.4 -2605.82,2311.41C-2605.22,2311.54 -2605.48,2311.75 -2605.65,2311.84C-2605.82,2311.93 -2605.51,2312.33 -2605.11,2312.43C-2604.71,2312.54 -2604.53,2312.87 -2604.53,2312.2C-2604.53,2311.54 -2604.46,2311.42 -2604.67,2310.87C-2604.88,2310.32 -2604.4,2310.03 -2604.4,2310.12C-2604.4,2310.21 -2604.44,2310.87 -2604.07,2310.87C-2603.7,2310.87 -2603.15,2310.99 -2603.15,2311.42C-2603.15,2311.85 -2603.22,2311.67 -2603.78,2311.54C-2604.34,2311.42 -2604.34,2311.56 -2604.34,2311.94C-2604.34,2312.32 -2604.01,2312.37 -2604.34,2312.92C-2604.67,2313.48 -2605.07,2313.49 -2604.93,2313.06C-2604.78,2312.64 -2604.76,2312.37 -2605.11,2312.92C-2605.45,2313.48 -2605.74,2313.9 -2605.43,2314.14C-2605.11,2314.38 -2605.25,2314.22 -2605.65,2314.65C-2606.03,2315.06 -2605.77,2315.8 -2605.66,2315.98C-2605.64,2316.01 -2605.63,2316.03 -2605.65,2316C-2605.65,2316 -2605.66,2315.99 -2605.66,2315.98ZM-2629.15,2346.91C-2629.24,2346.92 -2629.49,2347.03 -2629.73,2347.45C-2629.97,2347.89 -2630.24,2347.89 -2630.55,2347.72C-2630.85,2347.54 -2630.24,2346.97 -2629.73,2346.53C-2629.21,2346.09 -2629.73,2346.53 -2629.36,2346.03C-2628.99,2345.54 -2629.14,2346.06 -2629.08,2345.93C-2629.02,2345.82 -2628.82,2346.06 -2629.08,2346.52C-2629.23,2346.81 -2629.19,2346.89 -2629.15,2346.91ZM-2629.15,2346.91C-2629.14,2346.91 -2629.14,2346.91 -2629.14,2346.91C-2629.1,2346.91 -2629.13,2346.92 -2629.15,2346.91ZM-2635.23,2345.82C-2634.85,2345.82 -2634.6,2346.23 -2634.81,2346.53C-2635.02,2346.83 -2634.95,2346.88 -2635.23,2346.41C-2635.52,2345.95 -2635.62,2345.82 -2635.23,2345.82ZM-2649.29,2305.2C-2649.27,2305.15 -2649.33,2305.11 -2649.38,2305.07C-2649.48,2304.99 -2649.17,2304.71 -2648.74,2304.58C-2648.31,2304.46 -2647.45,2304.18 -2646.87,2304.33C-2646.3,2304.48 -2647.45,2304.7 -2648.49,2304.92C-2649.03,2305.03 -2649.21,2305.11 -2649.29,2305.2C-2649.29,2305.2 -2649.3,2305.21 -2649.3,2305.21C-2649.36,2305.29 -2649.35,2305.38 -2649.44,2305.51C-2649.63,2305.8 -2649.53,2306.5 -2649.17,2306.5C-2648.8,2306.5 -2648.4,2307.11 -2648.22,2307.24C-2648.04,2307.38 -2648.04,2306.99 -2648.14,2306.82C-2648.24,2306.64 -2648.2,2306.33 -2647.68,2305.97C-2647.16,2305.62 -2646.61,2305.73 -2646.94,2306.05C-2647.28,2306.37 -2647.27,2306.57 -2647.39,2307.24C-2647.51,2307.92 -2648.28,2308.04 -2647.76,2307.92C-2647.23,2307.8 -2647.42,2307.46 -2647.04,2307.24C-2646.92,2307.18 -2646.82,2307.2 -2646.74,2307.25C-2646.73,2307.27 -2646.72,2307.29 -2646.7,2307.31C-2646.55,2307.59 -2646.58,2307.35 -2646.74,2307.25C-2646.95,2306.91 -2647.15,2306.96 -2646.94,2306.43C-2646.72,2305.87 -2646.66,2306.24 -2646.48,2306.24C-2646.29,2306.24 -2646.12,2306.13 -2645.64,2306.43C-2645.16,2306.74 -2645.73,2306.91 -2645.53,2307.11C-2645.33,2307.32 -2645.24,2306.53 -2645.53,2306.05C-2645.82,2305.57 -2645.24,2305.76 -2644.74,2305.83C-2644.24,2305.9 -2644.03,2305.23 -2643.28,2305.23C-2642.54,2305.23 -2642.29,2305.16 -2641.63,2304.84C-2640.98,2304.52 -2641.18,2305.16 -2640.75,2305.07C-2640.32,2304.98 -2639.54,2305.43 -2640.64,2305.97C-2641.74,2306.52 -2640.88,2306.43 -2640.28,2306.43C-2639.67,2306.43 -2639.55,2306.57 -2639.1,2306.7C-2638.64,2306.84 -2638.83,2306.48 -2638.47,2306.43C-2638.12,2306.38 -2637.7,2306.48 -2637.79,2306.99C-2637.89,2307.5 -2637.49,2307.52 -2637.35,2307.31C-2637.22,2307.1 -2637.17,2307.11 -2636.6,2307.31C-2636.02,2307.51 -2636.07,2307.3 -2636.07,2307.11C-2636.07,2306.92 -2635.37,2306.81 -2634.88,2306.91C-2634.39,2307.01 -2634.38,2307.33 -2633.86,2307.52C-2633.34,2307.72 -2632.81,2307.41 -2632.53,2307.8C-2632.25,2308.19 -2632.09,2308.04 -2631.66,2307.92C-2631.23,2307.8 -2630.68,2308.32 -2630.68,2308.04C-2630.68,2307.76 -2630.84,2307.8 -2630.01,2307.8C-2629.18,2307.8 -2628.37,2308.37 -2628.11,2308.54C-2627.85,2308.7 -2627.96,2308.72 -2627.51,2308.72C-2627.06,2308.72 -2627.19,2309.11 -2627.38,2309.11C-2627.57,2309.11 -2627.36,2309.56 -2627.62,2309.56C-2627.87,2309.56 -2627.98,2309.56 -2628.49,2309.18C-2628.99,2308.79 -2628.51,2309.48 -2629.05,2309.56C-2629.59,2309.63 -2629.09,2309.72 -2628.94,2310.14C-2628.79,2310.57 -2629.15,2310.41 -2629.61,2310.61C-2630.07,2310.81 -2630.21,2311.36 -2630.46,2311.14C-2630.71,2310.91 -2630.83,2311.1 -2631.25,2311.22C-2631.67,2311.34 -2631.66,2311.53 -2631.82,2311.76C-2631.97,2311.99 -2631.78,2312.18 -2631.66,2312.49C-2631.54,2312.8 -2631.88,2312.4 -2631.88,2312.97C-2631.88,2313.53 -2632.07,2312.84 -2632.16,2313.38C-2632.25,2313.92 -2632.35,2313.46 -2632.53,2313.96C-2632.7,2314.47 -2632.82,2314.98 -2632.97,2313.69C-2633.12,2312.41 -2632.92,2312.42 -2632.61,2312.01C-2632.3,2311.59 -2631.88,2311.34 -2631.53,2310.8C-2631.18,2310.25 -2631.65,2310.71 -2631.88,2310.92C-2632.11,2311.14 -2632.33,2311.19 -2632.26,2310.92C-2632.19,2310.65 -2632.74,2310.75 -2633.18,2311.02C-2633.62,2311.3 -2633.22,2311.63 -2633.47,2311.65C-2633.72,2311.67 -2634,2311.63 -2634.15,2311.52C-2634.3,2311.42 -2634.84,2311.52 -2635.36,2311.52C-2635.89,2311.52 -2636.42,2312.43 -2636.93,2312.83C-2637.44,2313.23 -2637.06,2313.75 -2636.5,2313.45C-2635.93,2313.15 -2636.16,2314.5 -2636.5,2315.35C-2636.83,2316.19 -2637.78,2317.35 -2637.96,2317.26C-2638.11,2317.18 -2638.31,2317.12 -2638.53,2317.25C-2638.54,2317.27 -2638.56,2317.29 -2638.58,2317.31C-2638.63,2317.36 -2638.66,2317.38 -2638.67,2317.37C-2638.9,2317.61 -2638.7,2317.7 -2639.19,2318.13C-2639.69,2318.57 -2638.95,2318.93 -2639.02,2319.57C-2639.1,2320.21 -2639.78,2320.02 -2639.78,2319.78C-2639.78,2319.54 -2639.55,2319.02 -2639.78,2318.93C-2640.01,2318.85 -2640.11,2318.93 -2639.91,2318.66C-2639.8,2318.51 -2639.83,2318.34 -2640,2318.16C-2640.02,2318.17 -2640.03,2318.18 -2640.05,2318.19C-2640.17,2318.28 -2640.32,2318.32 -2640.48,2318.47C-2640.63,2318.62 -2640.91,2318.71 -2640.77,2318.4C-2640.63,2318.09 -2640.41,2317.95 -2640.62,2317.81C-2640.76,2317.76 -2640.72,2317.97 -2641.05,2318.22C-2641.39,2318.47 -2641.37,2318.47 -2641.49,2318.47C-2641.62,2318.47 -2641.68,2318.66 -2641.49,2318.77C-2641.3,2318.87 -2641.3,2318.9 -2641.34,2319.05C-2641.38,2319.19 -2641.17,2319.19 -2641.05,2319.05C-2640.94,2318.9 -2640.91,2319 -2640.8,2319.05C-2640.7,2319.09 -2640.37,2319.19 -2640.67,2319.28C-2640.97,2319.36 -2641.26,2319.62 -2641.34,2319.78C-2641.41,2319.93 -2641.45,2319.84 -2641.29,2319.98C-2641.14,2320.13 -2641.09,2320.64 -2640.98,2320.82C-2640.87,2320.99 -2640.89,2321 -2641.01,2321C-2641.14,2321 -2641.12,2321.06 -2641.01,2321.16C-2640.91,2321.25 -2640.87,2321.31 -2641.08,2321.39C-2641.29,2321.46 -2641.3,2321.55 -2641.08,2321.62C-2640.87,2321.69 -2640.97,2321.81 -2641.08,2322.13C-2641.14,2322.3 -2641.18,2322.46 -2641.25,2322.56C-2641.31,2322.64 -2641.41,2322.65 -2641.45,2322.78C-2641.48,2322.86 -2641.47,2323.04 -2641.52,2323.12C-2641.63,2323.27 -2641.81,2323.32 -2641.93,2323.42C-2642.12,2323.58 -2642.07,2323.71 -2642.28,2323.78C-2642.48,2323.85 -2642.34,2324.01 -2642.44,2324.1C-2642.55,2324.18 -2642.63,2323.98 -2642.8,2324.1C-2642.97,2324.21 -2643.01,2324.32 -2643.1,2324.26C-2643.18,2324.21 -2643.2,2324.15 -2643.28,2324.26C-2643.35,2324.38 -2643.4,2324.39 -2643.59,2324.42C-2643.79,2324.45 -2643.94,2324.54 -2643.91,2324.65C-2643.89,2324.76 -2643.9,2324.9 -2643.99,2324.82C-2644.08,2324.74 -2644.1,2324.55 -2644.05,2324.46C-2644.01,2324.38 -2644.22,2324.38 -2644.37,2324.42C-2644.49,2324.45 -2644.55,2324.46 -2644.62,2324.41C-2644.7,2324.5 -2644.77,2324.59 -2644.82,2324.68C-2645.13,2325.27 -2645.32,2324.72 -2644.66,2326.36C-2644,2328 -2645.04,2328.27 -2645.24,2328.66C-2645.43,2329.06 -2645.53,2328.54 -2645.9,2328.18C-2646.26,2327.82 -2646.25,2326.64 -2646.71,2327.48C-2647.16,2328.32 -2646.88,2329.12 -2646.48,2329.43C-2646.09,2329.75 -2645.75,2330.37 -2645.9,2331.35C-2646.05,2332.32 -2646.71,2329.78 -2647.04,2329.16C-2647.26,2328.74 -2647.29,2327.91 -2647.13,2326.64C-2646.98,2326.12 -2647.12,2325.98 -2647.54,2326.22C-2648.18,2326.58 -2647.92,2325.27 -2648.14,2324.66C-2648.35,2324.04 -2648.14,2323.71 -2648.49,2323.92C-2648.85,2324.12 -2650.3,2325.1 -2650.87,2325.73C-2651.45,2326.37 -2651.29,2326.43 -2651.43,2327.2C-2651.58,2327.97 -2651.99,2329.79 -2652.49,2328.02C-2652.98,2326.25 -2652.62,2324.3 -2652.62,2324.1C-2652.62,2323.89 -2653.55,2322.91 -2653.85,2322.43C-2654.15,2321.95 -2654.69,2322.31 -2655.39,2322.18C-2656.1,2322.06 -2655.66,2321.19 -2655.96,2321.45C-2656.26,2321.72 -2656.4,2321.46 -2656.7,2321.08C-2657.01,2320.7 -2656.81,2319.94 -2657.25,2320.14C-2657.69,2320.34 -2657.56,2321.12 -2657.4,2321.86C-2657.24,2322.59 -2657.09,2322.7 -2656.7,2322.43C-2656.32,2322.16 -2655.96,2321.7 -2655.96,2321.97C-2655.96,2322.23 -2656.1,2322.7 -2655.66,2323.12C-2655.22,2323.53 -2656.7,2324.97 -2657.08,2325.27C-2657.47,2325.56 -2659.36,2326.68 -2659.69,2326.94C-2660.03,2327.2 -2659.92,2324.96 -2659.92,2324.1C-2659.92,2323.23 -2660.03,2321.54 -2660.34,2320.91C-2660.65,2320.27 -2660.8,2319.77 -2660.73,2320.64C-2660.66,2321.52 -2660.89,2322.8 -2660.57,2324.66C-2660.24,2326.52 -2660.34,2326.37 -2660.03,2326.94C-2659.72,2327.52 -2660.21,2328.02 -2658.72,2327.49C-2657.24,2326.96 -2659.05,2329.44 -2660.21,2331.51C-2661.37,2333.59 -2661.3,2333.56 -2660.8,2335.63C-2660.31,2337.7 -2660.47,2338.48 -2661.05,2339.35C-2661.62,2340.22 -2660.57,2341.64 -2660.9,2342.13C-2661.23,2342.62 -2661,2343.17 -2660.9,2344.14C-2660.8,2345.11 -2661.3,2345.86 -2661.79,2345.94C-2662.28,2346.02 -2662.66,2346.48 -2662.83,2346.17C-2663.01,2345.87 -2664.16,2344.17 -2664.51,2343.54C-2664.86,2342.92 -2665.76,2340.71 -2666.33,2339.91C-2666.71,2339.39 -2666.59,2338.22 -2666.62,2337.16C-2666.64,2336.58 -2666.82,2336.12 -2666.9,2335.63C-2667.12,2334.26 -2668,2332.64 -2668,2332.25C-2668,2331.86 -2667.61,2329.35 -2668.25,2329.8C-2668.88,2330.25 -2668.73,2329.35 -2669,2328.93C-2669.27,2328.52 -2670.25,2329.8 -2670.54,2329.44C-2670.83,2329.09 -2671.4,2329.74 -2671.55,2329.8C-2671.7,2329.87 -2672.27,2328.88 -2672.72,2326.95C-2673.17,2325.02 -2672.63,2324.08 -2672.12,2322.7C-2671.61,2321.33 -2671,2319.69 -2670.33,2319.17C-2669.66,2318.66 -2669.21,2318.3 -2669,2317.74C-2668.79,2317.18 -2667.97,2316.61 -2667.62,2316.14C-2667.26,2315.68 -2667.46,2316.06 -2667.1,2316.33C-2666.73,2316.59 -2666.75,2316.33 -2666.23,2316.06C-2665.71,2315.8 -2664.84,2316.14 -2664.51,2316.14C-2664.18,2316.14 -2663.76,2316.14 -2664.07,2316.33C-2664.37,2316.5 -2664.03,2316.56 -2664.44,2317.16C-2664.85,2317.75 -2664.38,2317.93 -2664.15,2317.93C-2663.92,2317.93 -2663.69,2319.03 -2663.45,2319.19C-2663.2,2319.35 -2663.24,2318.8 -2662.67,2318.41C-2662.1,2318.02 -2662.45,2318.61 -2661.89,2318.89C-2661.34,2319.16 -2661.72,2319.35 -2661.38,2319.35C-2661.04,2319.35 -2661.11,2319.09 -2660.49,2319.35C-2659.86,2319.6 -2659.91,2318.95 -2659.71,2318.52C-2659.5,2318.09 -2659.29,2318.15 -2659.07,2317.55C-2658.85,2316.95 -2659.52,2317.57 -2659.83,2317.46C-2660.13,2317.36 -2659.83,2316.98 -2660.23,2317.28C-2660.63,2317.58 -2661.06,2315.83 -2660.59,2315.75C-2660.11,2315.67 -2659.89,2315.56 -2659.71,2315.45C-2659.53,2315.35 -2659.2,2315.36 -2658.74,2315.36C-2658.28,2315.36 -2658.15,2315.94 -2657.8,2315.94C-2657.45,2315.94 -2657.07,2315.83 -2657.26,2315.06C-2657.46,2314.28 -2657.95,2314.61 -2657.26,2313.98C-2656.57,2313.34 -2657.41,2313.71 -2657.68,2313.71C-2657.85,2313.71 -2657.98,2313.74 -2658.07,2313.79C-2657.95,2313.99 -2657.95,2314.18 -2658.07,2314.35C-2658.25,2314.61 -2658.38,2314.27 -2658.38,2313.97C-2658.38,2313.68 -2658.22,2313.97 -2658.38,2313.7C-2658.53,2313.43 -2658.81,2313.7 -2659.37,2314.16C-2659.93,2314.61 -2660.04,2315.05 -2659.83,2315.22C-2659.61,2315.4 -2660.23,2315.74 -2660.59,2315.45C-2660.94,2315.15 -2660.75,2315.63 -2660.91,2315.55C-2661.08,2315.48 -2661.18,2315.36 -2661.18,2315.93C-2661.18,2316.51 -2661.15,2316.62 -2661.31,2316.43C-2661.47,2316.25 -2661.62,2316.72 -2661.72,2316.79C-2661.81,2316.87 -2661.88,2316.59 -2661.8,2316.34C-2661.72,2316.08 -2661.88,2315.62 -2661.62,2315.22C-2661.37,2314.82 -2661.79,2314.27 -2662,2313.88C-2662.2,2313.49 -2661.69,2312.97 -2662.18,2313.13C-2662.68,2313.29 -2662.45,2314.42 -2662.26,2314.89C-2662.06,2315.36 -2662.05,2315.62 -2662.18,2315.35C-2662.32,2315.08 -2662.39,2315.04 -2662.45,2315.62C-2662.51,2316.19 -2662.73,2315.83 -2662.96,2316.06C-2663.2,2316.3 -2663.17,2316.66 -2663.51,2316.15C-2663.85,2315.64 -2663.17,2316.04 -2662.9,2315.92C-2662.63,2315.81 -2662.6,2315.61 -2662.6,2315.35C-2662.6,2315.09 -2662.96,2314.44 -2662.96,2313.78C-2662.96,2313.13 -2663.59,2313.54 -2663.89,2313.54C-2664.2,2313.54 -2664.28,2313.46 -2664.67,2313.88C-2665.06,2314.29 -2665.62,2314.7 -2665.99,2315.22C-2666.35,2315.73 -2666.45,2315.52 -2666.99,2315.73C-2667.52,2315.95 -2667.37,2315.67 -2667.62,2315.44C-2667.88,2315.21 -2667.79,2315.28 -2667.62,2315.05C-2667.45,2314.81 -2667.68,2314.77 -2667.3,2314.26C-2666.92,2313.76 -2666.76,2312.66 -2666.08,2312.97C-2665.41,2313.27 -2665.35,2313.27 -2664.84,2312.74C-2664.34,2312.2 -2665.17,2311.13 -2664.66,2311.13C-2664.16,2311.13 -2664.42,2310.92 -2664.16,2311.02C-2663.89,2311.13 -2663.76,2311.02 -2663.33,2310.8C-2662.91,2310.57 -2662.3,2310.21 -2661.62,2310.03C-2660.93,2309.84 -2661.02,2309.46 -2660.81,2309.12C-2660.6,2308.78 -2660.09,2308.28 -2660.22,2309.12C-2660.35,2309.96 -2660.35,2309.49 -2660.73,2309.68C-2661.12,2309.87 -2660.5,2309.93 -2660.22,2310.14C-2659.93,2310.36 -2659.71,2310.23 -2659.19,2310.14C-2658.67,2310.05 -2658.54,2309.63 -2658.21,2309.34C-2657.87,2309.05 -2657.86,2309.56 -2657.56,2309.34C-2657.27,2309.13 -2657.33,2308.94 -2656.7,2308.83C-2656.09,2308.72 -2656.37,2308.43 -2656.96,2308.53C-2657.54,2308.63 -2657.48,2308.53 -2657.41,2308.19C-2657.33,2307.85 -2656.94,2307.52 -2656.1,2306.91C-2655.26,2306.29 -2656.11,2306.43 -2656.48,2306.7C-2656.85,2306.97 -2657.98,2307.41 -2658.06,2307.92C-2658.13,2308.43 -2658.28,2308.54 -2658.6,2308.72C-2658.92,2308.91 -2659.28,2309.56 -2659.81,2309.56C-2660.35,2309.56 -2659.86,2309.04 -2659.6,2308.54C-2659.34,2308.03 -2659.95,2308.21 -2660.35,2308.44C-2660.75,2308.67 -2660.49,2307.92 -2660.22,2307.52C-2659.94,2307.13 -2659.32,2306.7 -2658.8,2306.7C-2658.28,2306.7 -2657.28,2305.7 -2656.48,2305.32C-2655.68,2304.94 -2655.49,2304.91 -2654.47,2304.91C-2653.45,2304.91 -2654.01,2305.22 -2653.85,2305.51C-2653.7,2305.79 -2653.3,2305.51 -2652.95,2306.31C-2652.6,2307.11 -2653.08,2307.11 -2653.85,2306.7C-2654.62,2306.28 -2654.01,2306.6 -2654.27,2307.24C-2654.53,2307.88 -2653.93,2307.92 -2654.01,2307.52C-2654.09,2307.12 -2653.59,2307.68 -2653.3,2307.3C-2653.01,2306.93 -2652.75,2307.3 -2652.49,2307.24C-2652.22,2307.17 -2652.49,2306.62 -2652.23,2306.43C-2651.97,2306.24 -2651.74,2306.49 -2652.09,2306.7C-2652.45,2306.9 -2652.32,2307.24 -2651.29,2306.91C-2650.26,2306.57 -2650.85,2306.91 -2650.67,2306.91C-2650.5,2306.91 -2649.63,2306.99 -2649.31,2306.82C-2648.99,2306.64 -2649.44,2306.43 -2649.55,2306.24C-2649.66,2306.05 -2649.75,2306.24 -2649.97,2306.05C-2650.19,2305.86 -2650.37,2305.4 -2649.75,2305.33C-2649.47,2305.29 -2649.35,2305.25 -2649.3,2305.21C-2649.3,2305.21 -2649.3,2305.2 -2649.29,2305.2ZM-2628.89,2344.14C-2629.03,2343.8 -2629.03,2343.67 -2628.89,2343.77C-2628.68,2343.91 -2628.68,2344.15 -2628.6,2344.38C-2628.51,2344.62 -2628.49,2344.76 -2628.43,2344.53C-2628.37,2344.3 -2628.36,2344.58 -2628.36,2344.76C-2628.36,2344.94 -2628.13,2344.95 -2627.93,2344.86C-2627.71,2344.77 -2627.92,2345.35 -2628.09,2345.35C-2628.26,2345.35 -2628.11,2345.46 -2628.43,2345.93C-2628.74,2346.41 -2628.74,2346.03 -2628.68,2345.93C-2628.61,2345.84 -2628.53,2345.76 -2628.68,2345.6C-2628.83,2345.43 -2628.95,2345.56 -2628.74,2345.13C-2628.6,2344.85 -2628.65,2344.52 -2628.89,2344.14ZM-2641.85,2338.82C-2641.31,2338.53 -2641.05,2337.76 -2640.49,2337.21C-2639.93,2336.65 -2639.96,2337 -2639.65,2337C-2639.34,2337 -2639.53,2336.82 -2639.14,2336.28C-2638.75,2335.73 -2637.39,2335.95 -2637.78,2336.47C-2638.17,2336.99 -2637.8,2337.05 -2637.09,2337.62C-2636.39,2338.18 -2636.45,2337.68 -2636.45,2336.82C-2636.45,2335.97 -2636.25,2335.33 -2635.76,2336.47C-2635.27,2337.62 -2634.02,2339.53 -2633.54,2340.85C-2633.05,2342.17 -2634.03,2343.45 -2634.18,2344.09C-2634.33,2344.73 -2634.76,2344.83 -2635.26,2344.95C-2635.76,2345.07 -2636.7,2344.24 -2636.97,2343.91C-2637.23,2343.59 -2636.85,2343.59 -2638.25,2342.9C-2639.65,2342.2 -2639.98,2343.1 -2640.48,2343.28C-2640.98,2343.46 -2641.92,2345.08 -2642.26,2343.11C-2642.61,2341.14 -2643.75,2340.1 -2642.85,2339.37C-2641.95,2338.63 -2642.4,2339.11 -2641.85,2338.82ZM-2658.78,2337.82C-2658.58,2337.29 -2658.7,2335.47 -2658.23,2337.82C-2657.76,2340.17 -2658.23,2339.32 -2658.23,2340.96C-2658.23,2342.59 -2658.4,2342.13 -2658.78,2341.37C-2659.16,2340.6 -2659.13,2339.7 -2659.28,2339.22C-2659.44,2338.75 -2659.65,2338.29 -2659.39,2338.29C-2659.12,2338.29 -2658.99,2338.35 -2658.78,2337.82ZM-2647.83,2329.89C-2647.31,2330.45 -2646.9,2330.87 -2646.61,2331.14C-2646.17,2331.55 -2645.89,2332.22 -2645.72,2332.55C-2645.55,2332.88 -2645.35,2332.96 -2645.41,2333.43C-2645.48,2333.9 -2645.42,2334.02 -2645.27,2334.02C-2645.12,2334.02 -2645.07,2334.05 -2644.31,2334.27C-2643.55,2334.5 -2642.11,2335.06 -2641.58,2334.83C-2641.06,2334.61 -2640.17,2334.58 -2640.17,2334.59C-2640.17,2334.61 -2639.63,2334.61 -2640.17,2335.08C-2640.72,2335.54 -2641.3,2335.39 -2640.78,2334.99C-2640.25,2334.59 -2640.97,2335.08 -2641.45,2335.08C-2641.92,2335.08 -2643.28,2335 -2643.94,2334.83C-2644.6,2334.66 -2645.41,2334.53 -2645.41,2334.27C-2645.41,2334.02 -2645.76,2333.89 -2646.18,2333.43C-2646.61,2332.97 -2646.96,2331.32 -2647.39,2330.8C-2647.68,2330.45 -2647.83,2330.15 -2647.83,2329.89ZM-2639.09,2332.17C-2638.78,2331.84 -2638.35,2332.33 -2638.18,2332.78C-2638.02,2333.22 -2637.72,2332.49 -2637.33,2332.63C-2636.93,2332.78 -2635.35,2333.08 -2635.11,2333.81C-2634.87,2334.54 -2634.43,2335 -2634.24,2335.16C-2634.04,2335.32 -2634.62,2335.46 -2635.11,2334.98C-2635.6,2334.5 -2635.81,2334.4 -2636,2334.78C-2636.18,2335.16 -2636.79,2334.63 -2637.14,2334.63C-2637.49,2334.63 -2636.79,2334.04 -2637.49,2333.69C-2638.18,2333.34 -2638.84,2333.38 -2638.96,2333.08C-2639.09,2332.78 -2639.39,2332.51 -2639.09,2332.17ZM-2641.95,2333.79C-2642.18,2333.35 -2642.25,2332.97 -2642.18,2332.64C-2642.07,2332.14 -2641.94,2331.84 -2641.72,2331.66C-2641.49,2331.47 -2640.36,2331.41 -2640.56,2331.49C-2640.77,2331.56 -2642.37,2331.96 -2641.82,2332.07C-2641.26,2332.17 -2640.93,2332.28 -2641.26,2332.54C-2641.59,2332.81 -2641.49,2332.62 -2641.26,2333.08C-2641.04,2333.55 -2640.97,2334.33 -2641.26,2333.9C-2641.55,2333.47 -2641.61,2332.81 -2641.72,2333.3C-2641.79,2333.63 -2641.87,2333.79 -2641.95,2333.79ZM-2644.31,2331.28C-2643.9,2330.95 -2642.98,2330.41 -2642.85,2330.1C-2642.73,2329.79 -2642.3,2329.59 -2642.3,2330.28C-2642.3,2330.97 -2642.45,2331.28 -2642.41,2331.84C-2642.37,2332.41 -2642.8,2333.3 -2643.19,2333.3C-2643.58,2333.3 -2644.15,2332.99 -2644.48,2332.42C-2644.82,2331.84 -2644.71,2331.6 -2644.31,2331.28ZM-2643.47,2330.28L-2643.41,2330.34C-2643.46,2330.41 -2643.5,2330.48 -2643.55,2330.55C-2643.69,2330.74 -2643.84,2330.83 -2644,2330.79L-2643.99,2330.7C-2643.86,2330.73 -2643.73,2330.66 -2643.61,2330.49C-2643.57,2330.42 -2643.52,2330.35 -2643.47,2330.28ZM-2644.82,2329.45L-2644.74,2329.45C-2644.74,2329.59 -2644.72,2329.72 -2644.68,2329.84C-2644.64,2329.95 -2644.58,2330.08 -2644.51,2330.2L-2644.57,2330.25C-2644.64,2330.12 -2644.7,2329.99 -2644.75,2329.88C-2644.8,2329.75 -2644.82,2329.61 -2644.82,2329.45ZM-2643.71,2330.02C-2643.66,2330.02 -2643.66,2330.06 -2643.71,2330.09C-2643.75,2330.12 -2643.75,2330.02 -2643.71,2330.02ZM-2640.84,2329.26C-2641.26,2329.4 -2641.54,2329.3 -2640.84,2328.93C-2640.14,2328.56 -2640.27,2329.52 -2640.34,2329.79C-2640.38,2329.97 -2640.53,2329.91 -2640.77,2329.62C-2640.54,2329.29 -2640.56,2329.17 -2640.84,2329.26ZM-2643.67,2329.79C-2643.62,2329.79 -2643.62,2329.83 -2643.67,2329.85C-2643.71,2329.89 -2643.71,2329.79 -2643.67,2329.79ZM-2651.46,2328.38C-2651.18,2328.9 -2651.11,2329.31 -2651.25,2329.62C-2651.46,2330.09 -2651.81,2329.45 -2651.63,2329C-2651.52,2328.71 -2651.46,2328.5 -2651.46,2328.38ZM-2642.68,2328.89L-2642.62,2328.95C-2642.64,2328.99 -2642.68,2329.03 -2642.7,2329.07C-2642.81,2329.2 -2642.88,2329.32 -2643.03,2329.62L-2643.09,2329.58C-2642.93,2329.26 -2642.87,2329.14 -2642.76,2329C-2642.73,2328.97 -2642.7,2328.93 -2642.68,2328.89ZM-2644.45,2329.37C-2644.4,2329.37 -2644.4,2329.41 -2644.45,2329.43C-2644.49,2329.47 -2644.5,2329.37 -2644.45,2329.37ZM-2643.39,2329.32C-2643.34,2329.32 -2643.35,2329.36 -2643.39,2329.39C-2643.44,2329.42 -2643.44,2329.32 -2643.39,2329.32ZM-2643.94,2329.32C-2643.89,2329.32 -2643.89,2329.36 -2643.94,2329.39C-2643.99,2329.42 -2643.99,2329.32 -2643.94,2329.32ZM-2643.2,2329.14C-2643.15,2329.14 -2643.15,2329.17 -2643.2,2329.2C-2643.24,2329.23 -2643.24,2329.14 -2643.2,2329.14ZM-2643.9,2328.86C-2643.85,2328.86 -2643.86,2328.89 -2643.9,2328.92C-2643.95,2328.95 -2643.95,2328.86 -2643.9,2328.86ZM-2643.32,2328.81C-2643.26,2328.81 -2643.27,2328.85 -2643.32,2328.87C-2643.36,2328.91 -2643.36,2328.81 -2643.32,2328.81ZM-2642.77,2328.81C-2642.72,2328.81 -2642.72,2328.85 -2642.77,2328.87C-2642.81,2328.91 -2642.81,2328.81 -2642.77,2328.81ZM-2643.67,2328.81C-2643.62,2328.81 -2643.62,2328.85 -2643.67,2328.87C-2643.71,2328.91 -2643.71,2328.81 -2643.67,2328.81ZM-2644.29,2327.9L-2644.21,2327.92C-2644.24,2328.1 -2644.3,2328.27 -2644.38,2328.41C-2644.43,2328.5 -2644.48,2328.59 -2644.53,2328.68L-2644.59,2328.64C-2644.55,2328.54 -2644.5,2328.45 -2644.44,2328.36C-2644.37,2328.22 -2644.32,2328.07 -2644.29,2327.9ZM-2643.16,2328.48C-2643.11,2328.48 -2643.11,2328.52 -2643.16,2328.55C-2643.2,2328.58 -2643.2,2328.48 -2643.16,2328.48ZM-2643.39,2328.34C-2643.34,2328.34 -2643.35,2328.38 -2643.39,2328.41C-2643.44,2328.44 -2643.44,2328.34 -2643.39,2328.34ZM-2642.49,2328.2C-2642.44,2328.2 -2642.45,2328.24 -2642.49,2328.27C-2642.53,2328.3 -2642.54,2328.2 -2642.49,2328.2ZM-2642.34,2328.2C-2642.28,2328.2 -2642.29,2328.24 -2642.34,2328.27C-2642.38,2328.3 -2642.38,2328.2 -2642.34,2328.2ZM-2642.03,2327.45L-2641.95,2327.46C-2641.96,2327.53 -2641.96,2327.58 -2641.97,2327.62C-2641.99,2327.78 -2642.08,2328.01 -2642.2,2328.26L-2642.27,2328.22C-2642.15,2327.97 -2642.07,2327.75 -2642.04,2327.61C-2642.04,2327.57 -2642.04,2327.52 -2642.03,2327.45ZM-2643.16,2328.16C-2643.11,2328.16 -2643.11,2328.19 -2643.16,2328.22C-2643.2,2328.25 -2643.2,2328.16 -2643.16,2328.16ZM-2642.61,2327.97C-2642.56,2327.97 -2642.56,2328.01 -2642.61,2328.03C-2642.65,2328.07 -2642.66,2327.97 -2642.61,2327.97ZM-2641.49,2327.31C-2641.69,2326.88 -2641.76,2326.53 -2641.69,2326.26C-2641.59,2325.87 -2641.34,2325.22 -2641.18,2325.78C-2641.02,2326.34 -2641.74,2326.47 -2641.25,2326.96C-2640.93,2327.29 -2640.7,2327.53 -2640.56,2327.7L-2641.49,2327.31ZM-2644.23,2326.23L-2644.23,2326.83C-2644.23,2326.84 -2644.22,2326.87 -2644.22,2326.91L-2644.22,2326.92C-2644.22,2326.93 -2644.22,2326.93 -2644.22,2326.95C-2644.22,2326.97 -2644.21,2326.97 -2644.21,2326.98C-2644.21,2327.02 -2644.2,2327.04 -2644.2,2327.07L-2644.28,2327.08C-2644.29,2327.05 -2644.29,2327.03 -2644.29,2327C-2644.29,2326.99 -2644.29,2326.98 -2644.29,2326.96C-2644.29,2326.95 -2644.3,2326.94 -2644.3,2326.93C-2644.3,2326.88 -2644.31,2326.85 -2644.31,2326.83L-2644.31,2326.23L-2644.23,2326.23ZM-2641.9,2325.78L-2641.82,2325.81C-2641.89,2326.03 -2641.92,2326.29 -2641.94,2326.62L-2642.02,2326.62C-2642,2326.28 -2641.97,2326 -2641.9,2325.78ZM-2643.16,2326.52C-2643.11,2326.52 -2643.11,2326.56 -2643.16,2326.59C-2643.2,2326.62 -2643.2,2326.52 -2643.16,2326.52ZM-2643.82,2326.43C-2643.77,2326.43 -2643.78,2326.47 -2643.82,2326.49C-2643.87,2326.53 -2643.87,2326.43 -2643.82,2326.43ZM-2643.51,2326.34C-2643.46,2326.34 -2643.46,2326.37 -2643.51,2326.4C-2643.55,2326.43 -2643.56,2326.34 -2643.51,2326.34ZM-2642.96,2326.29C-2642.91,2326.29 -2642.91,2326.33 -2642.96,2326.35C-2643.01,2326.39 -2643.01,2326.29 -2642.96,2326.29ZM-2643.75,2326.2C-2643.7,2326.2 -2643.7,2326.23 -2643.75,2326.26C-2643.79,2326.29 -2643.79,2326.2 -2643.75,2326.2ZM-2643.55,2326.01C-2643.5,2326.01 -2643.5,2326.05 -2643.55,2326.07C-2643.59,2326.11 -2643.6,2326.01 -2643.55,2326.01ZM-2643.71,2325.96C-2643.66,2325.96 -2643.66,2326 -2643.71,2326.03C-2643.75,2326.06 -2643.75,2325.96 -2643.71,2325.96ZM-2643.93,2324.95C-2643.71,2324.95 -2643.79,2325.04 -2643.86,2325.15C-2643.93,2325.26 -2644,2325.39 -2644.04,2325.46C-2644.08,2325.52 -2644.32,2325.68 -2644.38,2325.39C-2644.43,2325.1 -2644.32,2325.07 -2644.29,2325.07C-2644.26,2325.07 -2644.15,2324.95 -2643.93,2324.95ZM-2641.09,2324.39L-2641.02,2324.45C-2641.13,2324.65 -2641.26,2324.88 -2641.43,2325.13L-2641.49,2325.08C-2641.33,2324.82 -2641.2,2324.6 -2641.09,2324.39ZM-2642.37,2324.75C-2642.32,2324.75 -2642.33,2324.79 -2642.37,2324.81C-2642.42,2324.85 -2642.42,2324.75 -2642.37,2324.75ZM-2642.61,2324.66C-2642.56,2324.66 -2642.56,2324.69 -2642.61,2324.72C-2642.65,2324.75 -2642.66,2324.66 -2642.61,2324.66ZM-2642.53,2324.51C-2642.48,2324.51 -2642.48,2324.55 -2642.53,2324.58C-2642.57,2324.61 -2642.58,2324.51 -2642.53,2324.51ZM-2641.13,2323.7C-2641.23,2323.97 -2641.32,2324.2 -2641.38,2324.37C-2641.51,2324.1 -2641.55,2323.91 -2641.5,2323.81C-2641.46,2323.71 -2641.41,2323.62 -2641.38,2323.55C-2641.31,2323.35 -2641.23,2323.25 -2641.13,2323.25C-2640.99,2323.25 -2640.98,2323.29 -2641.13,2323.7ZM-2603.35,2324.03C-2603.09,2324.03 -2603.01,2324.13 -2603.22,2324.24C-2603.44,2324.36 -2603.61,2324.03 -2603.35,2324.03ZM-2602.34,2324.01C-2602.6,2324.01 -2602.84,2323.8 -2602.59,2323.8C-2602.34,2323.8 -2602.44,2323.59 -2602.59,2323.39C-2602.74,2323.2 -2602.19,2323.13 -2601.87,2323.39C-2601.55,2323.65 -2601.34,2323.59 -2601.6,2323.8C-2601.87,2324.01 -2601.94,2323.83 -2601.94,2324.12C-2601.94,2324.32 -2601.99,2324.28 -2602.09,2324.01L-2602.34,2324.01ZM-2640.3,2323.13L-2640.25,2323.2C-2640.29,2323.25 -2640.34,2323.28 -2640.39,2323.3C-2640.4,2323.3 -2640.43,2323.31 -2640.43,2323.31C-2640.45,2323.32 -2640.46,2323.32 -2640.47,2323.33C-2640.67,2323.4 -2640.74,2323.47 -2640.76,2323.66L-2640.83,2323.65C-2640.81,2323.41 -2640.72,2323.32 -2640.49,2323.24C-2640.48,2323.23 -2640.47,2323.23 -2640.45,2323.22C-2640.45,2323.22 -2640.42,2323.21 -2640.41,2323.21C-2640.38,2323.19 -2640.34,2323.17 -2640.3,2323.13ZM-2605.18,2322.78C-2605.26,2322.77 -2605.29,2322.67 -2605.29,2322.49C-2605.29,2322.22 -2605.09,2322.09 -2604.82,2322.13C-2604.56,2322.17 -2604.49,2322.09 -2604.22,2322.3C-2603.95,2322.5 -2603.51,2322.66 -2603.22,2322.88C-2602.93,2323.1 -2602.7,2323.18 -2602.97,2323.29C-2603.25,2323.41 -2603.62,2323.45 -2603.51,2323.29C-2603.41,2323.13 -2603.84,2322.78 -2603.96,2322.78C-2604.08,2322.78 -2604.65,2322.6 -2604.82,2322.41C-2604.94,2322.28 -2605.06,2322.41 -2605.18,2322.78ZM-2640.6,2323.03C-2640.55,2323.03 -2640.56,2323.13 -2640.6,2323.16C-2640.64,2323.19 -2640.66,2323.03 -2640.6,2323.03ZM-2640.38,2323.03C-2640.33,2323.03 -2640.33,2323.07 -2640.38,2323.1C-2640.42,2323.13 -2640.42,2323.03 -2640.38,2323.03ZM-2638.88,2321.31C-2639.04,2320.75 -2639.06,2320.44 -2638.94,2320.39C-2638.76,2320.32 -2638.51,2319.96 -2638.33,2319.96C-2638.15,2319.96 -2637.68,2319.82 -2637.35,2319.56C-2637.02,2319.3 -2636.5,2318.76 -2636.53,2318.04C-2636.57,2317.33 -2636.59,2317.33 -2636.43,2317.22C-2636.26,2317.1 -2636.11,2317.04 -2636.11,2316.7C-2636.11,2316.36 -2635.95,2316.76 -2635.7,2316.87C-2635.44,2316.99 -2635.18,2317.12 -2635.55,2317.34C-2635.92,2317.56 -2636.62,2317.34 -2636.36,2317.62C-2636.11,2317.9 -2636.08,2318.32 -2636.31,2318.84C-2636.53,2319.36 -2636.43,2319.98 -2636.64,2320.08C-2636.86,2320.18 -2637.08,2320.02 -2637.35,2320.28C-2637.62,2320.55 -2637.75,2320.24 -2637.89,2320.39C-2638.02,2320.55 -2638.08,2320.62 -2638.2,2320.71C-2638.33,2320.81 -2638.6,2320.36 -2638.6,2320.71C-2638.6,2320.86 -2638.6,2321.09 -2638.67,2321.21C-2638.7,2321.25 -2638.77,2321.29 -2638.88,2321.31ZM-2635.8,2313.37C-2635.79,2313.55 -2635.83,2313.63 -2635.91,2313.63C-2636.02,2313.63 -2635.96,2313.57 -2635.99,2314.24C-2636.02,2314.92 -2636.19,2316.15 -2635.91,2316.15C-2635.62,2316.15 -2635.8,2315.86 -2635.8,2315.57C-2635.8,2315.28 -2635.76,2315.2 -2635.63,2315.2C-2635.5,2315.2 -2635.53,2315.03 -2635.63,2314.59C-2635.73,2314.16 -2635.66,2313.89 -2635.7,2313.71C-2635.72,2313.6 -2635.76,2313.48 -2635.8,2313.37ZM-2662.94,2308.04C-2662.64,2307.74 -2662.25,2307.63 -2662.18,2307.63C-2662.11,2307.63 -2661.91,2307.63 -2662.09,2307.83C-2662.26,2308.03 -2662.49,2307.97 -2662.18,2308.03C-2661.87,2308.09 -2662.2,2308.28 -2662.47,2308.38C-2662.74,2308.48 -2662.62,2308.38 -2662.57,2308.64C-2662.52,2308.91 -2662.61,2309.54 -2662.77,2309.69C-2662.93,2309.85 -2662.92,2309.85 -2662.77,2309.85C-2662.63,2309.85 -2662.61,2309.96 -2662.83,2310.15C-2663.05,2310.33 -2662.94,2310.44 -2663.17,2310.56C-2663.39,2310.67 -2663.77,2310.43 -2664.03,2310.49C-2664.28,2310.56 -2664.67,2310.47 -2664.14,2310.34C-2663.62,2310.2 -2663.79,2310.15 -2663.97,2310.04C-2664.14,2309.94 -2663.99,2310.01 -2663.78,2309.85C-2663.58,2309.7 -2663.75,2309.51 -2663.46,2309.51C-2663.17,2309.51 -2662.94,2309.1 -2663.17,2308.99C-2663.4,2308.9 -2663.23,2308.33 -2662.94,2308.04ZM-2664.16,2308.91C-2663.97,2308.86 -2663.88,2308.65 -2663.79,2308.65C-2663.7,2308.65 -2663.78,2308.78 -2663.63,2308.78C-2663.49,2308.78 -2663.38,2308.93 -2663.55,2309.08C-2663.72,2309.23 -2663.72,2309.24 -2663.96,2309.52C-2664.21,2309.81 -2665.19,2310.03 -2664.7,2309.65C-2664.21,2309.26 -2664.6,2309.22 -2664.38,2309C-2664.16,2308.78 -2664.35,2308.97 -2664.16,2308.91ZM-2604.79,2306.58L-2605.65,2306.58L-2608.67,2304.71L-2609.04,2303.81L-2611.72,2302.62L-2613.89,2302.62L-2613.26,2302.31L-2614.38,2302.31L-2613.62,2301.85L-2614.09,2301.58L-2613.89,2301.31L-2613.26,2300.9L-2611.87,2300.47L-2609.39,2300.47L-2605.49,2303.17L-2605.65,2303.81L-2605.99,2304.32L-2605.99,2304.71L-2604.79,2306.58ZM-2635.17,2305.87C-2635.24,2305.88 -2635.27,2305.92 -2635.25,2306.04C-2635.18,2306.48 -2635.38,2306.26 -2635.8,2306.16C-2636.22,2306.06 -2636.64,2305.79 -2635.88,2305.7C-2635.11,2305.61 -2635.09,2305.7 -2635.17,2305.81C-2635.19,2305.83 -2635.19,2305.85 -2635.17,2305.87ZM-2635.17,2305.87C-2635.12,2305.86 -2635.05,2305.88 -2634.97,2305.91C-2634.86,2305.91 -2634.72,2305.91 -2634.57,2305.91C-2634.18,2305.92 -2634.09,2306.17 -2634.33,2306.17C-2634.46,2306.17 -2634.75,2305.99 -2634.97,2305.91C-2635.07,2305.9 -2635.15,2305.89 -2635.17,2305.87ZM-2662.95,2304.22C-2662.75,2304.15 -2662.54,2304.21 -2662.67,2304.39C-2662.81,2304.56 -2662.7,2304.56 -2662.55,2304.51C-2662.4,2304.45 -2661.66,2304.65 -2661.74,2304.92C-2661.84,2305.19 -2662.4,2305.15 -2662.67,2305.26C-2662.94,2305.35 -2663.56,2305.11 -2663.35,2304.92C-2663.14,2304.73 -2663.11,2304.6 -2663.3,2304.6C-2663.48,2304.6 -2662.55,2304.51 -2663.01,2304.39C-2663.49,2304.27 -2663.15,2304.28 -2662.95,2304.22ZM-2642.28,2304.2C-2642.83,2303.88 -2643.19,2303.63 -2642.74,2303.5C-2642.28,2303.36 -2642.01,2303.8 -2641.71,2304C-2641.41,2304.2 -2640.94,2304.53 -2641.38,2304.53C-2641.81,2304.53 -2641.72,2304.51 -2642.28,2304.2ZM-2656.33,2300.82L-2657.13,2300.82L-2657.73,2300.62L-2658.3,2301.06L-2658.71,2301.26L-2658.71,2301.68L-2658.88,2301.68L-2659.06,2301.49L-2659.28,2301.68L-2659.6,2301.95L-2660.02,2302.32L-2660.74,2302.32L-2661.15,2302.5L-2661.15,2302.9L-2661.68,2302.9L-2661.68,2303.17L-2662.25,2303.32L-2663.1,2303.28L-2660.99,2301.68L-2659.06,2300.43L-2656.88,2300.43L-2656.33,2300.82ZM-2654.1,2302.89C-2654.1,2302.9 -2654.1,2303.14 -2654.26,2302.89C-2654.42,2302.65 -2653.93,2302.44 -2654.1,2302.36C-2654.26,2302.27 -2654.1,2302.07 -2653.51,2302.07C-2652.93,2302.07 -2653.18,2301.88 -2652.44,2302.07C-2651.7,2302.26 -2651.98,2302.53 -2652.58,2302.36C-2653.18,2302.19 -2652.99,2302.71 -2653.18,2302.53C-2653.36,2302.34 -2654.1,2302.89 -2654.1,2302.89ZM-2649.34,2286.76L-2645.49,2292.8L-2641.76,2294.19L-2638.71,2293.99L-2638.71,2296.01L-2634.54,2296.56L-2629.93,2294.99L-2628.72,2294.99C-2628.72,2294.99 -2626.36,2295.93 -2624.28,2294.99C-2622.19,2294.07 -2620.16,2293.26 -2620.16,2293.26L-2615.9,2290.6L-2618.25,2287.25L-2624.68,2285.44L-2644.79,2283.53L-2649.34,2286.76Z" style="fill:rgb(17,155,255);fill-opacity:0.8;fill-rule:nonzero;"/>
                    </g>
                </g>
                <g transform="matrix(1,0,0,1,0.253461,1.57601)">
                    <g id="">
                    </g>
                    <g>
                        <g transform="matrix(1,0,0,1,-3.15867,-1.1419)">
                            <circle cx="-2638.8" cy="2318.55" r="1.215" style="fill:rgb(108,221,195);"/>
                        </g>
                        <g transform="matrix(2.48709,0,0,2.48709,3966.21,-3462.85)">
                            <circle cx="-2666.93" cy="2328.63" r="0.677" style="fill:rgb(253,234,147);"/>
                        </g>
                        <g transform="matrix(2.53152,0,0,2.53152,4082.03,-3573.33)">
                            <circle cx="-2666.93" cy="2328.63" r="0.677" style="fill:rgb(253,234,147);"/>
                        </g>
                        <g transform="matrix(2.80456,0,0,2.80456,4821.93,-4221.38)">
                            <circle cx="-2666.93" cy="2328.63" r="0.677" style="fill:rgb(253,234,147);"/>
                        </g>
                        <g transform="matrix(2.16073,0,0,2.16073,3124.69,-2693.1)">
                            <circle cx="-2666.93" cy="2328.63" r="0.677" style="fill:rgb(253,234,147);"/>
                        </g>
                        <g transform="matrix(2.16073,0,0,2.16073,3147.68,-2718.65)">
                            <circle cx="-2666.93" cy="2328.63" r="0.677" style="fill:rgb(253,234,147);"/>
                        </g>
                        <g transform="matrix(2.53723,0,0,2.53723,4146.98,-3600.57)">
                            <circle cx="-2666.93" cy="2328.63" r="0.677" style="fill:rgb(253,234,147);"/>
                        </g>
                        <g transform="matrix(2.16073,0,0,2.16073,3160.38,-2699.02)">
                            <circle cx="-2666.93" cy="2328.63" r="0.677" style="fill:rgb(253,234,147);"/>
                        </g>
                        <g transform="matrix(1,0,0,1,-2.55968,-1.25737)">
                            <path d="M-2639.57,2318.84C-2639.57,2318.84 -2654.58,2306.79 -2666.88,2322.71" style="fill:none;stroke:rgb(108,221,195);stroke-width:1px;stroke-linecap:round;"/>
                        </g>
                        <g transform="matrix(1,0,0,1,-2.55968,-1.25737)">
                            <path d="M-2639.89,2318.59C-2639.89,2318.59 -2658.3,2312.79 -2664.28,2329.86" style="fill:none;stroke:rgb(108,221,195);stroke-width:1px;stroke-linecap:round;"/>
                        </g>
                        <g transform="matrix(1,0,0,1,-2.55968,-1.25737)">
                            <path d="M-2639.57,2318.84C-2639.57,2318.84 -2633.1,2305.26 -2612.76,2314.01" style="fill:none;stroke:rgb(108,221,195);stroke-width:1px;stroke-linecap:round;"/>
                        </g>
                        <g transform="matrix(1,0,0,1,-2.55968,-1.25737)">
                            <path d="M-2639.57,2318.84C-2639.57,2318.84 -2635.93,2303.67 -2617.79,2308.97" style="fill:none;stroke:rgb(108,221,195);stroke-width:1px;stroke-linecap:round;"/>
                        </g>
                        <g transform="matrix(1,0,0,1,-2.55968,-1.25737)">
                            <path d="M-2639.57,2318.59C-2639.57,2318.59 -2643.19,2305.56 -2655.04,2310.43" style="fill:none;stroke:rgb(108,221,195);stroke-width:1px;stroke-linecap:round;"/>
                        </g>
                        <g transform="matrix(1,0,0,1,-2.55968,-1.25737)">
                            <path d="M-2639.57,2318.84C-2639.57,2318.84 -2627.51,2326.2 -2635.36,2339.58" style="fill:none;stroke:rgb(108,221,195);stroke-width:1px;stroke-linecap:round;"/>
                        </g>
                        <g transform="matrix(1,0,0,1,-2.55968,-1.25737)">
                            <path d="M-2639.36,2318.59C-2639.36,2318.59 -2613.94,2305.43 -2599.91,2333.39" style="fill:none;stroke:rgb(108,221,195);stroke-width:1px;stroke-linecap:round;"/>
                        </g>
                    </g>
                </g>
            </g>
        </g>
    </g>
</svg>
