<?xml version="1.0" encoding="UTF-8" standalone="no"?>
<!DOCTYPE svg PUBLIC "-//W3C//DTD SVG 1.1//EN" "http://www.w3.org/Graphics/SVG/1.1/DTD/svg11.dtd">
<svg width="100%" height="100%" viewBox="0 0 40 40" version="1.1" xmlns="http://www.w3.org/2000/svg" xmlns:xlink="http://www.w3.org/1999/xlink" xml:space="preserve" xmlns:serif="http://www.serif.com/" style="fill-rule:evenodd;clip-rule:evenodd;stroke-linejoin:round;stroke-miterlimit:2;">
    <g transform="matrix(1,0,0,1,-1325.59,-3146.94)">
        <g transform="matrix(1.00029,0,0,6.02179,-50.86,-11494)">
            <g transform="matrix(0.999706,0,0,0.166064,50.8451,1908.74)">
                <path d="M1327.59,3184.93L1327.59,3181.93L1325.59,3181.93L1325.59,3186.93L1330.59,3186.93L1330.59,3184.93L1327.59,3184.93ZM1365.59,3186.93L1365.59,3181.93L1363.59,3181.93L1363.59,3184.93L1360.59,3184.93L1360.59,3186.93L1365.59,3186.93ZM1325.59,3146.93L1325.59,3151.93L1327.59,3151.93L1327.59,3148.93L1330.59,3148.93L1330.59,3146.93L1325.59,3146.93ZM1365.59,3151.93L1365.59,3146.93L1360.59,3146.93L1360.59,3148.93L1363.59,3148.93L1363.59,3151.93L1365.59,3151.93Z"/>
            </g>
        </g>
    </g>
</svg>
