<?xml version="1.0" encoding="UTF-8"?>
<svg width="569px" height="122px" viewBox="0 0 569 122" version="1.1" xmlns="http://www.w3.org/2000/svg" xmlns:xlink="http://www.w3.org/1999/xlink">
    <title>编组 4备份</title>
    <defs>
        <circle id="path-1" cx="20" cy="20" r="20"></circle>
        <filter x="-37.5%" y="-37.5%" width="175.0%" height="175.0%" filterUnits="objectBoundingBox" id="filter-2">
            <feOffset dx="0" dy="0" in="SourceAlpha" result="shadowOffsetOuter1"></feOffset>
            <feMorphology radius="2" operator="erode" in="SourceAlpha" result="shadowInner"></feMorphology>
            <feOffset dx="0" dy="0" in="shadowInner" result="shadowInner"></feOffset>
            <feComposite in="shadowOffsetOuter1" in2="shadowInner" operator="out" result="shadowOffsetOuter1"></feComposite>
            <feGaussianBlur stdDeviation="5" in="shadowOffsetOuter1" result="shadowBlurOuter1"></feGaussianBlur>
            <feColorMatrix values="0 0 0 0 0.349925696   0 0 0 0 0.523723917   0 0 0 0 0.888700181  0 0 0 1 0" type="matrix" in="shadowBlurOuter1"></feColorMatrix>
        </filter>
        <path d="M22.286,25.946 L22.286,25.208 L21.926,25.208 C21.482,25.208 21.176,25.142 21.008,25.01 C20.84,24.878 20.756,24.5 20.756,23.876 L20.756,23.876 L20.756,15.848 C20.756,15.188 20.84,14.765 21.008,14.579 C21.176,14.393 21.482,14.3 21.926,14.3 L21.926,14.3 L22.286,14.3 L22.286,13.562 L17.606,13.562 L17.606,14.3 L17.984,14.3 C18.416,14.3 18.716,14.381 18.884,14.543 C19.052,14.705 19.136,15.08 19.136,15.668 L19.136,15.668 L19.136,23.876 C19.136,24.452 19.055,24.818 18.893,24.974 C18.731,25.13 18.428,25.208 17.984,25.208 L17.984,25.208 L17.606,25.208 L17.606,25.946 L22.286,25.946 Z" id="path-3"></path>
        <filter x="-256.4%" y="-96.9%" width="612.8%" height="293.8%" filterUnits="objectBoundingBox" id="filter-4">
            <feOffset dx="0" dy="0" in="SourceAlpha" result="shadowOffsetOuter1"></feOffset>
            <feGaussianBlur stdDeviation="4" in="shadowOffsetOuter1" result="shadowBlurOuter1"></feGaussianBlur>
            <feColorMatrix values="0 0 0 0 0.349019608   0 0 0 0 0.525490196   0 0 0 0 0.890196078  0 0 0 1 0" type="matrix" in="shadowBlurOuter1"></feColorMatrix>
        </filter>
        <circle id="path-5" cx="20" cy="20" r="20"></circle>
        <filter x="-37.5%" y="-37.5%" width="175.0%" height="175.0%" filterUnits="objectBoundingBox" id="filter-6">
            <feOffset dx="0" dy="0" in="SourceAlpha" result="shadowOffsetOuter1"></feOffset>
            <feMorphology radius="2" operator="erode" in="SourceAlpha" result="shadowInner"></feMorphology>
            <feOffset dx="0" dy="0" in="shadowInner" result="shadowInner"></feOffset>
            <feComposite in="shadowOffsetOuter1" in2="shadowInner" operator="out" result="shadowOffsetOuter1"></feComposite>
            <feGaussianBlur stdDeviation="5" in="shadowOffsetOuter1" result="shadowBlurOuter1"></feGaussianBlur>
            <feColorMatrix values="0 0 0 0 0.349925696   0 0 0 0 0.523723917   0 0 0 0 0.888700181  0 0 0 1 0" type="matrix" in="shadowBlurOuter1"></feColorMatrix>
        </filter>
        <path d="M19.28,26 L19.28,25.262 L18.92,25.262 C18.404,25.262 18.08,25.166 17.948,24.974 C17.816,24.782 17.75,24.434 17.75,23.93 L17.75,23.93 L17.75,16.028 C17.75,15.368 17.834,14.945 18.002,14.759 C18.17,14.573 18.476,14.48 18.92,14.48 L18.92,14.48 L19.28,14.48 L19.28,13.742 L14.6,13.742 L14.6,14.48 L14.978,14.48 C15.482,14.48 15.8,14.573 15.932,14.759 C16.064,14.945 16.13,15.308 16.13,15.848 L16.13,15.848 L16.13,23.93 C16.13,24.506 16.049,24.872 15.887,25.028 C15.725,25.184 15.422,25.262 14.978,25.262 L14.978,25.262 L14.6,25.262 L14.6,26 L19.28,26 Z M25.4,26 L25.4,25.262 L25.04,25.262 C24.524,25.262 24.2,25.166 24.068,24.974 C23.936,24.782 23.87,24.434 23.87,23.93 L23.87,23.93 L23.87,16.028 C23.87,15.368 23.954,14.945 24.122,14.759 C24.29,14.573 24.596,14.48 25.04,14.48 L25.04,14.48 L25.4,14.48 L25.4,13.742 L20.72,13.742 L20.72,14.48 L21.098,14.48 C21.602,14.48 21.92,14.573 22.052,14.759 C22.184,14.945 22.25,15.308 22.25,15.848 L22.25,15.848 L22.25,23.93 C22.25,24.506 22.169,24.872 22.007,25.028 C21.845,25.184 21.542,25.262 21.098,25.262 L21.098,25.262 L20.72,25.262 L20.72,26 L25.4,26 Z" id="path-7"></path>
        <filter x="-111.1%" y="-97.9%" width="322.2%" height="295.8%" filterUnits="objectBoundingBox" id="filter-8">
            <feOffset dx="0" dy="0" in="SourceAlpha" result="shadowOffsetOuter1"></feOffset>
            <feGaussianBlur stdDeviation="4" in="shadowOffsetOuter1" result="shadowBlurOuter1"></feGaussianBlur>
            <feColorMatrix values="0 0 0 0 0.349019608   0 0 0 0 0.525490196   0 0 0 0 0.890196078  0 0 0 1 0" type="matrix" in="shadowBlurOuter1"></feColorMatrix>
        </filter>
        <circle id="path-9" cx="20" cy="20" r="20"></circle>
        <filter x="-37.5%" y="-37.5%" width="175.0%" height="175.0%" filterUnits="objectBoundingBox" id="filter-10">
            <feOffset dx="0" dy="0" in="SourceAlpha" result="shadowOffsetOuter1"></feOffset>
            <feMorphology radius="2" operator="erode" in="SourceAlpha" result="shadowInner"></feMorphology>
            <feOffset dx="0" dy="0" in="shadowInner" result="shadowInner"></feOffset>
            <feComposite in="shadowOffsetOuter1" in2="shadowInner" operator="out" result="shadowOffsetOuter1"></feComposite>
            <feGaussianBlur stdDeviation="5" in="shadowOffsetOuter1" result="shadowBlurOuter1"></feGaussianBlur>
            <feColorMatrix values="0 0 0 0 0.349925696   0 0 0 0 0.523723917   0 0 0 0 0.888700181  0 0 0 1 0" type="matrix" in="shadowBlurOuter1"></feColorMatrix>
        </filter>
        <path d="M16.22,26 L16.22,25.262 L15.86,25.262 C15.344,25.262 15.02,25.166 14.888,24.974 C14.756,24.782 14.69,24.434 14.69,23.93 L14.69,23.93 L14.69,16.028 C14.69,15.368 14.774,14.945 14.942,14.759 C15.11,14.573 15.416,14.48 15.86,14.48 L15.86,14.48 L16.22,14.48 L16.22,13.742 L11.54,13.742 L11.54,14.48 L11.918,14.48 C12.422,14.48 12.74,14.573 12.872,14.759 C13.004,14.945 13.07,15.308 13.07,15.848 L13.07,15.848 L13.07,23.93 C13.07,24.506 12.989,24.872 12.827,25.028 C12.665,25.184 12.362,25.262 11.918,25.262 L11.918,25.262 L11.54,25.262 L11.54,26 L16.22,26 Z M22.34,26 L22.34,25.262 L21.98,25.262 C21.464,25.262 21.14,25.166 21.008,24.974 C20.876,24.782 20.81,24.434 20.81,23.93 L20.81,23.93 L20.81,16.028 C20.81,15.368 20.894,14.945 21.062,14.759 C21.23,14.573 21.536,14.48 21.98,14.48 L21.98,14.48 L22.34,14.48 L22.34,13.742 L17.66,13.742 L17.66,14.48 L18.038,14.48 C18.542,14.48 18.86,14.573 18.992,14.759 C19.124,14.945 19.19,15.308 19.19,15.848 L19.19,15.848 L19.19,23.93 C19.19,24.506 19.109,24.872 18.947,25.028 C18.785,25.184 18.482,25.262 18.038,25.262 L18.038,25.262 L17.66,25.262 L17.66,26 L22.34,26 Z M28.46,26 L28.46,25.262 L28.1,25.262 C27.584,25.262 27.26,25.166 27.128,24.974 C26.996,24.782 26.93,24.434 26.93,23.93 L26.93,23.93 L26.93,16.028 C26.93,15.368 27.014,14.945 27.182,14.759 C27.35,14.573 27.656,14.48 28.1,14.48 L28.1,14.48 L28.46,14.48 L28.46,13.742 L23.78,13.742 L23.78,14.48 L24.158,14.48 C24.662,14.48 24.98,14.573 25.112,14.759 C25.244,14.945 25.31,15.308 25.31,15.848 L25.31,15.848 L25.31,23.93 C25.31,24.506 25.229,24.872 25.067,25.028 C24.905,25.184 24.602,25.262 24.158,25.262 L24.158,25.262 L23.78,25.262 L23.78,26 L28.46,26 Z" id="path-11"></path>
        <filter x="-70.9%" y="-97.9%" width="241.8%" height="295.8%" filterUnits="objectBoundingBox" id="filter-12">
            <feOffset dx="0" dy="0" in="SourceAlpha" result="shadowOffsetOuter1"></feOffset>
            <feGaussianBlur stdDeviation="4" in="shadowOffsetOuter1" result="shadowBlurOuter1"></feGaussianBlur>
            <feColorMatrix values="0 0 0 0 0.349019608   0 0 0 0 0.525490196   0 0 0 0 0.890196078  0 0 0 1 0" type="matrix" in="shadowBlurOuter1"></feColorMatrix>
        </filter>
        <linearGradient x1="100%" y1="50%" x2="0%" y2="50%" id="linearGradient-13">
            <stop stop-color="#C7D3E9" offset="0%"></stop>
            <stop stop-color="#C7D3E9" stop-opacity="0" offset="100%"></stop>
        </linearGradient>
    </defs>
    <g id="V4.2.0-" stroke="none" stroke-width="1" fill="none" fill-rule="evenodd" opacity="0.3">
        <g id="大屏默认缩略图备份" transform="translate(-818.000000, -586.000000)">
            <g id="编组-4" transform="translate(818.500000, 544.000000)">
                <g id="编组-4备份" transform="translate(0.000000, 52.000000)">
                    <g id="编组-3">
                        <path d="M41.5703125,71.046875 L41.5703125,70.0625 L38.3359375,70.0625 L38.3359375,68.65625 L36.859375,68.65625 L36.859375,70.0625 L33.765625,70.0625 L33.765625,71.046875 L41.5703125,71.046875 Z M41.78125,84.7578125 C43.421875,83.5859375 44.171875,81.6875 44.03125,79.0625 L44.03125,79.0625 L44.03125,74.703125 L46.3515625,74.703125 L46.3515625,84.6875 L47.6875,84.6875 L47.6875,74.703125 L49.7265625,74.703125 L49.7265625,73.71875 L44.03125,73.71875 L44.03125,70.5546875 L46.4921875,70.5546875 C47.7578125,70.5546875 48.7421875,70.4140625 49.4453125,70.1328125 L49.4453125,70.1328125 L49.4453125,69.0078125 C48.4140625,69.4296875 47.3125,69.640625 46.140625,69.640625 L46.140625,69.640625 L42.6953125,69.640625 L42.6953125,79.2734375 C42.7421875,81.2421875 42.53125,82.53125 42.0625,83.140625 L42.0625,83.140625 L42.0625,82.859375 C41.171875,82.109375 40.6796875,80.8671875 40.5859375,79.1328125 L40.5859375,79.1328125 L39.390625,79.1328125 C39.4375,81.2421875 40.2578125,82.6953125 41.8515625,83.4921875 L41.8515625,83.4921875 L41.78125,83.6328125 L41.78125,84.7578125 Z M36.4375,84.4765625 C37.796875,84.5234375 38.453125,83.84375 38.40625,82.4375 L38.40625,82.4375 L38.40625,78.21875 L41.640625,78.21875 L41.640625,77.3046875 L38.40625,77.3046875 L38.40625,75.265625 L41.9921875,75.265625 L41.9921875,74.28125 L40.09375,74.28125 C40.46875,73.484375 40.6796875,72.640625 40.7265625,71.75 L40.7265625,71.75 L39.4609375,71.75 C39.3671875,72.59375 39.15625,73.4375 38.828125,74.28125 L38.828125,74.28125 L36.578125,74.28125 C36.203125,73.484375 35.9921875,72.640625 35.9453125,71.75 L35.9453125,71.75 L34.609375,71.75 C34.75,72.640625 34.984375,73.484375 35.3125,74.28125 L35.3125,74.28125 L33.2734375,74.28125 L33.2734375,75.265625 L37.0703125,75.265625 L37.0703125,77.3046875 L33.6953125,77.3046875 L33.6953125,78.21875 L37.0703125,78.21875 L37.0703125,82.5078125 C37.0703125,83.1640625 36.6953125,83.4921875 35.9453125,83.4921875 L35.9453125,83.4921875 L35.3125,83.4921875 L35.3125,84.4765625 L36.4375,84.4765625 Z M33.1328125,83.6328125 C35.0078125,82.8359375 35.9453125,81.3359375 35.9453125,79.1328125 L35.9453125,79.1328125 L34.75,79.1328125 C34.65625,80.8671875 34.1171875,82.109375 33.1328125,82.859375 L33.1328125,82.859375 L33.1328125,83.6328125 Z M62.171875,82.5078125 L62.171875,80.8203125 L67.0234375,80.8203125 L67.0234375,79.90625 L62.171875,79.90625 L62.171875,78.1484375 L66.53125,78.1484375 L66.53125,77.3046875 L62.171875,77.3046875 L62.171875,75.6171875 L64.140625,75.6171875 C65.5,75.6640625 66.15625,75.0078125 66.109375,73.6484375 L66.109375,73.6484375 L66.109375,73.0859375 L67.65625,73.0859375 L67.65625,72.171875 L66.109375,72.171875 L66.109375,69.78125 L62.171875,69.78125 L62.171875,68.515625 L60.765625,68.515625 L60.765625,69.78125 L57.4609375,69.78125 L57.4609375,70.625 L60.765625,70.625 L60.765625,72.171875 L56.546875,72.171875 L56.546875,73.0859375 L60.765625,73.0859375 L60.765625,74.703125 L57.390625,74.703125 L57.390625,75.6171875 L60.765625,75.6171875 L60.765625,77.3046875 L57.1796875,77.3046875 L57.1796875,78.1484375 L60.765625,78.1484375 L60.765625,79.90625 L56.6171875,79.90625 L56.6171875,80.8203125 L60.765625,80.8203125 L60.765625,82.5078125 L62.171875,82.5078125 Z M51.4140625,84.546875 C52.5859375,84.03125 53.546875,83.515625 54.296875,83 C55.328125,83.703125 56.7578125,84.0546875 58.5859375,84.0546875 L58.5859375,84.0546875 L67.515625,84.0546875 L67.515625,83.0703125 L58.796875,83.0703125 C57.15625,83.0703125 55.9375,82.8125 55.140625,82.296875 C55.9375,81.3125 56.3359375,79.953125 56.3359375,78.21875 L56.3359375,78.21875 L56.3359375,74.84375 L53.1015625,74.84375 C54.5078125,73.71875 55.609375,72.359375 56.40625,70.765625 L56.40625,70.765625 L56.40625,69.78125 L51.5546875,69.78125 L51.5546875,70.765625 L54.859375,70.765625 C54.15625,72.265625 53.1015625,73.625 51.6953125,74.84375 L51.6953125,74.84375 L51.6953125,75.828125 L55.0703125,75.828125 L55.0703125,78.5 C55.0703125,79.578125 54.8125,80.5625 54.296875,81.453125 C53.546875,80.5625 53.03125,79.203125 52.75,77.375 L52.75,77.375 L51.484375,77.375 C51.8125,79.625 52.46875,81.2890625 53.453125,82.3671875 C53.171875,82.6484375 52.65625,82.9765625 51.90625,83.3515625 C51.671875,83.4921875 51.5078125,83.5859375 51.4140625,83.6328125 L51.4140625,83.6328125 L51.4140625,84.546875 Z M64.84375,72.171875 L62.171875,72.171875 L62.171875,70.625 L64.84375,70.625 L64.84375,72.171875 Z M63.93375,74.7075 L63.7890625,74.703125 L62.171875,74.703125 L62.171875,73.0859375 L64.84375,73.0859375 L64.84375,73.71875 C64.890625,74.421875 64.5390625,74.75 63.7890625,74.703125 L63.93375,74.7075 Z M77.2890625,81.171875 L77.2890625,73.71875 L83.40625,73.71875 L83.40625,81.171875 L84.7421875,81.171875 L84.7421875,72.8046875 L80.453125,72.8046875 C80.6875,72.0546875 80.875,71.234375 81.015625,70.34375 L81.015625,70.34375 L85.515625,70.34375 L85.515625,69.4296875 L75.53125,69.4296875 L75.53125,70.34375 L79.5390625,70.34375 C79.4921875,71.234375 79.3515625,72.0546875 79.1171875,72.8046875 L79.1171875,72.8046875 L75.8828125,72.8046875 L75.8828125,81.171875 L77.2890625,81.171875 Z M69.34375,82.15625 C71.734375,81.875 73.6328125,81.40625 75.0390625,80.75 L75.0390625,80.75 L75.0390625,79.765625 C74.8984375,79.8125 74.6640625,79.8828125 74.3359375,79.9765625 C73.7265625,80.1640625 73.2578125,80.28125 72.9296875,80.328125 L72.9296875,80.328125 L72.9296875,71.1171875 L74.96875,71.1171875 L74.96875,70.1328125 L69.484375,70.1328125 L69.484375,71.1171875 L71.5234375,71.1171875 L71.5234375,80.609375 C70.9140625,80.75 70.1875,80.84375 69.34375,80.890625 L69.34375,80.890625 L69.34375,82.15625 Z M85.65625,84.6875 L85.65625,83.703125 C82.421875,82.0625 80.875,80.046875 81.015625,77.65625 L81.015625,77.65625 L81.015625,75.1953125 L79.609375,75.1953125 L79.609375,77.5859375 C79.75,80.4453125 78.109375,82.484375 74.6875,83.703125 L74.6875,83.703125 L74.6875,84.6875 C77.734375,83.65625 79.6328125,82.3671875 80.3828125,80.8203125 C81.0859375,82.2734375 82.84375,83.5625 85.65625,84.6875 L85.65625,84.6875 Z M99.296875,83.984375 C100.984375,84.03125 101.804688,83.234375 101.757812,81.59375 L101.757812,81.59375 L101.757812,69.359375 L89.2421875,69.359375 L89.2421875,83.984375 L99.296875,83.984375 Z M100.210938,73.9296875 L90.7890625,73.9296875 L90.7890625,70.4140625 L100.210938,70.4140625 L100.210938,73.9296875 Z M100.210938,78.5 L90.7890625,78.5 L90.7890625,74.984375 L100.210938,74.984375 L100.210938,78.5 Z M99.0898302,83.0034061 L98.9453125,83 L90.7890625,83 L90.7890625,79.5546875 L100.210938,79.5546875 L100.210938,81.734375 C100.210938,82.625 99.7890625,83.046875 98.9453125,83 L99.0898302,83.0034061 Z M2.73828125,101.257812 L2.73828125,100.054688 L12.2539062,100.054688 L12.2539062,101.257812 L13.3476562,101.257812 L13.3476562,99.34375 L8.04296875,99.34375 L8.04296875,98.5234375 C8.80859375,98.1953125 9.33723958,97.7760417 9.62890625,97.265625 L9.62890625,97.265625 L10.6132812,97.265625 C10.8320312,97.7395833 10.9596354,98.1953125 10.9960938,98.6328125 L10.9960938,98.6328125 L11.9804688,98.6328125 C11.8710938,98.1223958 11.7252604,97.6666667 11.5429688,97.265625 L11.5429688,97.265625 L13.7851562,97.265625 L13.7851562,96.609375 L9.95703125,96.609375 C9.95703125,96.5364583 9.99348958,96.4270833 10.0664062,96.28125 C10.1028646,96.0625 10.1393229,95.8984375 10.1757812,95.7890625 L10.1757812,95.7890625 L9.13671875,95.7890625 C8.95442708,96.8828125 8.37109375,97.6666667 7.38671875,98.140625 L7.38671875,98.140625 L7.38671875,98.5234375 L6.83984375,98.5234375 L6.83984375,99.34375 L1.64453125,99.34375 L1.64453125,101.257812 L2.73828125,101.257812 Z M1.26171875,98.8515625 C2.39192708,98.4869792 3.19401042,97.9583333 3.66796875,97.265625 L3.66796875,97.265625 L4.54296875,97.265625 C4.76171875,97.7395833 4.88932292,98.2135417 4.92578125,98.6875 L4.92578125,98.6875 L5.91015625,98.6875 C5.80078125,98.140625 5.65494792,97.6666667 5.47265625,97.265625 L5.47265625,97.265625 L7.55078125,97.265625 L7.55078125,96.609375 L4.05078125,96.609375 C4.05078125,96.5729167 4.06901042,96.4817708 4.10546875,96.3359375 C4.17838542,96.1171875 4.23307292,95.9348958 4.26953125,95.7890625 L4.26953125,95.7890625 L3.23046875,95.7890625 C3.01171875,96.9557292 2.35546875,97.7578125 1.26171875,98.1953125 L1.26171875,98.1953125 L1.26171875,98.8515625 Z M10.6679688,108.09375 C11.7252604,108.130208 12.2356771,107.638021 12.1992188,106.617188 L12.1992188,106.617188 L12.1992188,105.195312 L4.16015625,105.195312 L4.16015625,104.046875 L10.4492188,104.046875 C11.3971354,104.083333 11.8528646,103.609375 11.8164062,102.625 L11.8164062,102.625 L11.8164062,101.3125 L3.06640625,101.3125 L3.06640625,108.09375 L10.6679688,108.09375 Z M10.1712509,103.394185 L10.0664062,103.390625 L4.16015625,103.390625 L4.16015625,101.96875 L10.7226562,101.96875 L10.7226562,102.679688 C10.7591146,103.190104 10.5403646,103.427083 10.0664062,103.390625 L10.1712509,103.394185 Z M10.4061807,107.386372 L10.2851562,107.382812 L4.16015625,107.382812 L4.16015625,105.90625 L11.0507812,105.90625 L11.0507812,106.671875 C11.0872396,107.182292 10.8320312,107.419271 10.2851562,107.382812 L10.4061807,107.386372 Z M27.9492188,107.875 L27.9492188,107.109375 L24.1757812,107.109375 L24.1757812,105.085938 L27.4023438,105.085938 L27.4023438,104.320312 L24.1757812,104.320312 L24.1757812,102.625 L25.5976562,102.625 C26.6914062,102.625 27.2200521,102.096354 27.1835938,101.039062 L27.1835938,101.039062 L27.1835938,96.390625 L20.0742188,96.390625 L20.0742188,102.625 L23.0820312,102.625 L23.0820312,104.320312 L19.9101562,104.320312 L19.9101562,105.085938 L23.0820312,105.085938 L23.0820312,107.109375 L19.0898438,107.109375 L19.0898438,107.875 L27.9492188,107.875 Z M15.0976562,107.164062 C16.7747396,106.945312 18.2330729,106.5625 19.4726562,106.015625 L19.4726562,106.015625 L19.4726562,105.195312 C18.8893229,105.450521 18.3424479,105.632812 17.8320312,105.742188 L17.8320312,105.742188 L17.8320312,101.640625 L19.3085938,101.640625 L19.3085938,100.875 L17.8320312,100.875 L17.8320312,97.4296875 L19.3632812,97.4296875 L19.3632812,96.6640625 L15.2070312,96.6640625 L15.2070312,97.4296875 L16.7382812,97.4296875 L16.7382812,100.875 L15.3164062,100.875 L15.3164062,101.640625 L16.7382812,101.640625 L16.7382812,106.015625 C16.5195312,106.052083 16.1914062,106.106771 15.7539062,106.179688 C15.4622396,106.216146 15.2434896,106.252604 15.0976562,106.289062 L15.0976562,106.289062 L15.0976562,107.164062 Z M23.0820312,99.0703125 L21.0585938,99.0703125 L21.0585938,97.15625 L23.0820312,97.15625 L23.0820312,99.0703125 Z M26.1992188,99.0703125 L24.1757812,99.0703125 L24.1757812,97.15625 L26.1992188,97.15625 L26.1992188,99.0703125 Z M23.0820312,101.859375 L21.0585938,101.859375 L21.0585938,99.8359375 L23.0820312,99.8359375 L23.0820312,101.859375 Z M25.4520089,101.862444 L25.3242188,101.859375 L24.1757812,101.859375 L24.1757812,99.8359375 L26.1992188,99.8359375 L26.1992188,101.039062 C26.2356771,101.622396 25.9440104,101.895833 25.3242188,101.859375 L25.4520089,101.862444 Z M41.7851562,108.3125 L41.7851562,107.492188 C40.7278646,106.799479 39.9440104,106.033854 39.4335938,105.195312 C40.4544271,103.664062 41.0013021,101.440104 41.0742188,98.5234375 L41.0742188,98.5234375 L41.8945312,98.5234375 L41.8945312,97.7578125 L38.2851562,97.7578125 C38.5039062,97.2473958 38.6679688,96.609375 38.7773438,95.84375 L38.7773438,95.84375 L37.6835938,95.84375 C37.5013021,97.5208333 36.9179688,98.796875 35.9335938,99.671875 L35.9335938,99.671875 L35.9335938,100.4375 C36.1888021,100.291667 36.4257812,100.109375 36.6445312,99.890625 C36.9726562,102.223958 37.5377604,103.973958 38.3398438,105.140625 C37.7565104,105.979167 36.9726562,106.763021 35.9882812,107.492188 L35.9882812,107.492188 L35.9882812,108.3125 C37.3372396,107.4375 38.3033854,106.635417 38.8867188,105.90625 C39.5794271,106.744792 40.5455729,107.546875 41.7851562,108.3125 L41.7851562,108.3125 Z M36.2070312,102.078125 L36.2070312,101.476562 C35.3320312,100.856771 34.8033854,100.145833 34.6210938,99.34375 L34.6210938,99.34375 L36.0429688,99.34375 L36.0429688,98.578125 L33.3085938,98.578125 L33.3085938,95.84375 L32.2695312,95.84375 L32.2695312,98.578125 L29.3710938,98.578125 L29.3710938,99.34375 L30.9570312,99.34375 C30.7747396,100.182292 30.2278646,100.875 29.3164062,101.421875 L29.3164062,101.421875 L29.3164062,102.078125 C30.7018229,101.53125 31.5403646,100.619792 31.8320312,99.34375 L31.8320312,99.34375 L32.2695312,99.34375 L32.2695312,101.96875 L33.3085938,101.96875 L33.3085938,99.34375 L33.6914062,99.34375 C33.9830729,100.619792 34.8216146,101.53125 36.2070312,102.078125 L36.2070312,102.078125 Z M35.2226562,98.0859375 C35.5507812,97.6484375 35.7513021,97.0104167 35.8242188,96.171875 L35.8242188,96.171875 L34.8945312,96.171875 C34.8580729,96.7916667 34.6940104,97.4296875 34.4023438,98.0859375 L34.4023438,98.0859375 L35.2226562,98.0859375 Z M31.1757812,98.0859375 C30.8841146,97.4296875 30.7018229,96.7916667 30.6289062,96.171875 L30.6289062,96.171875 L29.7539062,96.171875 C29.8268229,96.9010417 30.0273438,97.5390625 30.3554688,98.0859375 L30.3554688,98.0859375 L31.1757812,98.0859375 Z M38.8867188,104.265625 C38.1940104,102.953125 37.7747396,101.348958 37.6289062,99.453125 L37.6289062,99.453125 L37.1914062,99.453125 C37.4466146,99.1614583 37.6835938,98.8515625 37.9023438,98.5234375 L37.9023438,98.5234375 L40.0351562,98.5234375 C39.9986979,101.002604 39.6158854,102.916667 38.8867188,104.265625 Z M35.7148438,108.3125 L35.7148438,107.601562 C34.9127604,107.382812 34.2018229,107.182292 33.5820312,107 C34.7486979,106.380208 35.3502604,105.322917 35.3867188,103.828125 L35.3867188,103.828125 L36.3164062,103.828125 L36.3164062,103.117188 L35.4414062,103.117188 L35.4414062,102.132812 L34.4570312,102.132812 L34.4570312,103.117188 L31.1210938,103.117188 L31.1210938,102.132812 L30.1367188,102.132812 L30.1367188,103.117188 L29.2070312,103.117188 L29.2070312,103.828125 L30.1367188,103.828125 C30.2096354,105.25 30.7929688,106.307292 31.8867188,107 C31.1940104,107.182292 30.3007812,107.382812 29.2070312,107.601562 L29.2070312,107.601562 L29.2070312,108.3125 C30.6653646,108.057292 31.8502604,107.729167 32.7617188,107.328125 C33.2721354,107.619792 34.2565104,107.947917 35.7148438,108.3125 L35.7148438,108.3125 Z M32.7070312,106.5625 C31.7226562,105.942708 31.2122396,105.03125 31.1757812,103.828125 L31.1757812,103.828125 L34.4023438,103.828125 C34.3658854,105.067708 33.8007812,105.979167 32.7070312,106.5625 Z M44.4101562,108.203125 C45.3216146,108.166667 45.7773438,107.729167 45.7773438,106.890625 L45.7773438,106.890625 L45.7773438,102.734375 C46.1419271,102.625 46.5429688,102.460938 46.9804688,102.242188 L46.9804688,102.242188 L46.9804688,101.476562 C46.9075521,101.513021 46.7799479,101.549479 46.5976562,101.585938 C46.2330729,101.768229 45.9596354,101.877604 45.7773438,101.914062 L45.7773438,101.914062 L45.7773438,98.796875 L47.0351562,98.796875 L47.0351562,98.0859375 L45.7773438,98.0859375 L45.7773438,95.7890625 L44.7382812,95.7890625 L44.7382812,98.0859375 L43.2617188,98.0859375 L43.2617188,98.796875 L44.7382812,98.796875 L44.7382812,102.1875 C44.2643229,102.260417 43.8997396,102.315104 43.6445312,102.351562 C43.4257812,102.388021 43.2617188,102.424479 43.1523438,102.460938 L43.1523438,102.460938 L43.1523438,103.390625 C43.2617188,103.354167 43.4075521,103.335938 43.5898438,103.335938 C44.1002604,103.226562 44.4830729,103.135417 44.7382812,103.0625 L44.7382812,103.0625 L44.7382812,106.835938 C44.7382812,107.236979 44.5013021,107.4375 44.0273438,107.4375 L44.0273438,107.4375 L43.4257812,107.4375 L43.4257812,108.203125 L44.4101562,108.203125 Z M46.2148438,108.367188 C47.9648438,107.091146 48.7669271,104.994792 48.6210938,102.078125 L48.6210938,102.078125 L51.5742188,102.078125 L51.5742188,103.828125 L49.0585938,103.828125 L49.0585938,107.929688 L53.4882812,107.929688 C54.6549479,107.966146 55.2200521,107.455729 55.1835938,106.398438 L55.1835938,106.398438 L55.1835938,103.828125 L52.6132812,103.828125 L52.6132812,102.078125 L55.8398438,102.078125 L55.8398438,101.367188 L52.6132812,101.367188 L52.6132812,99.78125 L53.8710938,99.78125 C54.8554688,99.8177083 55.3294271,99.3619792 55.2929688,98.4140625 L55.2929688,98.4140625 L55.2929688,96.5 L47.5820312,96.5 L47.5820312,102.40625 C47.6549479,104.630208 47.1992188,106.307292 46.2148438,107.4375 L46.2148438,107.4375 L46.2148438,108.367188 Z M53.6523438,99.0703125 L48.6210938,99.0703125 L48.6210938,97.265625 L54.3085938,97.265625 L54.3085938,98.359375 C54.3085938,98.8333333 54.0898438,99.0703125 53.6523438,99.0703125 L53.6523438,99.0703125 Z M51.5742188,101.367188 L48.6210938,101.367188 L48.6210938,99.78125 L51.5742188,99.78125 L51.5742188,101.367188 Z M53.3961632,107.221667 L53.2695312,107.21875 L50.0976562,107.21875 L50.0976562,104.539062 L54.1992188,104.539062 L54.1992188,106.34375 C54.2356771,106.963542 53.9257812,107.255208 53.2695312,107.21875 L53.3961632,107.221667 Z M60.6523438,108.3125 L60.6523438,102.023438 C61.2721354,103.044271 62.0377604,103.992188 62.9492188,104.867188 L62.9492188,104.867188 L62.9492188,103.882812 C61.9283854,102.716146 61.1809896,101.476562 60.7070312,100.164062 L60.7070312,100.164062 L63.0039062,100.164062 L63.0039062,99.3984375 L60.6523438,99.3984375 L60.6523438,97.265625 L60.7617188,97.265625 C61.5638021,97.265625 62.3111979,97.1744792 63.0039062,96.9921875 L63.0039062,96.9921875 L63.0039062,96.171875 C62.0924479,96.390625 61.3085938,96.5 60.6523438,96.5 L60.6523438,96.5 L57.4257812,96.5 L57.4257812,97.265625 L59.6132812,97.265625 L59.6132812,99.3984375 L57.3164062,99.3984375 L57.3164062,100.164062 L59.5039062,100.164062 C58.9934896,101.804688 58.2096354,103.408854 57.1523438,104.976562 L57.1523438,104.976562 L57.1523438,106.015625 C58.2825521,104.703125 59.1028646,103.481771 59.6132812,102.351562 L59.6132812,102.351562 L59.6132812,108.3125 L60.6523438,108.3125 Z M67.7070312,107.328125 C68.7643229,107.364583 69.2747396,106.817708 69.2382812,105.6875 L69.2382812,105.6875 L69.2382812,97.15625 L63.7695312,97.15625 L63.7695312,107.328125 L67.7070312,107.328125 Z M67.4991629,106.674665 L67.3789062,106.671875 L64.8085938,106.671875 L64.8085938,97.921875 L68.1992188,97.921875 L68.1992188,105.796875 C68.2356771,106.416667 67.9622396,106.708333 67.3789062,106.671875 L67.4991629,106.674665 Z M76.5664062,108.203125 C77.6966146,108.239583 78.2434896,107.765625 78.2070312,106.78125 L78.2070312,104.921875 C79.3007812,104.921875 80.4127604,104.867188 81.5429688,104.757812 C81.6158854,104.867188 81.6888021,105.049479 81.7617188,105.304688 C81.7981771,105.414062 81.8346354,105.505208 81.8710938,105.578125 L81.8710938,105.578125 L82.9648438,105.578125 C82.6002604,104.59375 82.1263021,103.71875 81.5429688,102.953125 L81.5429688,102.953125 L80.5585938,102.953125 C80.6679688,103.098958 80.8138021,103.335938 80.9960938,103.664062 C81.1054688,103.846354 81.1966146,103.973958 81.2695312,104.046875 C79.4830729,104.192708 77.3502604,104.265625 74.8710938,104.265625 C77.1679688,103.609375 79.5195312,102.661458 81.9257812,101.421875 L81.9257812,101.421875 L80.1210938,101.421875 C79.9752604,101.494792 79.7200521,101.604167 79.3554688,101.75 C79.0273438,101.895833 78.7721354,102.005208 78.5898438,102.078125 C77.0585938,102.151042 75.7460938,102.1875 74.6523438,102.1875 C75.7096354,101.822917 76.6757812,101.385417 77.5507812,100.875 L77.5507812,100.875 L83.7304688,100.875 L83.7304688,100.164062 L78.0429688,100.164062 L78.0429688,99.0703125 L82.5273438,99.0703125 L82.5273438,98.4140625 L78.0429688,98.4140625 L78.0429688,97.3203125 L83.2382812,97.3203125 L83.2382812,96.6640625 L78.0429688,96.6640625 L78.0429688,95.6796875 L76.8945312,95.6796875 L76.8945312,96.6640625 L71.7539062,96.6640625 L71.7539062,97.3203125 L76.8945312,97.3203125 L76.8945312,98.4140625 L72.4648438,98.4140625 L72.4648438,99.0703125 L76.8945312,99.0703125 L76.8945312,100.164062 L71.2617188,100.164062 L71.2617188,100.875 L75.8007812,100.875 C74.9986979,101.348958 73.9778646,101.768229 72.7382812,102.132812 L72.7382812,102.132812 L72.7382812,102.84375 C74.6705729,102.84375 76.0559896,102.825521 76.8945312,102.789062 C74.9257812,103.518229 73.3763021,104.010417 72.2460938,104.265625 L72.2460938,104.265625 L72.2460938,105.03125 C72.9752604,105.03125 73.9231771,105.013021 75.0898438,104.976562 L75.0898438,104.976562 L77.0585938,104.976562 L77.0585938,106.726562 C77.0585938,107.236979 76.7851562,107.473958 76.2382812,107.4375 L76.2382812,107.4375 L75.5820312,107.4375 L75.5820312,108.203125 L76.5664062,108.203125 Z M83.6757812,107.765625 L83.6757812,107.109375 C82.3268229,106.890625 81.3789062,106.361979 80.8320312,105.523438 L80.8320312,105.523438 L79.6289062,105.523438 C80.3216146,106.726562 81.6705729,107.473958 83.6757812,107.765625 L83.6757812,107.765625 Z M71.2617188,107.765625 C73.3033854,107.473958 74.6523438,106.726562 75.3085938,105.523438 L75.3085938,105.523438 L74.1601562,105.523438 C73.5403646,106.398438 72.5742188,106.927083 71.2617188,107.109375 L71.2617188,107.109375 L71.2617188,107.765625 Z M94.6132812,108.148438 C95.6705729,108.148438 96.1992188,107.619792 96.1992188,106.5625 L96.1992188,106.5625 L96.1992188,98.4140625 L97.8398438,98.4140625 L97.8398438,97.703125 L96.1992188,97.703125 L96.1992188,95.7890625 L95.1054688,95.7890625 L95.1054688,97.703125 L91.0039062,97.703125 L91.0039062,98.4140625 L94.0117188,98.4140625 C93.4648438,101.294271 92.2799479,103.809896 90.4570312,105.960938 L90.4570312,105.960938 L90.4570312,106.890625 C92.8268229,104.703125 94.3763021,101.877604 95.1054688,98.4140625 L95.1054688,98.4140625 L95.1054688,106.671875 C95.1054688,107.145833 94.8138021,107.382812 94.2304688,107.382812 L94.2304688,107.382812 L93.4101562,107.382812 L93.4101562,108.148438 L94.6132812,108.148438 Z M88.4335938,108.367188 L88.4335938,100.875 C88.8710938,101.859375 89.5091146,102.861979 90.3476562,103.882812 L90.3476562,103.882812 L90.3476562,102.84375 C89.5455729,101.567708 88.9075521,100.109375 88.4335938,98.46875 L88.4335938,98.46875 L90.4023438,98.46875 L90.4023438,97.703125 L88.4335938,97.703125 L88.4335938,95.7890625 L87.3398438,95.7890625 L87.3398438,97.703125 L85.3164062,97.703125 L85.3164062,98.46875 L87.2851562,98.46875 C86.7747396,100.729167 86.0273438,102.752604 85.0429688,104.539062 L85.0429688,104.539062 L85.0429688,105.632812 C86.1367188,104.138021 86.9023438,102.752604 87.3398438,101.476562 L87.3398438,101.476562 L87.3398438,108.367188 L88.4335938,108.367188 Z M103.035156,109.351562 C101.21224,107.309896 100.31901,104.958333 100.355469,102.296875 L100.355986,101.951486 C100.39844,99.4315188 101.291497,97.1950861 103.035156,95.2421875 L103.035156,95.2421875 L102.050781,95.2421875 C100.227865,97.0651042 99.2799479,99.4166667 99.2070312,102.296875 C99.2434896,105.286458 100.191406,107.638021 102.050781,109.351562 L102.050781,109.351562 L103.035156,109.351562 Z M113.097656,108.148438 C114.33724,108.184896 114.938802,107.65625 114.902344,106.5625 L114.902344,106.5625 L114.902344,97.5390625 L116.871094,97.5390625 L116.871094,96.71875 L104.074219,96.71875 L104.074219,97.5390625 L113.699219,97.5390625 L113.699219,106.453125 C113.735677,107.072917 113.425781,107.364583 112.769531,107.328125 L112.769531,107.328125 L111.949219,107.328125 L111.949219,108.148438 L113.097656,108.148438 Z M109.542969,105.578125 C110.746094,105.614583 111.329427,105.049479 111.292969,103.882812 L111.292969,103.882812 L111.292969,99.34375 L105.550781,99.34375 L105.550781,105.578125 L109.542969,105.578125 Z M109.269531,104.867188 L106.644531,104.867188 L106.644531,100.109375 L110.199219,100.109375 L110.199219,103.9375 C110.235677,104.557292 109.925781,104.867188 109.269531,104.867188 L109.269531,104.867188 Z M121.847656,106.453125 C124.071615,105.651042 125.165365,104.028646 125.128906,101.585938 L125.128906,101.585938 L126.824219,101.585938 L126.824219,104.648438 C126.78776,105.705729 127.316406,106.216146 128.410156,106.179688 L128.410156,106.179688 L129.175781,106.179688 C130.160156,106.216146 130.634115,105.705729 130.597656,104.648438 L130.597656,104.648438 L130.597656,104.210938 L129.832031,104.210938 L129.832031,104.59375 C129.86849,105.140625 129.613281,105.414062 129.066406,105.414062 L129.066406,105.414062 L128.738281,105.414062 C128.154948,105.450521 127.88151,105.158854 127.917969,104.539062 L127.917969,104.539062 L127.917969,101.585938 L130.652344,101.585938 L130.652344,100.820312 L126.824219,100.820312 L126.824219,98.359375 L130.050781,98.359375 L130.050781,97.59375 L126.824219,97.59375 L126.824219,95.7890625 L125.730469,95.7890625 L125.730469,97.59375 L123.980469,97.59375 C124.126302,97.2291667 124.217448,96.7734375 124.253906,96.2265625 L124.253906,96.2265625 L123.269531,96.2265625 C123.160156,97.5390625 122.667969,98.5234375 121.792969,99.1796875 L121.792969,99.1796875 L121.792969,99.78125 C122.595052,99.4166667 123.214844,98.9427083 123.652344,98.359375 L123.652344,98.359375 L125.730469,98.359375 L125.730469,100.820312 L121.738281,100.820312 L121.738281,101.585938 L124.035156,101.585938 C124.071615,103.518229 123.342448,104.903646 121.847656,105.742188 L121.847656,105.742188 L121.847656,106.453125 Z M121.027344,98.796875 C120.845052,97.8854167 120.480469,96.9739583 119.933594,96.0625 L119.933594,96.0625 L119.003906,96.0625 C119.477865,97.0833333 119.78776,97.9947917 119.933594,98.796875 L119.933594,98.796875 L121.027344,98.796875 Z M118.292969,108.257812 C119.240885,108.002604 119.951823,107.546875 120.425781,106.890625 C120.863281,107.619792 121.720052,107.984375 122.996094,107.984375 L122.996094,107.984375 L130.761719,107.984375 L130.761719,107.164062 L122.941406,107.164062 C121.55599,107.127604 120.845052,106.471354 120.808594,105.195312 L120.808594,105.195312 L120.808594,99.9453125 L118.183594,99.9453125 L118.183594,100.710938 L119.714844,100.710938 L119.714844,105.46875 C119.751302,106.453125 119.277344,107.164062 118.292969,107.601562 L118.292969,107.601562 L118.292969,108.257812 Z M133.003906,109.351562 C134.89974,107.601562 135.865885,105.25 135.902344,102.296875 C135.829427,99.3802083 134.863281,97.0286458 133.003906,95.2421875 L133.003906,95.2421875 L132.019531,95.2421875 C133.842448,97.2109375 134.735677,99.5625 134.699219,102.296875 C134.735677,104.958333 133.842448,107.309896 132.019531,109.351562 L132.019531,109.351562 L133.003906,109.351562 Z" id="新建项目管理数据和素材(可选)" fill="#C7D3E9" fill-rule="nonzero"></path>
                        <g id="编组-2" transform="translate(49.500000, 0.000000)">
                            <g id="椭圆形">
                                <use fill="black" fill-opacity="1" filter="url(#filter-2)" xlink:href="#path-1"></use>
                                <circle stroke="#A4B0C5" stroke-width="2" stroke-linejoin="square" cx="20" cy="20" r="19"></circle>
                            </g>
                            <g id="Ⅰ" fill-rule="nonzero">
                                <use fill="black" fill-opacity="1" filter="url(#filter-4)" xlink:href="#path-3"></use>
                                <use fill="#C7D3E9" xlink:href="#path-3"></use>
                            </g>
                        </g>
                    </g>
                    <g id="编组-3备份" transform="translate(219.500000, 0.000000)">
                        <path d="M27.0703125,71.046875 L27.0703125,70.0625 L23.8359375,70.0625 L23.8359375,68.65625 L22.359375,68.65625 L22.359375,70.0625 L19.265625,70.0625 L19.265625,71.046875 L27.0703125,71.046875 Z M27.28125,84.7578125 C28.921875,83.5859375 29.671875,81.6875 29.53125,79.0625 L29.53125,79.0625 L29.53125,74.703125 L31.8515625,74.703125 L31.8515625,84.6875 L33.1875,84.6875 L33.1875,74.703125 L35.2265625,74.703125 L35.2265625,73.71875 L29.53125,73.71875 L29.53125,70.5546875 L31.9921875,70.5546875 C33.2578125,70.5546875 34.2421875,70.4140625 34.9453125,70.1328125 L34.9453125,70.1328125 L34.9453125,69.0078125 C33.9140625,69.4296875 32.8125,69.640625 31.640625,69.640625 L31.640625,69.640625 L28.1953125,69.640625 L28.1953125,79.2734375 C28.2421875,81.2421875 28.03125,82.53125 27.5625,83.140625 L27.5625,83.140625 L27.5625,82.859375 C26.671875,82.109375 26.1796875,80.8671875 26.0859375,79.1328125 L26.0859375,79.1328125 L24.890625,79.1328125 C24.9375,81.2421875 25.7578125,82.6953125 27.3515625,83.4921875 L27.3515625,83.4921875 L27.28125,83.6328125 L27.28125,84.7578125 Z M21.9375,84.4765625 C23.296875,84.5234375 23.953125,83.84375 23.90625,82.4375 L23.90625,82.4375 L23.90625,78.21875 L27.140625,78.21875 L27.140625,77.3046875 L23.90625,77.3046875 L23.90625,75.265625 L27.4921875,75.265625 L27.4921875,74.28125 L25.59375,74.28125 C25.96875,73.484375 26.1796875,72.640625 26.2265625,71.75 L26.2265625,71.75 L24.9609375,71.75 C24.8671875,72.59375 24.65625,73.4375 24.328125,74.28125 L24.328125,74.28125 L22.078125,74.28125 C21.703125,73.484375 21.4921875,72.640625 21.4453125,71.75 L21.4453125,71.75 L20.109375,71.75 C20.25,72.640625 20.484375,73.484375 20.8125,74.28125 L20.8125,74.28125 L18.7734375,74.28125 L18.7734375,75.265625 L22.5703125,75.265625 L22.5703125,77.3046875 L19.1953125,77.3046875 L19.1953125,78.21875 L22.5703125,78.21875 L22.5703125,82.5078125 C22.5703125,83.1640625 22.1953125,83.4921875 21.4453125,83.4921875 L21.4453125,83.4921875 L20.8125,83.4921875 L20.8125,84.4765625 L21.9375,84.4765625 Z M18.6328125,83.6328125 C20.5078125,82.8359375 21.4453125,81.3359375 21.4453125,79.1328125 L21.4453125,79.1328125 L20.25,79.1328125 C20.15625,80.8671875 19.6171875,82.109375 18.6328125,82.859375 L18.6328125,82.859375 L18.6328125,83.6328125 Z M47.671875,82.5078125 L47.671875,80.8203125 L52.5234375,80.8203125 L52.5234375,79.90625 L47.671875,79.90625 L47.671875,78.1484375 L52.03125,78.1484375 L52.03125,77.3046875 L47.671875,77.3046875 L47.671875,75.6171875 L49.640625,75.6171875 C51,75.6640625 51.65625,75.0078125 51.609375,73.6484375 L51.609375,73.6484375 L51.609375,73.0859375 L53.15625,73.0859375 L53.15625,72.171875 L51.609375,72.171875 L51.609375,69.78125 L47.671875,69.78125 L47.671875,68.515625 L46.265625,68.515625 L46.265625,69.78125 L42.9609375,69.78125 L42.9609375,70.625 L46.265625,70.625 L46.265625,72.171875 L42.046875,72.171875 L42.046875,73.0859375 L46.265625,73.0859375 L46.265625,74.703125 L42.890625,74.703125 L42.890625,75.6171875 L46.265625,75.6171875 L46.265625,77.3046875 L42.6796875,77.3046875 L42.6796875,78.1484375 L46.265625,78.1484375 L46.265625,79.90625 L42.1171875,79.90625 L42.1171875,80.8203125 L46.265625,80.8203125 L46.265625,82.5078125 L47.671875,82.5078125 Z M36.9140625,84.546875 C38.0859375,84.03125 39.046875,83.515625 39.796875,83 C40.828125,83.703125 42.2578125,84.0546875 44.0859375,84.0546875 L44.0859375,84.0546875 L53.015625,84.0546875 L53.015625,83.0703125 L44.296875,83.0703125 C42.65625,83.0703125 41.4375,82.8125 40.640625,82.296875 C41.4375,81.3125 41.8359375,79.953125 41.8359375,78.21875 L41.8359375,78.21875 L41.8359375,74.84375 L38.6015625,74.84375 C40.0078125,73.71875 41.109375,72.359375 41.90625,70.765625 L41.90625,70.765625 L41.90625,69.78125 L37.0546875,69.78125 L37.0546875,70.765625 L40.359375,70.765625 C39.65625,72.265625 38.6015625,73.625 37.1953125,74.84375 L37.1953125,74.84375 L37.1953125,75.828125 L40.5703125,75.828125 L40.5703125,78.5 C40.5703125,79.578125 40.3125,80.5625 39.796875,81.453125 C39.046875,80.5625 38.53125,79.203125 38.25,77.375 L38.25,77.375 L36.984375,77.375 C37.3125,79.625 37.96875,81.2890625 38.953125,82.3671875 C38.671875,82.6484375 38.15625,82.9765625 37.40625,83.3515625 C37.171875,83.4921875 37.0078125,83.5859375 36.9140625,83.6328125 L36.9140625,83.6328125 L36.9140625,84.546875 Z M50.34375,72.171875 L47.671875,72.171875 L47.671875,70.625 L50.34375,70.625 L50.34375,72.171875 Z M49.43375,74.7075 L49.2890625,74.703125 L47.671875,74.703125 L47.671875,73.0859375 L50.34375,73.0859375 L50.34375,73.71875 C50.390625,74.421875 50.0390625,74.75 49.2890625,74.703125 L49.43375,74.7075 Z M71.0859375,84.6875 L71.0859375,83.6328125 C69.7265625,82.7421875 68.71875,81.7578125 68.0625,80.6796875 C69.375,78.7109375 70.078125,75.8515625 70.171875,72.1015625 L70.171875,72.1015625 L71.2265625,72.1015625 L71.2265625,71.1171875 L66.5859375,71.1171875 C66.8671875,70.4609375 67.078125,69.640625 67.21875,68.65625 L67.21875,68.65625 L65.8125,68.65625 C65.578125,70.8125 64.828125,72.453125 63.5625,73.578125 L63.5625,73.578125 L63.5625,74.5625 C63.890625,74.375 64.1953125,74.140625 64.4765625,73.859375 C64.8984375,76.859375 65.625,79.109375 66.65625,80.609375 C65.90625,81.6875 64.8984375,82.6953125 63.6328125,83.6328125 L63.6328125,83.6328125 L63.6328125,84.6875 C65.3671875,83.5625 66.609375,82.53125 67.359375,81.59375 C68.25,82.671875 69.4921875,83.703125 71.0859375,84.6875 L71.0859375,84.6875 Z M63.9140625,76.671875 L63.9140625,75.8984375 C62.7890625,75.1015625 62.109375,74.1875 61.875,73.15625 L61.875,73.15625 L63.703125,73.15625 L63.703125,72.171875 L60.1875,72.171875 L60.1875,68.65625 L58.8515625,68.65625 L58.8515625,72.171875 L55.125,72.171875 L55.125,73.15625 L57.1640625,73.15625 C56.9296875,74.234375 56.2265625,75.125 55.0546875,75.828125 L55.0546875,75.828125 L55.0546875,76.671875 C56.8359375,75.96875 57.9140625,74.796875 58.2890625,73.15625 L58.2890625,73.15625 L58.8515625,73.15625 L58.8515625,76.53125 L60.1875,76.53125 L60.1875,73.15625 L60.6796875,73.15625 C61.0546875,74.796875 62.1328125,75.96875 63.9140625,76.671875 L63.9140625,76.671875 Z M62.6484375,71.5390625 C63.0703125,70.9765625 63.328125,70.15625 63.421875,69.078125 L63.421875,69.078125 L62.2265625,69.078125 C62.1796875,69.875 61.96875,70.6953125 61.59375,71.5390625 L61.59375,71.5390625 L62.6484375,71.5390625 Z M57.4453125,71.5390625 C57.0703125,70.6953125 56.8359375,69.875 56.7421875,69.078125 L56.7421875,69.078125 L55.6171875,69.078125 C55.7109375,70.015625 55.96875,70.8359375 56.390625,71.5390625 L56.390625,71.5390625 L57.4453125,71.5390625 Z M67.359375,79.484375 C66.46875,77.796875 65.9296875,75.734375 65.7421875,73.296875 L65.7421875,73.296875 L65.1796875,73.296875 C65.5078125,72.921875 65.8125,72.5234375 66.09375,72.1015625 L66.09375,72.1015625 L68.8359375,72.1015625 C68.7890625,75.2890625 68.296875,77.75 67.359375,79.484375 Z M63.28125,84.6875 L63.28125,83.7734375 C62.25,83.4921875 61.3359375,83.234375 60.5390625,83 C62.0390625,82.203125 62.8125,80.84375 62.859375,78.921875 L62.859375,78.921875 L64.0546875,78.921875 L64.0546875,78.0078125 L62.9296875,78.0078125 L62.9296875,76.7421875 L61.6640625,76.7421875 L61.6640625,78.0078125 L57.375,78.0078125 L57.375,76.7421875 L56.109375,76.7421875 L56.109375,78.0078125 L54.9140625,78.0078125 L54.9140625,78.921875 L56.109375,78.921875 C56.203125,80.75 56.953125,82.109375 58.359375,83 C57.46875,83.234375 56.3203125,83.4921875 54.9140625,83.7734375 L54.9140625,83.7734375 L54.9140625,84.6875 C56.7890625,84.359375 58.3125,83.9375 59.484375,83.421875 C60.140625,83.796875 61.40625,84.21875 63.28125,84.6875 L63.28125,84.6875 Z M59.4140625,82.4375 C58.1484375,81.640625 57.4921875,80.46875 57.4453125,78.921875 L57.4453125,78.921875 L61.59375,78.921875 C61.546875,80.515625 60.8203125,81.6875 59.4140625,82.4375 Z M74.4609375,84.546875 C75.6328125,84.5 76.21875,83.9375 76.21875,82.859375 L76.21875,82.859375 L76.21875,77.515625 C76.6875,77.375 77.203125,77.1640625 77.765625,76.8828125 L77.765625,76.8828125 L77.765625,75.8984375 C77.671875,75.9453125 77.5078125,75.9921875 77.2734375,76.0390625 C76.8046875,76.2734375 76.453125,76.4140625 76.21875,76.4609375 L76.21875,76.4609375 L76.21875,72.453125 L77.8359375,72.453125 L77.8359375,71.5390625 L76.21875,71.5390625 L76.21875,68.5859375 L74.8828125,68.5859375 L74.8828125,71.5390625 L72.984375,71.5390625 L72.984375,72.453125 L74.8828125,72.453125 L74.8828125,76.8125 C74.2734375,76.90625 73.8046875,76.9765625 73.4765625,77.0234375 C73.1953125,77.0703125 72.984375,77.1171875 72.84375,77.1640625 L72.84375,77.1640625 L72.84375,78.359375 C72.984375,78.3125 73.171875,78.2890625 73.40625,78.2890625 C74.0625,78.1484375 74.5546875,78.03125 74.8828125,77.9375 L74.8828125,77.9375 L74.8828125,82.7890625 C74.8828125,83.3046875 74.578125,83.5625 73.96875,83.5625 L73.96875,83.5625 L73.1953125,83.5625 L73.1953125,84.546875 L74.4609375,84.546875 Z M76.78125,84.7578125 C79.03125,83.1171875 80.0625,80.421875 79.875,76.671875 L79.875,76.671875 L83.671875,76.671875 L83.671875,78.921875 L80.4375,78.921875 L80.4375,84.1953125 L86.1328125,84.1953125 C87.6328125,84.2421875 88.359375,83.5859375 88.3125,82.2265625 L88.3125,82.2265625 L88.3125,78.921875 L85.0078125,78.921875 L85.0078125,76.671875 L89.15625,76.671875 L89.15625,75.7578125 L85.0078125,75.7578125 L85.0078125,73.71875 L86.625,73.71875 C87.890625,73.765625 88.5,73.1796875 88.453125,71.9609375 L88.453125,71.9609375 L88.453125,69.5 L78.5390625,69.5 L78.5390625,77.09375 C78.6328125,79.953125 78.046875,82.109375 76.78125,83.5625 L76.78125,83.5625 L76.78125,84.7578125 Z M86.34375,72.8046875 L79.875,72.8046875 L79.875,70.484375 L87.1875,70.484375 L87.1875,71.890625 C87.1875,72.5 86.90625,72.8046875 86.34375,72.8046875 L86.34375,72.8046875 Z M83.671875,75.7578125 L79.875,75.7578125 L79.875,73.71875 L83.671875,73.71875 L83.671875,75.7578125 Z M86.0045471,83.2850952 L85.8515625,83.28125 L81.7734375,83.28125 L81.7734375,79.8359375 L87.046875,79.8359375 L87.046875,82.15625 C87.09375,82.953125 86.6953125,83.328125 85.8515625,83.28125 L86.0045471,83.2850952 Z M90.9140625,84.7578125 C93.0703125,83.5859375 94.078125,81.734375 93.9375,79.203125 L93.9375,79.203125 L93.9375,73.296875 L104.484375,73.296875 C105.84375,73.34375 106.5,72.734375 106.453125,71.46875 L106.453125,71.46875 L106.453125,69.359375 L92.53125,69.359375 L92.53125,79.4140625 C92.625,81.2421875 92.0859375,82.6953125 90.9140625,83.7734375 L90.9140625,83.7734375 L90.9140625,84.7578125 Z M103.992188,72.3828125 L93.9375,72.3828125 L93.9375,70.2734375 L105.046875,70.2734375 L105.046875,71.3984375 C105.046875,72.0546875 104.695312,72.3828125 103.992188,72.3828125 L103.992188,72.3828125 Z M95.4140625,84.828125 C97.6171875,83.84375 98.71875,82.34375 98.71875,80.328125 L98.71875,80.328125 L102.445312,80.328125 L102.445312,84.7578125 L103.78125,84.7578125 L103.78125,80.328125 L107.15625,80.328125 L107.15625,79.34375 L103.78125,79.34375 L103.78125,76.6015625 L106.3125,76.6015625 L106.3125,75.6875 L103.570312,75.6875 C103.851562,75.265625 104.039062,74.703125 104.132812,74 L104.132812,74 L102.726562,74 C102.726562,74.09375 102.703125,74.1875 102.65625,74.28125 C102.515625,74.890625 102.375,75.359375 102.234375,75.6875 L102.234375,75.6875 L98.7890625,75.6875 C98.5078125,75.171875 98.34375,74.609375 98.296875,74 L98.296875,74 L96.890625,74 C97.03125,74.703125 97.21875,75.265625 97.453125,75.6875 L97.453125,75.6875 L94.9921875,75.6875 L94.9921875,76.6015625 L97.3125,76.6015625 L97.3125,79.34375 L94.359375,79.34375 L94.359375,80.328125 L97.3125,80.328125 C97.3125,81.875 96.6796875,83.0703125 95.4140625,83.9140625 L95.4140625,83.9140625 L95.4140625,84.828125 Z M102.445312,79.34375 L98.71875,79.34375 L98.71875,76.6015625 L102.445312,76.6015625 L102.445312,79.34375 Z M4.7578125,99.234375 C5.77864583,98.8333333 6.5078125,98.3411458 6.9453125,97.7578125 L6.9453125,97.7578125 L13.2890625,97.7578125 L13.2890625,96.9921875 L7.3828125,96.9921875 C7.6015625,96.6640625 7.765625,96.2447917 7.875,95.734375 L7.875,95.734375 L6.78125,95.734375 C6.52604167,96.9739583 5.8515625,97.921875 4.7578125,98.578125 L4.7578125,98.578125 L4.7578125,99.234375 Z M1.8046875,108.257812 C2.82552083,108.294271 3.31770833,107.838542 3.28125,106.890625 L3.28125,106.890625 L3.28125,102.679688 C3.64583333,102.533854 4.06510417,102.351562 4.5390625,102.132812 L4.5390625,102.132812 L4.5390625,101.421875 C4.39322917,101.458333 4.19270833,101.53125 3.9375,101.640625 C3.64583333,101.75 3.42708333,101.822917 3.28125,101.859375 L3.28125,101.859375 L3.28125,98.7421875 L4.484375,98.7421875 L4.484375,98.03125 L3.28125,98.03125 L3.28125,95.7890625 L2.1875,95.7890625 L2.1875,98.03125 L0.765625,98.03125 L0.765625,98.7421875 L2.1875,98.7421875 L2.1875,102.132812 C1.71354167,102.242188 1.18489583,102.351562 0.6015625,102.460938 L0.6015625,102.460938 L0.6015625,103.390625 C1.18489583,103.28125 1.71354167,103.171875 2.1875,103.0625 L2.1875,103.0625 L2.1875,106.890625 C2.1875,107.291667 1.95052083,107.473958 1.4765625,107.4375 L1.4765625,107.4375 L0.875,107.4375 L0.875,108.257812 L1.8046875,108.257812 Z M11.4296875,107.929688 C12.7421875,108.002604 13.3619792,107.473958 13.2890625,106.34375 L13.2890625,106.34375 L13.2890625,105.796875 L12.46875,105.796875 L12.46875,106.234375 C12.5052083,106.927083 12.1588542,107.255208 11.4296875,107.21875 L11.4296875,107.21875 L7.9296875,107.21875 C7.0546875,107.255208 6.63541667,106.890625 6.671875,106.125 L6.671875,106.125 L6.671875,100.820312 L8.53125,100.820312 L8.53125,106.234375 L9.5703125,106.234375 L9.5703125,100.820312 L11.484375,100.820312 L11.484375,103.335938 C11.5208333,103.882812 11.2838542,104.138021 10.7734375,104.101562 L10.7734375,104.101562 L10.3359375,104.101562 L10.3359375,104.867188 L10.9921875,104.867188 C12.0494792,104.903646 12.5598958,104.393229 12.5234375,103.335938 L12.5234375,103.335938 L12.5234375,100.054688 L9.5703125,100.054688 L9.5703125,98.359375 L8.53125,98.359375 L8.53125,100.054688 L6.671875,100.054688 L6.671875,98.9609375 L5.6328125,98.9609375 L5.6328125,100.054688 L4.703125,100.054688 L4.703125,100.820312 L5.6328125,100.820312 L5.6328125,106.015625 C5.55989583,107.364583 6.234375,108.002604 7.65625,107.929688 L7.65625,107.929688 L11.4296875,107.929688 Z M25.59375,108.3125 C26.7239583,108.348958 27.2708333,107.674479 27.234375,106.289062 L27.234375,106.289062 L26.46875,106.289062 C26.46875,107.164062 26.1770833,107.583333 25.59375,107.546875 C24.9739583,107.510417 24.4817708,107.018229 24.1171875,106.070312 C25.1015625,105.596354 26.0494792,104.8125 26.9609375,103.71875 L26.9609375,103.71875 L25.7578125,103.71875 C25.2109375,104.302083 24.5729167,104.794271 23.84375,105.195312 C23.8072917,104.903646 23.7526042,104.575521 23.6796875,104.210938 L23.6796875,104.210938 L23.5703125,103.28125 L24.71875,103.28125 C25.9583333,103.317708 26.5598958,102.770833 26.5234375,101.640625 L26.5234375,101.640625 L26.5234375,97.15625 L23.2421875,97.15625 L23.2421875,95.7890625 L22.203125,95.7890625 L22.203125,95.7890625 L22.203125,97.15625 L19.1953125,97.15625 L19.1953125,103.28125 L22.53125,103.28125 C22.53125,103.609375 22.5677083,103.901042 22.640625,104.15625 C22.7135417,104.739583 22.8046875,105.25 22.9140625,105.6875 C21.7838542,106.161458 20.2708333,106.5625 18.375,106.890625 L18.375,106.890625 L18.375,107.492188 C20.4166667,107.236979 22.0208333,106.908854 23.1875,106.507812 C23.7708333,107.710938 24.5729167,108.3125 25.59375,108.3125 Z M15.96875,108.203125 C16.84375,108.166667 17.2994792,107.710938 17.3359375,106.835938 L17.3359375,106.835938 L17.3359375,102.679688 C17.7369792,102.570312 18.15625,102.388021 18.59375,102.132812 L18.59375,102.132812 L18.59375,101.421875 C18.15625,101.604167 17.7369792,101.75 17.3359375,101.859375 L17.3359375,101.859375 L17.3359375,98.8515625 L18.6484375,98.8515625 L18.6484375,98.0859375 L17.3359375,98.0859375 L17.3359375,95.84375 L16.2421875,95.84375 L16.2421875,98.0859375 L14.7109375,98.0859375 L14.7109375,98.8515625 L16.2421875,98.8515625 L16.2421875,102.132812 C15.7682292,102.242188 15.203125,102.351562 14.546875,102.460938 L14.546875,102.460938 L14.546875,103.445312 C15.0572917,103.335938 15.6223958,103.208333 16.2421875,103.0625 L16.2421875,103.0625 L16.2421875,106.835938 C16.2421875,107.200521 16.0234375,107.382812 15.5859375,107.382812 L15.5859375,107.382812 L14.9296875,107.382812 L14.9296875,108.203125 L15.96875,108.203125 Z M25.484375,99.78125 L23.296875,99.78125 L23.296875,99.78125 L23.296875,98.90625 C23.2604167,98.46875 23.2421875,98.1223958 23.2421875,97.8671875 L23.2421875,97.8671875 L25.484375,97.8671875 L25.484375,99.78125 Z M22.2578125,99.78125 L20.1796875,99.78125 L20.1796875,97.8671875 L22.203125,97.8671875 L22.2578125,99.78125 Z M22.421875,102.515625 L20.1796875,102.515625 L20.1796875,100.546875 L22.3125,100.546875 C22.3125,101.239583 22.3489583,101.895833 22.421875,102.515625 L22.421875,102.515625 Z M24.6813194,102.518056 L24.5546875,102.515625 L23.4609375,102.515625 C23.4244792,102.296875 23.40625,101.96875 23.40625,101.53125 C23.3697917,101.09375 23.3515625,100.765625 23.3515625,100.546875 L23.3515625,100.546875 L25.484375,100.546875 L25.484375,101.53125 C25.5208333,102.223958 25.2109375,102.552083 24.5546875,102.515625 L24.6813194,102.518056 Z M28.875,104.320312 C30.5520833,104.320312 31.9010417,104.229167 32.921875,104.046875 L32.921875,104.046875 L32.921875,103.28125 C32.1197917,103.427083 31.1171875,103.5 29.9140625,103.5 C31.3359375,102.078125 32.4479167,100.364583 33.25,98.359375 L33.25,98.359375 L32.15625,98.359375 C31.9375,98.90625 31.7005208,99.4166667 31.4453125,99.890625 L31.4453125,99.890625 L31.3359375,99.890625 C30.6796875,99.9635417 30.1145833,100 29.640625,100 C30.6979167,98.7604167 31.5,97.3385417 32.046875,95.734375 L32.046875,95.734375 L30.953125,95.734375 C30.515625,97.1927083 29.75,98.6145833 28.65625,100 L28.65625,100 L28.65625,100.765625 C29.75,100.765625 30.5338542,100.747396 31.0078125,100.710938 C30.4609375,101.622396 29.75,102.552083 28.875,103.5 L28.875,103.5 L28.875,104.320312 Z M41.3984375,107.765625 L41.3984375,107 L40.3046875,107 L40.3046875,96.5 L34.015625,96.5 L34.015625,107 L32.8125,107 L32.8125,107.765625 L41.3984375,107.765625 Z M39.2109375,100 L35.109375,100 L35.109375,97.265625 L39.2109375,97.265625 L39.2109375,100 Z M39.2109375,103.554688 L35.109375,103.554688 L35.109375,100.765625 L39.2109375,100.765625 L39.2109375,103.554688 Z M39.2109375,107 L35.109375,107 L35.109375,104.265625 L39.2109375,104.265625 L39.2109375,107 Z M28.65625,107 C30.4791667,107.036458 31.9739583,106.872396 33.140625,106.507812 L33.140625,106.507812 L33.140625,105.742188 C31.7552083,106.070312 30.2604167,106.216146 28.65625,106.179688 L28.65625,106.179688 L28.65625,107 Z M52.0625,108.367188 L52.0625,103.71875 L55.453125,103.71875 L55.453125,102.953125 L52.0625,102.953125 L52.0625,98.90625 L55.015625,98.90625 L55.015625,98.140625 L52.0625,98.140625 L52.0625,95.7890625 L50.859375,95.7890625 L50.859375,98.140625 L48.890625,98.140625 C49,97.703125 49.0911458,97.1744792 49.1640625,96.5546875 L49.1640625,96.5546875 L48.0703125,96.5546875 C48.0338542,98.1588542 47.46875,99.453125 46.375,100.4375 L46.375,100.4375 L46.375,101.203125 C47.5052083,100.473958 48.2526042,99.7083333 48.6171875,98.90625 L48.6171875,98.90625 L50.859375,98.90625 L50.859375,102.953125 L46.375,102.953125 L46.375,103.71875 L50.859375,103.71875 L50.859375,108.367188 L52.0625,108.367188 Z M45.390625,108.3125 L45.390625,98.6875 C45.828125,97.9947917 46.1927083,97.046875 46.484375,95.84375 L46.484375,95.84375 L45.3359375,95.84375 C44.9348958,97.8489583 43.9869792,99.3255208 42.4921875,100.273438 L42.4921875,100.273438 L42.4921875,100.984375 C43.2213542,100.65625 43.8046875,100.309896 44.2421875,99.9453125 L44.2421875,99.9453125 L44.2421875,108.3125 L45.390625,108.3125 Z M58.734375,108.695312 C60.0104167,107.966146 60.6119792,106.963542 60.5390625,105.6875 L60.5390625,105.6875 L60.5390625,104.320312 L59.0078125,104.320312 L59.0078125,105.90625 L59.7734375,105.90625 C59.7734375,106.744792 59.4270833,107.455729 58.734375,108.039062 L58.734375,108.039062 L58.734375,108.695312 Z M75.25,108.421875 L75.25,103.335938 L77.109375,103.335938 L77.109375,106.070312 C77.109375,106.471354 76.9270833,106.671875 76.5625,106.671875 L76.5625,106.671875 L76.1796875,106.671875 L76.1796875,107.273438 L76.8359375,107.273438 C77.7109375,107.309896 78.1302083,106.927083 78.09375,106.125 L78.09375,106.125 L78.09375,102.570312 L75.25,102.570312 L75.25,100.875 L78.53125,100.875 L78.53125,100.109375 L75.25,100.109375 L75.25,97.9765625 L78.0390625,97.9765625 L78.0390625,97.2109375 L75.25,97.2109375 L75.25,95.84375 L74.2109375,95.84375 L74.2109375,97.2109375 L72.84375,97.2109375 C72.953125,96.9557292 73.0260417,96.6458333 73.0625,96.28125 L73.0625,96.28125 L72.078125,96.28125 C71.9322917,97.375 71.4765625,98.25 70.7109375,98.90625 L70.7109375,98.90625 L70.7109375,99.6171875 C71.5494792,99.2161458 72.1692708,98.6692708 72.5703125,97.9765625 L72.5703125,97.9765625 L74.2109375,97.9765625 L74.2109375,100.109375 L70.6015625,100.109375 L70.6015625,100.875 L74.2109375,100.875 L74.2109375,102.570312 L71.4765625,102.570312 L71.4765625,107.328125 L72.4609375,107.328125 L72.4609375,103.335938 L74.2109375,103.335938 L74.2109375,108.421875 L75.25,108.421875 Z M81.265625,108.203125 C82.25,108.203125 82.7421875,107.674479 82.7421875,106.617188 L82.7421875,106.617188 L82.7421875,95.84375 L81.7578125,95.84375 L81.7578125,106.671875 C81.7578125,107.182292 81.4661458,107.419271 80.8828125,107.382812 L80.8828125,107.382812 L79.84375,107.382812 L79.84375,108.203125 L81.265625,108.203125 Z M80.2265625,105.6875 L80.2265625,96.7734375 L79.2421875,96.7734375 L79.2421875,105.6875 L80.2265625,105.6875 Z M87.4453125,108.367188 L87.4453125,98.6875 C87.8828125,97.9947917 88.2473958,97.0286458 88.5390625,95.7890625 L88.5390625,95.7890625 L87.3359375,95.7890625 C86.9713542,97.8671875 86.0598958,99.3619792 84.6015625,100.273438 L84.6015625,100.273438 L84.6015625,101.039062 C85.2942708,100.710938 85.859375,100.346354 86.296875,99.9453125 L86.296875,99.9453125 L86.296875,108.367188 L87.4453125,108.367188 Z M92.8046875,108.367188 L92.8046875,105.195312 L97.0703125,105.195312 L97.0703125,104.429688 L92.8046875,104.429688 L92.8046875,101.585938 L96.6328125,101.585938 L96.6328125,100.820312 L92.8046875,100.820312 L92.8046875,98.03125 L97.3984375,98.03125 L97.3984375,97.3203125 L91.4921875,97.3203125 C91.7109375,96.8828125 91.875,96.390625 91.984375,95.84375 L91.984375,95.84375 L90.78125,95.84375 C90.5260417,97.4114583 89.7057292,98.6692708 88.3203125,99.6171875 L88.3203125,99.6171875 L88.3203125,100.328125 C89.6328125,99.671875 90.5807292,98.90625 91.1640625,98.03125 L91.1640625,98.03125 L91.65625,98.03125 L91.65625,108.367188 L92.8046875,108.367188 Z M109.105159,108.039931 C110.194775,108.016782 110.722222,107.414931 110.6875,106.234375 L110.6875,106.234375 L110.6875,96.2265625 L99.2578125,96.2265625 L99.2578125,108.039062 L109.105159,108.039931 Z M108.743056,107.275868 L108.609375,107.273438 L100.351562,107.273438 L100.351562,96.9921875 L109.59375,96.9921875 L109.59375,106.289062 C109.630208,106.981771 109.302083,107.309896 108.609375,107.273438 L108.743056,107.275868 Z M109.046875,102.679688 L109.046875,102.078125 C107.84375,101.822917 106.841146,101.53125 106.039062,101.203125 C107.023438,100.65625 107.825521,99.9270833 108.445312,99.015625 L108.445312,99.015625 L108.445312,98.359375 L103.90625,98.359375 C104.015625,98.140625 104.125,97.8854167 104.234375,97.59375 L104.234375,97.59375 L103.195312,97.59375 C102.867188,98.4322917 102.247396,99.0885417 101.335938,99.5625 L101.335938,99.5625 L101.335938,100.164062 C101.736979,100.054688 102.065104,99.9088542 102.320312,99.7265625 C102.976562,100.419271 103.578125,100.911458 104.125,101.203125 C103.322917,101.53125 102.265625,101.822917 100.953125,102.078125 L100.953125,102.078125 L100.953125,102.679688 C102.666667,102.460938 104.033854,102.132812 105.054688,101.695312 C106.148438,102.096354 107.479167,102.424479 109.046875,102.679688 L109.046875,102.679688 Z M105.109375,100.820312 C104.526042,100.492188 103.960938,100.091146 103.414062,99.6171875 L103.414062,99.6171875 L102.59375,99.6171875 C102.921875,99.4348958 103.177083,99.234375 103.359375,99.015625 L103.359375,99.015625 L107.242188,99.015625 C106.695312,99.7447917 105.984375,100.346354 105.109375,100.820312 Z M107.625,104.484375 L107.625,103.609375 C106.020833,103.208333 104.325521,102.989583 102.539062,102.953125 L102.539062,102.953125 L102.539062,103.609375 C104.361979,103.682292 106.057292,103.973958 107.625,104.484375 L107.625,104.484375 Z M108.0625,106.726562 L108.0625,105.796875 C106.057292,105.322917 103.979167,105.013021 101.828125,104.867188 L101.828125,104.867188 L101.828125,105.523438 C103.979167,105.705729 106.057292,106.106771 108.0625,106.726562 L108.0625,106.726562 Z M115.664062,108.367188 C117.158854,108.075521 118.526042,107.638021 119.765625,107.054688 L119.765625,107.054688 L119.765625,106.34375 C118.598958,106.744792 117.596354,106.981771 116.757812,107.054688 L116.757812,107.054688 L116.757812,104.265625 C117.450521,103.828125 118.033854,103.335938 118.507812,102.789062 C119.638021,105.486979 121.880208,107.182292 125.234375,107.875 L125.234375,107.875 L125.234375,107.109375 C123.8125,106.78125 122.645833,106.234375 121.734375,105.46875 C122.828125,104.921875 123.630208,104.028646 124.140625,102.789062 L124.140625,102.789062 L123.046875,102.789062 C122.682292,103.773438 122.0625,104.502604 121.1875,104.976562 C120.604167,104.393229 120.09375,103.664062 119.65625,102.789062 L119.65625,102.789062 L118.5625,102.789062 C118.635417,102.679688 118.763021,102.533854 118.945312,102.351562 L119.048125,102.246562 C119.176458,102.112396 119.269792,102.001563 119.328125,101.914062 L119.328125,101.914062 L125.234375,101.914062 L125.234375,101.148438 L119.546875,101.148438 L119.546875,99.7265625 L124.304688,99.7265625 L124.304688,99.015625 L119.546875,99.015625 L119.546875,97.59375 L124.851562,97.59375 L124.851562,96.8828125 L119.546875,96.8828125 L119.546875,95.7890625 L118.398438,95.7890625 L118.398438,96.8828125 L113.203125,96.8828125 L113.203125,97.59375 L118.398438,97.59375 L118.398438,99.015625 L113.640625,99.015625 L113.640625,99.7265625 L118.398438,99.7265625 L118.398438,101.148438 L112.765625,101.148438 L112.765625,101.914062 L117.90625,101.914062 C116.739583,103.335938 114.989583,104.447917 112.65625,105.25 L112.65625,105.25 L112.65625,105.960938 C113.786458,105.632812 114.789062,105.268229 115.664062,104.867188 L115.664062,104.867188 L115.664062,108.367188 Z" id="新建数据屏拖拽组件，制作图表" fill="#C7D3E9" fill-rule="nonzero"></path>
                        <g id="编组-2" transform="translate(44.000000, 0.000000)">
                            <g id="椭圆形">
                                <use fill="black" fill-opacity="1" filter="url(#filter-6)" xlink:href="#path-5"></use>
                                <circle stroke="#A4B0C5" stroke-width="2" stroke-linejoin="square" cx="20" cy="20" r="19"></circle>
                            </g>
                            <g id="II" fill-rule="nonzero">
                                <use fill="black" fill-opacity="1" filter="url(#filter-8)" xlink:href="#path-7"></use>
                                <use fill="#C7D3E9" xlink:href="#path-7"></use>
                            </g>
                        </g>
                    </g>
                    <g id="编组-3备份-2" transform="translate(428.500000, 0.000000)">
                        <path d="M34.703125,81.171875 L34.703125,73.578125 L40.2578125,73.578125 L40.2578125,81.171875 L41.5234375,81.171875 L41.5234375,72.6640625 L37.65625,72.6640625 C37.890625,71.8671875 38.03125,71.09375 38.078125,70.34375 L38.078125,70.34375 L42.15625,70.34375 L42.15625,69.359375 L32.9453125,69.359375 L32.9453125,70.34375 L36.7421875,70.34375 C36.6953125,71.1875 36.5546875,71.9609375 36.3203125,72.6640625 L36.3203125,72.6640625 L33.4375,72.6640625 L33.4375,81.171875 L34.703125,81.171875 Z M27.53125,84.546875 C28.984375,84.59375 29.6875,83.9140625 29.640625,82.5078125 L29.640625,82.5078125 L29.640625,75.4765625 L31.2578125,75.4765625 L31.2578125,78.359375 L32.453125,78.359375 L32.453125,74.5625 L29.8515625,74.5625 C30.6484375,73.53125 31.375,72.125 32.03125,70.34375 L32.03125,70.34375 L32.03125,69.359375 L26.0546875,69.359375 L26.0546875,70.34375 L30.6953125,70.34375 C30.2265625,71.65625 29.640625,72.921875 28.9375,74.140625 C28.65625,73.15625 28.28125,72.265625 27.8125,71.46875 L27.8125,71.46875 L26.6875,71.46875 C27.109375,72.359375 27.484375,73.390625 27.8125,74.5625 L27.8125,74.5625 L25.7734375,74.5625 L25.7734375,75.4765625 L28.3046875,75.4765625 L28.3046875,82.578125 C28.3515625,83.28125 27.953125,83.609375 27.109375,83.5625 L27.109375,83.5625 L26.3359375,83.5625 L26.3359375,84.546875 L27.53125,84.546875 Z M42.15625,84.7578125 L42.15625,83.9140625 C39.4375,82.4609375 38.1015625,80.4453125 38.1484375,77.8671875 L38.1484375,74.7734375 L36.8125,74.7734375 L36.8125,77.8671875 C36.953125,80.5859375 35.4296875,82.6015625 32.2421875,83.9140625 L32.2421875,83.9140625 L32.2421875,84.7578125 C34.8671875,83.9140625 36.625,82.671875 37.515625,81.03125 C38.40625,82.671875 39.953125,83.9140625 42.15625,84.7578125 L42.15625,84.7578125 Z M51.015625,74.140625 C52.609375,73.25 53.640625,72.1953125 54.109375,70.9765625 L54.109375,70.9765625 L60.015625,70.9765625 L60.015625,69.9921875 L54.4609375,69.9921875 C54.484375,69.8984375 54.5136719,69.78125 54.5488281,69.640625 L54.671875,69.1484375 C54.71875,68.8671875 54.765625,68.65625 54.8125,68.515625 L54.8125,68.515625 L53.40625,68.515625 C53.171875,70.53125 52.375,72.078125 51.015625,73.15625 L51.015625,73.15625 L51.015625,74.140625 Z M50.1015625,74.421875 L50.1015625,68.515625 L48.6953125,68.515625 L48.6953125,74.421875 L50.1015625,74.421875 Z M46.234375,74.421875 L46.234375,68.9375 L44.8984375,68.9375 L44.8984375,74.421875 L46.234375,74.421875 Z M57.6953125,74.3515625 C57.5546875,73.6484375 57.15625,72.8046875 56.5,71.8203125 L56.5,71.8203125 L55.3046875,71.8203125 C55.7734375,72.6171875 56.125,73.4609375 56.359375,74.3515625 L56.359375,74.3515625 L57.6953125,74.3515625 Z M47.2890625,81.2421875 L47.2890625,76.390625 L56.2890625,76.390625 L56.2890625,81.2421875 L57.6953125,81.2421875 L57.6953125,75.40625 L45.8828125,75.40625 L45.8828125,81.2421875 L47.2890625,81.2421875 Z M44.125,84.7578125 C48.71875,84.1015625 51.3671875,82.7890625 52.0703125,80.8203125 L52.0703125,80.8203125 L52.0703125,82.15625 C52.0234375,83.609375 52.796875,84.3125 54.390625,84.265625 L54.390625,84.265625 L57.765625,84.265625 C59.3125,84.3125 60.0625,83.65625 60.015625,82.296875 L60.015625,82.296875 L60.015625,81.6640625 L58.890625,81.6640625 L58.890625,82.15625 C58.9375,82.953125 58.4453125,83.328125 57.4140625,83.28125 L57.4140625,83.28125 L54.8828125,83.28125 C53.8984375,83.375 53.4296875,82.953125 53.4765625,82.015625 L53.4765625,82.015625 L53.4765625,78.9921875 L52.4921875,78.9921875 C52.5390625,78.6640625 52.5625,78.359375 52.5625,78.078125 L52.5625,78.078125 L52.5625,77.234375 L51.0859375,77.234375 L51.0859375,78.359375 C51.3203125,81.265625 49,83.09375 44.125,83.84375 L44.125,83.84375 L44.125,84.7578125 Z M78.0859375,84.6875 L78.0859375,83.6328125 C76.7265625,82.7421875 75.71875,81.7578125 75.0625,80.6796875 C76.375,78.7109375 77.078125,75.8515625 77.171875,72.1015625 L77.171875,72.1015625 L78.2265625,72.1015625 L78.2265625,71.1171875 L73.5859375,71.1171875 C73.8671875,70.4609375 74.078125,69.640625 74.21875,68.65625 L74.21875,68.65625 L72.8125,68.65625 C72.578125,70.8125 71.828125,72.453125 70.5625,73.578125 L70.5625,73.578125 L70.5625,74.5625 C70.890625,74.375 71.1953125,74.140625 71.4765625,73.859375 C71.8984375,76.859375 72.625,79.109375 73.65625,80.609375 C72.90625,81.6875 71.8984375,82.6953125 70.6328125,83.6328125 L70.6328125,83.6328125 L70.6328125,84.6875 C72.3671875,83.5625 73.609375,82.53125 74.359375,81.59375 C75.25,82.671875 76.4921875,83.703125 78.0859375,84.6875 L78.0859375,84.6875 Z M70.9140625,76.671875 L70.9140625,75.8984375 C69.7890625,75.1015625 69.109375,74.1875 68.875,73.15625 L68.875,73.15625 L70.703125,73.15625 L70.703125,72.171875 L67.1875,72.171875 L67.1875,68.65625 L65.8515625,68.65625 L65.8515625,72.171875 L62.125,72.171875 L62.125,73.15625 L64.1640625,73.15625 C63.9296875,74.234375 63.2265625,75.125 62.0546875,75.828125 L62.0546875,75.828125 L62.0546875,76.671875 C63.8359375,75.96875 64.9140625,74.796875 65.2890625,73.15625 L65.2890625,73.15625 L65.8515625,73.15625 L65.8515625,76.53125 L67.1875,76.53125 L67.1875,73.15625 L67.6796875,73.15625 C68.0546875,74.796875 69.1328125,75.96875 70.9140625,76.671875 L70.9140625,76.671875 Z M69.6484375,71.5390625 C70.0703125,70.9765625 70.328125,70.15625 70.421875,69.078125 L70.421875,69.078125 L69.2265625,69.078125 C69.1796875,69.875 68.96875,70.6953125 68.59375,71.5390625 L68.59375,71.5390625 L69.6484375,71.5390625 Z M64.4453125,71.5390625 C64.0703125,70.6953125 63.8359375,69.875 63.7421875,69.078125 L63.7421875,69.078125 L62.6171875,69.078125 C62.7109375,70.015625 62.96875,70.8359375 63.390625,71.5390625 L63.390625,71.5390625 L64.4453125,71.5390625 Z M74.359375,79.484375 C73.46875,77.796875 72.9296875,75.734375 72.7421875,73.296875 L72.7421875,73.296875 L72.1796875,73.296875 C72.5078125,72.921875 72.8125,72.5234375 73.09375,72.1015625 L73.09375,72.1015625 L75.8359375,72.1015625 C75.7890625,75.2890625 75.296875,77.75 74.359375,79.484375 Z M70.28125,84.6875 L70.28125,83.7734375 C69.25,83.4921875 68.3359375,83.234375 67.5390625,83 C69.0390625,82.203125 69.8125,80.84375 69.859375,78.921875 L69.859375,78.921875 L71.0546875,78.921875 L71.0546875,78.0078125 L69.9296875,78.0078125 L69.9296875,76.7421875 L68.6640625,76.7421875 L68.6640625,78.0078125 L64.375,78.0078125 L64.375,76.7421875 L63.109375,76.7421875 L63.109375,78.0078125 L61.9140625,78.0078125 L61.9140625,78.921875 L63.109375,78.921875 C63.203125,80.75 63.953125,82.109375 65.359375,83 C64.46875,83.234375 63.3203125,83.4921875 61.9140625,83.7734375 L61.9140625,83.7734375 L61.9140625,84.6875 C63.7890625,84.359375 65.3125,83.9375 66.484375,83.421875 C67.140625,83.796875 68.40625,84.21875 70.28125,84.6875 L70.28125,84.6875 Z M66.4140625,82.4375 C65.1484375,81.640625 64.4921875,80.46875 64.4453125,78.921875 L64.4453125,78.921875 L68.59375,78.921875 C68.546875,80.515625 67.8203125,81.6875 66.4140625,82.4375 Z M81.4609375,84.546875 C82.6328125,84.5 83.21875,83.9375 83.21875,82.859375 L83.21875,82.859375 L83.21875,77.515625 C83.6875,77.375 84.203125,77.1640625 84.765625,76.8828125 L84.765625,76.8828125 L84.765625,75.8984375 C84.671875,75.9453125 84.5078125,75.9921875 84.2734375,76.0390625 C83.8046875,76.2734375 83.453125,76.4140625 83.21875,76.4609375 L83.21875,76.4609375 L83.21875,72.453125 L84.8359375,72.453125 L84.8359375,71.5390625 L83.21875,71.5390625 L83.21875,68.5859375 L81.8828125,68.5859375 L81.8828125,71.5390625 L79.984375,71.5390625 L79.984375,72.453125 L81.8828125,72.453125 L81.8828125,76.8125 C81.2734375,76.90625 80.8046875,76.9765625 80.4765625,77.0234375 C80.1953125,77.0703125 79.984375,77.1171875 79.84375,77.1640625 L79.84375,77.1640625 L79.84375,78.359375 C79.984375,78.3125 80.171875,78.2890625 80.40625,78.2890625 C81.0625,78.1484375 81.5546875,78.03125 81.8828125,77.9375 L81.8828125,77.9375 L81.8828125,82.7890625 C81.8828125,83.3046875 81.578125,83.5625 80.96875,83.5625 L80.96875,83.5625 L80.1953125,83.5625 L80.1953125,84.546875 L81.4609375,84.546875 Z M83.78125,84.7578125 C86.03125,83.1171875 87.0625,80.421875 86.875,76.671875 L86.875,76.671875 L90.671875,76.671875 L90.671875,78.921875 L87.4375,78.921875 L87.4375,84.1953125 L93.1328125,84.1953125 C94.6328125,84.2421875 95.359375,83.5859375 95.3125,82.2265625 L95.3125,82.2265625 L95.3125,78.921875 L92.0078125,78.921875 L92.0078125,76.671875 L96.15625,76.671875 L96.15625,75.7578125 L92.0078125,75.7578125 L92.0078125,73.71875 L93.625,73.71875 C94.890625,73.765625 95.5,73.1796875 95.453125,71.9609375 L95.453125,71.9609375 L95.453125,69.5 L85.5390625,69.5 L85.5390625,77.09375 C85.6328125,79.953125 85.046875,82.109375 83.78125,83.5625 L83.78125,83.5625 L83.78125,84.7578125 Z M93.34375,72.8046875 L86.875,72.8046875 L86.875,70.484375 L94.1875,70.484375 L94.1875,71.890625 C94.1875,72.5 93.90625,72.8046875 93.34375,72.8046875 L93.34375,72.8046875 Z M90.671875,75.7578125 L86.875,75.7578125 L86.875,73.71875 L90.671875,73.71875 L90.671875,75.7578125 Z M93.0045471,83.2850952 L92.8515625,83.28125 L88.7734375,83.28125 L88.7734375,79.8359375 L94.046875,79.8359375 L94.046875,82.15625 C94.09375,82.953125 93.6953125,83.328125 92.8515625,83.28125 L93.0045471,83.2850952 Z M97.9140625,84.7578125 C100.070312,83.5859375 101.078125,81.734375 100.9375,79.203125 L100.9375,79.203125 L100.9375,73.296875 L111.484375,73.296875 C112.84375,73.34375 113.5,72.734375 113.453125,71.46875 L113.453125,71.46875 L113.453125,69.359375 L99.53125,69.359375 L99.53125,79.4140625 C99.625,81.2421875 99.0859375,82.6953125 97.9140625,83.7734375 L97.9140625,83.7734375 L97.9140625,84.7578125 Z M110.992188,72.3828125 L100.9375,72.3828125 L100.9375,70.2734375 L112.046875,70.2734375 L112.046875,71.3984375 C112.046875,72.0546875 111.695312,72.3828125 110.992188,72.3828125 L110.992188,72.3828125 Z M102.414062,84.828125 C104.617188,83.84375 105.71875,82.34375 105.71875,80.328125 L105.71875,80.328125 L109.445312,80.328125 L109.445312,84.7578125 L110.78125,84.7578125 L110.78125,80.328125 L114.15625,80.328125 L114.15625,79.34375 L110.78125,79.34375 L110.78125,76.6015625 L113.3125,76.6015625 L113.3125,75.6875 L110.570312,75.6875 C110.851562,75.265625 111.039062,74.703125 111.132812,74 L111.132812,74 L109.726562,74 C109.726562,74.09375 109.703125,74.1875 109.65625,74.28125 C109.515625,74.890625 109.375,75.359375 109.234375,75.6875 L109.234375,75.6875 L105.789062,75.6875 C105.507812,75.171875 105.34375,74.609375 105.296875,74 L105.296875,74 L103.890625,74 C104.03125,74.703125 104.21875,75.265625 104.453125,75.6875 L104.453125,75.6875 L101.992188,75.6875 L101.992188,76.6015625 L104.3125,76.6015625 L104.3125,79.34375 L101.359375,79.34375 L101.359375,80.328125 L104.3125,80.328125 C104.3125,81.875 103.679688,83.0703125 102.414062,83.9140625 L102.414062,83.9140625 L102.414062,84.828125 Z M109.445312,79.34375 L105.71875,79.34375 L105.71875,76.6015625 L109.445312,76.6015625 L109.445312,79.34375 Z M7.546875,105.578125 L7.546875,99.671875 L11.8671875,99.671875 L11.8671875,105.578125 L12.8515625,105.578125 L12.8515625,98.9609375 L9.84375,98.9609375 C10.0260417,98.3411458 10.1354167,97.7395833 10.171875,97.15625 L10.171875,97.15625 L13.34375,97.15625 L13.34375,96.390625 L6.1796875,96.390625 L6.1796875,97.15625 L9.1328125,97.15625 C9.09635417,97.8125 8.98697917,98.4140625 8.8046875,98.9609375 L8.8046875,98.9609375 L6.5625,98.9609375 L6.5625,105.578125 L7.546875,105.578125 Z M1.96875,108.203125 C3.09895833,108.239583 3.64583333,107.710938 3.609375,106.617188 L3.609375,106.617188 L3.609375,101.148438 L4.8671875,101.148438 L4.8671875,103.390625 L5.796875,103.390625 L5.796875,100.4375 L3.7734375,100.4375 C4.39322917,99.6354167 4.95833333,98.5416667 5.46875,97.15625 L5.46875,97.15625 L5.46875,96.390625 L0.8203125,96.390625 L0.8203125,97.15625 L4.4296875,97.15625 C4.06510417,98.1770833 3.609375,99.1614583 3.0625,100.109375 C2.84375,99.34375 2.55208333,98.6510417 2.1875,98.03125 L2.1875,98.03125 L1.3125,98.03125 C1.640625,98.7239583 1.93229167,99.5260417 2.1875,100.4375 L2.1875,100.4375 L0.6015625,100.4375 L0.6015625,101.148438 L2.5703125,101.148438 L2.5703125,106.671875 C2.60677083,107.21875 2.296875,107.473958 1.640625,107.4375 L1.640625,107.4375 L1.0390625,107.4375 L1.0390625,108.203125 L1.96875,108.203125 Z M13.34375,108.367188 L13.34375,107.710938 C11.2291667,106.580729 10.1901042,105.013021 10.2265625,103.007812 L10.2265625,103.007812 L10.2265625,100.601562 L9.1875,100.601562 L9.1875,103.007812 C9.296875,105.122396 8.11197917,106.690104 5.6328125,107.710938 L5.6328125,107.710938 L5.6328125,108.367188 C7.67447917,107.710938 9.04166667,106.744792 9.734375,105.46875 C10.4270833,106.744792 11.6302083,107.710938 13.34375,108.367188 L13.34375,108.367188 Z M20.234375,100.109375 C21.4739583,99.4166667 22.2760417,98.5963542 22.640625,97.6484375 L22.640625,97.6484375 L27.234375,97.6484375 L27.234375,96.8828125 L22.9140625,96.8828125 C22.9505208,96.7369792 23.0052083,96.5182292 23.078125,96.2265625 C23.1145833,96.0078125 23.1510417,95.84375 23.1875,95.734375 L23.1875,95.734375 L22.09375,95.734375 C21.9114583,97.3020833 21.2916667,98.5052083 20.234375,99.34375 L20.234375,99.34375 L20.234375,100.109375 Z M19.5234375,100.328125 L19.5234375,95.734375 L18.4296875,95.734375 L18.4296875,100.328125 L19.5234375,100.328125 Z M16.515625,100.328125 L16.515625,96.0625 L15.4765625,96.0625 L15.4765625,100.328125 L16.515625,100.328125 Z M25.4296875,100.273438 C25.3203125,99.7265625 25.0104167,99.0703125 24.5,98.3046875 L24.5,98.3046875 L23.5703125,98.3046875 C23.9348958,98.9244792 24.2083333,99.5807292 24.390625,100.273438 L24.390625,100.273438 L25.4296875,100.273438 Z M17.3359375,105.632812 L17.3359375,101.859375 L24.3359375,101.859375 L24.3359375,105.632812 L25.4296875,105.632812 L25.4296875,101.09375 L16.2421875,101.09375 L16.2421875,105.632812 L17.3359375,105.632812 Z M14.875,108.367188 C18.4479167,107.856771 20.5078125,106.835938 21.0546875,105.304688 L21.0546875,105.304688 L21.0540039,106.508906 C21.0799805,107.527187 21.6817708,108.01901 22.859375,107.984375 L22.859375,107.984375 L25.484375,107.984375 C26.6875,108.020833 27.2708333,107.510417 27.234375,106.453125 L27.234375,106.453125 L27.234375,105.960938 L26.359375,105.960938 L26.359375,106.34375 C26.3958333,106.963542 26.0130208,107.255208 25.2109375,107.21875 L25.2109375,107.21875 L23.2421875,107.21875 C22.4765625,107.291667 22.1119792,106.963542 22.1484375,106.234375 L22.1484375,106.234375 L22.1484375,103.882812 L21.3828125,103.882812 C21.4192708,103.627604 21.4375,103.390625 21.4375,103.171875 L21.4375,103.171875 L21.4375,102.515625 L20.2890625,102.515625 L20.2890625,103.390625 C20.4713542,105.651042 18.6666667,107.072917 14.875,107.65625 L14.875,107.65625 L14.875,108.367188 Z M41.34375,108.367188 L41.34375,107.546875 C40.25,106.817708 39.3567708,105.997396 38.6640625,105.085938 C39.7213542,103.518229 40.2864583,101.294271 40.359375,98.4140625 L40.359375,98.4140625 L41.2890625,98.4140625 L41.2890625,97.6484375 L37.515625,97.6484375 C37.6614583,97.1380208 37.7890625,96.5364583 37.8984375,95.84375 L37.8984375,95.84375 L36.859375,95.84375 C36.6770833,97.484375 36.1119792,98.8151042 35.1640625,99.8359375 L35.1640625,99.8359375 L35.1640625,100.546875 C34.2526042,100.145833 33.6875,99.453125 33.46875,98.46875 L33.46875,98.46875 L32.4296875,98.46875 C32.7578125,99.9270833 33.7239583,100.856771 35.328125,101.257812 L35.328125,101.257812 L35.328125,100.601562 L35.21875,100.546875 C35.2916667,100.510417 35.3645833,100.455729 35.4375,100.382812 C35.6197917,100.273438 35.7473958,100.182292 35.8203125,100.109375 C36.1848958,102.1875 36.7682292,103.828125 37.5703125,105.03125 C36.9505208,105.979167 36.1302083,106.835938 35.109375,107.601562 L35.109375,107.601562 L35.109375,108.367188 C36.5677083,107.455729 37.5885417,106.617188 38.171875,105.851562 C38.7916667,106.653646 39.8489583,107.492188 41.34375,108.367188 L41.34375,108.367188 Z M35.109375,97.8671875 L35.109375,97.1015625 L32.5390625,97.1015625 L32.5390625,95.84375 L31.390625,95.84375 L31.390625,97.1015625 L28.8203125,97.1015625 L28.8203125,97.8671875 L35.109375,97.8671875 Z M38.1171875,104.15625 C37.4973958,102.989583 37.0598958,101.494792 36.8046875,99.671875 L36.8046875,99.671875 L36.3125,99.671875 C36.6770833,99.3072917 36.96875,98.8880208 37.1875,98.4140625 L37.1875,98.4140625 L39.3203125,98.4140625 C39.2838542,100.710938 38.8828125,102.625 38.1171875,104.15625 Z M28.546875,101.257812 C30.1510417,100.856771 31.1171875,99.9270833 31.4453125,98.46875 L31.4453125,98.46875 L30.4609375,98.46875 C30.1692708,99.4895833 29.53125,100.200521 28.546875,100.601562 L28.546875,100.601562 L28.546875,101.257812 Z M34.890625,108.367188 L34.890625,107.65625 C33.6875,106.927083 32.8854167,106.289062 32.484375,105.742188 C33.3229167,104.794271 33.9791667,103.372396 34.453125,101.476562 L34.453125,101.476562 L33.4140625,101.476562 C33.1223958,102.934896 32.6119792,104.119792 31.8828125,105.03125 C31.2994792,104.15625 30.8255208,102.971354 30.4609375,101.476562 L30.4609375,101.476562 L29.421875,101.476562 C29.8958333,103.263021 30.5338542,104.684896 31.3359375,105.742188 C30.7161458,106.361979 29.8046875,107 28.6015625,107.65625 L28.6015625,107.65625 L28.6015625,108.367188 C30.1328125,107.638021 31.2265625,106.981771 31.8828125,106.398438 C32.7578125,107.127604 33.7604167,107.783854 34.890625,108.367188 L34.890625,108.367188 Z M49.546875,108.367188 L49.546875,103.882812 L51.0234375,103.882812 C51.4973958,105.815104 52.9192708,107.164062 55.2890625,107.929688 L55.2890625,107.929688 L55.2890625,107.21875 C53.6484375,106.5625 52.609375,105.450521 52.171875,103.882812 L52.171875,103.882812 L55.234375,103.882812 L55.234375,103.117188 L49.546875,103.117188 L49.546875,101.804688 L52.2265625,101.804688 C53.4296875,101.841146 54.0130208,101.294271 53.9765625,100.164062 L53.9765625,100.164062 L53.9765625,96.4453125 L44.0234375,96.4453125 L44.0234375,101.804688 L48.3984375,101.804688 L48.3984375,103.117188 L42.8203125,103.117188 L42.8203125,103.882812 L45.7734375,103.882812 C45.2994792,105.450521 44.2786458,106.5625 42.7109375,107.21875 L42.7109375,107.21875 L42.7109375,107.929688 C45.1171875,107.164062 46.5208333,105.815104 46.921875,103.882812 L46.921875,103.882812 L48.3984375,103.882812 L48.3984375,108.367188 L49.546875,108.367188 Z M52.8828125,98.7421875 L49.546875,98.7421875 L49.546875,97.15625 L52.8828125,97.15625 L52.8828125,98.7421875 Z M48.3984375,98.7421875 L45.1171875,98.7421875 L45.1171875,97.15625 L48.3984375,97.15625 L48.3984375,98.7421875 Z M48.3984375,101.039062 L45.1171875,101.039062 L45.1171875,99.453125 L48.3984375,99.453125 L48.3984375,101.039062 Z M52.0797569,101.041493 L51.953125,101.039062 L49.546875,101.039062 L49.546875,99.453125 L52.8828125,99.453125 L52.8828125,100.054688 C52.9192708,100.747396 52.609375,101.075521 51.953125,101.039062 L52.0797569,101.041493 Z M58.734375,108.695312 C60.0104167,107.966146 60.6119792,106.963542 60.5390625,105.6875 L60.5390625,105.6875 L60.5390625,104.320312 L59.0078125,104.320312 L59.0078125,105.90625 L59.7734375,105.90625 C59.7734375,106.744792 59.4270833,107.455729 58.734375,108.039062 L58.734375,108.039062 L58.734375,108.695312 Z M83.125,108.3125 L83.125,107.601562 C81.15625,107.054688 79.7526042,106.471354 78.9140625,105.851562 C80.1901042,104.867188 81.2291667,103.463542 82.03125,101.640625 L82.03125,101.640625 L82.03125,100.820312 L75.46875,100.820312 C75.6875,100.236979 75.8880208,99.6171875 76.0703125,98.9609375 L76.0703125,98.9609375 L83.2890625,98.9609375 L83.2890625,98.140625 L81.15625,98.140625 L81.15625,96.171875 L80.0625,96.171875 L80.0625,98.140625 L76.2890625,98.140625 C76.4713542,97.4479167 76.6354167,96.6640625 76.78125,95.7890625 L76.78125,95.7890625 L75.578125,95.7890625 C75.46875,96.6640625 75.3046875,97.4479167 75.0859375,98.140625 L75.0859375,98.140625 L72.3515625,98.140625 C72.6067708,97.703125 72.8619792,97.046875 73.1171875,96.171875 L73.1171875,96.171875 L71.9140625,96.171875 C71.7682292,96.9739583 71.5494792,97.6302083 71.2578125,98.140625 L71.2578125,98.140625 L71.2578125,98.9609375 L74.921875,98.9609375 C74.2291667,101.622396 72.8255208,104.15625 70.7109375,106.5625 L70.7109375,106.5625 L70.7109375,107.328125 C72.5703125,105.614583 73.9192708,103.9375 74.7578125,102.296875 C75.5963542,103.864583 76.4713542,105.03125 77.3828125,105.796875 C76.3984375,106.489583 74.9583333,107.091146 73.0625,107.601562 L73.0625,107.601562 L73.0625,108.3125 C75.2864583,107.729167 76.9817708,107.091146 78.1484375,106.398438 C79.3151042,107.127604 80.9739583,107.765625 83.125,108.3125 L83.125,108.3125 Z M78.203125,105.25 C77.328125,104.484375 76.5989583,103.5 76.015625,102.296875 L76.015625,102.296875 L74.7578125,102.296875 C74.8671875,102.078125 74.9765625,101.841146 75.0859375,101.585938 L75.0859375,101.585938 L80.828125,101.585938 C80.0989583,103.153646 79.2239583,104.375 78.203125,105.25 Z M92.203125,108.367188 L92.203125,101.585938 L95.1015625,101.585938 L95.1015625,105.632812 C95.1015625,106.143229 94.8645833,106.398438 94.390625,106.398438 L94.390625,106.398438 L93.734375,106.398438 L93.734375,107.109375 L94.609375,107.109375 C95.703125,107.145833 96.2317708,106.653646 96.1953125,105.632812 L96.1953125,105.632812 L96.1953125,100.765625 L92.203125,100.765625 L92.203125,98.90625 L91.0546875,98.90625 L91.0546875,100.765625 L88.265625,100.765625 C88.8854167,100 89.4322917,99.1067708 89.90625,98.0859375 L89.90625,98.0859375 L97.2890625,98.0859375 L97.2890625,97.3203125 L90.234375,97.3203125 C90.3072917,97.1015625 90.4348958,96.7916667 90.6171875,96.390625 C90.6901042,96.1354167 90.7630208,95.9348958 90.8359375,95.7890625 L90.8359375,95.7890625 L89.578125,95.7890625 C89.5052083,95.9348958 89.4322917,96.1354167 89.359375,96.390625 C89.1770833,96.7916667 89.0494792,97.1015625 88.9765625,97.3203125 L88.9765625,97.3203125 L85.0390625,97.3203125 L85.0390625,98.0859375 L88.6484375,98.0859375 C87.8828125,99.7994792 86.625,101.494792 84.875,103.171875 L84.875,103.171875 L84.875,104.046875 C85.7135417,103.390625 86.4609375,102.734375 87.1171875,102.078125 L87.1171875,102.078125 L87.1171875,107.273438 L88.2109375,107.273438 L88.2109375,101.585938 L91.0546875,101.585938 L91.0546875,108.367188 L92.203125,108.367188 Z M111.289062,108.3125 L111.289062,107.492188 C110.231771,106.799479 109.447917,106.033854 108.9375,105.195312 C109.958333,103.664062 110.505208,101.440104 110.578125,98.5234375 L110.578125,98.5234375 L111.398438,98.5234375 L111.398438,97.7578125 L107.789062,97.7578125 C108.007812,97.2473958 108.171875,96.609375 108.28125,95.84375 L108.28125,95.84375 L107.1875,95.84375 C107.005208,97.5208333 106.421875,98.796875 105.4375,99.671875 L105.4375,99.671875 L105.4375,100.4375 C105.692708,100.291667 105.929688,100.109375 106.148438,99.890625 C106.476562,102.223958 107.041667,103.973958 107.84375,105.140625 C107.260417,105.979167 106.476562,106.763021 105.492188,107.492188 L105.492188,107.492188 L105.492188,108.3125 C106.841146,107.4375 107.807292,106.635417 108.390625,105.90625 C109.083333,106.744792 110.049479,107.546875 111.289062,108.3125 L111.289062,108.3125 Z M105.710938,102.078125 L105.710938,101.476562 C104.835938,100.856771 104.307292,100.145833 104.125,99.34375 L104.125,99.34375 L105.546875,99.34375 L105.546875,98.578125 L102.8125,98.578125 L102.8125,95.84375 L101.773438,95.84375 L101.773438,98.578125 L98.875,98.578125 L98.875,99.34375 L100.460938,99.34375 C100.278646,100.182292 99.7317708,100.875 98.8203125,101.421875 L98.8203125,101.421875 L98.8203125,102.078125 C100.205729,101.53125 101.044271,100.619792 101.335938,99.34375 L101.335938,99.34375 L101.773438,99.34375 L101.773438,101.96875 L102.8125,101.96875 L102.8125,99.34375 L103.195312,99.34375 C103.486979,100.619792 104.325521,101.53125 105.710938,102.078125 L105.710938,102.078125 Z M104.726562,98.0859375 C105.054688,97.6484375 105.255208,97.0104167 105.328125,96.171875 L105.328125,96.171875 L104.398438,96.171875 C104.361979,96.7916667 104.197917,97.4296875 103.90625,98.0859375 L103.90625,98.0859375 L104.726562,98.0859375 Z M100.679688,98.0859375 C100.388021,97.4296875 100.205729,96.7916667 100.132812,96.171875 L100.132812,96.171875 L99.2578125,96.171875 C99.3307292,96.9010417 99.53125,97.5390625 99.859375,98.0859375 L99.859375,98.0859375 L100.679688,98.0859375 Z M108.390625,104.265625 C107.697917,102.953125 107.278646,101.348958 107.132812,99.453125 L107.132812,99.453125 L106.695312,99.453125 C106.950521,99.1614583 107.1875,98.8515625 107.40625,98.5234375 L107.40625,98.5234375 L109.539062,98.5234375 C109.502604,101.002604 109.119792,102.916667 108.390625,104.265625 Z M105.21875,108.3125 L105.21875,107.601562 C104.416667,107.382812 103.705729,107.182292 103.085938,107 C104.252604,106.380208 104.854167,105.322917 104.890625,103.828125 L104.890625,103.828125 L105.820312,103.828125 L105.820312,103.117188 L104.945312,103.117188 L104.945312,102.132812 L103.960938,102.132812 L103.960938,103.117188 L100.625,103.117188 L100.625,102.132812 L99.640625,102.132812 L99.640625,103.117188 L98.7109375,103.117188 L98.7109375,103.828125 L99.640625,103.828125 C99.7135417,105.25 100.296875,106.307292 101.390625,107 C100.697917,107.182292 99.8046875,107.382812 98.7109375,107.601562 L98.7109375,107.601562 L98.7109375,108.3125 C100.169271,108.057292 101.354167,107.729167 102.265625,107.328125 C102.776042,107.619792 103.760417,107.947917 105.21875,108.3125 L105.21875,108.3125 Z M102.210938,106.5625 C101.226562,105.942708 100.716146,105.03125 100.679688,103.828125 L100.679688,103.828125 L103.90625,103.828125 C103.869792,105.067708 103.304688,105.979167 102.210938,106.5625 Z M113.914062,108.203125 C114.825521,108.166667 115.28125,107.729167 115.28125,106.890625 L115.28125,106.890625 L115.28125,102.734375 C115.645833,102.625 116.046875,102.460938 116.484375,102.242188 L116.484375,102.242188 L116.484375,101.476562 C116.411458,101.513021 116.283854,101.549479 116.101562,101.585938 C115.736979,101.768229 115.463542,101.877604 115.28125,101.914062 L115.28125,101.914062 L115.28125,98.796875 L116.539062,98.796875 L116.539062,98.0859375 L115.28125,98.0859375 L115.28125,95.7890625 L114.242188,95.7890625 L114.242188,98.0859375 L112.765625,98.0859375 L112.765625,98.796875 L114.242188,98.796875 L114.242188,102.1875 C113.768229,102.260417 113.403646,102.315104 113.148438,102.351562 C112.929688,102.388021 112.765625,102.424479 112.65625,102.460938 L112.65625,102.460938 L112.65625,103.390625 C112.765625,103.354167 112.911458,103.335938 113.09375,103.335938 C113.604167,103.226562 113.986979,103.135417 114.242188,103.0625 L114.242188,103.0625 L114.242188,106.835938 C114.242188,107.236979 114.005208,107.4375 113.53125,107.4375 L113.53125,107.4375 L112.929688,107.4375 L112.929688,108.203125 L113.914062,108.203125 Z M115.71875,108.367188 C117.46875,107.091146 118.270833,104.994792 118.125,102.078125 L118.125,102.078125 L121.078125,102.078125 L121.078125,103.828125 L118.5625,103.828125 L118.5625,107.929688 L122.992188,107.929688 C124.158854,107.966146 124.723958,107.455729 124.6875,106.398438 L124.6875,106.398438 L124.6875,103.828125 L122.117188,103.828125 L122.117188,102.078125 L125.34375,102.078125 L125.34375,101.367188 L122.117188,101.367188 L122.117188,99.78125 L123.375,99.78125 C124.359375,99.8177083 124.833333,99.3619792 124.796875,98.4140625 L124.796875,98.4140625 L124.796875,96.5 L117.085938,96.5 L117.085938,102.40625 C117.158854,104.630208 116.703125,106.307292 115.71875,107.4375 L115.71875,107.4375 L115.71875,108.367188 Z M123.15625,99.0703125 L118.125,99.0703125 L118.125,97.265625 L123.8125,97.265625 L123.8125,98.359375 C123.8125,98.8333333 123.59375,99.0703125 123.15625,99.0703125 L123.15625,99.0703125 Z M121.078125,101.367188 L118.125,101.367188 L118.125,99.78125 L121.078125,99.78125 L121.078125,101.367188 Z M122.900069,107.221667 L122.773438,107.21875 L119.601562,107.21875 L119.601562,104.539062 L123.703125,104.539062 L123.703125,106.34375 C123.739583,106.963542 123.429688,107.255208 122.773438,107.21875 L122.900069,107.221667 Z M126.710938,108.367188 C128.388021,107.455729 129.171875,106.015625 129.0625,104.046875 L129.0625,104.046875 L129.0625,99.453125 L137.265625,99.453125 C138.322917,99.4895833 138.833333,99.015625 138.796875,98.03125 L138.796875,98.03125 L138.796875,96.390625 L127.96875,96.390625 L127.96875,104.210938 C128.041667,105.632812 127.622396,106.763021 126.710938,107.601562 L126.710938,107.601562 L126.710938,108.367188 Z M136.882812,98.7421875 L129.0625,98.7421875 L129.0625,97.1015625 L137.703125,97.1015625 L137.703125,97.9765625 C137.703125,98.4869792 137.429688,98.7421875 136.882812,98.7421875 L136.882812,98.7421875 Z M130.210938,108.421875 C131.924479,107.65625 132.78125,106.489583 132.78125,104.921875 L132.78125,104.921875 L135.679688,104.921875 L135.679688,108.367188 L136.71875,108.367188 L136.71875,104.921875 L139.34375,104.921875 L139.34375,104.15625 L136.71875,104.15625 L136.71875,102.023438 L138.6875,102.023438 L138.6875,101.3125 L136.554688,101.3125 C136.773438,100.984375 136.919271,100.546875 136.992188,100 L136.992188,100 L135.898438,100 C135.898438,100.072917 135.880208,100.145833 135.84375,100.21875 C135.734375,100.692708 135.625,101.057292 135.515625,101.3125 L135.515625,101.3125 L132.835938,101.3125 C132.617188,100.911458 132.489583,100.473958 132.453125,100 L132.453125,100 L131.359375,100 C131.46875,100.546875 131.614583,100.984375 131.796875,101.3125 L131.796875,101.3125 L129.882812,101.3125 L129.882812,102.023438 L131.6875,102.023438 L131.6875,104.15625 L129.390625,104.15625 L129.390625,104.921875 L131.6875,104.921875 C131.6875,106.125 131.195312,107.054688 130.210938,107.710938 L130.210938,107.710938 L130.210938,108.421875 Z M135.679688,104.15625 L132.78125,104.15625 L132.78125,102.023438 L135.679688,102.023438 L135.679688,104.15625 Z" id="预览数据屏预览效果，发布数据屏" fill="#C7D3E9" fill-rule="nonzero"></path>
                        <g id="编组-2" transform="translate(51.000000, 0.000000)">
                            <g id="椭圆形">
                                <use fill="black" fill-opacity="1" filter="url(#filter-10)" xlink:href="#path-9"></use>
                                <circle stroke="#A4B0C5" stroke-width="2" stroke-linejoin="square" cx="20" cy="20" r="19"></circle>
                            </g>
                            <g id="III" fill-rule="nonzero">
                                <use fill="black" fill-opacity="1" filter="url(#filter-12)" xlink:href="#path-11"></use>
                                <use fill="#C7D3E9" xlink:href="#path-11"></use>
                            </g>
                        </g>
                    </g>
                    <line x1="119" y1="21.5" x2="239" y2="21.5" id="直线" stroke="url(#linearGradient-13)" stroke-linecap="square"></line>
                    <line x1="328" y1="21.5" x2="448" y2="21.5" id="直线" stroke="url(#linearGradient-13)" stroke-linecap="square"></line>
                </g>
            </g>
        </g>
    </g>
</svg>