<?xml version="1.0" encoding="UTF-8" standalone="no"?>
<!DOCTYPE svg PUBLIC "-//W3C//DTD SVG 1.1//EN" "http://www.w3.org/Graphics/SVG/1.1/DTD/svg11.dtd">
<svg width="100%" height="100%" viewBox="0 0 43 36" version="1.1" xmlns="http://www.w3.org/2000/svg" xmlns:xlink="http://www.w3.org/1999/xlink" xml:space="preserve" xmlns:serif="http://www.serif.com/" style="fill-rule:evenodd;clip-rule:evenodd;stroke-linejoin:round;stroke-miterlimit:2;">
    <g transform="matrix(1,0,0,1,-150.651,-1288.78)">
        <g transform="matrix(1.65517,0,0,1.77049,-66.2069,1004.95)">
            <g id="图层_1-2" transform="matrix(0.219767,0,0,0.205452,131.018,160.315)">
                <g opacity="0.3">
                    <g transform="matrix(5.90325,0,0,5.90325,-60.054,-66.8869)">
                        <path d="M29.739,18.652C29.204,16.806 28.14,15.156 26.678,13.909C24.718,12.194 22.641,11.349 20.318,11.331C19.871,11.313 19.441,11.509 19.16,11.857C18.885,12.238 18.807,12.726 18.948,13.174L19.244,14.268L18.304,14.21C18.096,14.197 17.889,14.19 17.691,14.19C16.878,14.181 16.069,14.316 15.302,14.586C12.57,15.581 10.907,17.442 10.356,20.114C9.941,22.133 10.231,23.829 11.242,25.297C12.38,26.962 14.268,27.963 16.285,27.971C16.979,27.972 17.669,27.858 18.326,27.632C20.845,26.746 22.483,24.35 22.314,21.786C22.3,21.591 22.268,21.391 22.233,21.179L22.15,20.63L22.539,20.612C22.644,20.612 22.736,20.6 22.837,20.6L28.217,20.62C28.822,20.62 29.307,20.422 29.573,20.061C29.838,19.7 29.899,19.218 29.739,18.652ZM20.721,24.544C19.659,26.187 18.201,27.02 16.387,27.02C16.117,27.019 15.848,27.001 15.58,26.966C13.057,26.653 11.137,24.493 11.123,21.95C11.093,20.022 11.721,18.349 12.941,17.109C14.261,15.812 16.044,15.094 17.894,15.115C18.064,15.115 18.233,15.115 18.402,15.132C18.714,15.154 19.024,15.195 19.331,15.257L19.429,15.279L19.471,15.369C19.603,15.671 19.711,15.983 19.795,16.302C19.939,16.829 20.085,17.371 20.193,17.79L20.306,18.276L19.829,17.998C19.147,17.646 18.394,17.455 17.627,17.441C16.915,17.448 16.217,17.632 15.594,17.976C14.595,18.506 13.875,19.444 13.622,20.546C13.383,21.573 13.604,22.655 14.225,23.507C14.777,24.267 15.657,24.722 16.597,24.733C17.056,24.738 17.507,24.614 17.899,24.374C18.523,23.994 18.916,23.325 18.946,22.596C18.974,21.953 18.674,21.338 18.15,20.964C17.93,20.814 17.682,20.71 17.42,20.659C17.383,20.651 17.346,20.647 17.308,20.647C17.116,20.656 16.953,20.797 16.917,20.986C16.873,21.134 16.851,21.35 17.173,21.53C17.85,21.908 18.206,22.28 17.908,22.972C17.691,23.48 17.186,23.808 16.634,23.802C16.461,23.802 16.29,23.775 16.126,23.72C14.885,23.322 14.175,21.992 14.533,20.739C14.903,19.33 16.196,18.347 17.652,18.367C18.085,18.372 18.514,18.456 18.917,18.615C20.009,19.018 20.859,19.896 21.228,21C21.604,22.196 21.418,23.501 20.721,24.544ZM28.842,19.238C28.838,19.327 28.81,19.414 28.761,19.489C28.711,19.562 28.637,19.617 28.553,19.645C28.476,19.67 28.396,19.684 28.316,19.685L28.053,19.685C27.698,19.678 27.346,19.675 26.994,19.675L25.438,19.675L25.236,19.665L22.695,19.665C22.077,19.696 21.521,19.269 21.392,18.664C20.91,16.885 20.418,15.057 19.888,13.074C19.829,12.848 19.79,12.616 19.92,12.449C20.059,12.307 20.256,12.239 20.452,12.264L20.535,12.264C22.139,12.315 23.696,12.865 25.165,13.9L25.334,14.017C25.416,14.076 25.504,14.137 25.575,14.2L25.812,14.386L26.041,14.58L26.264,14.778L26.479,14.983C26.55,15.052 26.62,15.122 26.689,15.193C26.759,15.264 26.825,15.335 26.891,15.408C26.957,15.481 27.021,15.555 27.086,15.63C27.15,15.704 27.213,15.781 27.274,15.857C27.335,15.933 27.396,16.013 27.453,16.091L27.792,16.577C27.85,16.653 27.899,16.746 27.95,16.827C28.001,16.909 28.05,16.997 28.099,17.087C28.148,17.176 28.194,17.256 28.239,17.351C28.285,17.446 28.331,17.53 28.373,17.62C28.416,17.71 28.458,17.805 28.499,17.896L28.69,18.381C28.69,18.406 28.707,18.432 28.717,18.457L28.795,18.679C28.808,18.715 28.817,18.752 28.82,18.789C28.831,18.845 28.839,18.899 28.846,18.959C28.855,19.052 28.854,19.145 28.842,19.238ZM25.002,15.828C24.461,15.828 24.016,16.273 24.016,16.814C24.016,17.355 24.461,17.8 25.002,17.8C25.543,17.8 25.988,17.355 25.988,16.814C25.987,16.273 25.543,15.829 25.002,15.828ZM25.849,16.77C25.849,16.77 25.849,16.771 25.849,16.772C25.849,17.003 25.659,17.193 25.427,17.193C25.196,17.193 25.006,17.003 25.006,16.772C25.006,16.54 25.196,16.35 25.427,16.35L25.432,16.35C25.663,16.35 25.853,16.539 25.853,16.77L25.849,16.77Z" style="fill:white;fill-rule:nonzero;"/>
                    </g>
                </g>
            </g>
        </g>
    </g>
</svg>
