<?xml version="1.0" encoding="UTF-8"?>
<svg width="160px" height="171px" viewBox="0 0 160 171" version="1.1" xmlns="http://www.w3.org/2000/svg" xmlns:xlink="http://www.w3.org/1999/xlink">
    <title>waveview-line</title>
    <g id="发布分享" stroke="none" stroke-width="1" fill="none" fill-rule="evenodd" fill-opacity="0.1">
        <g id="页面3" transform="translate(-880.000000, -147.000000)" fill="#FFFFFF">
            <g id="waveview-line" transform="translate(880.000000, 147.000000)">
                <path d="M81.0484472,170.711766 C83.7899306,170.772992 86.5328817,170.693205 89.2653562,170.472752 C94.7695865,170.037935 100.221712,169.1323 105.55596,167.766772 C131.782042,160.442699 147.562446,143.498312 149.862823,126.79294 L149.862823,126.79294 C151.237733,117.351661 147.906584,107.840126 140.858236,101.08186 C121.470627,81.9180569 88.8715175,93.4590197 85.4970352,98.2819812 C91.0644834,97.9319964 94.7970009,97.3259251 98.4758131,97.5307943 C110.604257,98.2136915 116.288067,109.481495 109.503299,119.016448 C101.537014,130.250107 85.2553614,134.748692 71.7216289,129.447702 C71.4083481,129.328195 71.0503128,129.191616 70.8265408,129.063573 C59.6121938,124.262527 52.2525141,113.780827 51.8685742,102.063525 C51.8338104,100.153197 52.0108274,98.2447145 52.3966762,96.3698691 C55.5652882,80.9022473 68.0875711,75.9597788 85.1031964,76.0109961 C89.059486,76.0109961 95.3967099,75.9512426 101.026814,75.8829529 C106.77078,77.9901519 112.892403,79.0023087 119.044938,78.8620919 C134.879047,78.7425849 159.896761,75.2085919 159.977318,70.9831654 C161.686937,-17.1703276 66.1810334,1.69470769 66.1273281,1.69470769 C62.3870895,2.03715649 59.6371652,5.19333953 59.9691218,8.76269377 C59.9851342,8.96353391 60.0150355,9.16314652 60.0586306,9.36022883 C60.4427798,11.0827145 60.9542574,12.7771169 61.5892313,14.4307406 C32.4264005,21.8738742 9.80466676,43.836654 2.52236562,71.7770334 C0.0229551729,81.4374368 -0.62596099,91.4489894 0.60687702,101.32941 C4.18722954,130.565947 25.2755059,154.740508 52.790515,165.171763 L52.790515,165.171763 C61.772844,168.609422 71.3279731,170.485689 81.0036928,170.711766 L81.0484472,170.711766 Z" id="路径"></path>
            </g>
        </g>
    </g>
</svg>