<?xml version="1.0" encoding="UTF-8" standalone="no"?>
<!DOCTYPE svg PUBLIC "-//W3C//DTD SVG 1.1//EN" "http://www.w3.org/Graphics/SVG/1.1/DTD/svg11.dtd">
<svg width="100%" height="100%" viewBox="0 0 32 7" version="1.1" xmlns="http://www.w3.org/2000/svg" xmlns:xlink="http://www.w3.org/1999/xlink" xml:space="preserve" xmlns:serif="http://www.serif.com/" style="fill-rule:evenodd;clip-rule:evenodd;stroke-linejoin:round;stroke-miterlimit:2;">
    <g transform="matrix(1,0,0,1,-2611.96,-420.646)">
        <g transform="matrix(1.65517,0,0,1.77049,1969.76,-141.639)">
            <g transform="matrix(0.604167,0,0,0.564815,-1190.06,80)">
                <path d="M2642.05,423.5L2639.67,423.5L2639.67,424.5L2642.05,424.5L2639.9,426.646L2640.61,427.354L2643.96,424L2640.61,420.646L2639.9,421.354L2642.05,423.5ZM2613.88,424.5L2617.67,424.5L2617.67,423.5L2613.88,423.5L2616.03,421.354L2615.32,420.646L2611.96,424L2615.32,427.354L2616.03,426.646L2613.88,424.5ZM2619.67,424.5L2622.67,424.5L2622.67,423.5L2619.67,423.5L2619.67,424.5ZM2624.67,424.5L2627.67,424.5L2627.67,423.5L2624.67,423.5L2624.67,424.5ZM2629.67,424.5L2632.67,424.5L2632.67,423.5L2629.67,423.5L2629.67,424.5ZM2634.67,424.5L2637.67,424.5L2637.67,423.5L2634.67,423.5L2634.67,424.5Z" style="fill:white;fill-opacity:0.5;"/>
            </g>
        </g>
    </g>
</svg>
