<?xml version="1.0" encoding="UTF-8" standalone="no"?>
<!DOCTYPE svg PUBLIC "-//W3C//DTD SVG 1.1//EN" "http://www.w3.org/Graphics/SVG/1.1/DTD/svg11.dtd">
<svg width="100%" height="100%" viewBox="0 0 7 32" version="1.1" xmlns="http://www.w3.org/2000/svg" xmlns:xlink="http://www.w3.org/1999/xlink" xml:space="preserve" xmlns:serif="http://www.serif.com/" style="fill-rule:evenodd;clip-rule:evenodd;stroke-linejoin:round;stroke-miterlimit:2;">
    <g transform="matrix(1,0,0,1,-2528.74,-448)">
        <g transform="matrix(1.65517,0,0,1.77049,1969.76,-141.639)">
            <g transform="matrix(0.604167,0,0,0.564815,-1190.06,80)">
                <path d="M2531.69,478.08L2529.54,475.949L2528.84,476.659L2532.2,480L2535.54,476.634L2534.83,475.93L2532.69,478.091C2532.68,476.984 2532.68,475.288 2532.68,474.41L2531.68,474.414C2531.68,475.288 2531.68,476.973 2531.69,478.08ZM2531.66,469.414C2531.66,470.449 2531.67,471.456 2531.67,472.414L2532.67,472.41C2532.67,471.452 2532.66,470.446 2532.66,469.41L2531.66,469.414ZM2531.64,464.414C2531.64,465.418 2531.65,466.423 2531.65,467.414L2532.65,467.41C2532.65,466.419 2532.64,465.414 2532.64,464.41L2531.64,464.414ZM2531.62,459.414C2531.63,460.39 2531.63,461.396 2531.63,462.414L2532.63,462.41C2532.63,461.392 2532.63,460.386 2532.62,459.41L2531.62,459.414ZM2531.6,454.414C2531.61,455.342 2531.61,456.351 2531.62,457.414L2532.62,457.41C2532.61,456.347 2532.61,455.339 2532.6,454.41L2531.6,454.414ZM2531.59,449.918C2531.59,450.56 2531.59,451.427 2531.6,452.414L2532.6,452.41C2532.59,451.42 2532.59,450.552 2532.59,449.91L2534.74,452.051L2535.45,451.341L2532.08,448L2528.74,451.366L2529.45,452.07L2531.59,449.918Z" style="fill:white;fill-opacity:0.5;"/>
            </g>
        </g>
    </g>
</svg>
