<?xml version="1.0" encoding="UTF-8" standalone="no"?>
<!DOCTYPE svg PUBLIC "-//W3C//DTD SVG 1.1//EN" "http://www.w3.org/Graphics/SVG/1.1/DTD/svg11.dtd">
<svg width="100%" height="100%" viewBox="0 0 244 7" version="1.1" xmlns="http://www.w3.org/2000/svg" xmlns:xlink="http://www.w3.org/1999/xlink" xml:space="preserve" xmlns:serif="http://www.serif.com/" style="fill-rule:evenodd;clip-rule:evenodd;stroke-linejoin:round;stroke-miterlimit:2;">
    <g transform="matrix(1,0,0,1,-2451.96,-453.931)">
        <g transform="matrix(1.65517,0,0,1.77049,1969.76,-141.639)">
            <g transform="matrix(0.604167,0,0,0.564815,-1190.06,80)">
                <path d="M2694.05,456.785L2692.67,456.785L2692.67,457.785L2694.05,457.785L2691.9,459.931L2692.61,460.638L2695.96,457.285L2692.61,453.931L2691.9,454.638L2694.05,456.785ZM2453.88,457.785L2455.67,457.785L2455.67,456.785L2453.88,456.785L2456.03,454.638L2455.32,453.931L2451.96,457.285L2455.32,460.638L2456.03,459.931L2453.88,457.785ZM2502.67,457.785L2505.67,457.785L2505.67,456.785L2502.67,456.785L2502.67,457.785ZM2572.67,457.785L2575.67,457.785L2575.67,456.785L2572.67,456.785L2572.67,457.785ZM2567.67,457.785L2570.67,457.785L2570.67,456.785L2567.67,456.785L2567.67,457.785ZM2557.67,457.785L2560.67,457.785L2560.67,456.785L2557.67,456.785L2557.67,457.785ZM2492.67,457.785L2495.67,457.785L2495.67,456.785L2492.67,456.785L2492.67,457.785ZM2497.67,457.785L2500.67,457.785L2500.67,456.785L2497.67,456.785L2497.67,457.785ZM2507.67,457.785L2510.67,457.785L2510.67,456.785L2507.67,456.785L2507.67,457.785ZM2512.67,457.785L2515.67,457.785L2515.67,456.785L2512.67,456.785L2512.67,457.785ZM2517.67,457.785L2520.67,457.785L2520.67,456.785L2517.67,456.785L2517.67,457.785ZM2522.67,457.785L2525.67,457.785L2525.67,456.785L2522.67,456.785L2522.67,457.785ZM2527.67,457.785L2530.67,457.785L2530.67,456.785L2527.67,456.785L2527.67,457.785ZM2532.67,457.785L2535.67,457.785L2535.67,456.785L2532.67,456.785L2532.67,457.785ZM2537.67,457.785L2540.67,457.785L2540.67,456.785L2537.67,456.785L2537.67,457.785ZM2542.67,457.785L2545.67,457.785L2545.67,456.785L2542.67,456.785L2542.67,457.785ZM2547.67,457.785L2550.67,457.785L2550.67,456.785L2547.67,456.785L2547.67,457.785ZM2552.67,457.785L2555.67,457.785L2555.67,456.785L2552.67,456.785L2552.67,457.785ZM2562.67,457.785L2565.67,457.785L2565.67,456.785L2562.67,456.785L2562.67,457.785ZM2487.67,457.785L2490.67,457.785L2490.67,456.785L2487.67,456.785L2487.67,457.785ZM2682.67,457.785L2685.67,457.785L2685.67,456.785L2682.67,456.785L2682.67,457.785ZM2577.67,457.785L2580.67,457.785L2580.67,456.785L2577.67,456.785L2577.67,457.785ZM2482.67,457.785L2485.67,457.785L2485.67,456.785L2482.67,456.785L2482.67,457.785ZM2477.67,457.785L2480.67,457.785L2480.67,456.785L2477.67,456.785L2477.67,457.785ZM2472.67,457.785L2475.67,457.785L2475.67,456.785L2472.67,456.785L2472.67,457.785ZM2677.67,457.785L2680.67,457.785L2680.67,456.785L2677.67,456.785L2677.67,457.785ZM2687.67,457.785L2690.67,457.785L2690.67,456.785L2687.67,456.785L2687.67,457.785ZM2467.67,457.785L2470.67,457.785L2470.67,456.785L2467.67,456.785L2467.67,457.785ZM2582.67,457.785L2585.67,457.785L2585.67,456.785L2582.67,456.785L2582.67,457.785ZM2587.67,457.785L2590.67,457.785L2590.67,456.785L2587.67,456.785L2587.67,457.785ZM2597.67,457.785L2600.67,457.785L2600.67,456.785L2597.67,456.785L2597.67,457.785ZM2607.67,457.785L2610.67,457.785L2610.67,456.785L2607.67,456.785L2607.67,457.785ZM2612.67,457.785L2615.67,457.785L2615.67,456.785L2612.67,456.785L2612.67,457.785ZM2662.67,457.785L2665.67,457.785L2665.67,456.785L2662.67,456.785L2662.67,457.785ZM2672.67,457.785L2675.67,457.785L2675.67,456.785L2672.67,456.785L2672.67,457.785ZM2462.67,457.785L2465.67,457.785L2465.67,456.785L2462.67,456.785L2462.67,457.785ZM2592.67,457.785L2595.67,457.785L2595.67,456.785L2592.67,456.785L2592.67,457.785ZM2602.67,457.785L2605.67,457.785L2605.67,456.785L2602.67,456.785L2602.67,457.785ZM2617.67,457.785L2620.67,457.785L2620.67,456.785L2617.67,456.785L2617.67,457.785ZM2657.67,457.785L2660.67,457.785L2660.67,456.785L2657.67,456.785L2657.67,457.785ZM2667.67,457.785L2670.67,457.785L2670.67,456.785L2667.67,456.785L2667.67,457.785ZM2457.67,457.785L2460.67,457.785L2460.67,456.785L2457.67,456.785L2457.67,457.785ZM2622.67,457.785L2625.67,457.785L2625.67,456.785L2622.67,456.785L2622.67,457.785ZM2627.67,457.785L2630.67,457.785L2630.67,456.785L2627.67,456.785L2627.67,457.785ZM2637.67,457.785L2640.67,457.785L2640.67,456.785L2637.67,456.785L2637.67,457.785ZM2642.67,457.785L2645.67,457.785L2645.67,456.785L2642.67,456.785L2642.67,457.785ZM2647.67,457.785L2650.67,457.785L2650.67,456.785L2647.67,456.785L2647.67,457.785ZM2652.67,457.785L2655.67,457.785L2655.67,456.785L2652.67,456.785L2652.67,457.785ZM2632.67,457.785L2635.67,457.785L2635.67,456.785L2632.67,456.785L2632.67,457.785Z" style="fill:white;fill-opacity:0.5;"/>
            </g>
        </g>
    </g>
</svg>
