<?xml version="1.0" encoding="UTF-8" standalone="no"?>
<!DOCTYPE svg PUBLIC "-//W3C//DTD SVG 1.1//EN" "http://www.w3.org/Graphics/SVG/1.1/DTD/svg11.dtd">
<svg width="100%" height="100%" viewBox="0 0 7 48" version="1.1" xmlns="http://www.w3.org/2000/svg" xmlns:xlink="http://www.w3.org/1999/xlink" xml:space="preserve" xmlns:serif="http://www.serif.com/" style="fill-rule:evenodd;clip-rule:evenodd;stroke-linejoin:round;stroke-miterlimit:2;">
    <g transform="matrix(1,0,0,1,-2528.61,-520)">
        <g transform="matrix(1.65517,0,0,1.77049,1969.76,-141.639)">
            <g transform="matrix(0.604167,0,0,0.564815,-1190.06,80)">
                <path d="M2532.46,566.086L2532.46,565.707L2531.46,565.707L2531.46,566.086L2529.32,563.939L2528.61,564.646L2531.96,568L2535.32,564.646L2534.61,563.939L2532.46,566.086ZM2531.46,560.707L2531.46,563.707L2532.46,563.707L2532.46,560.707L2531.46,560.707ZM2531.46,555.707L2531.46,558.707L2532.46,558.707L2532.46,555.707L2531.46,555.707ZM2531.46,550.707L2531.46,553.707L2532.46,553.707L2532.46,550.707L2531.46,550.707ZM2531.46,545.707L2531.46,548.707L2532.46,548.707L2532.46,545.707L2531.46,545.707ZM2531.46,540.707L2531.46,543.707L2532.46,543.707L2532.46,540.707L2531.46,540.707ZM2531.46,535.707L2531.46,538.707L2532.46,538.707L2532.46,535.707L2531.46,535.707ZM2531.46,530.707L2531.46,533.707L2532.46,533.707L2532.46,530.707L2531.46,530.707ZM2531.46,525.707L2531.46,528.707L2532.46,528.707L2532.46,525.707L2531.46,525.707ZM2531.46,521.914L2531.46,523.707L2532.46,523.707L2532.46,521.914L2534.61,524.061L2535.32,523.354L2531.96,520L2528.61,523.354L2529.32,524.061L2531.46,521.914Z" style="fill:white;fill-opacity:0.5;"/>
            </g>
        </g>
    </g>
</svg>
