<?xml version="1.0" encoding="UTF-8" standalone="no"?>
<!DOCTYPE svg PUBLIC "-//W3C//DTD SVG 1.1//EN" "http://www.w3.org/Graphics/SVG/1.1/DTD/svg11.dtd">
<svg width="100%" height="100%" viewBox="0 0 7 24" version="1.1" xmlns="http://www.w3.org/2000/svg" xmlns:xlink="http://www.w3.org/1999/xlink" xml:space="preserve" xmlns:serif="http://www.serif.com/" style="fill-rule:evenodd;clip-rule:evenodd;stroke-linejoin:round;stroke-miterlimit:2;">
    <g transform="matrix(1,0,0,1,-2706,-4548.72)">
        <g transform="matrix(1.55482,0,0,1.48461,755.627,971.702)">
            <g transform="matrix(0.64316,0,0,0.673576,-485.989,-654.515)">
                <path d="M2709.95,4570.8L2709.94,4569.42L2708.94,4569.43L2708.95,4570.8L2706.79,4568.67L2706.09,4569.38L2709.46,4572.72L2712.79,4569.35L2712.08,4568.64L2709.95,4570.8ZM2708.92,4564.43C2708.92,4565.48 2708.93,4566.49 2708.93,4567.43L2709.93,4567.42C2709.93,4566.49 2709.92,4565.48 2709.92,4564.42L2708.92,4564.43ZM2708.89,4559.43C2708.9,4560.42 2708.9,4561.43 2708.91,4562.43L2709.91,4562.42C2709.9,4561.43 2709.9,4560.42 2709.89,4559.42L2708.89,4559.43ZM2708.87,4554.43C2708.87,4555.36 2708.88,4556.38 2708.88,4557.43L2709.88,4557.42C2709.88,4556.37 2709.87,4555.36 2709.87,4554.42L2708.87,4554.43ZM2708.85,4550.63L2708.86,4552.43L2709.86,4552.42L2709.85,4550.63L2712,4552.76L2712.71,4552.05L2709.34,4548.72L2706,4552.09L2706.71,4552.79L2708.85,4550.63Z" style="fill:white;fill-opacity:0.2;"/>
            </g>
        </g>
    </g>
</svg>
