<?xml version="1.0" encoding="UTF-8" standalone="no"?>
<!DOCTYPE svg PUBLIC "-//W3C//DTD SVG 1.1//EN" "http://www.w3.org/Graphics/SVG/1.1/DTD/svg11.dtd">
<svg width="100%" height="100%" viewBox="0 0 136 7" version="1.1" xmlns="http://www.w3.org/2000/svg" xmlns:xlink="http://www.w3.org/1999/xlink" xml:space="preserve" xmlns:serif="http://www.serif.com/" style="fill-rule:evenodd;clip-rule:evenodd;stroke-linejoin:round;stroke-miterlimit:2;">
    <g transform="matrix(1,0,0,1,-2632.26,-4542.01)">
        <g transform="matrix(1.55482,0,0,1.48461,755.627,971.702)">
            <g transform="matrix(0.64316,0,0,0.673576,-485.989,-654.515)">
                <path d="M2634.17,4545.86L2635.96,4545.86L2635.96,4544.86L2634.17,4544.86L2636.32,4542.72L2635.61,4542.01L2632.26,4545.36L2635.61,4548.72L2636.32,4548.01L2634.17,4545.86ZM2764.19,4542.72L2766.84,4545.36C2766.84,4545.36 2764.19,4548.01 2764.19,4548.01L2764.9,4548.72L2768.26,4545.36L2764.9,4542.01L2764.19,4542.72ZM2662.96,4545.86L2665.96,4545.86L2665.96,4544.86L2662.96,4544.86L2662.96,4545.86ZM2667.96,4545.86L2670.96,4545.86L2670.96,4544.86L2667.96,4544.86L2667.96,4545.86ZM2672.96,4545.86L2675.96,4545.86L2675.96,4544.86L2672.96,4544.86L2672.96,4545.86ZM2657.96,4545.86L2660.96,4545.86L2660.96,4544.86L2657.96,4544.86L2657.96,4545.86ZM2677.96,4545.86L2680.96,4545.86L2680.96,4544.86L2677.96,4544.86L2677.96,4545.86ZM2652.96,4545.86L2655.96,4545.86L2655.96,4544.86L2652.96,4544.86L2652.96,4545.86ZM2682.96,4545.86L2685.96,4545.86L2685.96,4544.86L2682.96,4544.86L2682.96,4545.86ZM2642.96,4545.86L2645.96,4545.86L2645.96,4544.86L2642.96,4544.86L2642.96,4545.86ZM2647.96,4545.86L2650.96,4545.86L2650.96,4544.86L2647.96,4544.86L2647.96,4545.86ZM2687.96,4545.86L2690.96,4545.86L2690.96,4544.86L2687.96,4544.86L2687.96,4545.86ZM2637.96,4545.86L2640.96,4545.86L2640.96,4544.86L2637.96,4544.86L2637.96,4545.86ZM2692.96,4545.86L2695.96,4545.86L2695.96,4544.86L2692.96,4544.86L2692.96,4545.86ZM2697.96,4545.86L2700.96,4545.86L2700.96,4544.86L2697.96,4544.86L2697.96,4545.86ZM2702.96,4545.86L2705.96,4545.86L2705.96,4544.86L2702.96,4544.86L2702.96,4545.86ZM2707.96,4545.86L2710.96,4545.86L2710.96,4544.86L2707.96,4544.86L2707.96,4545.86ZM2712.96,4545.86L2715.96,4545.86L2715.96,4544.86L2712.96,4544.86L2712.96,4545.86ZM2717.96,4545.86L2720.96,4545.86L2720.96,4544.86L2717.96,4544.86L2717.96,4545.86ZM2722.96,4545.86L2725.96,4545.86L2725.96,4544.86C2724.97,4544.86 2723.97,4544.86 2722.96,4544.86L2722.96,4545.86ZM2762.96,4545.86L2765.96,4545.86L2765.96,4544.86L2762.96,4544.86L2762.96,4545.86ZM2727.96,4545.86L2730.96,4545.86L2730.96,4544.86L2727.96,4544.86L2727.96,4545.86ZM2732.96,4545.86L2735.96,4545.86L2735.96,4544.86L2732.96,4544.86L2732.96,4545.86ZM2747.96,4545.86L2750.96,4545.86L2750.96,4544.86L2747.96,4544.86L2747.96,4545.86ZM2752.96,4545.86L2755.96,4545.86L2755.96,4544.86L2752.96,4544.86L2752.96,4545.86ZM2757.96,4545.86L2760.96,4545.86L2760.96,4544.86L2757.96,4544.86L2757.96,4545.86ZM2737.96,4545.86L2740.96,4545.86L2740.96,4544.86L2737.96,4544.86L2737.96,4545.86ZM2742.96,4545.86L2745.96,4545.86L2745.96,4544.86L2742.96,4544.86L2742.96,4545.86Z" style="fill:white;fill-opacity:0.2;"/>
            </g>
        </g>
    </g>
</svg>
