<?xml version="1.0" encoding="UTF-8" standalone="no"?>
<!DOCTYPE svg PUBLIC "-//W3C//DTD SVG 1.1//EN" "http://www.w3.org/Graphics/SVG/1.1/DTD/svg11.dtd">
<svg width="100%" height="100%" viewBox="0 0 24 7" version="1.1" xmlns="http://www.w3.org/2000/svg" xmlns:xlink="http://www.w3.org/1999/xlink" xml:space="preserve" xmlns:serif="http://www.serif.com/" style="fill-rule:evenodd;clip-rule:evenodd;stroke-linejoin:round;stroke-miterlimit:2;">
    <g transform="matrix(1,0,0,1,-2768.26,-4542.01)">
        <g transform="matrix(1.55482,0,0,1.48461,755.627,971.702)">
            <g transform="matrix(0.64316,0,0,0.673576,-485.989,-654.515)">
                <path d="M2770.17,4545.86L2771.96,4545.86L2771.96,4544.86L2770.17,4544.86L2772.32,4542.72L2771.61,4542.01L2768.26,4545.36L2771.61,4548.72L2772.32,4548.01L2770.17,4545.86ZM2790.34,4544.86L2788.96,4544.86L2788.96,4545.86L2790.34,4545.86L2788.19,4548.01L2788.9,4548.72L2792.26,4545.36L2788.9,4542.01L2788.19,4542.72L2790.34,4544.86ZM2783.96,4545.86C2785.02,4545.86 2786.03,4545.86 2786.96,4545.86L2786.96,4544.86C2786.03,4544.86 2785.02,4544.86 2783.96,4544.86L2783.96,4545.86ZM2778.96,4545.86L2781.96,4545.86L2781.96,4544.86L2778.96,4544.86L2778.96,4545.86ZM2773.96,4545.86L2776.96,4545.86L2776.96,4544.86L2773.96,4544.86L2773.96,4545.86Z" style="fill:white;fill-opacity:0.2;"/>
            </g>
        </g>
    </g>
</svg>
