<?xml version="1.0" encoding="UTF-8" standalone="no"?>
<!DOCTYPE svg PUBLIC "-//W3C//DTD SVG 1.1//EN" "http://www.w3.org/Graphics/SVG/1.1/DTD/svg11.dtd">
<svg width="100%" height="100%" viewBox="0 0 80 80" version="1.1" xmlns="http://www.w3.org/2000/svg" xmlns:xlink="http://www.w3.org/1999/xlink" xml:space="preserve" xmlns:serif="http://www.serif.com/" style="fill-rule:evenodd;clip-rule:evenodd;stroke-linejoin:round;stroke-miterlimit:2;">
    <g transform="matrix(1,0,0,1,-209,-916)">
        <g transform="matrix(1,0,0,1,3126.87,771.633)">
            <g transform="matrix(0.521152,0,0,0.521152,-3366.03,161.855)">
                <rect x="859.943" y="-33.506" width="153.506" height="153.506" style="fill:none;"/>
            </g>
            <g transform="matrix(1,0,0,1,-2852.42,-696.368)">
                <g transform="matrix(0.996399,0,0,0.444444,-71.7645,819.619)">
                    <rect x="11.25" y="58.5" width="47.25" height="13.5" style="fill:rgb(17,155,255);"/>
                </g>
                <g transform="matrix(1.48148,0,0,0.444444,-77.2217,835.619)">
                    <rect x="11.25" y="58.5" width="47.25" height="13.5" style="fill:rgb(62,191,218);"/>
                </g>
                <g transform="matrix(0.690943,0,0,0.444444,-68.3282,851.619)">
                    <rect x="11.25" y="58.5" width="47.25" height="13.5" style="fill:rgb(108,221,195);"/>
                </g>
                <g transform="matrix(0.754502,0,0,0.444444,-69.0432,879.619)">
                    <rect x="11.25" y="31.5" width="78.75" height="13.5" style="fill:rgb(181,228,170);"/>
                </g>
                <g transform="matrix(0.588235,0,0,0.444444,-67.1727,907.619)">
                    <rect x="11.25" y="4.5" width="36" height="13.5" style="fill:rgb(255,234,146);"/>
                </g>
            </g>
        </g>
    </g>
</svg>
