<?xml version="1.0" encoding="UTF-8" standalone="no"?>
<!DOCTYPE svg PUBLIC "-//W3C//DTD SVG 1.1//EN" "http://www.w3.org/Graphics/SVG/1.1/DTD/svg11.dtd">
<svg width="100%" height="100%" viewBox="0 0 80 80" version="1.1" xmlns="http://www.w3.org/2000/svg" xmlns:xlink="http://www.w3.org/1999/xlink" xml:space="preserve" xmlns:serif="http://www.serif.com/" style="fill-rule:evenodd;clip-rule:evenodd;stroke-linecap:round;stroke-linejoin:round;stroke-miterlimit:1.5;">
    <g transform="matrix(1,0,0,1,-209,-1994)">
        <g transform="matrix(1,0,0,1,3075.68,613.595)">
            <g transform="matrix(0.521152,0,0,0.521152,-3314.84,1397.92)">
                <rect x="859.943" y="-33.506" width="153.506" height="153.506" style="fill:none;"/>
            </g>
            <g transform="matrix(1,0,0,1,-2801.24,-790.141)">
                <g transform="matrix(0.187398,0,0,0.0612931,894.245,2170.49)">
                    <g transform="matrix(1.08081,0,0,1.82412,-14382.4,-3798.18)">
                        <rect x="8574.47" y="2465.78" width="39.498" height="190.811" style="fill:rgb(234,215,136);fill-opacity:0.6;stroke:rgb(234,215,136);stroke-width:6.11px;"/>
                    </g>
                    <g transform="matrix(1.06725,0,0,1.63155,-14276.1,-3478.28)">
                        <path d="M8603.81,2560.64L8603.81,2507.55" style="fill:none;stroke:rgb(234,215,136);stroke-width:6.32px;"/>
                    </g>
                    <g transform="matrix(1.06725,0,0,1.63155,-14276.1,-3043.04)">
                        <path d="M8603.81,2560.64L8603.81,2507.55" style="fill:none;stroke:rgb(234,215,136);stroke-width:6.32px;"/>
                    </g>
                    <g transform="matrix(2.01043,0,0,1.63155,-22555.1,-3538.18)">
                        <path d="M8674.79,2544.12L8696.02,2544.12" style="fill:none;stroke:rgb(234,215,136);stroke-width:3.63px;"/>
                    </g>
                    <g transform="matrix(2.01043,0,0,1.63155,-22555.1,-3016.1)">
                        <path d="M8674.79,2544.12L8696.02,2544.12" style="fill:none;stroke:rgb(234,215,136);stroke-width:3.63px;"/>
                    </g>
                    <g transform="matrix(2.01043,0,0,1.63155,-22555.1,-3227.69)">
                        <path d="M8674.79,2544.12L8696.02,2544.12" style="fill:none;stroke:rgb(234,215,136);stroke-width:3.63px;"/>
                    </g>
                </g>
                <g transform="matrix(0.187398,0,0,0.0459698,928.942,2165.88)">
                    <g transform="matrix(1.08081,0,0,1.82412,-14382.4,-3798.18)">
                        <rect x="8574.47" y="2465.78" width="39.498" height="190.811" style="fill:rgb(234,215,136);fill-opacity:0.6;stroke:rgb(234,215,136);stroke-width:6.45px;"/>
                    </g>
                    <g transform="matrix(1.06725,0,0,1.63155,-14276.1,-3478.28)">
                        <path d="M8603.81,2560.64L8603.81,2507.55" style="fill:none;stroke:rgb(234,215,136);stroke-width:6.62px;"/>
                    </g>
                    <g transform="matrix(1.06725,0,0,3.27077,-14276.1,-7153.49)">
                        <path d="M8603.81,2560.64L8603.81,2507.55" style="fill:none;stroke:rgb(234,215,136);stroke-width:5.65px;"/>
                    </g>
                    <g transform="matrix(2.01043,0,0,1.63155,-22555.1,-3538.18)">
                        <path d="M8674.79,2544.12L8696.02,2544.12" style="fill:none;stroke:rgb(234,215,136);stroke-width:3.68px;"/>
                    </g>
                    <g transform="matrix(2.01043,0,0,1.63155,-22555.1,-2929.09)">
                        <path d="M8674.79,2544.12L8696.02,2544.12" style="fill:none;stroke:rgb(234,215,136);stroke-width:3.68px;"/>
                    </g>
                    <g transform="matrix(2.01043,0,0,1.63155,-22555.1,-3184.18)">
                        <path d="M8674.79,2544.12L8696.02,2544.12" style="fill:none;stroke:rgb(234,215,136);stroke-width:3.68px;"/>
                    </g>
                </g>
                <g transform="matrix(0.187398,0,0,0.0620593,963.639,2165.62)">
                    <g transform="matrix(1.08081,0,0,1.1992,-14382.4,-2138.02)">
                        <rect x="8574.47" y="2465.78" width="39.498" height="190.811" style="fill:rgb(234,215,136);fill-opacity:0.6;stroke:rgb(234,215,136);stroke-width:6.55px;"/>
                    </g>
                    <g transform="matrix(1.06725,0,0,1.63155,-14276.1,-3359.04)">
                        <path d="M8603.81,2560.64L8603.81,2507.55" style="fill:none;stroke:rgb(234,215,136);stroke-width:6.31px;"/>
                    </g>
                    <g transform="matrix(1.06725,0,0,1.63155,-14276.1,-3043.04)">
                        <path d="M8603.81,2560.64L8603.81,2507.55" style="fill:none;stroke:rgb(234,215,136);stroke-width:6.31px;"/>
                    </g>
                    <g transform="matrix(2.01043,0,0,1.63155,-22555.1,-3418.94)">
                        <path d="M8674.79,2544.12L8696.02,2544.12" style="fill:none;stroke:rgb(234,215,136);stroke-width:3.63px;"/>
                    </g>
                    <g transform="matrix(2.01043,0,0,1.63155,-22555.1,-3016.1)">
                        <path d="M8674.79,2544.12L8696.02,2544.12" style="fill:none;stroke:rgb(234,215,136);stroke-width:3.63px;"/>
                    </g>
                    <g transform="matrix(2.01043,0,0,1.63155,-22555.1,-3243.8)">
                        <path d="M8674.79,2544.12L8696.02,2544.12" style="fill:none;stroke:rgb(234,215,136);stroke-width:3.63px;"/>
                    </g>
                </g>
                <g transform="matrix(0.187398,0,0,0.0459698,911.593,2172.88)">
                    <g transform="matrix(1.08081,0,0,1.3681,-14382.4,-2477.95)">
                        <rect x="8574.47" y="2465.78" width="39.498" height="190.811" style="fill:rgb(17,155,255);fill-opacity:0.6;stroke:rgb(17,155,255);stroke-width:6.67px;"/>
                    </g>
                    <g transform="matrix(1.06725,0,0,1.63155,-14276.1,-3282.5)">
                        <path d="M8603.81,2560.64L8603.81,2507.55" style="fill:none;stroke:rgb(17,155,255);stroke-width:6.62px;"/>
                    </g>
                    <g transform="matrix(1.06725,0,0,1.63155,-14276.1,-2934.28)">
                        <path d="M8603.81,2560.64L8603.81,2507.55" style="fill:none;stroke:rgb(17,155,255);stroke-width:6.62px;"/>
                    </g>
                    <g transform="matrix(2.01043,0,0,1.63155,-22555.1,-3342.4)">
                        <path d="M8674.79,2544.12L8696.02,2544.12" style="fill:none;stroke:rgb(17,155,255);stroke-width:3.68px;"/>
                    </g>
                    <g transform="matrix(2.01043,0,0,1.63155,-22555.1,-2907.33)">
                        <path d="M8674.79,2544.12L8696.02,2544.12" style="fill:none;stroke:rgb(17,155,255);stroke-width:3.68px;"/>
                    </g>
                    <g transform="matrix(2.01043,0,0,1.63155,-22555.1,-3179.23)">
                        <path d="M8674.79,2544.12L8696.02,2544.12" style="fill:none;stroke:rgb(17,155,255);stroke-width:3.68px;"/>
                    </g>
                </g>
                <g transform="matrix(0.187398,0,0,0.068298,946.29,2109.35)">
                    <g transform="matrix(1.08081,0,0,2.16613,-14382.4,-4141.18)">
                        <rect x="8574.47" y="2465.78" width="39.498" height="190.811" style="fill:rgb(17,155,255);fill-opacity:0.6;stroke:rgb(17,155,255);stroke-width:5.64px;"/>
                    </g>
                    <g transform="matrix(1.06725,0,0,2.86097,-14276.1,-6126.05)">
                        <path d="M8603.81,2560.64L8603.81,2507.55" style="fill:none;stroke:rgb(17,155,255);stroke-width:5.06px;"/>
                    </g>
                    <g transform="matrix(1.06725,0,0,6.95903,-14276.1,-16010.4)">
                        <path d="M8603.81,2560.64L8603.81,2532.56" style="fill:none;stroke:rgb(17,155,255);stroke-width:2.74px;"/>
                    </g>
                    <g transform="matrix(2.01043,0,0,1.63155,-22555.1,-3103.11)">
                        <path d="M8674.79,2544.12L8696.02,2544.12" style="fill:none;stroke:rgb(17,155,255);stroke-width:3.6px;"/>
                    </g>
                    <g transform="matrix(2.01043,0,0,1.63155,-22555.1,-2341.75)">
                        <path d="M8674.79,2544.12L8696.02,2544.12" style="fill:none;stroke:rgb(17,155,255);stroke-width:3.6px;"/>
                    </g>
                    <g transform="matrix(2.01043,0,0,1.63155,-22555.1,-2831.18)">
                        <path d="M8674.79,2544.12L8696.02,2544.12" style="fill:none;stroke:rgb(17,155,255);stroke-width:3.6px;"/>
                    </g>
                </g>
            </g>
        </g>
    </g>
</svg>
