<?xml version="1.0" encoding="UTF-8" standalone="no"?>
<!DOCTYPE svg PUBLIC "-//W3C//DTD SVG 1.1//EN" "http://www.w3.org/Graphics/SVG/1.1/DTD/svg11.dtd">
<svg width="100%" height="100%" viewBox="0 0 80 80" version="1.1" xmlns="http://www.w3.org/2000/svg" xmlns:xlink="http://www.w3.org/1999/xlink" xml:space="preserve" xmlns:serif="http://www.serif.com/" style="fill-rule:evenodd;clip-rule:evenodd;stroke-linejoin:round;stroke-miterlimit:2;">
    <g transform="matrix(1,0,0,1,-469,-5074)">
        <g transform="matrix(1,0,0,1,1222.91,985.461)">
            <g transform="matrix(0.521152,0,0,0.521152,-1202.08,4106.05)">
                <rect x="859.943" y="-33.506" width="153.506" height="153.506" style="fill:none;"/>
            </g>
            <g transform="matrix(1.5365,0,0,5.31113,-1724.48,-614.93)">
                <g transform="matrix(0.658376,0,0,0.185864,120.88,125.895)">
                    <rect x="775.834" y="4087.39" width="79.083" height="81.041" style="fill:none;"/>
                </g>
                <g transform="matrix(0.650828,0,0,0.188284,127.283,115.781)">
                    <path d="M812.941,4121.13L803.668,4121.13L803.668,4098.59L826.215,4098.59L826.215,4121.13L816.941,4121.13L816.941,4129.29L838.511,4129.29L838.511,4141.44L844.801,4141.44L844.801,4158.59L827.658,4158.59L827.658,4141.44L834.511,4141.44L834.511,4133.29L816.941,4133.29L816.941,4141.44L823.513,4141.44L823.513,4158.59L806.37,4158.59L806.37,4141.44L812.941,4141.44L812.941,4133.29L795.372,4133.29L795.372,4141.44L791.372,4141.44L791.372,4129.29L812.941,4129.29L812.941,4121.13ZM801.944,4141.44L784.801,4141.44L784.801,4158.59L801.944,4158.59L801.944,4141.44ZM810.37,4145.44L810.37,4154.59L819.513,4154.59L819.513,4145.44L810.37,4145.44ZM831.658,4145.44L831.658,4154.59L840.801,4154.59L840.801,4145.44L831.658,4145.44ZM788.801,4145.44L788.801,4154.59L797.944,4154.59L797.944,4145.44L788.801,4145.44ZM807.668,4102.59L807.668,4117.13L822.215,4117.13L822.215,4102.59L807.668,4102.59Z" style="fill:url(#_Linear1);"/>
                </g>
            </g>
        </g>
    </g>
    <defs>
        <linearGradient id="_Linear1" x1="0" y1="0" x2="1" y2="0" gradientUnits="userSpaceOnUse" gradientTransform="matrix(3.67394e-15,60,-60,3.67394e-15,807.668,4098.59)"><stop offset="0" style="stop-color:rgb(17,155,255);stop-opacity:1"/><stop offset="0.47" style="stop-color:rgb(108,221,195);stop-opacity:1"/><stop offset="1" style="stop-color:rgb(255,234,146);stop-opacity:1"/></linearGradient>
    </defs>
</svg>
