<?xml version="1.0" encoding="UTF-8" standalone="no"?>
<!DOCTYPE svg PUBLIC "-//W3C//DTD SVG 1.1//EN" "http://www.w3.org/Graphics/SVG/1.1/DTD/svg11.dtd">
<svg width="100%" height="100%" viewBox="0 0 80 80" version="1.1" xmlns="http://www.w3.org/2000/svg" xmlns:xlink="http://www.w3.org/1999/xlink" xml:space="preserve" xmlns:serif="http://www.serif.com/" style="fill-rule:evenodd;clip-rule:evenodd;stroke-linejoin:round;stroke-miterlimit:2;">
    <g transform="matrix(1,0,0,1,-339,-3198)">
        <g transform="matrix(1,0,0,1,2856.29,-845.691)">
            <g transform="matrix(0.521152,0,0,0.521152,-2965.45,4061.2)">
                <rect x="859.943" y="-33.506" width="153.506" height="153.506" style="fill:none;"/>
            </g>
            <g transform="matrix(0.487805,0,0,0.487805,-3785.58,3779.35)">
                <g transform="matrix(0.25072,0,0,0.153963,-3986.75,317.533)">
                    <path d="M26418.9,2111.77L26406,2113L26406,1869L26418.9,1869C26443.4,1899.26 26480.8,1918.61 26522.7,1918.61C26553,1918.61 26581,1908.49 26603.4,1891.44L26616,1906L26616,2093L26608.7,2093.69C26585.5,2074.16 26555.5,2062.39 26522.7,2062.39C26480.9,2062.39 26443.5,2081.64 26418.9,2111.77Z" style="fill:white;fill-opacity:0.1;"/>
                </g>
                <g transform="matrix(0.256359,0,0,0.153963,-4163.63,317.533)">
                    <path d="M26788.4,2080L26780,2080L26780,1901L26788.3,1901C26812.4,1924.65 26845.4,1939.24 26881.8,1939.24C26911.4,1939.24 26938.7,1929.59 26960.9,1913.27L26973,1924L26973,2054L26963.7,2070.07C26941.1,2052.43 26912.6,2041.93 26881.8,2041.93C26845.5,2041.93 26812.6,2056.45 26788.4,2080Z" style="fill:white;fill-opacity:0.1;"/>
                </g>
                <g transform="matrix(5.27612e-18,-0.0861656,0.0861656,5.27612e-18,2467.65,2930.26)">
                    <circle cx="26765.5" cy="1814.5" r="278.5" style="fill:rgb(17,155,255);"/>
                </g>
                <g transform="matrix(4.11291e-18,-0.067169,0.067169,4.11291e-18,2570.08,2421.81)">
                    <circle cx="26765.5" cy="1814.5" r="278.5" style="fill:rgb(108,221,195);"/>
                </g>
                <g transform="matrix(2.90471e-18,-0.0474375,0.0474375,2.90471e-18,2664.71,1893.69)">
                    <circle cx="26765.5" cy="1814.5" r="278.5" style="fill:rgb(255,234,146);"/>
                </g>
                <g transform="matrix(0.278342,0,0,0.278342,-9779.52,-2322.84)">
                    <text x="44544.6px" y="10594.4px" style="font-family:'PingFangSC-Medium', 'PingFang SC', sans-serif;font-weight:500;font-size:20px;fill:white;">150</text>
                </g>
                <g transform="matrix(0.278342,0,0,0.278342,-9711.55,-2322.84)">
                    <text x="44544.6px" y="10594.4px" style="font-family:'PingFangSC-Medium', 'PingFang SC', sans-serif;font-weight:500;font-size:20px;fill:white;">100</text>
                </g>
                <g transform="matrix(0.278342,0,0,0.278342,-9743.18,-2322.84)">
                    <text x="44544.6px" y="10594.4px" style="font-family:'PingFangSC-Medium', 'PingFang SC', sans-serif;font-weight:500;font-size:20px;fill:white;fill-opacity:0.65;">66%</text>
                </g>
                <g transform="matrix(0.278342,0,0,0.278342,-9680.09,-2322.84)">
                    <text x="44544.6px" y="10594.4px" style="font-family:'PingFangSC-Medium', 'PingFang SC', sans-serif;font-weight:500;font-size:20px;fill:white;fill-opacity:0.65;">60%</text>
                </g>
                <g transform="matrix(0.278342,0,0,0.278342,-9652.09,-2322.84)">
                    <text x="44548.7px" y="10594.4px" style="font-family:'PingFangSC-Medium', 'PingFang SC', sans-serif;font-weight:500;font-size:20px;fill:white;">60</text>
                </g>
            </g>
        </g>
    </g>
</svg>
