<?xml version="1.0" encoding="UTF-8" standalone="no"?>
<!DOCTYPE svg PUBLIC "-//W3C//DTD SVG 1.1//EN" "http://www.w3.org/Graphics/SVG/1.1/DTD/svg11.dtd">
<svg width="100%" height="100%" viewBox="0 0 80 80" version="1.1" xmlns="http://www.w3.org/2000/svg" xmlns:xlink="http://www.w3.org/1999/xlink" xml:space="preserve" xmlns:serif="http://www.serif.com/" style="fill-rule:evenodd;clip-rule:evenodd;stroke-linejoin:round;stroke-miterlimit:2;">
    <g transform="matrix(1,0,0,1,-859,-4262)">
        <g transform="matrix(1,0,0,1,3237.83,218.309)">
            <g transform="matrix(0.521152,0,0,0.521152,-2826.99,4061.2)">
                <rect x="859.943" y="-33.506" width="153.506" height="153.506" style="fill:none;"/>
            </g>
            <g transform="matrix(1,0,0,1,-2588.76,358.859)">
                <g transform="matrix(0.263493,0,0,0.263493,-7527.93,3805.93)">
                    <g transform="matrix(0.943597,0,0,0.948792,27705.7,-763.541)">
                        <rect x="1760" y="360" width="320" height="40" style="fill:white;fill-opacity:0.05;"/>
                    </g>
                    <g transform="matrix(0.0125,0,0,0.948792,29344.8,-763.541)">
                        <rect x="1760" y="360" width="320" height="40" style="fill:rgb(17,155,255);"/>
                    </g>
                    <g transform="matrix(0.516297,0,0,0.516297,28667.1,-433.889)">
                        <text x="1389.46px" y="70.325px" style="font-family:'PingFangSC-Light', 'PingFang SC', sans-serif;font-weight:300;font-size:29.403px;fill:white;fill-opacity:0.8;">指标A</text>
                    </g>
                    <g transform="matrix(0.516297,0,0,0.516297,28788.2,-433.889)">
                        <text x="1407.89px" y="70.325px" style="font-family:'PingFangSC-Light', 'PingFang SC', sans-serif;font-weight:300;font-size:29.403px;fill:white;fill-opacity:0.8;">12345</text>
                    </g>
                    <g transform="matrix(0.516297,0,0,0.516297,28883.8,-433.889)">
                        <text x="1410.22px" y="70.325px" style="font-family:'PingFangSC-Light', 'PingFang SC', sans-serif;font-weight:300;font-size:29.403px;fill:white;fill-opacity:0.8;">12345</text>
                    </g>
                </g>
                <g transform="matrix(0.263493,0,0,0.263493,-7527.93,3818.43)">
                    <g transform="matrix(0.943597,0,0,0.948792,27705.7,-763.541)">
                        <rect x="1760" y="360" width="320" height="40" style="fill:white;fill-opacity:0.05;"/>
                    </g>
                    <g transform="matrix(0.0125,0,0,0.948792,29344.8,-763.541)">
                        <rect x="1760" y="360" width="320" height="40" style="fill:rgb(62,191,218);"/>
                    </g>
                    <g transform="matrix(0.516297,0,0,0.516297,28667.1,-433.889)">
                        <text x="1389.46px" y="70.325px" style="font-family:'PingFangSC-Light', 'PingFang SC', sans-serif;font-weight:300;font-size:29.403px;fill:white;fill-opacity:0.8;">指标B</text>
                    </g>
                    <g transform="matrix(0.516297,0,0,0.516297,28788.2,-433.889)">
                        <text x="1407.89px" y="70.325px" style="font-family:'PingFangSC-Light', 'PingFang SC', sans-serif;font-weight:300;font-size:29.403px;fill:white;fill-opacity:0.8;">12345</text>
                    </g>
                    <g transform="matrix(0.516297,0,0,0.516297,28883.8,-433.889)">
                        <text x="1410.22px" y="70.325px" style="font-family:'PingFangSC-Light', 'PingFang SC', sans-serif;font-weight:300;font-size:29.403px;fill:white;fill-opacity:0.8;">12345</text>
                    </g>
                </g>
                <g transform="matrix(0.263493,0,0,0.263493,-7527.93,3830.93)">
                    <g transform="matrix(0.943597,0,0,0.948792,27705.7,-763.541)">
                        <rect x="1760" y="360" width="320" height="40" style="fill:white;fill-opacity:0.05;"/>
                    </g>
                    <g transform="matrix(0.0125,0,0,0.948792,29344.8,-763.541)">
                        <rect x="1760" y="360" width="320" height="40" style="fill:rgb(108,221,195);"/>
                    </g>
                    <g transform="matrix(0.516297,0,0,0.516297,28667.1,-433.889)">
                        <text x="1389.46px" y="70.325px" style="font-family:'PingFangSC-Light', 'PingFang SC', sans-serif;font-weight:300;font-size:29.403px;fill:white;fill-opacity:0.8;">指标C</text>
                    </g>
                    <g transform="matrix(0.516297,0,0,0.516297,28788.2,-433.889)">
                        <text x="1407.89px" y="70.325px" style="font-family:'PingFangSC-Light', 'PingFang SC', sans-serif;font-weight:300;font-size:29.403px;fill:white;fill-opacity:0.8;">12345</text>
                    </g>
                    <g transform="matrix(0.516297,0,0,0.516297,28883.8,-433.889)">
                        <text x="1410.22px" y="70.325px" style="font-family:'PingFangSC-Light', 'PingFang SC', sans-serif;font-weight:300;font-size:29.403px;fill:white;fill-opacity:0.8;">12345</text>
                    </g>
                </g>
                <g transform="matrix(0.263493,0,0,0.263493,-7527.93,3843.43)">
                    <g transform="matrix(0.943597,0,0,0.948792,27705.7,-763.541)">
                        <rect x="1760" y="360" width="320" height="40" style="fill:white;fill-opacity:0.05;"/>
                    </g>
                    <g transform="matrix(0.0125,0,0,0.948792,29344.8,-763.541)">
                        <rect x="1760" y="360" width="320" height="40" style="fill:rgb(181,228,170);"/>
                    </g>
                    <g transform="matrix(0.516297,0,0,0.516297,28667.1,-433.889)">
                        <text x="1389.46px" y="70.325px" style="font-family:'PingFangSC-Light', 'PingFang SC', sans-serif;font-weight:300;font-size:29.403px;fill:white;fill-opacity:0.8;">指标D</text>
                    </g>
                    <g transform="matrix(0.516297,0,0,0.516297,28788.2,-433.889)">
                        <text x="1407.89px" y="70.325px" style="font-family:'PingFangSC-Light', 'PingFang SC', sans-serif;font-weight:300;font-size:29.403px;fill:white;fill-opacity:0.8;">12345</text>
                    </g>
                    <g transform="matrix(0.516297,0,0,0.516297,28883.8,-433.889)">
                        <text x="1410.22px" y="70.325px" style="font-family:'PingFangSC-Light', 'PingFang SC', sans-serif;font-weight:300;font-size:29.403px;fill:white;fill-opacity:0.8;">12345</text>
                    </g>
                </g>
                <g transform="matrix(0.263493,0,0,0.263493,-7527.93,3855.93)">
                    <g transform="matrix(0.943597,0,0,0.948792,27705.7,-763.541)">
                        <rect x="1760" y="360" width="320" height="40" style="fill:white;fill-opacity:0.05;"/>
                    </g>
                    <g transform="matrix(0.0125,0,0,0.948792,29344.8,-763.541)">
                        <rect x="1760" y="360" width="320" height="40" style="fill:rgb(255,234,146);"/>
                    </g>
                    <g transform="matrix(0.516297,0,0,0.516297,28667.1,-433.889)">
                        <text x="1389.46px" y="70.325px" style="font-family:'PingFangSC-Light', 'PingFang SC', sans-serif;font-weight:300;font-size:29.403px;fill:white;fill-opacity:0.8;">指标E</text>
                    </g>
                    <g transform="matrix(0.516297,0,0,0.516297,28788.2,-433.889)">
                        <text x="1407.89px" y="70.325px" style="font-family:'PingFangSC-Light', 'PingFang SC', sans-serif;font-weight:300;font-size:29.403px;fill:white;fill-opacity:0.8;">12345</text>
                    </g>
                    <g transform="matrix(0.516297,0,0,0.516297,28883.8,-433.889)">
                        <text x="1410.22px" y="70.325px" style="font-family:'PingFangSC-Light', 'PingFang SC', sans-serif;font-weight:300;font-size:29.403px;fill:white;fill-opacity:0.8;">12345</text>
                    </g>
                </g>
            </g>
        </g>
    </g>
</svg>
