<?xml version="1.0" encoding="UTF-8" standalone="no"?>
<!DOCTYPE svg PUBLIC "-//W3C//DTD SVG 1.1//EN" "http://www.w3.org/Graphics/SVG/1.1/DTD/svg11.dtd">
<svg width="100%" height="100%" viewBox="0 0 80 80" version="1.1" xmlns="http://www.w3.org/2000/svg" xmlns:xlink="http://www.w3.org/1999/xlink" xml:space="preserve" xmlns:serif="http://www.serif.com/" style="fill-rule:evenodd;clip-rule:evenodd;stroke-linejoin:round;stroke-miterlimit:2;">
    <g transform="matrix(1,0,0,1,-209,-3730)">
        <g transform="matrix(1,0,0,1,2530.68,714.603)">
            <g transform="matrix(0.521152,0,0,0.521152,-2769.84,3032.91)">
                <rect x="859.943" y="-33.506" width="153.506" height="153.506" style="fill:none;"/>
            </g>
            <g transform="matrix(1,0,0,1,212.86,725.582)">
                <path d="M-2474.13,2337.09L-2501.91,2364.86L-2529.54,2364.86L-2529.54,2294.86L-2516.36,2294.86L-2474.13,2337.09ZM-2459.54,2351.68L-2459.54,2364.86L-2487.43,2364.86L-2466.89,2344.33L-2459.54,2351.68Z" style="fill:rgb(17,155,255);"/>
                <path d="M-2501.66,2294.86L-2459.54,2336.98L-2459.54,2294.86L-2501.66,2294.86Z" style="fill:rgb(108,221,195);"/>
                <g>
                    <g transform="matrix(0.563725,0.563725,-0.563725,0.563725,234.189,2415.43)">
                        <path d="M-2496.16,2306.32L-2487.43,2344.33L-2504.9,2344.33L-2496.16,2306.32Z" style="fill:rgb(253,146,109);"/>
                    </g>
                    <g transform="matrix(-0.563725,-0.563725,0.563725,-0.563725,-5223.28,2244.3)">
                        <path d="M-2496.16,2306.32L-2487.43,2344.33L-2504.9,2344.33L-2496.16,2306.32Z" style="fill:rgb(255,234,146);"/>
                    </g>
                </g>
            </g>
        </g>
    </g>
</svg>
