<?xml version="1.0" encoding="UTF-8" standalone="no"?>
<!DOCTYPE svg PUBLIC "-//W3C//DTD SVG 1.1//EN" "http://www.w3.org/Graphics/SVG/1.1/DTD/svg11.dtd">
<svg width="100%" height="100%" viewBox="0 0 80 80" version="1.1" xmlns="http://www.w3.org/2000/svg" xmlns:xlink="http://www.w3.org/1999/xlink" xml:space="preserve" xmlns:serif="http://www.serif.com/" style="fill-rule:evenodd;clip-rule:evenodd;stroke-linejoin:round;stroke-miterlimit:2;">
    <g transform="matrix(1,0,0,1,-774.994,-3699.7)">
        <g transform="matrix(1.79259,0,0,6.19632,-363.772,-1405.52)">
            <g transform="matrix(0.557853,0,0,0.161386,200.77,226.831)">
                <path d="M816.257,3738.63L807.152,3733.32C806.907,3733.05 806.57,3732.88 806.178,3732.88C805.477,3732.88 804.889,3733.46 804.889,3734.17L804.889,3734.24L804.868,3734.24L804.889,3745.09L804.889,3745.24C804.889,3745.95 805.471,3746.53 806.178,3746.53C806.423,3746.53 806.641,3746.46 806.837,3746.36L816.137,3740.93C816.573,3740.74 816.866,3740.27 816.866,3739.76C816.888,3739.28 816.649,3738.84 816.257,3738.63ZM832.257,3738.63L823.152,3733.32C822.907,3733.05 822.57,3732.88 822.178,3732.88C821.477,3732.88 820.889,3733.46 820.889,3734.17L820.889,3734.24L820.868,3734.24L820.889,3745.09L820.889,3745.24C820.889,3745.95 821.471,3746.53 822.178,3746.53C822.423,3746.53 822.641,3746.46 822.837,3746.36L832.137,3740.93C832.573,3740.74 832.866,3740.27 832.866,3739.76C832.888,3739.28 832.649,3738.84 832.257,3738.63Z" style="fill:rgb(108,221,195);fill-rule:nonzero;"/>
            </g>
            <g transform="matrix(0.557853,0,0,0.170097,202.931,194.681)">
                <path d="M854.994,3722.01L774.994,3722.01L774.994,3752.37L854.994,3752.37L854.994,3722.01ZM778.994,3725.8L778.994,3748.58L850.994,3748.58L850.994,3725.8L778.994,3725.8Z" style="fill:rgb(17,155,255);"/>
            </g>
            <g transform="matrix(0.557853,0,0,0.161386,202.931,701.376)">
                <rect x="774.994" y="759.267" width="80" height="80" style="fill:none;"/>
            </g>
        </g>
    </g>
</svg>
