<?xml version="1.0" encoding="UTF-8" standalone="no"?>
<!DOCTYPE svg PUBLIC "-//W3C//DTD SVG 1.1//EN" "http://www.w3.org/Graphics/SVG/1.1/DTD/svg11.dtd">
<svg width="100%" height="100%" viewBox="0 0 80 80" version="1.1" xmlns="http://www.w3.org/2000/svg" xmlns:xlink="http://www.w3.org/1999/xlink" xml:space="preserve" xmlns:serif="http://www.serif.com/" style="fill-rule:evenodd;clip-rule:evenodd;stroke-linejoin:round;stroke-miterlimit:2;">
    <g transform="matrix(1,0,0,1,-469,-1322)">
        <g transform="matrix(1,0,0,1,2847.83,518.053)">
            <g transform="matrix(0.521152,0,0,0.521152,-2826.99,821.457)">
                <rect x="859.943" y="-33.506" width="153.506" height="153.506" style="fill:none;"/>
            </g>
            <g transform="matrix(0.154224,-1.18611e-17,-4.03715e-17,0.100883,-1625.46,768.103)">
                <g>
                    <g transform="matrix(0.692475,9.84855e-33,-3.47958e-32,1.05861,-10859.8,-2036.8)">
                        <path d="M9001.88,2407.92C8980.87,2407.92 8959.95,2410.86 8939.75,2416.66L9001.88,2633.33L9001.88,2407.92Z" style="fill:rgb(253,146,109);"/>
                    </g>
                    <g transform="matrix(0.745742,1.2326e-32,4.93038e-32,1.14005,-11339.3,-2251.24)">
                        <path d="M8939.75,2416.66C8911.94,2424.63 8885.92,2437.89 8863.11,2455.71L9001.88,2633.33L8939.75,2416.66Z" style="fill:rgb(255,189,109);"/>
                    </g>
                    <g transform="matrix(0.79901,0,0,1.22148,-11818.8,-2465.68)">
                        <path d="M8863.11,2455.71C8829.83,2481.71 8804.52,2516.54 8790.07,2556.23L9001.88,2633.33L8863.11,2455.71Z" style="fill:rgb(255,234,146);"/>
                    </g>
                    <g transform="matrix(0.852277,0,-4.28256e-32,1.30291,-12298.3,-2680.11)">
                        <path d="M8790.07,2556.23C8781.08,2580.94 8776.48,2607.03 8776.48,2633.33C8776.48,2667.57 8784.28,2701.36 8799.29,2732.14L9001.88,2633.33L8790.07,2556.23Z" style="fill:rgb(181,228,170);"/>
                    </g>
                    <g transform="matrix(0.905544,1.27562e-32,0,1.38434,-12777.8,-2894.55)">
                        <path d="M8799.29,2732.14C8837.07,2809.59 8915.7,2858.73 9001.88,2858.73C9012.38,2858.73 9022.86,2857.99 9033.25,2856.53L9001.88,2633.33L8799.29,2732.14Z" style="fill:rgb(108,221,195);"/>
                    </g>
                    <g transform="matrix(0.958812,0,0,1.46577,-13257.4,-3108.99)">
                        <path d="M9033.25,2856.53C9127.09,2843.35 9202.66,2772.88 9222.36,2680.19L9001.88,2633.33L9033.25,2856.53Z" style="fill:rgb(62,191,218);"/>
                    </g>
                    <g transform="matrix(1.07875,7.88276e-32,0,1.64913,-14337,-3591.82)">
                        <path d="M9222.36,2680.19C9225.63,2664.78 9227.28,2649.08 9227.28,2633.33C9227.28,2508.84 9126.37,2407.92 9001.88,2407.92L9001.88,2633.33L9222.36,2680.19Z" style="fill:rgb(17,155,255);"/>
                    </g>
                </g>
            </g>
        </g>
    </g>
</svg>
