<?xml version="1.0" encoding="UTF-8" standalone="no"?>
<!DOCTYPE svg PUBLIC "-//W3C//DTD SVG 1.1//EN" "http://www.w3.org/Graphics/SVG/1.1/DTD/svg11.dtd">
<svg width="100%" height="100%" viewBox="0 0 80 80" version="1.1" xmlns="http://www.w3.org/2000/svg" xmlns:xlink="http://www.w3.org/1999/xlink" xml:space="preserve" xmlns:serif="http://www.serif.com/" style="fill-rule:evenodd;clip-rule:evenodd;stroke-linejoin:round;stroke-miterlimit:2;">
    <g transform="matrix(1,0,0,1,-599,-3058)">
        <g transform="matrix(1,0,0,1,3052.16,702.3)">
            <g transform="matrix(0.521152,0,0,0.521152,-2901.33,2373.21)">
                <rect x="859.943" y="-33.506" width="153.506" height="153.506" style="fill:none;"/>
            </g>
            <g transform="matrix(1.79259,0,0,6.19632,-3591.93,-1669.73)">
                <g transform="matrix(0.628346,0,0,0.18178,145.182,99.5004)">
                    <circle cx="815.468" cy="3062.01" r="33.293" style="fill:rgb(17,155,255);"/>
                </g>
                <g transform="matrix(0.429012,0,0,0.124113,301.096,276.077)">
                    <circle cx="815.468" cy="3062.01" r="33.293" style="fill:rgb(108,221,195);"/>
                </g>
                <g transform="matrix(0.199334,0,0,0.057667,509.311,479.535)">
                    <circle cx="815.468" cy="3062.01" r="33.293" style="fill:rgb(108,221,195);"/>
                </g>
                <g transform="matrix(0.172926,0,0,0.0500274,526.315,499.569)">
                    <circle cx="815.468" cy="3062.01" r="33.293" style="fill:rgb(108,221,195);"/>
                </g>
                <g transform="matrix(0.0297778,0,0,0.00861467,636.299,626.304)">
                    <circle cx="815.468" cy="3062.01" r="33.293" style="fill:rgb(255,234,146);"/>
                </g>
                <g transform="matrix(0.0516132,0,0,0.0149316,618.365,606.177)">
                    <circle cx="815.468" cy="3062.01" r="33.293" style="fill:rgb(108,221,195);"/>
                </g>
                <g transform="matrix(0.0203435,0,0,0.00588534,642.471,634.451)">
                    <circle cx="815.468" cy="3062.01" r="33.293" style="fill:rgb(255,234,146);"/>
                </g>
                <g transform="matrix(0.0623238,0,0,0.0180302,623.647,598.497)">
                    <circle cx="815.468" cy="3062.01" r="33.293" style="fill:rgb(108,221,195);"/>
                </g>
                <g transform="matrix(0.107333,0,0,0.0310513,568.22,556.046)">
                    <circle cx="815.468" cy="3062.01" r="33.293" style="fill:rgb(255,234,146);"/>
                </g>
                <g transform="matrix(0.0671988,0,0,0.0194405,607.64,591.376)">
                    <circle cx="815.468" cy="3062.01" r="33.293" style="fill:rgb(253,146,109);"/>
                </g>
                <g transform="matrix(0.270356,0,0,0.0782135,425.193,416.621)">
                    <circle cx="815.468" cy="3062.01" r="33.293" style="fill:rgb(255,234,146);"/>
                </g>
                <g transform="matrix(0.158657,0,0,0.0458992,530.563,515.568)">
                    <circle cx="815.468" cy="3062.01" r="33.293" style="fill:rgb(255,234,146);"/>
                </g>
                <g transform="matrix(0.0677039,0,0,0.0195867,600.037,594.416)">
                    <circle cx="815.468" cy="3062.01" r="33.293" style="fill:rgb(255,234,146);"/>
                </g>
                <g transform="matrix(0.0394705,0,0,0.0114188,622.835,622.43)">
                    <circle cx="815.468" cy="3062.01" r="33.293" style="fill:rgb(253,146,109);"/>
                </g>
                <g transform="matrix(0.043841,0,0,0.0126832,624.363,621.003)">
                    <circle cx="815.468" cy="3062.01" r="33.293" style="fill:rgb(253,146,109);"/>
                </g>
                <g transform="matrix(0.0943223,0,0,0.0272873,583.7,577.616)">
                    <circle cx="815.468" cy="3062.01" r="33.293" style="fill:rgb(108,221,195);"/>
                </g>
                <g transform="matrix(0.115291,0,0,0.0333535,556.806,554.13)">
                    <circle cx="815.468" cy="3062.01" r="33.293" style="fill:rgb(253,146,109);"/>
                </g>
                <g transform="matrix(0.0291481,0,0,0.0084325,622.43,630.889)">
                    <circle cx="815.468" cy="3062.01" r="33.293" style="fill:rgb(253,146,109);"/>
                </g>
                <g transform="matrix(0.0377157,0,0,0.0109111,616.414,623.888)">
                    <circle cx="815.468" cy="3062.01" r="33.293" style="fill:rgb(253,146,109);"/>
                </g>
                <g transform="matrix(0.092104,0,0,0.0266456,567.901,576.056)">
                    <circle cx="815.468" cy="3062.01" r="33.293" style="fill:rgb(253,146,109);"/>
                </g>
                <g transform="matrix(0.0688694,0,0,0.0199238,604.057,597.294)">
                    <circle cx="815.468" cy="3062.01" r="33.293" style="fill:rgb(255,234,146);"/>
                </g>
                <g transform="matrix(0.17248,0,0,0.0498983,526.664,506.687)">
                    <circle cx="815.468" cy="3062.01" r="33.293" style="fill:rgb(108,221,195);"/>
                </g>
                <g transform="matrix(0.0196637,0,0,0.0056887,638.825,637.813)">
                    <circle cx="815.468" cy="3062.01" r="33.293" style="fill:rgb(255,234,146);"/>
                </g>
                <g transform="matrix(0.0762212,0,0,0.0220507,606.71,587.798)">
                    <circle cx="815.468" cy="3062.01" r="33.293" style="fill:rgb(255,234,146);"/>
                </g>
                <g transform="matrix(0.0512432,0,0,0.0148246,625.273,611.035)">
                    <circle cx="815.468" cy="3062.01" r="33.293" style="fill:rgb(253,146,109);"/>
                </g>
                <g transform="matrix(0.0324284,0,0,0.00938151,643.402,627.6)">
                    <circle cx="815.468" cy="3062.01" r="33.293" style="fill:rgb(253,146,109);"/>
                </g>
                <g transform="matrix(0.114633,0,0,0.0331632,581.2,554.53)">
                    <circle cx="815.468" cy="3062.01" r="33.293" style="fill:rgb(255,234,146);"/>
                </g>
            </g>
        </g>
    </g>
</svg>
