<?xml version="1.0" encoding="UTF-8" standalone="no"?>
<!DOCTYPE svg PUBLIC "-//W3C//DTD SVG 1.1//EN" "http://www.w3.org/Graphics/SVG/1.1/DTD/svg11.dtd">
<svg width="100%" height="100%" viewBox="0 0 80 80" version="1.1" xmlns="http://www.w3.org/2000/svg" xmlns:xlink="http://www.w3.org/1999/xlink" xml:space="preserve" xmlns:serif="http://www.serif.com/" style="fill-rule:evenodd;clip-rule:evenodd;stroke-linejoin:round;stroke-miterlimit:2;">
    <g transform="matrix(1,0,0,1,-859,-1322)">
        <g transform="matrix(1,0,0,1,3237.83,380.217)">
            <g transform="matrix(0.521152,0,0,0.521152,-2826.99,959.293)">
                <rect x="859.943" y="-33.506" width="153.506" height="153.506" style="fill:none;"/>
            </g>
            <g transform="matrix(0.154224,-1.18611e-17,-4.03715e-17,0.100883,-1625.72,906.214)">
                <g>
                    <g transform="matrix(1.07875,7.88276e-32,0,1.64913,-14337,-3591.82)">
                        <path d="M9174.55,2488.44C9131.72,2437.4 9068.51,2407.92 9001.88,2407.92L9001.88,2633.33L9174.55,2488.44Z" style="fill:rgb(17,155,255);"/>
                    </g>
                    <g transform="matrix(0.934226,3.74543e-32,-1.24007e-31,1.42819,-13036,-3010.01)">
                        <path d="M9213.69,2710.42C9222.68,2685.71 9227.28,2659.62 9227.28,2633.33C9227.28,2593.76 9216.87,2554.89 9197.09,2520.62L9001.88,2633.33L9213.69,2710.42Z" style="fill:rgb(62,191,218);"/>
                    </g>
                    <g transform="matrix(0.809063,3.94306e-32,-8.60082e-32,1.23685,-11909.3,-2506.15)">
                        <path d="M9041.02,2855.3C9106.64,2843.73 9163.77,2803.73 9197.09,2746.03L9001.88,2633.33L9041.02,2855.3Z" style="fill:rgb(108,221,195);"/>
                    </g>
                    <g transform="matrix(0.934226,3.92991e-32,-2.04271e-31,1.42819,-13036,-3010.01)">
                        <path d="M8829.21,2778.21C8872.04,2829.25 8935.26,2858.73 9001.88,2858.73L9001.88,2633.33L8829.21,2778.21Z" style="fill:rgb(181,228,170);"/>
                    </g>
                    <g transform="matrix(0.809063,6.87634e-32,-2.2922e-31,1.23685,-11909.3,-2506.15)">
                        <path d="M8790.07,2556.23C8781.08,2580.94 8776.48,2607.03 8776.48,2633.33C8776.48,2672.89 8786.9,2711.76 8806.68,2746.03L9001.88,2633.33L8790.07,2556.23Z" style="fill:rgb(255,234,146);"/>
                    </g>
                    <g transform="matrix(0.652915,4.47618e-32,-1.19365e-31,0.998137,-10503.7,-1877.55)">
                        <path d="M8962.74,2411.35C8897.13,2422.92 8839.99,2462.92 8806.68,2520.62L9001.88,2633.33L8962.74,2411.35Z" style="fill:rgb(255,189,109);"/>
                    </g>
                </g>
            </g>
        </g>
    </g>
</svg>
