<?xml version="1.0" encoding="UTF-8" standalone="no"?>
<!DOCTYPE svg PUBLIC "-//W3C//DTD SVG 1.1//EN" "http://www.w3.org/Graphics/SVG/1.1/DTD/svg11.dtd">
<svg width="100%" height="100%" viewBox="0 0 80 80" version="1.1" xmlns="http://www.w3.org/2000/svg" xmlns:xlink="http://www.w3.org/1999/xlink" xml:space="preserve" xmlns:serif="http://www.serif.com/" style="fill-rule:evenodd;clip-rule:evenodd;stroke-linejoin:round;stroke-miterlimit:1.5;">
    <g transform="matrix(1,0,0,1,-995.487,-509.952)">
        <g transform="matrix(1,0,0,1,1579.21,120.437)">
            <g id="_-" serif:id=" " transform="matrix(1,0,0,1,-932.223,-451.246)">
                <g transform="matrix(0.521152,0,0,0.521152,-99.6654,858.223)">
                    <rect x="859.943" y="-33.506" width="153.506" height="153.506" style="fill:none;"/>
                </g>
                <g>
                    <g transform="matrix(-0.442315,0,0,0.138138,386.256,901.926)">
                        <rect x="60.75" y="36.125" width="13.565" height="63" style="fill:rgb(17,155,255);"/>
                    </g>
                    <g transform="matrix(-0.442315,0,0,0.123752,386.256,894.65)">
                        <rect x="60.75" y="36.125" width="13.565" height="63" style="fill:rgb(108,221,195);"/>
                    </g>
                    <g transform="matrix(-0.442315,0,0,0.123752,386.256,887.035)">
                        <rect x="60.75" y="36.125" width="13.565" height="63" style="fill:rgb(255,234,146);"/>
                    </g>
                    <g transform="matrix(-0.442315,0,0,0.540894,402.256,862.003)">
                        <rect x="60.75" y="36.125" width="13.565" height="63" style="fill:rgb(17,155,255);"/>
                    </g>
                    <g transform="matrix(-0.442315,0,0,0.161014,402.256,865.936)">
                        <rect x="60.75" y="36.125" width="13.565" height="63" style="fill:rgb(108,221,195);"/>
                    </g>
                    <g transform="matrix(-0.442315,0,0,0.195548,402.256,852.722)">
                        <rect x="60.75" y="36.125" width="13.565" height="63" style="fill:rgb(255,234,146);"/>
                    </g>
                    <g transform="matrix(-0.444444,0,0,0.174313,458.386,897.164)">
                        <rect x="114.75" y="36.125" width="13.5" height="69.75" style="fill:rgb(17,155,255);"/>
                    </g>
                    <g transform="matrix(-0.444444,0,0,0.236698,458.386,878.593)">
                        <rect x="114.75" y="36.125" width="13.5" height="69.75" style="fill:rgb(108,221,195);"/>
                    </g>
                    <g transform="matrix(-0.444444,0,0,0.127524,458.386,873.834)">
                        <rect x="114.75" y="36.125" width="13.5" height="69.75" style="fill:rgb(255,234,146);"/>
                    </g>
                    <g transform="matrix(-0.444444,0,0,0.465091,430.386,876.842)">
                        <rect x="87.75" y="36.125" width="13.5" height="47.25" style="fill:rgb(17,155,255);"/>
                    </g>
                    <g transform="matrix(-0.444444,0,0,0.211837,430.386,876.2)">
                        <rect x="87.75" y="36.125" width="13.5" height="47.25" style="fill:rgb(108,221,195);"/>
                    </g>
                    <g transform="matrix(-0.444444,0,0,0.211837,430.386,866.41)">
                        <rect x="87.75" y="36.125" width="13.5" height="47.25" style="fill:rgb(255,234,146);"/>
                    </g>
                    <g transform="matrix(-0.444444,0,0,0.875375,486.386,856.422)">
                        <rect x="141.75" y="36.125" width="13.5" height="31.5" style="fill:rgb(17,155,255);"/>
                    </g>
                    <g transform="matrix(-0.444444,0,0,0.806306,486.386,833.897)">
                        <rect x="141.75" y="36.125" width="13.5" height="31.5" style="fill:rgb(108,221,195);"/>
                    </g>
                    <g transform="matrix(-0.444444,0,0,0.564565,486.386,825.224)">
                        <rect x="141.75" y="36.125" width="13.5" height="31.5" style="fill:rgb(255,234,146);"/>
                    </g>
                </g>
                <g transform="matrix(1,0,0,1,-646.991,330.81)">
                    <path d="M1003.23,543.253L1019.3,534.944L1035.33,538.909L1052.01,534.944L1067.47,523.451" style="fill:none;stroke:rgb(252,146,109);stroke-width:2px;"/>
                </g>
            </g>
        </g>
    </g>
</svg>
