<?xml version="1.0" encoding="UTF-8" standalone="no"?>
<!DOCTYPE svg PUBLIC "-//W3C//DTD SVG 1.1//EN" "http://www.w3.org/Graphics/SVG/1.1/DTD/svg11.dtd">
<svg width="100%" height="100%" viewBox="0 0 80 80" version="1.1" xmlns="http://www.w3.org/2000/svg" xmlns:xlink="http://www.w3.org/1999/xlink" xml:space="preserve" xmlns:serif="http://www.serif.com/" style="fill-rule:evenodd;clip-rule:evenodd;stroke-linejoin:round;stroke-miterlimit:2;">
    <g transform="matrix(1,0,0,1,-729,-3996)">
        <g transform="matrix(1,0,0,1,2431.35,1275.44)">
            <g transform="matrix(0.521152,0,0,0.521152,-2150.51,2738.07)">
                <rect x="859.943" y="-33.506" width="153.506" height="153.506" style="fill:none;"/>
            </g>
            <g transform="matrix(1.79259,0,0,6.19632,-2841.12,-901.188)">
                <g>
                    <g transform="matrix(0.557853,0,0,0.161386,202.931,226.831)">
                        <path d="M814.994,2220.3C817.863,2223.19 821.858,2223.31 827.093,2221.93C832.329,2220.54 833.552,2223.36 834.994,2228.06C836.436,2232.76 843.744,2230.36 844.994,2236.93C846.244,2243.49 850.588,2242.65 849.323,2249.44C848.059,2256.22 847.787,2257.31 849.323,2263.8C850.86,2270.29 849.212,2269.56 844.049,2273.07C838.886,2276.57 838.943,2280.36 834.994,2284.86C831.045,2289.36 829.245,2290.95 823.349,2288.62C817.453,2286.29 811.572,2292.94 807.113,2288.62C802.655,2284.3 792.579,2292.43 792.505,2281.27C792.43,2270.1 781.27,2279.67 783.636,2266.28C786.002,2252.9 772.497,2250.18 783.636,2244.18C794.774,2238.19 780.028,2229.33 791.465,2230.1C802.902,2230.87 795.884,2222.56 802.496,2223.79C809.108,2225.03 810.419,2215.7 814.994,2220.3ZM814.994,2236.28C826.032,2236.28 834.994,2245.24 834.994,2256.28C834.994,2267.32 826.032,2276.28 814.994,2276.28C803.956,2276.28 794.994,2267.32 794.994,2256.28C794.994,2245.24 803.956,2236.28 814.994,2236.28Z" style="fill:rgb(17,155,255);"/>
                    </g>
                    <g transform="matrix(0.557853,0,0,0.161386,202.931,226.831)">
                        <path d="M814.994,2229.44C822.413,2236.81 824.141,2231.66 830.176,2231.89C833.827,2232.03 833.294,2239.49 834.994,2241.73C837.566,2245.12 841.554,2243.94 841.579,2246.28C841.6,2248.33 839.131,2249.8 838.568,2255.1C837.93,2261.11 842.167,2259.36 841.579,2262.81C840.913,2266.7 834.803,2266.15 833.249,2271C830.558,2279.4 831.263,2281.7 819.311,2277.91C807.358,2274.11 804.808,2288.41 801.288,2276.28C797.768,2264.16 788.771,2274.72 792.146,2266.28C795.521,2257.84 780.473,2255.68 792.146,2248.18C803.82,2240.68 790.275,2230.9 802.494,2233.92C814.713,2236.93 811.826,2226.29 814.994,2229.44ZM814.994,2236.28C826.032,2236.28 834.994,2245.24 834.994,2256.28C834.994,2267.32 826.032,2276.28 814.994,2276.28C803.956,2276.28 794.994,2267.32 794.994,2256.28C794.994,2245.24 803.956,2236.28 814.994,2236.28Z" style="fill:rgb(108,221,195);"/>
                    </g>
                    <g transform="matrix(0.277429,0,0,0.0802598,672.777,470.23)">
                        <path d="M-54.785,1464.07C-32.589,1464.07 -14.569,1482.09 -14.569,1504.28C-14.569,1526.48 -32.589,1544.5 -54.785,1544.5C-76.981,1544.5 -95.001,1526.48 -95.001,1504.28C-95.001,1482.09 -76.981,1464.07 -54.785,1464.07ZM-54.785,1473.27C-37.667,1473.27 -23.769,1487.16 -23.769,1504.28C-23.769,1521.4 -37.667,1535.3 -54.785,1535.3C-71.903,1535.3 -85.801,1521.4 -85.801,1504.28C-85.801,1487.16 -71.903,1473.27 -54.785,1473.27Z" style="fill:rgb(255,234,146);"/>
                    </g>
                    <g transform="matrix(0.138714,0,0,0.0401299,665.178,530.597)">
                        <path d="M-54.785,1464.07C-32.589,1464.07 -14.569,1482.09 -14.569,1504.28C-14.569,1526.48 -32.589,1544.5 -54.785,1544.5C-76.981,1544.5 -95.001,1526.48 -95.001,1504.28C-95.001,1482.09 -76.981,1464.07 -54.785,1464.07ZM-54.785,1478.76C-40.7,1478.76 -29.265,1490.2 -29.265,1504.28C-29.265,1518.37 -40.7,1529.8 -54.785,1529.8C-68.87,1529.8 -80.305,1518.37 -80.305,1504.28C-80.305,1490.2 -68.87,1478.76 -54.785,1478.76Z" style="fill:rgb(253,146,109);"/>
                    </g>
                    <g transform="matrix(0.557853,0,0,0.161386,202.931,226.831)">
                        <rect x="774.994" y="2216.28" width="80" height="80" style="fill:none;"/>
                    </g>
                </g>
            </g>
        </g>
    </g>
</svg>
