<?xml version="1.0" encoding="UTF-8" standalone="no"?>
<!DOCTYPE svg PUBLIC "-//W3C//DTD SVG 1.1//EN" "http://www.w3.org/Graphics/SVG/1.1/DTD/svg11.dtd">
<svg width="100%" height="100%" viewBox="0 0 80 80" version="1.1" xmlns="http://www.w3.org/2000/svg" xmlns:xlink="http://www.w3.org/1999/xlink" xml:space="preserve" xmlns:serif="http://www.serif.com/" style="fill-rule:evenodd;clip-rule:evenodd;stroke-linejoin:round;stroke-miterlimit:2;">
    <g transform="matrix(1,0,0,1,-469,-4934)">
        <g transform="matrix(1,0,0,1,1636.43,845.461)">
            <g transform="matrix(0.521152,0,0,0.521152,-1615.59,4106.05)">
                <rect x="859.943" y="-33.506" width="153.506" height="153.506" style="fill:none;"/>
            </g>
            <g transform="matrix(0.335336,0,0,1.00601,-1282.1,-25.0367)">
                <path d="M431.42,4098.99L371.778,4098.99L371.778,4158.63L431.42,4158.63L431.42,4098.99ZM383.706,4102.97L383.706,4154.66L419.491,4154.66L419.491,4102.97L383.706,4102.97Z" style="fill:rgb(108,221,195);"/>
            </g>
            <g transform="matrix(1,0,0,1,-1528.91,1.42109e-14)">
                <path d="M395.475,4158.59L395.475,4098.59L431.475,4098.59L431.475,4158.59L395.475,4158.59ZM411.475,4102.59L399.475,4102.59L399.475,4154.59L411.475,4154.59L411.475,4102.59ZM415.475,4102.59L415.475,4154.59L427.475,4154.59L427.475,4102.59L415.475,4102.59Z" style="fill:url(#_Linear1);"/>
            </g>
        </g>
    </g>
    <defs>
        <linearGradient id="_Linear1" x1="0" y1="0" x2="1" y2="0" gradientUnits="userSpaceOnUse" gradientTransform="matrix(34.9213,60,-60,34.9213,397.441,4098.59)"><stop offset="0" style="stop-color:rgb(17,155,255);stop-opacity:1"/><stop offset="0.7" style="stop-color:rgb(108,221,195);stop-opacity:1"/><stop offset="1" style="stop-color:rgb(255,234,146);stop-opacity:1"/></linearGradient>
    </defs>
</svg>
