<?xml version="1.0" encoding="UTF-8" standalone="no"?>
<!DOCTYPE svg PUBLIC "-//W3C//DTD SVG 1.1//EN" "http://www.w3.org/Graphics/SVG/1.1/DTD/svg11.dtd">
<svg width="100%" height="100%" viewBox="0 0 80 80" version="1.1" xmlns="http://www.w3.org/2000/svg" xmlns:xlink="http://www.w3.org/1999/xlink" xml:space="preserve" xmlns:serif="http://www.serif.com/" style="fill-rule:evenodd;clip-rule:evenodd;stroke-linejoin:round;stroke-miterlimit:2;">
    <g transform="matrix(1,0,0,1,-469,-3996)">
        <g transform="matrix(1,0,0,1,2309.83,469.485)">
            <g transform="matrix(0.521152,0,0,0.521152,-2288.99,3544.03)">
                <rect x="859.943" y="-33.506" width="153.506" height="153.506" style="fill:none;"/>
            </g>
            <g transform="matrix(0.918181,0,0,0.918181,-1856.45,447.793)">
                <g transform="matrix(0.223351,-9.46996e-33,-1.23201e-32,0.220283,-156.378,3329.9)">
                    <circle cx="820" cy="204" r="36" style="fill:rgb(17,155,255);fill-opacity:0.75;"/>
                </g>
                <g transform="matrix(0.255459,-1.08313e-32,-1.40912e-32,0.251949,-168.933,3323.44)">
                    <circle cx="820" cy="204" r="36" style="fill:rgb(17,155,255);fill-opacity:0.75;"/>
                </g>
                <g transform="matrix(0.195996,-8.31012e-33,-1.08112e-32,0.193303,-106.401,3335.4)">
                    <circle cx="820" cy="204" r="36" style="fill:rgb(17,155,255);fill-opacity:0.75;"/>
                </g>
                <g transform="matrix(0.209005,-8.8617e-33,-1.15288e-32,0.206134,-103.295,3332.79)">
                    <circle cx="820" cy="204" r="36" style="fill:rgb(17,155,255);fill-opacity:0.75;"/>
                </g>
                <g transform="matrix(0.214155,-9.08002e-33,-1.18128e-32,0.211212,-79.9721,3331.75)">
                    <circle cx="820" cy="204" r="36" style="fill:rgb(17,155,255);fill-opacity:0.75;"/>
                </g>
                <g transform="matrix(0.176633,-7.48912e-33,-9.74308e-33,0.174206,-62.9771,3339.3)">
                    <circle cx="820" cy="204" r="36" style="fill:rgb(17,155,255);fill-opacity:0.75;"/>
                </g>
                <g transform="matrix(0.213375,-9.04696e-33,-1.17698e-32,0.210443,-148.197,3346.73)">
                    <circle cx="820" cy="204" r="36" style="fill:rgb(108,221,195);fill-opacity:0.75;"/>
                </g>
                <g transform="matrix(0.230613,-9.77784e-33,-1.27206e-32,0.227445,-148.559,3343.27)">
                    <circle cx="820" cy="204" r="36" style="fill:rgb(108,221,195);fill-opacity:0.75;"/>
                </g>
                <g transform="matrix(0.192607,-8.16644e-33,-1.06242e-32,0.189961,-103.622,3350.91)">
                    <circle cx="820" cy="204" r="36" style="fill:rgb(108,221,195);fill-opacity:0.75;"/>
                </g>
                <g transform="matrix(0.205066,-8.69466e-33,-1.13114e-32,0.202248,-100.065,3348.41)">
                    <circle cx="820" cy="204" r="36" style="fill:rgb(108,221,195);fill-opacity:0.75;"/>
                </g>
                <g transform="matrix(0.185914,-7.88264e-33,-1.0255e-32,0.18336,-70.5877,3352.26)">
                    <circle cx="820" cy="204" r="36" style="fill:rgb(108,221,195);fill-opacity:0.75;"/>
                </g>
                <g transform="matrix(0.179655,-7.61728e-33,-9.90981e-33,0.177187,-51.6829,3353.52)">
                    <circle cx="820" cy="204" r="36" style="fill:rgb(108,221,195);fill-opacity:0.75;"/>
                </g>
                <g transform="matrix(0.19333,-8.19709e-33,-1.06641e-32,0.190674,-131.761,3365.54)">
                    <circle cx="820" cy="204" r="36" style="fill:rgb(181,228,170);fill-opacity:0.75;"/>
                </g>
                <g transform="matrix(0.214434,-9.09186e-33,-1.18282e-32,0.211488,-135.292,3361.29)">
                    <circle cx="820" cy="204" r="36" style="fill:rgb(181,228,170);fill-opacity:0.75;"/>
                </g>
                <g transform="matrix(0.179432,-7.60781e-33,-9.89748e-33,0.176967,-92.8181,3368.33)">
                    <circle cx="820" cy="204" r="36" style="fill:rgb(181,228,170);fill-opacity:0.75;"/>
                </g>
                <g transform="matrix(0.210545,-8.92696e-33,-1.16137e-32,0.207652,-104.558,3362.07)">
                    <circle cx="820" cy="204" r="36" style="fill:rgb(181,228,170);fill-opacity:0.75;"/>
                </g>
                <g transform="matrix(0.187885,-7.96621e-33,-1.03638e-32,0.185304,-72.2039,3366.63)">
                    <circle cx="820" cy="204" r="36" style="fill:rgb(181,228,170);fill-opacity:0.75;"/>
                </g>
                <g transform="matrix(0.172478,-7.31296e-33,-9.5139e-33,0.170108,-45.7973,3369.73)">
                    <circle cx="820" cy="204" r="36" style="fill:rgb(181,228,170);fill-opacity:0.75;"/>
                </g>
                <g transform="matrix(0.2547,-1.1002e-32,-1.40493e-32,0.25592,-182.083,3366.18)">
                    <circle cx="820" cy="204" r="36" style="fill:rgb(255,234,146);fill-opacity:0.9;"/>
                </g>
                <g transform="matrix(0.235508,-1.0173e-32,-1.29906e-32,0.236636,-152.573,3370.11)">
                    <circle cx="820" cy="204" r="36" style="fill:rgb(255,234,146);fill-opacity:0.9;"/>
                </g>
                <g transform="matrix(0.244718,-1.05708e-32,-1.34987e-32,0.245891,-146.353,3368.22)">
                    <circle cx="820" cy="204" r="36" style="fill:rgb(255,234,146);fill-opacity:0.9;"/>
                </g>
                <g transform="matrix(0.233317,-1.00783e-32,-1.28698e-32,0.234435,-123.231,3370.56)">
                    <circle cx="820" cy="204" r="36" style="fill:rgb(255,234,146);fill-opacity:0.9;"/>
                </g>
                <g transform="matrix(0.229675,-9.92105e-33,-1.26689e-32,0.230776,-106.472,3371.31)">
                    <circle cx="820" cy="204" r="36" style="fill:rgb(255,234,146);fill-opacity:0.9;"/>
                </g>
                <g transform="matrix(0.220272,-9.51487e-33,-1.21502e-32,0.221327,-84.9885,3373.23)">
                    <circle cx="820" cy="204" r="36" style="fill:rgb(255,234,146);fill-opacity:0.9;"/>
                </g>
                <g transform="matrix(0.383424,0,0,0.387477,14.1992,3075.24)">
                    <text x="59.43px" y="776.702px" style="font-family:'MicrosoftYaHeiUILight', 'Microsoft YaHei UI', sans-serif;font-weight:290;font-size:8.438px;fill:white;">96.7</text>
                    <text x="59.285px" y="814.902px" style="font-family:'MicrosoftYaHeiUILight', 'Microsoft YaHei UI', sans-serif;font-weight:290;font-size:8.438px;fill:white;">94.9</text>
                    <text x="60.009px" y="853.102px" style="font-family:'MicrosoftYaHeiUILight', 'Microsoft YaHei UI', sans-serif;font-weight:290;font-size:8.438px;fill:white;">94.1</text>
                    <text x="59.285px" y="888.891px" style="font-family:'MicrosoftYaHeiUILight', 'Microsoft YaHei UI', sans-serif;font-weight:290;font-size:8.438px;fill:white;">95.7</text>
                </g>
                <g transform="matrix(0.383424,0,0,0.387477,28.0141,3075.22)">
                    <text x="59.358px" y="776.702px" style="font-family:'MicrosoftYaHeiUILight', 'Microsoft YaHei UI', sans-serif;font-weight:290;font-size:8.438px;fill:white;">95.9</text>
                    <text x="59.358px" y="814.902px" style="font-family:'MicrosoftYaHeiUILight', 'Microsoft YaHei UI', sans-serif;font-weight:290;font-size:8.438px;fill:white;">92.5</text>
                    <text x="59.285px" y="853.102px" style="font-family:'MicrosoftYaHeiUILight', 'Microsoft YaHei UI', sans-serif;font-weight:290;font-size:8.438px;fill:white;">94.3</text>
                    <text x="59.285px" y="888.891px" style="font-family:'MicrosoftYaHeiUILight', 'Microsoft YaHei UI', sans-serif;font-weight:290;font-size:8.438px;fill:white;">93.4</text>
                </g>
                <g transform="matrix(0.383424,0,0,0.387477,41.8133,3075.18)">
                    <text x="59.43px" y="776.702px" style="font-family:'MicrosoftYaHeiUILight', 'Microsoft YaHei UI', sans-serif;font-weight:290;font-size:8.438px;fill:white;">92.7</text>
                    <text x="59.358px" y="814.902px" style="font-family:'MicrosoftYaHeiUILight', 'Microsoft YaHei UI', sans-serif;font-weight:290;font-size:8.438px;fill:white;">92.6</text>
                    <text x="60.081px" y="853.102px" style="font-family:'MicrosoftYaHeiUILight', 'Microsoft YaHei UI', sans-serif;font-weight:290;font-size:8.438px;fill:white;">91.5</text>
                    <text x="59.358px" y="888.891px" style="font-family:'MicrosoftYaHeiUILight', 'Microsoft YaHei UI', sans-serif;font-weight:290;font-size:8.438px;fill:white;">92.8</text>
                </g>
                <g transform="matrix(0.383424,0,0,0.387477,55.6282,3075.18)">
                    <text x="59.358px" y="776.702px" style="font-family:'MicrosoftYaHeiUILight', 'Microsoft YaHei UI', sans-serif;font-weight:290;font-size:8.438px;fill:white;">95.2</text>
                    <text x="60.009px" y="814.902px" style="font-family:'MicrosoftYaHeiUILight', 'Microsoft YaHei UI', sans-serif;font-weight:290;font-size:8.438px;fill:white;">91.4</text>
                    <text x="60.081px" y="853.102px" style="font-family:'MicrosoftYaHeiUILight', 'Microsoft YaHei UI', sans-serif;font-weight:290;font-size:8.438px;fill:white;">92.1</text>
                    <text x="59.358px" y="888.891px" style="font-family:'MicrosoftYaHeiUILight', 'Microsoft YaHei UI', sans-serif;font-weight:290;font-size:8.438px;fill:white;">91.5</text>
                </g>
                <g transform="matrix(0.383424,0,0,0.387477,69.4147,3075.13)">
                    <text x="59.358px" y="776.702px" style="font-family:'MicrosoftYaHeiUILight', 'Microsoft YaHei UI', sans-serif;font-weight:290;font-size:8.438px;fill:white;">88.5</text>
                    <text x="60.081px" y="814.902px" style="font-family:'MicrosoftYaHeiUILight', 'Microsoft YaHei UI', sans-serif;font-weight:290;font-size:8.438px;fill:white;">89.1</text>
                    <text x="59.358px" y="853.102px" style="font-family:'MicrosoftYaHeiUILight', 'Microsoft YaHei UI', sans-serif;font-weight:290;font-size:8.438px;fill:white;">90.2</text>
                    <text x="59.358px" y="888.891px" style="font-family:'MicrosoftYaHeiUILight', 'Microsoft YaHei UI', sans-serif;font-weight:290;font-size:8.438px;fill:white;">90.1</text>
                </g>
                <g transform="matrix(0.383424,0,0,0.387477,0.392147,3075.24)">
                    <text x="60.081px" y="776.702px" style="font-family:'MicrosoftYaHeiUILight', 'Microsoft YaHei UI', sans-serif;font-weight:290;font-size:8.438px;fill:white;">95.1</text>
                    <text x="59.358px" y="814.902px" style="font-family:'MicrosoftYaHeiUILight', 'Microsoft YaHei UI', sans-serif;font-weight:290;font-size:8.438px;fill:white;">96.2</text>
                    <text x="59.358px" y="853.102px" style="font-family:'MicrosoftYaHeiUILight', 'Microsoft YaHei UI', sans-serif;font-weight:290;font-size:8.438px;fill:white;">95.9</text>
                    <text x="59.358px" y="888.891px" style="font-family:'MicrosoftYaHeiUILight', 'Microsoft YaHei UI', sans-serif;font-weight:290;font-size:8.438px;fill:white;">96.8</text>
                </g>
            </g>
        </g>
    </g>
</svg>
