<?xml version="1.0" encoding="UTF-8" standalone="no"?>
<!DOCTYPE svg PUBLIC "-//W3C//DTD SVG 1.1//EN" "http://www.w3.org/Graphics/SVG/1.1/DTD/svg11.dtd">
<svg width="100%" height="100%" viewBox="0 0 80 80" version="1.1" xmlns="http://www.w3.org/2000/svg" xmlns:xlink="http://www.w3.org/1999/xlink" xml:space="preserve" xmlns:serif="http://www.serif.com/" style="fill-rule:evenodd;clip-rule:evenodd;stroke-linejoin:round;stroke-miterlimit:2;">
    <g transform="matrix(1,0,0,1,-339,-4668)">
        <g transform="matrix(1,0,0,1,1369.85,968.346)">
            <g transform="matrix(0.521152,0,0,0.521152,-1479.01,3717.16)">
                <rect x="859.943" y="-33.506" width="153.506" height="153.506" style="fill:none;"/>
            </g>
            <g transform="matrix(1,0,0,1,-1528.91,0)">
                <path d="M508.123,3709.64L568.123,3709.64L568.123,3769.64L508.123,3769.64L508.123,3709.64ZM564.123,3728.27L512.123,3728.27L512.123,3765.64L564.123,3765.64L564.123,3728.27ZM545.761,3746.8L534.518,3740.25C534.215,3739.92 533.799,3739.7 533.315,3739.7C532.449,3739.7 531.723,3740.42 531.723,3741.29L531.723,3741.38L531.697,3741.38L531.723,3754.79L531.723,3754.97C531.723,3755.84 532.442,3756.56 533.315,3756.56C533.618,3756.56 533.886,3756.47 534.128,3756.35L545.613,3749.65C546.151,3749.41 546.514,3748.84 546.514,3748.21C546.54,3747.62 546.245,3747.07 545.761,3746.8ZM564.123,3713.64L555.137,3713.64L561.277,3724.27L564.123,3724.27L564.123,3713.64ZM512.123,3713.64L512.123,3724.27L520.978,3724.27L514.837,3713.64L512.123,3713.64ZM519.456,3713.64L525.596,3724.27L532.871,3724.27L526.73,3713.64L519.456,3713.64ZM531.349,3713.64L537.49,3724.27L544.765,3724.27L538.624,3713.64L531.349,3713.64ZM543.243,3713.64L549.384,3724.27L556.659,3724.27L550.518,3713.64L543.243,3713.64Z" style="fill:url(#_Linear1);fill-rule:nonzero;"/>
            </g>
        </g>
    </g>
    <defs>
        <linearGradient id="_Linear1" x1="0" y1="0" x2="1" y2="0" gradientUnits="userSpaceOnUse" gradientTransform="matrix(53.5056,75,-75,53.5056,519.553,3699.7)"><stop offset="0" style="stop-color:rgb(17,155,255);stop-opacity:1"/><stop offset="0.47" style="stop-color:rgb(108,221,195);stop-opacity:1"/><stop offset="1" style="stop-color:rgb(255,234,146);stop-opacity:1"/></linearGradient>
    </defs>
</svg>
