<?xml version="1.0" encoding="UTF-8" standalone="no"?>
<!DOCTYPE svg PUBLIC "-//W3C//DTD SVG 1.1//EN" "http://www.w3.org/Graphics/SVG/1.1/DTD/svg11.dtd">
<svg width="100%" height="100%" viewBox="0 0 80 80" version="1.1" xmlns="http://www.w3.org/2000/svg" xmlns:xlink="http://www.w3.org/1999/xlink" xml:space="preserve" xmlns:serif="http://www.serif.com/" style="fill-rule:evenodd;clip-rule:evenodd;stroke-linejoin:round;stroke-miterlimit:1;">
    <g transform="matrix(1,0,0,1,-599,-244)">
        <g transform="matrix(1,0,0,1,3112.11,888.42)">
            <g transform="matrix(1,0,0,1,-2861.24,-1157.84)">
                <g transform="matrix(0.521152,0,0,0.521152,-100.034,530.833)">
                    <rect x="859.943" y="-33.506" width="153.506" height="153.506" style="fill:none;"/>
                </g>
                <g>
                    <g transform="matrix(1.14706,0,0,0.977492,-972.395,-1733.43)">
                        <path d="M1220,2328L1220,2370L1152,2370L1152,2354L1165.6,2343L1179.2,2336L1192.8,2308.62L1206.4,2325L1220,2328Z" style="fill:rgb(0,126,255);fill-opacity:0.6;"/>
                    </g>
                    <g transform="matrix(1.14706,0,0,0.977492,-972.395,-1733.43)">
                        <path d="M1152,2354L1165.6,2343L1179.2,2336L1192.8,2308.62L1206.4,2325L1220,2328" style="fill:none;stroke:rgb(17,155,255);stroke-width:1.88px;"/>
                    </g>
                </g>
            </g>
        </g>
    </g>
</svg>
