<?xml version="1.0" encoding="UTF-8" standalone="no"?>
<!DOCTYPE svg PUBLIC "-//W3C//DTD SVG 1.1//EN" "http://www.w3.org/Graphics/SVG/1.1/DTD/svg11.dtd">
<svg width="100%" height="100%" viewBox="0 0 80 80" version="1.1" xmlns="http://www.w3.org/2000/svg" xmlns:xlink="http://www.w3.org/1999/xlink" xml:space="preserve" xmlns:serif="http://www.serif.com/" style="fill-rule:evenodd;clip-rule:evenodd;stroke-linejoin:round;stroke-miterlimit:2;">
    <g transform="matrix(1,0,0,1,-348.13,-513.42)">
        <g>
            <g>
                <g transform="matrix(0.521152,0,0,0.521152,-100.034,530.833)">
                    <rect x="859.943" y="-33.506" width="153.506" height="153.506" style="fill:none;"/>
                </g>
                <g>
                    <g transform="matrix(1.14706,0,0,0.977492,-972.395,-1733.43)">
                        <path d="M1220,2328L1220,2370L1152,2370L1152,2354L1165.6,2343L1179.2,2336L1192.8,2308.62L1206.4,2325L1220,2328Z" style="fill:url(#_Linear1);"/>
                    </g>
                    <g transform="matrix(1.14706,0,0,0.977492,-972.395,-1733.43)">
                        <path d="M1152.5,2354.84L1166.03,2343.9C1166.03,2343.9 1179.55,2336.94 1179.55,2336.94C1179.72,2336.85 1179.86,2336.7 1179.95,2336.52L1192.98,2310.3C1192.98,2310.3 1205.78,2325.72 1205.78,2325.72C1205.9,2325.87 1206.06,2325.97 1206.24,2326.01L1219.84,2329.01L1220.16,2326.99L1206.83,2324.05C1206.83,2324.05 1193.42,2307.91 1193.42,2307.91C1193.24,2307.68 1192.96,2307.56 1192.69,2307.6C1192.42,2307.64 1192.18,2307.83 1192.05,2308.1L1178.59,2335.2C1178.59,2335.2 1165.25,2342.06 1165.25,2342.06C1165.2,2342.09 1165.15,2342.12 1165.1,2342.16L1151.5,2353.16L1152.5,2354.84Z" style="fill:rgb(21,154,255);"/>
                    </g>
                </g>
            </g>
        </g>
    </g>
    <defs>
        <linearGradient id="_Linear1" x1="0" y1="0" x2="1" y2="0" gradientUnits="userSpaceOnUse" gradientTransform="matrix(3.04062e-15,-58.2713,38.1968,2.74461e-15,1185.88,2370.21)"><stop offset="0" style="stop-color:rgb(21,154,255);stop-opacity:0"/><stop offset="1" style="stop-color:rgb(21,154,255);stop-opacity:0.54"/></linearGradient>
    </defs>
</svg>
