<?xml version="1.0" encoding="UTF-8" standalone="no"?>
<!DOCTYPE svg PUBLIC "-//W3C//DTD SVG 1.1//EN" "http://www.w3.org/Graphics/SVG/1.1/DTD/svg11.dtd">
<svg width="100%" height="100%" viewBox="0 0 80 80" version="1.1" xmlns="http://www.w3.org/2000/svg" xmlns:xlink="http://www.w3.org/1999/xlink" xml:space="preserve" xmlns:serif="http://www.serif.com/" style="fill-rule:evenodd;clip-rule:evenodd;stroke-linejoin:round;stroke-miterlimit:2;">
    <g transform="matrix(0.494183,0,0,0.494183,-1498.53,172.385)">
        <g>
            <g>
                <g transform="matrix(1.05457,0,0,1.05457,2125.45,-313.591)">
                    <rect x="859.943" y="-33.506" width="153.506" height="153.506" style="fill:none;"/>
                </g>
                <g transform="matrix(2.19701,0,0,2.30016,507.266,-5636.59)">
                    <g>
                        <path d="M1154.44,2357.89L1166.55,2344.64C1166.55,2344.64 1179.48,2342.74 1179.48,2342.74C1180.11,2342.65 1180.64,2342.25 1180.89,2341.69L1193.28,2314.03C1193.28,2314.03 1204.96,2328.09 1204.96,2328.09C1205.46,2328.7 1206.31,2328.92 1207.06,2328.64L1220.66,2323.64C1221.61,2323.29 1222.08,2322.27 1221.72,2321.37C1221.35,2320.46 1220.29,2320.01 1219.34,2320.36L1207,2324.89C1207,2324.89 1194.24,2309.53 1194.24,2309.53C1193.84,2309.04 1193.2,2308.79 1192.56,2308.88C1191.91,2308.96 1191.36,2309.36 1191.11,2309.93L1177.91,2339.41C1177.91,2339.41 1165.32,2341.26 1165.32,2341.26C1164.89,2341.32 1164.5,2341.53 1164.21,2341.84L1151.66,2355.57C1150.99,2356.3 1151.07,2357.42 1151.84,2358.05C1152.6,2358.69 1153.77,2358.62 1154.44,2357.89Z" style="fill:url(#_Linear1);"/>
                    </g>
                </g>
            </g>
        </g>
    </g>
    <defs>
        <linearGradient id="_Linear1" x1="0" y1="0" x2="1" y2="0" gradientUnits="userSpaceOnUse" gradientTransform="matrix(2.74861e-15,-42.8753,32.367,1.89303e-15,1220,2357.84)"><stop offset="0" style="stop-color:rgb(21,154,255);stop-opacity:0"/><stop offset="1" style="stop-color:rgb(21,154,255);stop-opacity:1"/></linearGradient>
    </defs>
</svg>
