<?xml version="1.0" encoding="UTF-8" standalone="no"?>
<!DOCTYPE svg PUBLIC "-//W3C//DTD SVG 1.1//EN" "http://www.w3.org/Graphics/SVG/1.1/DTD/svg11.dtd">
<svg width="100%" height="100%" viewBox="0 0 80 80" version="1.1" xmlns="http://www.w3.org/2000/svg" xmlns:xlink="http://www.w3.org/1999/xlink" xml:space="preserve" xmlns:serif="http://www.serif.com/" style="fill-rule:evenodd;clip-rule:evenodd;stroke-linejoin:round;stroke-miterlimit:2;">
    <g transform="matrix(1,0,0,1,2917.87,-144.367)">
        <g>
            <g transform="matrix(0.521152,0,0,0.521152,-3366.03,161.855)">
                <rect x="859.943" y="-33.506" width="153.506" height="153.506" style="fill:none;"/>
            </g>
            <g transform="matrix(1,0,0,1,-2847.02,-705.929)">
                <g transform="matrix(0.690943,0,0,0.592593,-68.3282,828.307)">
                    <rect x="11.25" y="58.5" width="47.25" height="13.5" style="fill:url(#_Linear1);"/>
                </g>
                <g transform="matrix(0.754502,0,0,0.592593,-69.0432,866.925)">
                    <rect x="11.25" y="31.5" width="78.75" height="13.5" style="fill:url(#_Linear2);"/>
                </g>
                <g transform="matrix(0.588235,0,0,0.592593,-67.1727,906.952)">
                    <rect x="11.25" y="4.5" width="36" height="13.5" style="fill:url(#_Linear3);"/>
                </g>
            </g>
        </g>
    </g>
    <defs>
        <linearGradient id="_Linear1" x1="0" y1="0" x2="1" y2="0" gradientUnits="userSpaceOnUse" gradientTransform="matrix(46.2728,0,0,285.295,11.4995,57.9842)"><stop offset="0" style="stop-color:rgb(21,154,255);stop-opacity:0"/><stop offset="1" style="stop-color:rgb(21,154,255);stop-opacity:1"/></linearGradient>
        <linearGradient id="_Linear2" x1="0" y1="0" x2="1" y2="0" gradientUnits="userSpaceOnUse" gradientTransform="matrix(78.75,0,0,13.5,11.25,38.25)"><stop offset="0" style="stop-color:rgb(208,222,238);stop-opacity:0"/><stop offset="1" style="stop-color:rgb(208,222,238);stop-opacity:1"/></linearGradient>
        <linearGradient id="_Linear3" x1="0" y1="0" x2="1" y2="0" gradientUnits="userSpaceOnUse" gradientTransform="matrix(36,0,0,13.5,11.25,11.25)"><stop offset="0" style="stop-color:rgb(102,225,223);stop-opacity:0"/><stop offset="1" style="stop-color:rgb(102,225,223);stop-opacity:1"/></linearGradient>
    </defs>
</svg>
