<?xml version="1.0" encoding="UTF-8" standalone="no"?>
<!DOCTYPE svg PUBLIC "-//W3C//DTD SVG 1.1//EN" "http://www.w3.org/Graphics/SVG/1.1/DTD/svg11.dtd">
<svg width="100%" height="100%" viewBox="0 0 80 80" version="1.1" xmlns="http://www.w3.org/2000/svg" xmlns:xlink="http://www.w3.org/1999/xlink" xml:space="preserve" xmlns:serif="http://www.serif.com/" style="fill-rule:evenodd;clip-rule:evenodd;stroke-linejoin:round;stroke-miterlimit:2;">
    <g transform="matrix(0.494183,0,0,0.494183,-1498.53,172.385)">
        <g>
            <g>
                <g transform="matrix(1.05457,0,0,1.05457,2125.45,-313.591)">
                    <rect x="859.943" y="-33.506" width="153.506" height="153.506" style="fill:none;"/>
                </g>
                <g transform="matrix(2.19701,0,0,2.30016,504.865,-5635.23)">
                    <g>
                        <path d="M1162.94,2356.74L1162.86,2335.75C1162.86,2335.75 1173.68,2335.72 1173.68,2335.72C1174.69,2335.72 1175.51,2334.94 1175.52,2333.98L1175.74,2311.96C1175.74,2311.96 1187.04,2312.03 1187.04,2312.03C1187.04,2312.03 1186.84,2326.38 1186.84,2326.38C1186.84,2326.85 1187.03,2327.3 1187.37,2327.64C1187.72,2327.97 1188.19,2328.16 1188.68,2328.16L1198.55,2328.16C1198.55,2328.16 1198.55,2337.77 1198.55,2337.77C1198.55,2338.74 1199.37,2339.53 1200.39,2339.53L1211.66,2339.53C1211.66,2339.53 1211.66,2353.29 1211.66,2353.29C1211.66,2354.26 1212.48,2355.05 1213.5,2355.05C1214.52,2355.05 1215.34,2354.26 1215.34,2353.29L1215.34,2337.77C1215.34,2336.8 1214.52,2336.01 1213.5,2336.01L1202.23,2336.01C1202.23,2336.01 1202.23,2326.4 1202.23,2326.4C1202.23,2325.43 1201.41,2324.64 1200.39,2324.64L1190.55,2324.64C1190.55,2324.64 1190.74,2310.31 1190.74,2310.31C1190.75,2309.84 1190.56,2309.39 1190.22,2309.05C1189.87,2308.72 1189.4,2308.53 1188.91,2308.53L1173.93,2308.43C1172.91,2308.42 1172.08,2309.2 1172.07,2310.17L1171.85,2332.21C1171.85,2332.21 1161.01,2332.23 1161.01,2332.23C1160.52,2332.23 1160.05,2332.42 1159.71,2332.75C1159.36,2333.08 1159.17,2333.53 1159.17,2334L1159.26,2356.76C1159.26,2357.73 1160.09,2358.51 1161.11,2358.51C1162.12,2358.51 1162.94,2357.71 1162.94,2356.74Z" style="fill:url(#_Linear1);"/>
                    </g>
                </g>
            </g>
        </g>
    </g>
    <defs>
        <linearGradient id="_Linear1" x1="0" y1="0" x2="1" y2="0" gradientUnits="userSpaceOnUse" gradientTransform="matrix(2.74861e-15,-42.8753,32.367,1.89303e-15,1220,2357.84)"><stop offset="0" style="stop-color:rgb(21,154,255);stop-opacity:0"/><stop offset="1" style="stop-color:rgb(21,154,255);stop-opacity:1"/></linearGradient>
    </defs>
</svg>
