<?xml version="1.0" encoding="UTF-8" standalone="no"?>
<!DOCTYPE svg PUBLIC "-//W3C//DTD SVG 1.1//EN" "http://www.w3.org/Graphics/SVG/1.1/DTD/svg11.dtd">
<svg width="100%" height="100%" viewBox="0 0 80 80" version="1.1" xmlns="http://www.w3.org/2000/svg" xmlns:xlink="http://www.w3.org/1999/xlink" xml:space="preserve" xmlns:serif="http://www.serif.com/" style="fill-rule:evenodd;clip-rule:evenodd;stroke-linejoin:round;stroke-miterlimit:1.5;">
    <g transform="matrix(1,0,0,1,2730.1,-2355.7)">
        <g>
            <g transform="matrix(0.521152,0,0,0.521152,-3178.26,2373.21)">
                <rect x="859.943" y="-33.506" width="153.506" height="153.506" style="fill:none;"/>
            </g>
            <g transform="matrix(1,0,0,1,-2801.24,-619.141)">
                <g transform="matrix(0.0510894,0,0,0.0356089,62.8086,2962.34)">
                    <g transform="matrix(1.49072,0,0,1.49072,-99.0496,753.661)">
                        <g transform="matrix(-0.791803,-1.40564e-16,6.62705e-16,-1.14779,9119.51,3168.02)">
                            <circle cx="11114.3" cy="2695" r="100" style="fill:rgb(17,155,255);fill-opacity:0.2;"/>
                        </g>
                        <g transform="matrix(-1.45149,-2.57675e-16,1.21484e-15,-2.10407,16451.8,6417.43)">
                            <circle cx="11114.3" cy="2695" r="100" style="fill:rgb(17,155,255);fill-opacity:0.2;"/>
                        </g>
                        <g transform="matrix(-0.956531,-1.69807e-16,8.00575e-16,-1.38658,10950.3,4147.72)">
                            <circle cx="11114.3" cy="2695" r="100" style="fill:rgb(17,155,255);fill-opacity:0.9;"/>
                        </g>
                    </g>
                    <g transform="matrix(1.49072,0,0,1.49072,-211.479,377.684)">
                        <g transform="matrix(-1.07343,-1.90559e-16,8.98412e-16,-1.55603,12598,4518.62)">
                            <circle cx="11114.3" cy="2695" r="100" style="fill:rgb(62,191,218);fill-opacity:0.2;"/>
                        </g>
                        <g transform="matrix(-0.382113,-6.78343e-17,3.19812e-16,-0.553909,4914.57,1986.25)">
                            <circle cx="11114.3" cy="2695" r="100" style="fill:rgb(62,191,218);fill-opacity:0.2;"/>
                        </g>
                        <g transform="matrix(-0.660917,-1.17329e-16,5.53159e-16,-0.958061,8013.27,3243.79)">
                            <circle cx="11114.3" cy="2695" r="100" style="fill:rgb(62,191,218);fill-opacity:0.2;"/>
                        </g>
                        <g transform="matrix(-0.701441,-1.24523e-16,5.87076e-16,-1.0168,8463.67,3570.45)">
                            <circle cx="11114.3" cy="2695" r="100" style="fill:rgb(62,191,218);fill-opacity:0.2;"/>
                        </g>
                        <g transform="matrix(-0.871171,-1.54654e-16,7.29132e-16,-1.26284,10350.1,4401.88)">
                            <circle cx="11114.3" cy="2695" r="100" style="fill:rgb(62,191,218);fill-opacity:0.2;"/>
                        </g>
                        <g transform="matrix(-0.382113,-6.78343e-17,3.19812e-16,-0.553909,4914.57,2659.65)">
                            <circle cx="11114.3" cy="2695" r="100" style="fill:rgb(62,191,218);fill-opacity:0.2;"/>
                        </g>
                        <g transform="matrix(-0.758879,-1.34719e-16,6.35149e-16,-1.10007,9102.05,3289.79)">
                            <circle cx="11114.3" cy="2695" r="100" style="fill:rgb(62,191,218);fill-opacity:0.9;"/>
                        </g>
                        <g transform="matrix(-0.156363,-2.77581e-17,1.30869e-16,-0.226662,2405.52,1104.32)">
                            <circle cx="11114.3" cy="2695" r="100" style="fill:rgb(62,191,218);fill-opacity:0.9;"/>
                        </g>
                        <g transform="matrix(-0.428583,-7.60837e-17,3.58705e-16,-0.621271,5431.05,2336.14)">
                            <circle cx="11114.3" cy="2695" r="100" style="fill:rgb(62,191,218);fill-opacity:0.9;"/>
                        </g>
                        <g transform="matrix(-0.293571,-5.21159e-17,2.45706e-16,-0.425559,3930.49,2145.4)">
                            <circle cx="11114.3" cy="2695" r="100" style="fill:rgb(62,191,218);fill-opacity:0.9;"/>
                        </g>
                        <g transform="matrix(-0.232508,-4.12757e-17,1.94599e-16,-0.337042,3251.82,2075.19)">
                            <circle cx="11114.3" cy="2695" r="100" style="fill:rgb(62,191,218);fill-opacity:0.9;"/>
                        </g>
                    </g>
                    <g transform="matrix(1.49072,0,0,1.49072,195.067,377.684)">
                        <g transform="matrix(-0.728719,-1.29365e-16,6.09907e-16,-1.05635,8766.85,3171.97)">
                            <circle cx="11114.3" cy="2695" r="100" style="fill:rgb(102,225,223);fill-opacity:0.2;"/>
                        </g>
                        <g transform="matrix(-0.728719,-1.29365e-16,6.09907e-16,-1.05635,8766.85,3340.32)">
                            <circle cx="11114.3" cy="2695" r="100" style="fill:rgb(102,225,223);fill-opacity:0.2;"/>
                        </g>
                        <g transform="matrix(-0.580781,-1.03103e-16,4.86088e-16,-0.841896,7122.62,2930.72)">
                            <circle cx="11114.3" cy="2695" r="100" style="fill:rgb(102,225,223);fill-opacity:0.2;"/>
                        </g>
                        <g transform="matrix(-0.728719,-1.29365e-16,6.09907e-16,-1.05635,8766.85,3677.02)">
                            <circle cx="11114.3" cy="2695" r="100" style="fill:rgb(102,225,223);fill-opacity:0.2;"/>
                        </g>
                        <g transform="matrix(-0.268219,-4.76154e-17,2.24488e-16,-0.388809,3648.72,2046.36)">
                            <circle cx="11114.3" cy="2695" r="100" style="fill:rgb(102,225,223);fill-opacity:0.2;"/>
                        </g>
                        <g transform="matrix(-0.580781,-1.03103e-16,4.86088e-16,-0.841896,7122.62,3435.77)">
                            <circle cx="11114.3" cy="2695" r="100" style="fill:rgb(102,225,223);fill-opacity:0.2;"/>
                        </g>
                        <g transform="matrix(-0.218614,-3.88093e-17,1.82971e-16,-0.316902,3097.4,1179.17)">
                            <circle cx="11114.3" cy="2695" r="100" style="fill:rgb(102,225,223);fill-opacity:0.9;"/>
                        </g>
                        <g transform="matrix(-0.333859,-5.9268e-17,2.79426e-16,-0.48396,4378.26,1797.74)">
                            <circle cx="11114.3" cy="2695" r="100" style="fill:rgb(102,225,223);fill-opacity:0.9;"/>
                        </g>
                        <g transform="matrix(-0.390566,-6.93349e-17,3.26887e-16,-0.566162,5008.52,2187.62)">
                            <circle cx="11114.3" cy="2695" r="100" style="fill:rgb(102,225,223);fill-opacity:0.9;"/>
                        </g>
                        <g transform="matrix(-0.494942,-8.78642e-17,4.14246e-16,-0.717466,6168.59,2763.73)">
                            <circle cx="11114.3" cy="2695" r="100" style="fill:rgb(102,225,223);fill-opacity:0.9;"/>
                        </g>
                        <g transform="matrix(-0.15002,-2.66321e-17,1.2556e-16,-0.217468,2335.02,1584.59)">
                            <circle cx="11114.3" cy="2695" r="100" style="fill:rgb(102,225,223);fill-opacity:0.9;"/>
                        </g>
                        <g transform="matrix(-0.324841,-5.7667e-17,2.71878e-16,-0.470887,4278.03,2435.91)">
                            <circle cx="11114.3" cy="2695" r="100" style="fill:rgb(102,225,223);fill-opacity:0.9;"/>
                        </g>
                    </g>
                    <g transform="matrix(1.49072,0,0,1.49072,601.613,377.684)">
                        <g transform="matrix(-0.747821,-1.32756e-16,6.25894e-16,-1.08404,8979.15,3246.59)">
                            <circle cx="11114.3" cy="2695" r="100" style="fill:rgb(181,228,170);fill-opacity:0.2;"/>
                        </g>
                        <g transform="matrix(-0.871171,-1.54654e-16,7.29132e-16,-1.26284,10350.1,3896.83)">
                            <circle cx="11114.3" cy="2695" r="100" style="fill:rgb(181,228,170);fill-opacity:0.2;"/>
                        </g>
                        <g transform="matrix(-0.580781,-1.03103e-16,4.86088e-16,-0.841896,7122.62,2930.72)">
                            <circle cx="11114.3" cy="2695" r="100" style="fill:rgb(181,228,170);fill-opacity:0.2;"/>
                        </g>
                        <g transform="matrix(-0.689029,-1.22319e-16,5.76687e-16,-0.998812,8325.72,3521.96)">
                            <circle cx="11114.3" cy="2695" r="100" style="fill:rgb(181,228,170);fill-opacity:0.2;"/>
                        </g>
                        <g transform="matrix(-0.293629,-5.21263e-17,2.45755e-16,-0.425643,3931.14,2145.62)">
                            <circle cx="11114.3" cy="2695" r="100" style="fill:rgb(181,228,170);fill-opacity:0.2;"/>
                        </g>
                        <g transform="matrix(-0.781843,-1.38796e-16,6.54369e-16,-1.13336,9357.29,4221.26)">
                            <circle cx="11114.3" cy="2695" r="100" style="fill:rgb(181,228,170);fill-opacity:0.2;"/>
                        </g>
                        <g transform="matrix(-0.409578,-7.271e-17,3.42799e-16,-0.593722,5219.83,1925.2)">
                            <circle cx="11114.3" cy="2695" r="100" style="fill:rgb(181,228,170);fill-opacity:0.9;"/>
                        </g>
                        <g transform="matrix(-0.266208,-4.72583e-17,2.22805e-16,-0.385893,3626.37,1701.8)">
                            <circle cx="11114.3" cy="2695" r="100" style="fill:rgb(181,228,170);fill-opacity:0.9;"/>
                        </g>
                        <g transform="matrix(-0.173196,-3.07465e-17,1.44958e-16,-0.251064,2592.61,1675.13)">
                            <circle cx="11114.3" cy="2695" r="100" style="fill:rgb(181,228,170);fill-opacity:0.9;"/>
                        </g>
                        <g transform="matrix(-0.407828,-7.23994e-17,3.41335e-16,-0.591186,5200.38,2760.11)">
                            <circle cx="11114.3" cy="2695" r="100" style="fill:rgb(181,228,170);fill-opacity:0.9;"/>
                        </g>
                    </g>
                    <g transform="matrix(1.49505,0,0,1.49505,-99.4614,373.54)">
                        <g>
                            <g transform="matrix(1.45195,0,0,2.10474,-15614.6,-13976.4)">
                                <circle cx="10974" cy="6794.99" r="3.022" style="fill:white;"/>
                            </g>
                            <g transform="matrix(1.45195,0,0,2.10474,-15614.6,-13639.2)">
                                <circle cx="10974" cy="6794.99" r="3.022" style="fill:white;"/>
                            </g>
                            <g transform="matrix(1.45195,0,0,2.10474,-15614.6,-13302)">
                                <circle cx="10974" cy="6794.99" r="3.022" style="fill:white;"/>
                            </g>
                        </g>
                        <g>
                            <g transform="matrix(1.45195,0,0,2.10474,-15342.8,-13976.4)">
                                <circle cx="10974" cy="6794.99" r="3.022" style="fill:white;"/>
                            </g>
                            <g transform="matrix(1.45195,0,0,2.10474,-15342.8,-13807.8)">
                                <circle cx="10974" cy="6794.99" r="3.022" style="fill:white;"/>
                            </g>
                            <g transform="matrix(1.45195,0,0,2.10474,-15342.8,-13639.2)">
                                <circle cx="10974" cy="6794.99" r="3.022" style="fill:white;"/>
                            </g>
                            <g transform="matrix(1.45195,0,0,2.10474,-15342.8,-13470.6)">
                                <circle cx="10974" cy="6794.99" r="3.022" style="fill:white;"/>
                            </g>
                            <g transform="matrix(1.45195,0,0,2.10474,-15342.8,-13302)">
                                <circle cx="10974" cy="6794.99" r="3.022" style="fill:white;"/>
                            </g>
                            <g transform="matrix(1.45195,0,0,2.10474,-15342.8,-13133.4)">
                                <circle cx="10974" cy="6794.99" r="3.022" style="fill:white;"/>
                            </g>
                        </g>
                        <g transform="matrix(1,0,0,1,271.818,0)">
                            <g transform="matrix(1.45195,0,0,2.10474,-15342.8,-13976.4)">
                                <circle cx="10974" cy="6794.99" r="3.022" style="fill:white;"/>
                            </g>
                            <g transform="matrix(1.45195,0,0,2.10474,-15342.8,-13807.8)">
                                <circle cx="10974" cy="6794.99" r="3.022" style="fill:white;"/>
                            </g>
                            <g transform="matrix(1.45195,0,0,2.10474,-15342.8,-13639.2)">
                                <circle cx="10974" cy="6794.99" r="3.022" style="fill:white;"/>
                            </g>
                            <g transform="matrix(1.45195,0,0,2.10474,-15342.8,-13470.6)">
                                <circle cx="10974" cy="6794.99" r="3.022" style="fill:white;"/>
                            </g>
                            <g transform="matrix(1.45195,0,0,2.10474,-15342.8,-13302)">
                                <circle cx="10974" cy="6794.99" r="3.022" style="fill:white;"/>
                            </g>
                            <g transform="matrix(1.45195,0,0,2.10474,-15342.8,-13133.4)">
                                <circle cx="10974" cy="6794.99" r="3.022" style="fill:white;"/>
                            </g>
                        </g>
                        <g transform="matrix(1,0,0,1,543.636,0)">
                            <g transform="matrix(1.45195,0,0,2.10474,-15342.8,-13976.4)">
                                <circle cx="10974" cy="6794.99" r="3.022" style="fill:white;"/>
                            </g>
                            <g transform="matrix(1.45195,0,0,2.10474,-15342.8,-13807.8)">
                                <circle cx="10974" cy="6794.99" r="3.022" style="fill:white;"/>
                            </g>
                            <g transform="matrix(1.45195,0,0,2.10474,-15342.8,-13639.2)">
                                <circle cx="10974" cy="6794.99" r="3.022" style="fill:white;"/>
                            </g>
                            <g transform="matrix(1.45195,0,0,2.10474,-15342.8,-13470.6)">
                                <circle cx="10974" cy="6794.99" r="3.022" style="fill:white;"/>
                            </g>
                            <g transform="matrix(1.45195,0,0,2.10474,-15342.8,-13302)">
                                <circle cx="10974" cy="6794.99" r="3.022" style="fill:white;"/>
                            </g>
                            <g transform="matrix(1.45195,0,0,2.10474,-15342.8,-13133.4)">
                                <circle cx="10974" cy="6794.99" r="3.022" style="fill:white;"/>
                            </g>
                        </g>
                    </g>
                </g>
                <g>
                    <g transform="matrix(1,0,0,1.01695,0.343483,-50.5889)">
                        <path d="M144.05,2984.75L144.05,3043.75" style="fill:none;stroke:white;stroke-opacity:0.3;stroke-width:0.1px;stroke-dasharray:0.4,0.2,0.4,0.2;stroke-dashoffset:-3.07;"/>
                    </g>
                    <g transform="matrix(1,0,0,1.01695,-20.4267,-50.5889)">
                        <path d="M144.05,2984.75L144.05,3043.75" style="fill:none;stroke:white;stroke-opacity:0.3;stroke-width:0.1px;stroke-dasharray:0.4,0.2,0.4,0.2;stroke-dashoffset:-3.07;"/>
                    </g>
                    <g transform="matrix(1,0,0,1.01695,-41.1969,-50.5889)">
                        <path d="M144.05,2984.75L144.05,3043.75" style="fill:none;stroke:white;stroke-opacity:0.3;stroke-width:0.1px;stroke-dasharray:0.4,0.2,0.4,0.2;stroke-dashoffset:-3.07;"/>
                    </g>
                    <g transform="matrix(1,0,0,1.01695,-62.0251,-50.5889)">
                        <path d="M144.05,2984.75L144.05,3043.75" style="fill:none;stroke:white;stroke-opacity:0.3;stroke-width:0.1px;stroke-dasharray:0.4,0.2,0.4,0.2;stroke-dashoffset:-3.07;"/>
                    </g>
                    <g transform="matrix(6.12323e-17,1,-1.35593,8.30269e-17,4198.14,2849)">
                        <path d="M144.05,2984.75L144.05,3043.75" style="fill:none;stroke:white;stroke-opacity:0.3;stroke-width:0.08px;stroke-dasharray:0.34,0.17,0.34,0.17;stroke-dashoffset:-2.6;"/>
                    </g>
                    <g transform="matrix(6.12323e-17,1,-1.35593,8.30269e-17,4198.14,2857.87)">
                        <path d="M144.05,2984.75L144.05,3043.75" style="fill:none;stroke:white;stroke-opacity:0.3;stroke-width:0.08px;stroke-dasharray:0.34,0.17,0.34,0.17;stroke-dashoffset:-2.6;"/>
                    </g>
                    <g transform="matrix(6.12323e-17,1,-1.35593,8.30269e-17,4198.14,2866.78)">
                        <path d="M144.05,2984.75L144.05,3043.75" style="fill:none;stroke:white;stroke-opacity:0.3;stroke-width:0.08px;stroke-dasharray:0.34,0.17,0.34,0.17;stroke-dashoffset:-2.6;"/>
                    </g>
                    <g transform="matrix(6.12323e-17,1,-1.35593,8.30269e-17,4198.14,2875.69)">
                        <path d="M144.05,2984.75L144.05,3043.75" style="fill:none;stroke:white;stroke-opacity:0.3;stroke-width:0.08px;stroke-dasharray:0.34,0.17,0.34,0.17;stroke-dashoffset:-2.6;"/>
                    </g>
                    <g transform="matrix(6.12323e-17,1,-1.35593,8.30269e-17,4198.14,2884.6)">
                        <path d="M144.05,2984.75L144.05,3043.75" style="fill:none;stroke:white;stroke-opacity:0.3;stroke-width:0.08px;stroke-dasharray:0.34,0.17,0.34,0.17;stroke-dashoffset:-2.6;"/>
                    </g>
                    <g transform="matrix(6.12323e-17,1,-1.35593,8.30269e-17,4198.14,2893.5)">
                        <path d="M144.05,2984.75L144.05,3043.75" style="fill:none;stroke:white;stroke-opacity:0.3;stroke-width:0.08px;stroke-dasharray:0.34,0.17,0.34,0.17;stroke-dashoffset:-2.6;"/>
                    </g>
                </g>
            </g>
        </g>
    </g>
</svg>
