<?xml version="1.0" encoding="UTF-8" standalone="no"?>
<!DOCTYPE svg PUBLIC "-//W3C//DTD SVG 1.1//EN" "http://www.w3.org/Graphics/SVG/1.1/DTD/svg11.dtd">
<svg width="100%" height="100%" viewBox="0 0 80 80" version="1.1" xmlns="http://www.w3.org/2000/svg" xmlns:xlink="http://www.w3.org/1999/xlink" xml:space="preserve" xmlns:serif="http://www.serif.com/" style="fill-rule:evenodd;clip-rule:evenodd;stroke-linejoin:round;stroke-miterlimit:2;">
    <g transform="matrix(1,0,0,1,1840.83,-2720.56)">
        <g>
            <g transform="matrix(0.521152,0,0,0.521152,-2288.99,2738.07)">
                <rect x="859.943" y="-33.506" width="153.506" height="153.506" style="fill:none;"/>
            </g>
            <g transform="matrix(2.01946,0,0,6.98054,-2972.74,-1364.58)">
                <g transform="matrix(0.544567,0,0,0.157542,136.251,108.568)">
                    <path d="M815.468,3028.72C833.843,3028.72 848.761,3043.63 848.761,3062.01C848.761,3080.38 833.843,3095.3 815.468,3095.3C797.093,3095.3 782.175,3080.38 782.175,3062.01C782.175,3043.63 797.093,3028.72 815.468,3028.72ZM815.468,3029.17C833.592,3029.17 848.306,3043.89 848.306,3062.01C848.306,3080.13 833.592,3094.85 815.468,3094.85C797.344,3094.85 782.63,3080.13 782.63,3062.01C782.63,3043.89 797.344,3029.17 815.468,3029.17Z" style="fill:white;fill-opacity:0.3;"/>
                </g>
                <g transform="matrix(0.251338,0,0,0.0727119,375.369,368.319)">
                    <path d="M815.468,3028.72C833.843,3028.72 848.761,3043.63 848.761,3062.01C848.761,3080.38 833.843,3095.3 815.468,3095.3C797.093,3095.3 782.175,3080.38 782.175,3062.01C782.175,3043.63 797.093,3028.72 815.468,3028.72ZM815.468,3029.7C833.299,3029.7 847.776,3044.18 847.776,3062.01C847.776,3079.84 833.299,3094.32 815.468,3094.32C797.637,3094.32 783.16,3079.84 783.16,3062.01C783.16,3044.18 797.637,3029.7 815.468,3029.7Z" style="fill:white;fill-opacity:0.3;"/>
                </g>
                <g transform="matrix(1.0899,0,0,0.315306,-157.769,-118.433)">
                    <circle cx="677.216" cy="2242.61" r="3.904" style="fill:rgb(21,154,255);"/>
                </g>
                <g transform="matrix(0.563609,0,0,0.163051,203.468,220.409)">
                    <circle cx="677.216" cy="2242.61" r="3.904" style="fill:rgb(21,154,255);"/>
                </g>
                <g transform="matrix(0.183544,0,0,0.0530991,467.689,467.901)">
                    <circle cx="677.216" cy="2242.61" r="3.904" style="fill:rgb(62,191,218);"/>
                </g>
                <g transform="matrix(0.406324,0,0,0.117549,318.777,323.993)">
                    <circle cx="677.216" cy="2242.61" r="3.904" style="fill:rgb(62,191,218);"/>
                </g>
                <g transform="matrix(0.321561,0,0,0.0930271,378.471,379.85)">
                    <circle cx="677.216" cy="2242.61" r="3.904" style="fill:rgb(62,191,218);"/>
                </g>
                <g transform="matrix(0.185894,0,0,0.0537789,471.842,469.158)">
                    <circle cx="677.216" cy="2242.61" r="3.904" style="fill:rgb(62,191,218);"/>
                </g>
                <g transform="matrix(0.321561,0,0,0.0930271,380.41,382.429)">
                    <circle cx="677.216" cy="2242.61" r="3.904" style="fill:rgb(62,191,218);"/>
                </g>
                <g transform="matrix(0.183726,0,0,0.0531517,470.005,475.004)">
                    <circle cx="677.216" cy="2242.61" r="3.904" style="fill:rgb(102,225,223);"/>
                </g>
                <g transform="matrix(0.329775,0,0,0.0954035,373.103,379.28)">
                    <circle cx="677.216" cy="2242.61" r="3.904" style="fill:rgb(102,225,223);"/>
                </g>
                <g transform="matrix(0.523002,0,0,0.151304,236.905,255.816)">
                    <circle cx="677.216" cy="2242.61" r="3.904" style="fill:rgb(102,225,223);"/>
                </g>
                <g transform="matrix(0.238507,0,0,0.0689997,425.991,440.983)">
                    <circle cx="677.216" cy="2242.61" r="3.904" style="fill:rgb(102,225,223);"/>
                </g>
                <g transform="matrix(0.364485,0,0,0.105445,337.716,359.519)">
                    <circle cx="677.216" cy="2242.61" r="3.904" style="fill:rgb(102,225,223);"/>
                </g>
                <g transform="matrix(0.165361,0,0,0.0478389,469.568,488.894)">
                    <circle cx="677.216" cy="2242.61" r="3.904" style="fill:rgb(102,225,223);"/>
                </g>
                <g transform="matrix(0.233842,0,0,0.0676502,418.097,444.317)">
                    <circle cx="677.216" cy="2242.61" r="3.904" style="fill:rgb(181,228,170);"/>
                </g>
                <g transform="matrix(0.172667,0,0,0.0499524,456.128,483.742)">
                    <circle cx="677.216" cy="2242.61" r="3.904" style="fill:rgb(181,228,170);"/>
                </g>
                <g transform="matrix(0.44263,0,0,0.128052,269.874,308.01)">
                    <circle cx="677.216" cy="2242.61" r="3.904" style="fill:rgb(181,228,170);"/>
                </g>
                <g transform="matrix(0.233842,0,0,0.0676502,408.054,442.516)">
                    <circle cx="677.216" cy="2242.61" r="3.904" style="fill:rgb(181,228,170);"/>
                </g>
                <g transform="matrix(0.411461,0,0,0.119035,285.659,326.429)">
                    <circle cx="677.216" cy="2242.61" r="3.904" style="fill:rgb(181,228,170);"/>
                </g>
                <g transform="matrix(0.241153,0,0,0.0697652,399.43,435.716)">
                    <circle cx="677.216" cy="2242.61" r="3.904" style="fill:rgb(208,222,238);"/>
                </g>
                <g transform="matrix(0.393217,0,0,0.113757,296.112,335.643)">
                    <circle cx="677.216" cy="2242.61" r="3.904" style="fill:rgb(208,222,238);"/>
                </g>
                <g transform="matrix(0.124353,0,0,0.035975,478.752,508.909)">
                    <circle cx="677.216" cy="2242.61" r="3.904" style="fill:rgb(208,222,238);"/>
                </g>
                <g transform="matrix(0.176427,0,0,0.0510401,446.434,473.376)">
                    <circle cx="677.216" cy="2242.61" r="3.904" style="fill:rgb(208,222,238);"/>
                </g>
                <g transform="matrix(0.410858,0,0,0.118861,285.832,322.1)">
                    <circle cx="677.216" cy="2242.61" r="3.904" style="fill:rgb(208,222,238);"/>
                </g>
                <g transform="matrix(0.281066,0,0,0.0813119,390.284,403.368)">
                    <circle cx="677.216" cy="2242.61" r="3.904" style="fill:rgb(21,154,255);"/>
                </g>
                <g transform="matrix(0.398357,0,0,0.115244,306.625,327.403)">
                    <circle cx="677.216" cy="2242.61" r="3.904" style="fill:rgb(21,154,255);"/>
                </g>
                <g transform="matrix(0.203255,0,0,0.0588013,434.822,454.421)">
                    <circle cx="677.216" cy="2242.61" r="3.904" style="fill:rgb(21,154,255);"/>
                </g>
                <g transform="matrix(0.286433,0,0,0.0828648,374.535,401.21)">
                    <circle cx="677.216" cy="2242.61" r="3.904" style="fill:rgb(21,154,255);"/>
                </g>
                <g transform="matrix(0.0714529,0,0,0.0206712,531.939,542.319)">
                    <circle cx="677.216" cy="2242.61" r="3.904" style="fill:white;"/>
                </g>
                <g transform="matrix(1.00621,0,0,0.291095,-93.7991,-62.5649)">
                    <circle cx="677.216" cy="2242.61" r="3.904" style="fill:rgb(62,191,218);"/>
                </g>
                <g transform="matrix(0.0714529,0,0,0.0206712,539.233,543.891)">
                    <circle cx="677.216" cy="2242.61" r="3.904" style="fill:white;"/>
                </g>
                <g transform="matrix(0.862415,0,0,0.249496,1.12767,33.2828)">
                    <circle cx="677.216" cy="2242.61" r="3.904" style="fill:rgb(102,225,223);"/>
                </g>
                <g transform="matrix(0.0714529,0,0,0.0206712,536.78,546.448)">
                    <circle cx="677.216" cy="2242.61" r="3.904" style="fill:white;"/>
                </g>
                <g transform="matrix(0.755025,0,0,0.218428,64.0244,102.956)">
                    <circle cx="677.216" cy="2242.61" r="3.904" style="fill:rgb(181,228,170);"/>
                </g>
                <g transform="matrix(0.0714529,0,0,0.0206712,526.95,546.448)">
                    <circle cx="677.216" cy="2242.61" r="3.904" style="fill:white;"/>
                </g>
                <g transform="matrix(0.557853,0,0,0.161386,195.014,228.322)">
                    <circle cx="677.216" cy="2242.61" r="3.904" style="fill:rgb(208,222,238);"/>
                </g>
                <g transform="matrix(0.0714529,0,0,0.0206712,524.412,543.891)">
                    <circle cx="677.216" cy="2242.61" r="3.904" style="fill:white;"/>
                </g>
                <g transform="matrix(0.519803,0,0,0.150378,230.949,252.518)">
                    <rect x="633.993" y="2212.47" width="76.211" height="76.211" style="fill:none;"/>
                </g>
            </g>
        </g>
    </g>
</svg>
