<?xml version="1.0" encoding="UTF-8" standalone="no"?>
<!DOCTYPE svg PUBLIC "-//W3C//DTD SVG 1.1//EN" "http://www.w3.org/Graphics/SVG/1.1/DTD/svg11.dtd">
<svg width="100%" height="100%" viewBox="0 0 80 80" version="1.1" xmlns="http://www.w3.org/2000/svg" xmlns:xlink="http://www.w3.org/1999/xlink" xml:space="preserve" xmlns:serif="http://www.serif.com/" style="fill-rule:evenodd;clip-rule:evenodd;stroke-miterlimit:1.5;">
    <g transform="matrix(1.79259,0,0,6.19632,-725.247,-1891.35)">
        <g>
            <g transform="matrix(0.290726,0,0,0.0841067,154.573,308.056)">
                <rect x="859.943" y="-33.506" width="153.506" height="153.506" style="fill:none;"/>
            </g>
            <g transform="matrix(0.50846,0,0,0.147097,439.828,182.134)">
                <g transform="matrix(1,0,0,1,2.79551e-05,-0.0543599)">
                    <g>
                        <g transform="matrix(0.571778,0,0,0.571778,-561.017,856.047)">
                            <rect x="859.943" y="-33.506" width="153.506" height="153.506" style="fill:none;"/>
                        </g>
                        <g transform="matrix(1,0,0,1,8.44341,-10.1001)">
                            <g>
                                <g transform="matrix(-0.647042,0,0,0.440806,-15.8701,875.324)">
                                    <rect x="60.75" y="36.125" width="13.565" height="63" style="fill:url(#_Linear1);"/>
                                </g>
                                <g transform="matrix(-0.647042,0,0,0.895075,10.1365,830.398)">
                                    <rect x="60.75" y="36.125" width="13.565" height="63" style="fill:url(#_Linear2);"/>
                                </g>
                                <g transform="matrix(-0.650157,0,0,0.680027,53.2467,862.251)">
                                    <rect x="87.75" y="36.125" width="13.5" height="47.25" style="fill:url(#_Linear3);"/>
                                </g>
                            </g>
                        </g>
                    </g>
                </g>
                <g transform="matrix(1.09714,0,0,1.98927,-314.152,-196.473)">
                    <path d="M239.634,560.832L239.634,525.832" style="fill:none;stroke:rgb(253,146,109);stroke-width:1.37px;"/>
                </g>
                <g transform="matrix(1.09714,0,0,0.994636,-288.198,361.351)">
                    <path d="M239.634,560.832L239.634,525.832" style="fill:none;stroke:rgb(253,146,109);stroke-width:2.1px;"/>
                </g>
                <g transform="matrix(1.09714,0,0,0.805641,-262.553,467.346)">
                    <path d="M239.634,560.832L239.634,525.832" style="fill:none;stroke:rgb(253,146,109);stroke-width:2.28px;"/>
                </g>
            </g>
        </g>
    </g>
    <defs>
        <linearGradient id="_Linear1" x1="0" y1="0" x2="1" y2="0" gradientUnits="userSpaceOnUse" gradientTransform="matrix(4.03134e-15,-65.8367,65.8367,4.03134e-15,60.75,99.5545)"><stop offset="0" style="stop-color:rgb(21,154,255);stop-opacity:0"/><stop offset="1" style="stop-color:rgb(21,154,255);stop-opacity:1"/></linearGradient>
        <linearGradient id="_Linear2" x1="0" y1="0" x2="1" y2="0" gradientUnits="userSpaceOnUse" gradientTransform="matrix(-1.01955e-14,-63.4001,63.4001,-1.01955e-14,60.75,99.4246)"><stop offset="0" style="stop-color:rgb(208,222,238);stop-opacity:0"/><stop offset="1" style="stop-color:rgb(208,222,238);stop-opacity:1"/></linearGradient>
        <linearGradient id="_Linear3" x1="0" y1="0" x2="1" y2="0" gradientUnits="userSpaceOnUse" gradientTransform="matrix(2.87083e-15,-46.8842,46.8842,2.87083e-15,87.75,83.04)"><stop offset="0" style="stop-color:rgb(102,225,223);stop-opacity:0"/><stop offset="1" style="stop-color:rgb(102,225,223);stop-opacity:1"/></linearGradient>
    </defs>
</svg>
