<?xml version="1.0" encoding="UTF-8" standalone="no"?>
<!DOCTYPE svg PUBLIC "-//W3C//DTD SVG 1.1//EN" "http://www.w3.org/Graphics/SVG/1.1/DTD/svg11.dtd">
<svg width="100%" height="100%" viewBox="0 0 80 80" version="1.1" xmlns="http://www.w3.org/2000/svg" xmlns:xlink="http://www.w3.org/1999/xlink" xml:space="preserve" xmlns:serif="http://www.serif.com/" style="fill-rule:evenodd;clip-rule:evenodd;stroke-linejoin:round;stroke-miterlimit:2;">
    <g transform="matrix(1,0,0,1,1030.85,-3934.48)">
        <g>
            <g transform="matrix(0.521152,0,0,0.521152,-1479.01,3951.99)">
                <rect x="859.943" y="-33.506" width="153.506" height="153.506" style="fill:none;"/>
            </g>
            <g transform="matrix(1,0,0,1,1780.63,526.279)">
                <g transform="matrix(1.08879,0,0,1.04291,248.57,-147.805)">
                    <path d="M-2741.63,3428.93L-2805.92,3428.93L-2805.92,3467.29L-2741.63,3467.29L-2741.63,3428.93ZM-2802.25,3432.77L-2802.25,3463.45L-2745.3,3463.45L-2745.3,3432.77L-2802.25,3432.77Z" style="fill:url(#_Linear1);"/>
                </g>
                <g transform="matrix(4.98806,0,0,4.98806,-2795.81,3456.81)">
                    <text x="0px" y="0px" style="font-family:'PingFangSC-Medium', 'PingFang SC', sans-serif;font-weight:500;font-size:4.811px;fill:rgb(102,225,223);">BTN</text>
                </g>
            </g>
        </g>
    </g>
    <defs>
        <linearGradient id="_Linear1" x1="0" y1="0" x2="1" y2="0" gradientUnits="userSpaceOnUse" gradientTransform="matrix(63.7362,0,0,63.7362,-2806.3,3446.69)"><stop offset="0" style="stop-color:rgb(17,155,255);stop-opacity:1"/><stop offset="0.47" style="stop-color:rgb(102,225,223);stop-opacity:1"/><stop offset="1" style="stop-color:rgb(208,222,238);stop-opacity:1"/></linearGradient>
    </defs>
</svg>
