<?xml version="1.0" encoding="UTF-8" standalone="no"?>
<!DOCTYPE svg PUBLIC "-//W3C//DTD SVG 1.1//EN" "http://www.w3.org/Graphics/SVG/1.1/DTD/svg11.dtd">
<svg width="100%" height="100%" viewBox="0 0 80 80" version="1.1" xmlns="http://www.w3.org/2000/svg" xmlns:xlink="http://www.w3.org/1999/xlink" xml:space="preserve" xmlns:serif="http://www.serif.com/" style="fill-rule:evenodd;clip-rule:evenodd;stroke-linejoin:round;stroke-miterlimit:1.5;">
    <g transform="matrix(1,0,0,1,2591.64,-2355.75)">
        <g>
            <g transform="matrix(0.521152,0,0,0.521152,-3039.8,2373.21)">
                <rect x="859.943" y="-33.506" width="153.506" height="153.506" style="fill:none;"/>
            </g>
            <g transform="matrix(1,0,0,1,-3581.64,-702.3)">
                <path d="M1035.5,3066.5C1035.5,3066.5 1031.59,3097.78 998,3093.5" style="fill:none;stroke:url(#_Linear1);stroke-width:11px;"/>
            </g>
            <g transform="matrix(1,0,0,1,-3581.64,-691.202)">
                <path d="M1023.5,3056.4C1023.5,3056.4 1026.59,3091.78 998,3093.5" style="fill:none;stroke:url(#_Linear2);stroke-width:11px;"/>
            </g>
            <g transform="matrix(1,0,0,1,-3578.24,-680.251)">
                <path d="M1055.6,3087.95C1055.6,3087.95 1031.59,3073.78 998,3093.5" style="fill:none;stroke:url(#_Linear3);stroke-width:11px;"/>
            </g>
            <g transform="matrix(1,0,0,1,-3578.24,-680.251)">
                <path d="M1014.6,3106.95C1014.6,3106.95 1037.19,3072.23 999.598,3058.95" style="fill:none;stroke:url(#_Linear4);stroke-width:14px;"/>
            </g>
            <g transform="matrix(1,0,0,1,-3572.24,-673.8)">
                <path d="M1053.6,3072.5C1053.6,3072.5 1021.19,3063.78 998.598,3093.5" style="fill:none;stroke:url(#_Linear5);stroke-width:7px;"/>
            </g>
            <g transform="matrix(1,0,0,1,-3571.14,-699.8)">
                <path d="M1039.5,3070.5C1039.5,3070.5 1016.09,3092.78 1039.5,3120.5" style="fill:none;stroke:url(#_Linear6);stroke-width:20px;"/>
            </g>
            <g transform="matrix(0.132982,0,0,1,-3164.55,201.912)">
                <g transform="matrix(7.02762,0,0,0.934548,-2878.63,-699.103)">
                    <path d="M1102.33,3102.05C1102.71,3099.91 1102.9,3097.73 1102.9,3095.55C1102.9,3074.87 1086.13,3058.1 1065.45,3058.1L1065.45,3061.84C1084.07,3061.84 1099.16,3076.93 1099.16,3095.55C1099.16,3097.51 1098.99,3099.47 1098.64,3101.4L1102.33,3102.05Z" style="fill:rgb(17,155,254);"/>
                </g>
                <g transform="matrix(7.02762,0,0,0.934548,-2878.63,-699.103)">
                    <path d="M1044.51,3126.6C1050.7,3130.77 1057.99,3133 1065.45,3133C1083.13,3133 1098.41,3120.63 1102.08,3103.34L1098.42,3102.56C1095.11,3118.12 1081.37,3129.26 1065.45,3129.26C1058.74,3129.26 1052.17,3127.25 1046.6,3123.49L1044.51,3126.6Z" style="fill:rgb(102,225,223);"/>
                </g>
                <g transform="matrix(7.02762,0,0,0.934548,-2878.63,-699.103)">
                    <path d="M1029.83,3083.98C1028.62,3087.71 1028,3091.62 1028,3095.55C1028,3107.54 1033.74,3118.8 1043.44,3125.85L1045.64,3122.82C1036.91,3116.48 1031.75,3106.34 1031.75,3095.55C1031.75,3092.01 1032.3,3088.5 1033.39,3085.13L1029.83,3083.98Z" style="fill:rgb(208,222,238);"/>
                </g>
                <g transform="matrix(7.02762,0,0,0.934548,-2878.63,-699.103)">
                    <path d="M1064.14,3058.12C1048.89,3058.65 1035.48,3068.39 1030.26,3082.74L1033.78,3084.02C1038.48,3071.11 1050.54,3062.34 1064.28,3061.86L1064.14,3058.12Z" style="fill:rgb(252,146,109);"/>
                </g>
            </g>
        </g>
    </g>
    <defs>
        <linearGradient id="_Linear1" x1="0" y1="0" x2="1" y2="0" gradientUnits="userSpaceOnUse" gradientTransform="matrix(37,-26.8196,26.8196,37,998,3094.08)"><stop offset="0" style="stop-color:rgb(208,222,238);stop-opacity:0.3"/><stop offset="1" style="stop-color:rgb(17,155,254);stop-opacity:0.3"/></linearGradient>
        <linearGradient id="_Linear2" x1="0" y1="0" x2="1" y2="0" gradientUnits="userSpaceOnUse" gradientTransform="matrix(37,-26.8196,26.8196,37,998,3094.08)"><stop offset="0" style="stop-color:rgb(208,222,238);stop-opacity:0.3"/><stop offset="1" style="stop-color:rgb(252,146,109);stop-opacity:0.3"/></linearGradient>
        <linearGradient id="_Linear3" x1="0" y1="0" x2="1" y2="0" gradientUnits="userSpaceOnUse" gradientTransform="matrix(37,-26.8196,26.8196,37,998,3094.08)"><stop offset="0" style="stop-color:rgb(208,222,238);stop-opacity:0.3"/><stop offset="1" style="stop-color:rgb(108,221,195);stop-opacity:0.3"/></linearGradient>
        <linearGradient id="_Linear4" x1="0" y1="0" x2="1" y2="0" gradientUnits="userSpaceOnUse" gradientTransform="matrix(37,-26.8196,26.8196,37,998,3094.08)"><stop offset="0" style="stop-color:rgb(108,221,195);stop-opacity:0.3"/><stop offset="1" style="stop-color:rgb(252,146,109);stop-opacity:0.3"/></linearGradient>
        <linearGradient id="_Linear5" x1="0" y1="0" x2="1" y2="0" gradientUnits="userSpaceOnUse" gradientTransform="matrix(37,-26.8196,26.8196,37,998,3094.08)"><stop offset="0" style="stop-color:rgb(208,222,238);stop-opacity:0.3"/><stop offset="1" style="stop-color:rgb(17,155,254);stop-opacity:0.3"/></linearGradient>
        <linearGradient id="_Linear6" x1="0" y1="0" x2="1" y2="0" gradientUnits="userSpaceOnUse" gradientTransform="matrix(37,-26.8196,26.8196,37,998,3094.08)"><stop offset="0" style="stop-color:rgb(108,221,195);stop-opacity:0.3"/><stop offset="1" style="stop-color:rgb(17,155,254);stop-opacity:0.3"/></linearGradient>
    </defs>
</svg>
