<?xml version="1.0" encoding="UTF-8" standalone="no"?>
<!DOCTYPE svg PUBLIC "-//W3C//DTD SVG 1.1//EN" "http://www.w3.org/Graphics/SVG/1.1/DTD/svg11.dtd">
<svg width="100%" height="100%" viewBox="0 0 80 80" version="1.1" xmlns="http://www.w3.org/2000/svg" xmlns:xlink="http://www.w3.org/1999/xlink" xml:space="preserve" xmlns:serif="http://www.serif.com/" style="fill-rule:evenodd;clip-rule:evenodd;stroke-linejoin:round;stroke-miterlimit:2;">
    <g transform="matrix(1,0,0,1,2568.35,-2276.87)">
        <g>
            <g transform="matrix(0.521152,0,0,0.521152,-3016.51,2294.38)">
                <rect x="859.943" y="-33.506" width="153.506" height="153.506" style="fill:none;"/>
            </g>
            <g transform="matrix(1,0,0,1,-2916.42,-487.141)">
                <g transform="matrix(1.14342,0,0,1.14342,-51.365,-397.652)">
                    <path d="M366.733,2769.39C373.973,2769.39 379.852,2775.26 379.852,2782.51C379.852,2789.74 373.973,2795.62 366.733,2795.62C359.493,2795.62 353.614,2789.74 353.614,2782.51C353.614,2775.26 359.493,2769.39 366.733,2769.39ZM366.733,2773.38C371.768,2773.38 375.857,2777.47 375.857,2782.51C375.857,2787.54 371.768,2791.63 366.733,2791.63C361.698,2791.63 357.609,2787.54 357.609,2782.51C357.609,2777.47 361.698,2773.38 366.733,2773.38Z" style="fill:white;fill-opacity:0.1;"/>
                </g>
                <g transform="matrix(1.14342,0,0,1.14342,-51.365,-397.652)">
                    <path d="M353.632,2781.82C353.62,2782.05 353.614,2782.28 353.614,2782.51C353.614,2789.74 359.493,2795.62 366.733,2795.62C373.973,2795.62 379.852,2789.74 379.852,2782.51C379.852,2775.26 373.978,2769.39 366.733,2769.39L366.733,2773.38C371.772,2773.38 375.857,2777.47 375.857,2782.51C375.857,2787.54 371.768,2791.63 366.733,2791.63C361.698,2791.63 357.609,2787.54 357.609,2782.51C357.609,2782.35 357.614,2782.19 357.622,2782.03L353.632,2781.82Z" style="fill:rgb(17,155,255);"/>
                </g>
                <g transform="matrix(1.14342,0,0,1.14342,-51.365,-357.652)">
                    <path d="M366.733,2769.39C373.973,2769.39 379.852,2775.26 379.852,2782.51C379.852,2789.74 373.973,2795.62 366.733,2795.62C359.493,2795.62 353.614,2789.74 353.614,2782.51C353.614,2775.26 359.493,2769.39 366.733,2769.39ZM366.733,2773.38C371.768,2773.38 375.857,2777.47 375.857,2782.51C375.857,2787.54 371.768,2791.63 366.733,2791.63C361.698,2791.63 357.609,2787.54 357.609,2782.51C357.609,2777.47 361.698,2773.38 366.733,2773.38Z" style="fill:white;fill-opacity:0.1;"/>
                </g>
                <g transform="matrix(1.14342,0,0,1.14342,-51.365,-357.652)">
                    <path d="M355.987,2790.03C358.442,2793.53 362.453,2795.62 366.733,2795.62C373.973,2795.62 379.852,2789.74 379.852,2782.51C379.852,2775.26 373.978,2769.39 366.733,2769.39L366.733,2773.38C371.772,2773.38 375.857,2777.47 375.857,2782.51C375.857,2787.54 371.768,2791.63 366.733,2791.63C363.756,2791.63 360.967,2790.18 359.259,2787.74L355.987,2790.03Z" style="fill:rgb(208,222,238);"/>
                </g>
                <g transform="matrix(1.14342,0,0,1.14342,-11.365,-397.652)">
                    <path d="M366.733,2769.39C373.973,2769.39 379.852,2775.26 379.852,2782.51C379.852,2789.74 373.973,2795.62 366.733,2795.62C359.493,2795.62 353.614,2789.74 353.614,2782.51C353.614,2775.26 359.493,2769.39 366.733,2769.39ZM366.733,2773.38C371.768,2773.38 375.857,2777.47 375.857,2782.51C375.857,2787.54 371.768,2791.63 366.733,2791.63C361.698,2791.63 357.609,2787.54 357.609,2782.51C357.609,2777.47 361.698,2773.38 366.733,2773.38Z" style="fill:white;fill-opacity:0.1;"/>
                </g>
                <g transform="matrix(1.14342,0,0,1.14342,-11.365,-397.652)">
                    <path d="M364.907,2795.5C365.512,2795.58 366.122,2795.62 366.733,2795.62C373.973,2795.62 379.852,2789.74 379.852,2782.51C379.852,2775.26 373.978,2769.39 366.733,2769.39L366.733,2773.38C371.772,2773.38 375.857,2777.47 375.857,2782.51C375.857,2787.54 371.768,2791.63 366.733,2791.63C366.308,2791.63 365.884,2791.6 365.463,2791.54L364.907,2795.5Z" style="fill:rgb(102,225,223);"/>
                </g>
                <g transform="matrix(1.14342,0,0,1.14342,-11.365,-357.652)">
                    <path d="M366.733,2769.39C373.973,2769.39 379.852,2775.26 379.852,2782.51C379.852,2789.74 373.973,2795.62 366.733,2795.62C359.493,2795.62 353.614,2789.74 353.614,2782.51C353.614,2775.26 359.493,2769.39 366.733,2769.39ZM366.733,2773.38C371.768,2773.38 375.857,2777.47 375.857,2782.51C375.857,2787.54 371.768,2791.63 366.733,2791.63C361.698,2791.63 357.609,2787.54 357.609,2782.51C357.609,2777.47 361.698,2773.38 366.733,2773.38Z" style="fill:white;fill-opacity:0.1;"/>
                </g>
                <g transform="matrix(1.14342,0,0,1.14342,-11.365,-357.652)">
                    <path d="M357.457,2773.23C354.997,2775.69 353.614,2779.03 353.614,2782.51C353.614,2789.74 359.493,2795.62 366.733,2795.62C373.973,2795.62 379.852,2789.74 379.852,2782.51C379.852,2775.26 373.978,2769.39 366.733,2769.39L366.733,2773.38C371.772,2773.38 375.857,2777.47 375.857,2782.51C375.857,2787.54 371.768,2791.63 366.733,2791.63C361.698,2791.63 357.609,2787.54 357.609,2782.51C357.609,2780.09 358.571,2777.76 360.282,2776.05L357.457,2773.23Z" style="fill:rgb(253,146,109);"/>
                </g>
            </g>
        </g>
    </g>
</svg>
