<?xml version="1.0" encoding="UTF-8" standalone="no"?>
<!DOCTYPE svg PUBLIC "-//W3C//DTD SVG 1.1//EN" "http://www.w3.org/Graphics/SVG/1.1/DTD/svg11.dtd">
<svg width="100%" height="100%" viewBox="0 0 80 80" version="1.1" xmlns="http://www.w3.org/2000/svg" xmlns:xlink="http://www.w3.org/1999/xlink" xml:space="preserve" xmlns:serif="http://www.serif.com/" style="fill-rule:evenodd;clip-rule:evenodd;stroke-linejoin:round;stroke-miterlimit:1;">
    <g transform="matrix(1,0,0,1,65.44,-648.022)">
        <g>
            <g>
                <g transform="matrix(0.521152,0,0,0.521152,-513.606,665.437)">
                    <rect x="859.943" y="-33.506" width="153.506" height="153.506" style="fill:none;"/>
                </g>
                <g transform="matrix(0.975,0,0,1,-0.628464,0.142057)">
                    <g transform="matrix(1,0,0,1,-302.449,1.13687e-13)">
                        <path d="M260.286,697.234L252.996,698.268L236.996,714.163L236.996,688.143L252.922,683.236L260.286,697.234Z" style="fill:rgb(102,225,223);fill-opacity:0.6;"/>
                    </g>
                    <g transform="matrix(1,0,0,1,-236.172,-47.4474)">
                        <path d="M250.349,709.168L250.719,721.873L242.81,724.679L250.349,709.168Z" style="fill:rgb(102,225,223);fill-opacity:0.6;"/>
                    </g>
                    <g transform="matrix(1,0,0,1,-236.172,-47.4474)">
                        <path d="M242.81,724.679L234.719,727.55L218.719,708.951L202.719,743.445L194.009,744.681L202.571,760.957L218.497,737.536L234.423,741.936L242.81,724.679Z" style="fill:rgb(11,120,255);fill-opacity:0.6;"/>
                    </g>
                    <g transform="matrix(1.17647,0,0,1.13535,-1420.75,-1961.86)">
                        <path d="M1152,2357L1165.6,2343L1179.2,2341L1192.8,2310.62L1206.4,2327L1220,2322" style="fill:none;stroke:rgb(17,155,255);stroke-width:1.75px;"/>
                    </g>
                    <g transform="matrix(1.16839,0,0,0.979441,-1411.26,-1589.32)">
                        <path d="M1151.85,2325.27L1165.48,2320.26L1179.11,2351.17L1192.74,2327.26L1206.37,2331.75L1220,2298.3" style="fill:none;stroke:rgb(102,225,223);stroke-width:1.88px;"/>
                    </g>
                </g>
            </g>
        </g>
    </g>
</svg>
