<?xml version="1.0" encoding="UTF-8" standalone="no"?>
<!DOCTYPE svg PUBLIC "-//W3C//DTD SVG 1.1//EN" "http://www.w3.org/Graphics/SVG/1.1/DTD/svg11.dtd">
<svg width="100%" height="100%" viewBox="0 0 80 80" version="1.1" xmlns="http://www.w3.org/2000/svg" xmlns:xlink="http://www.w3.org/1999/xlink" xml:space="preserve" xmlns:serif="http://www.serif.com/" style="fill-rule:evenodd;clip-rule:evenodd;stroke-linejoin:round;stroke-miterlimit:2;">
    <g transform="matrix(1,0,0,1,2749.68,-818.14)">
        <g>
            <g transform="matrix(0.521152,0,0,0.521152,-3197.84,835.65)">
                <rect x="859.943" y="-33.506" width="153.506" height="153.506" style="fill:none;"/>
            </g>
            <g transform="matrix(1.79259,0,0,6.19632,-3749.97,-4838.8)">
                <g>
                    <g transform="matrix(-0.120449,3.91157e-18,1.6034e-17,0.0347192,784.84,650.505)">
                        <path d="M1745.26,7560C1642.94,7560 1560,7642.94 1560,7745.26C1560,7847.57 1642.94,7930.52 1745.26,7930.52L1745.26,7560Z" style="fill:white;fill-opacity:0.05;"/>
                    </g>
                    <g transform="matrix(-0.100374,3.25963e-18,1.34103e-17,0.029038,749.804,694.455)">
                        <path d="M1745.26,7560C1642.94,7560 1560,7642.94 1560,7745.26C1560,7847.57 1642.94,7930.52 1745.26,7930.52L1745.26,7560Z" style="fill:white;fill-opacity:0.05;"/>
                    </g>
                    <g transform="matrix(-0.0802987,2.6077e-18,1.07282e-17,0.0232303,714.768,739.437)">
                        <path d="M1745.26,7560C1642.94,7560 1560,7642.94 1560,7745.26C1560,7847.57 1642.94,7930.52 1745.26,7930.52L1745.26,7560Z" style="fill:white;fill-opacity:0.05;"/>
                    </g>
                    <g transform="matrix(-0.0602237,1.95576e-18,8.04612e-18,0.0174226,679.732,784.419)">
                        <path d="M1745.26,7560C1642.94,7560 1560,7642.94 1560,7745.26C1560,7847.57 1642.94,7930.52 1745.26,7930.52L1745.26,7560Z" style="fill:white;fill-opacity:0.05;"/>
                    </g>
                    <g transform="matrix(-0.0401487,1.30383e-18,5.36403e-18,0.011615,644.696,829.401)">
                        <path d="M1745.26,7560C1642.94,7560 1560,7642.94 1560,7745.26C1560,7847.57 1642.94,7930.52 1745.26,7930.52L1745.26,7560Z" style="fill:white;fill-opacity:0.05;"/>
                    </g>
                    <g transform="matrix(-0.100493,-3.26351e-18,1.34262e-17,-0.0290725,750.012,1144.56)">
                        <path d="M1665.23,7912.34C1690.21,7924.31 1717.56,7930.52 1745.26,7930.52L1745.26,7745.26L1665.23,7912.34Z" style="fill:rgb(253,146,109);fill-opacity:0.9;"/>
                    </g>
                    <g transform="matrix(-0.0830718,-2.69775e-18,1.10987e-17,-0.0240325,719.608,1105.53)">
                        <path d="M1599.42,7859.5C1617.01,7881.96 1639.56,7900.06 1665.3,7912.37L1745.26,7745.26L1599.42,7859.5Z" style="fill:rgb(255,189,109);fill-opacity:0.9;"/>
                    </g>
                    <g transform="matrix(-0.0630574,-2.04779e-18,8.42471e-18,-0.0182424,684.677,1060.68)">
                        <path d="M1564.12,7784.12C1570.03,7811.67 1582.14,7837.5 1599.54,7859.65L1745.26,7745.26L1564.12,7784.12Z" style="fill:rgb(208,222,238);fill-opacity:0.9;"/>
                    </g>
                    <g transform="matrix(-0.0979339,-3.1804e-18,1.30844e-17,-0.0283322,745.546,1138.83)">
                        <path d="M1600.45,7629.71C1583.54,7650.9 1571.49,7675.55 1565.14,7701.91L1745.26,7745.26L1600.45,7629.71Z" style="fill:rgb(108,221,195);fill-opacity:0.9;"/>
                    </g>
                    <g transform="matrix(-0.082608,-2.68269e-18,1.10367e-17,-0.0238984,718.798,1104.49)">
                        <path d="M1666.54,7577.56C1640.8,7589.64 1618.18,7607.49 1600.45,7629.72L1745.26,7745.26L1666.54,7577.56Z" style="fill:rgb(62,191,218);fill-opacity:0.9;"/>
                    </g>
                    <g transform="matrix(-0.109998,-3.57219e-18,1.46962e-17,-0.0318223,766.601,1165.86)">
                        <path d="M1565.12,7702.02C1561.72,7716.18 1560,7730.69 1560,7745.26C1560,7758.32 1561.38,7771.36 1564.12,7784.13L1745.26,7745.26L1565.12,7702.02Z" style="fill:rgb(181,228,170);fill-opacity:0.9;"/>
                    </g>
                    <g transform="matrix(-0.0997702,-3.24004e-18,1.33297e-17,-0.0288634,748.751,1142.94)">
                        <path d="M1745.26,7560C1718.06,7560 1691.19,7565.99 1666.57,7577.54L1745.26,7745.26L1745.26,7560Z" style="fill:rgb(17,155,255);fill-opacity:0.9;"/>
                    </g>
                </g>
                <g transform="matrix(0.548263,0,0,0.158612,209.67,238.726)">
                    <rect x="635.36" y="4250.84" width="81.399" height="81.399" style="fill:none;"/>
                </g>
            </g>
        </g>
    </g>
</svg>
