<?xml version="1.0" encoding="UTF-8" standalone="no"?>
<!DOCTYPE svg PUBLIC "-//W3C//DTD SVG 1.1//EN" "http://www.w3.org/Graphics/SVG/1.1/DTD/svg11.dtd">
<svg width="100%" height="100%" viewBox="0 0 80 80" version="1.1" xmlns="http://www.w3.org/2000/svg" xmlns:xlink="http://www.w3.org/1999/xlink" xml:space="preserve" xmlns:serif="http://www.serif.com/" style="fill-rule:evenodd;clip-rule:evenodd;stroke-linejoin:round;stroke-miterlimit:2;">
    <g transform="matrix(0.114253,0,0,1,-110.652,-2293.84)">
        <g>
            <g transform="matrix(8.69485,0,0,0.993413,-3111.06,-882.277)">
                <rect x="469.191" y="3197.17" width="80.53" height="80.53" style="fill:none;"/>
            </g>
            <g transform="matrix(1,0,0,1,-2.38708,-1.58087)">
                <g transform="matrix(8.7525,0,0,1,-3152.18,-905.845)">
                    <circle cx="483.459" cy="3225.54" r="4.459" style="fill:rgb(208,222,238);"/>
                </g>
                <g transform="matrix(10.4895,0,0,1.19846,-3800.08,-1522.51)">
                    <circle cx="483.459" cy="3225.54" r="4.459" style="fill:rgb(102,225,223);"/>
                </g>
                <g transform="matrix(18.1417,0,0,2.07275,-7376.97,-4338.24)">
                    <circle cx="483.459" cy="3225.54" r="4.459" style="fill:rgb(17,155,254);"/>
                </g>
                <g transform="matrix(18.1417,0,0,2.07275,-7249.82,-4364.74)">
                    <circle cx="483.459" cy="3225.54" r="4.459" style="fill:rgb(17,155,254);"/>
                </g>
                <g transform="matrix(14.1465,0,0,1.61628,-5518.26,-2906.55)">
                    <circle cx="483.459" cy="3225.54" r="4.459" style="fill:rgb(102,225,223);"/>
                </g>
                <g transform="matrix(10.4083,0,0,1.18918,-3609.35,-1524.15)">
                    <circle cx="483.459" cy="3225.54" r="4.459" style="fill:rgb(208,222,238);"/>
                </g>
                <g transform="matrix(5.80273,0,0,0.66298,-1697.12,187.889)">
                    <circle cx="483.459" cy="3225.54" r="4.459" style="fill:rgb(252,146,109);"/>
                </g>
                <g transform="matrix(12.6738,0,0,1.44803,-4952.45,-2349.88)">
                    <circle cx="483.459" cy="3225.54" r="4.459" style="fill:rgb(102,225,223);"/>
                </g>
                <g transform="matrix(12.3317,0,0,1.40894,-4758.41,-2236.2)">
                    <circle cx="483.459" cy="3225.54" r="4.459" style="fill:rgb(102,225,223);"/>
                </g>
                <g transform="matrix(4.72608,0,0,0.539969,-1022.05,572.294)">
                    <circle cx="483.459" cy="3225.54" r="4.459" style="fill:rgb(252,146,109);"/>
                </g>
                <g transform="matrix(3.41813,0,0,0.390531,-413.327,1057.5)">
                    <circle cx="483.459" cy="3225.54" r="4.459" style="fill:rgb(252,146,109);"/>
                </g>
                <g transform="matrix(16.8655,0,0,1.92694,-6987.31,-3879.59)">
                    <circle cx="483.459" cy="3225.54" r="4.459" style="fill:rgb(17,155,254);"/>
                </g>
                <g transform="matrix(10.4371,0,0,1.19247,-3972.43,-1501.5)">
                    <circle cx="483.459" cy="3225.54" r="4.459" style="fill:rgb(208,222,238);"/>
                </g>
                <g transform="matrix(12.6658,0,0,1.44711,-5084.14,-2335.96)">
                    <circle cx="483.459" cy="3225.54" r="4.459" style="fill:rgb(102,225,223);"/>
                </g>
                <g transform="matrix(11.8801,0,0,1.35733,-4264.3,-2042.49)">
                    <circle cx="483.459" cy="3225.54" r="4.459" style="fill:rgb(102,225,223);"/>
                </g>
                <g transform="matrix(20.1069,0,0,2.29727,-8541.96,-5055.26)">
                    <circle cx="483.459" cy="3225.54" r="4.459" style="fill:rgb(17,155,254);"/>
                </g>
                <g transform="matrix(11.0333,0,0,1.26059,-4021.62,-1706.96)">
                    <circle cx="483.459" cy="3225.54" r="4.459" style="fill:rgb(208,222,238);"/>
                </g>
                <g transform="matrix(14.0697,0,0,1.60751,-5282.47,-2829.31)">
                    <circle cx="483.459" cy="3225.54" r="4.459" style="fill:rgb(102,225,223);"/>
                </g>
                <g transform="matrix(14.0697,0,0,1.60751,-5386.06,-2821.03)">
                    <circle cx="483.459" cy="3225.54" r="4.459" style="fill:rgb(102,225,223);"/>
                </g>
                <g transform="matrix(14.0697,0,0,1.60751,-5205.68,-2850)">
                    <circle cx="483.459" cy="3225.54" r="4.459" style="fill:rgb(102,225,223);"/>
                </g>
                <g transform="matrix(8.12311,0,0,0.92809,-2355.35,-647.514)">
                    <circle cx="483.459" cy="3225.54" r="4.459" style="fill:rgb(252,146,109);"/>
                </g>
                <g transform="matrix(7.06836,0,0,0.807582,-1912.47,-259.947)">
                    <circle cx="483.459" cy="3225.54" r="4.459" style="fill:rgb(252,146,109);"/>
                </g>
                <g transform="matrix(24.8155,0,0,2.83525,-10662.2,-6818.59)">
                    <circle cx="483.459" cy="3225.54" r="4.459" style="fill:rgb(17,155,254);"/>
                </g>
            </g>
        </g>
    </g>
</svg>
