<?xml version="1.0" encoding="UTF-8" standalone="no"?>
<!DOCTYPE svg PUBLIC "-//W3C//DTD SVG 1.1//EN" "http://www.w3.org/Graphics/SVG/1.1/DTD/svg11.dtd">
<svg width="100%" height="100%" viewBox="0 0 80 80" version="1.1" xmlns="http://www.w3.org/2000/svg" xmlns:xlink="http://www.w3.org/1999/xlink" xml:space="preserve" xmlns:serif="http://www.serif.com/" style="fill-rule:evenodd;clip-rule:evenodd;stroke-linejoin:round;stroke-miterlimit:2;">
    <g transform="matrix(1,0,0,1,2642.83,-144.367)">
        <g>
            <g transform="matrix(0.521152,0,0,0.521152,-3090.99,161.855)">
                <rect x="859.943" y="-33.506" width="153.506" height="153.506" style="fill:none;"/>
            </g>
            <g transform="matrix(0.934647,0,0,1,-2836.01,-1166.39)">
                <g transform="matrix(1,0,0,1,-2.29881,-3.93483)">
                    <g transform="matrix(0.424844,0,0,0.296296,212.005,1312.53)">
                        <rect x="11.25" y="58.5" width="47.25" height="13.5" style="fill:url(#_Linear1);"/>
                    </g>
                    <g transform="matrix(0.708306,0,0,0.296296,208.816,1317.53)">
                        <rect x="11.25" y="58.5" width="47.25" height="13.5" style="fill:url(#_Linear2);"/>
                    </g>
                </g>
                <g transform="matrix(0.784314,0,0,0.784314,205.442,1332.09)">
                    <g transform="matrix(1.41274,0,0,0.377778,-4.36255,-4.03935)">
                        <rect x="11.25" y="58.5" width="47.25" height="13.5" style="fill:url(#_Linear3);"/>
                    </g>
                    <g transform="matrix(1.88889,0,0,0.377778,-9.71922,2.33565)">
                        <rect x="11.25" y="58.5" width="47.25" height="13.5" style="fill:url(#_Linear4);"/>
                    </g>
                </g>
                <g transform="matrix(0.784314,0,0,0.784314,205.442,1338.08)">
                    <g transform="matrix(0.957555,0,0,0.377778,0.758293,14.255)">
                        <rect x="11.25" y="58.5" width="47.25" height="13.5" style="fill:url(#_Linear5);"/>
                    </g>
                    <g transform="matrix(1.21899,0,0,0.377778,-2.18288,20.63)">
                        <rect x="11.25" y="58.5" width="47.25" height="13.5" style="fill:url(#_Linear6);"/>
                    </g>
                </g>
            </g>
        </g>
    </g>
    <defs>
        <linearGradient id="_Linear1" x1="0" y1="0" x2="1" y2="0" gradientUnits="userSpaceOnUse" gradientTransform="matrix(46.2728,0,0,285.295,11.4995,57.9842)"><stop offset="0" style="stop-color:rgb(21,154,255);stop-opacity:0"/><stop offset="1" style="stop-color:rgb(21,154,255);stop-opacity:1"/></linearGradient>
        <linearGradient id="_Linear2" x1="0" y1="0" x2="1" y2="0" gradientUnits="userSpaceOnUse" gradientTransform="matrix(47.25,0,0,13.5,11.25,65.25)"><stop offset="0" style="stop-color:rgb(102,225,223);stop-opacity:0"/><stop offset="1" style="stop-color:rgb(102,225,223);stop-opacity:1"/></linearGradient>
        <linearGradient id="_Linear3" x1="0" y1="0" x2="1" y2="0" gradientUnits="userSpaceOnUse" gradientTransform="matrix(46.2728,0,0,285.295,11.4995,57.9842)"><stop offset="0" style="stop-color:rgb(21,154,255);stop-opacity:0"/><stop offset="1" style="stop-color:rgb(21,154,255);stop-opacity:1"/></linearGradient>
        <linearGradient id="_Linear4" x1="0" y1="0" x2="1" y2="0" gradientUnits="userSpaceOnUse" gradientTransform="matrix(47.25,0,0,13.5,11.25,65.25)"><stop offset="0" style="stop-color:rgb(102,225,223);stop-opacity:0"/><stop offset="1" style="stop-color:rgb(102,225,223);stop-opacity:1"/></linearGradient>
        <linearGradient id="_Linear5" x1="0" y1="0" x2="1" y2="0" gradientUnits="userSpaceOnUse" gradientTransform="matrix(46.2728,0,0,285.295,11.4995,57.9842)"><stop offset="0" style="stop-color:rgb(21,154,255);stop-opacity:0"/><stop offset="1" style="stop-color:rgb(21,154,255);stop-opacity:1"/></linearGradient>
        <linearGradient id="_Linear6" x1="0" y1="0" x2="1" y2="0" gradientUnits="userSpaceOnUse" gradientTransform="matrix(47.25,0,0,13.5,11.25,65.25)"><stop offset="0" style="stop-color:rgb(102,225,223);stop-opacity:0"/><stop offset="1" style="stop-color:rgb(102,225,223);stop-opacity:1"/></linearGradient>
    </defs>
</svg>
