<?xml version="1.0" encoding="UTF-8" standalone="no"?>
<!DOCTYPE svg PUBLIC "-//W3C//DTD SVG 1.1//EN" "http://www.w3.org/Graphics/SVG/1.1/DTD/svg11.dtd">
<svg width="100%" height="100%" viewBox="0 0 80 80" version="1.1" xmlns="http://www.w3.org/2000/svg" xmlns:xlink="http://www.w3.org/1999/xlink" xml:space="preserve" xmlns:serif="http://www.serif.com/" style="fill-rule:evenodd;clip-rule:evenodd;stroke-linecap:round;stroke-linejoin:round;stroke-miterlimit:1.5;">
    <rect id="画板1" x="0" y="0" width="80" height="80" style="fill:none;"/>
    <g transform="matrix(0.998554,0,0,0.998263,2854.31,-1569.08)">
        <g>
            <g>
                <g transform="matrix(0.521152,0,0,0.521152,-3306.55,1589.73)">
                    <rect x="859.943" y="-33.506" width="153.506" height="153.506" style="fill:none;"/>
                </g>
                <g transform="matrix(1,0,0,1,-2792.95,-804.141)">
                    <g transform="matrix(1.41796,0,0,1.41796,-83.125,2362.23)">
                        <path d="M40.601,31L44.782,32.358L47.366,35.915L47.366,40.311L44.782,43.868L40.601,45.226L36.42,43.868L33.836,40.311L33.836,35.915L36.42,32.358L40.601,31Z" style="fill:none;stroke:white;stroke-opacity:0.3;stroke-width:0.35px;"/>
                    </g>
                    <g transform="matrix(3.5394,0,0,3.5394,-169.257,2281.38)">
                        <path d="M40.601,31L44.782,32.358L47.366,35.915L47.366,40.311L44.782,43.868L40.601,45.226L36.42,43.868L33.836,40.311L33.836,35.915L36.42,32.358L40.601,31Z" style="fill:none;stroke:white;stroke-opacity:0.3;stroke-width:0.14px;"/>
                    </g>
                    <g transform="matrix(5.62351,0,0,5.62351,-253.873,2201.95)">
                        <path d="M40.601,31L44.782,32.358L47.366,35.915L47.366,40.311L44.782,43.868L40.601,45.226L36.42,43.868L33.836,40.311L33.836,35.915L36.42,32.358L40.601,31Z" style="fill:none;stroke:white;stroke-opacity:0.3;stroke-width:0.09px;"/>
                    </g>
                    <rect x="-25.805" y="2376.27" width="0.5" height="80" style="fill:white;fill-opacity:0.3;"/>
                    <g transform="matrix(0.809401,-0.587256,0.587256,0.809401,-1423.84,445.53)">
                        <rect x="-25.805" y="2376.27" width="0.5" height="80" style="fill:white;fill-opacity:0.3;"/>
                    </g>
                    <g transform="matrix(0.310262,-0.950651,0.950651,0.310262,-2314.66,1642.3)">
                        <rect x="-25.805" y="2376.27" width="0.5" height="80" style="fill:white;fill-opacity:0.3;"/>
                    </g>
                    <g transform="matrix(-0.307149,-0.951661,0.951661,-0.307149,-2332.88,3134.11)">
                        <rect x="-25.805" y="2376.27" width="0.5" height="80" style="fill:white;fill-opacity:0.3;"/>
                    </g>
                    <g transform="matrix(-0.807476,-0.589901,0.589901,-0.807476,-1471.55,4352.28)">
                        <rect x="-25.805" y="2376.27" width="0.5" height="80" style="fill:white;fill-opacity:0.3;"/>
                    </g>
                    <path d="M-25.555,2388.98L-36.727,2400.7L-47.286,2409.18L-40.933,2421.23L-45.322,2443.33L-25.555,2439.18L-8.232,2440.15L-9.488,2421.51L-14.905,2412.83L-12.134,2397.9L-25.555,2388.98Z" style="fill:rgb(17,155,255);fill-opacity:0.33;"/>
                    <path d="M-37.405,2399.96L-26.279,2388.29C-25.944,2387.93 -25.405,2387.87 -25.001,2388.14L-11.58,2397.07C-11.246,2397.29 -11.077,2397.69 -11.15,2398.08L-13.851,2412.63L-8.64,2420.99C-8.553,2421.12 -8.501,2421.28 -8.49,2421.45L-7.234,2440.08C-7.215,2440.37 -7.319,2440.65 -7.52,2440.85C-7.722,2441.05 -8.001,2441.16 -8.287,2441.15L-25.479,2440.19L-45.116,2444.31C-45.445,2444.38 -45.786,2444.28 -46.025,2444.04C-46.264,2443.8 -46.368,2443.46 -46.302,2443.13L-41.983,2421.39L-48.171,2409.64C-48.394,2409.22 -48.285,2408.7 -47.912,2408.4L-37.405,2399.96ZM-25.41,2390.27L-36.003,2401.39C-36.033,2401.42 -36.066,2401.45 -36.1,2401.48L-46.017,2409.44L-40.048,2420.77C-39.941,2420.97 -39.907,2421.2 -39.952,2421.43L-44.046,2442.04L-25.76,2438.21C-25.675,2438.19 -25.587,2438.18 -25.5,2438.19L-9.305,2439.09L-10.469,2421.83L-15.754,2413.36C-15.886,2413.15 -15.934,2412.9 -15.889,2412.65L-13.237,2398.37L-25.41,2390.27Z" style="fill:rgb(17,155,255);"/>
                    <g transform="matrix(1,0,0,1,-136.583,4.54747e-13)">
                        <path d="M111.028,2396.17L105.781,2408.74L92.868,2410.43L82.412,2425.76L102.008,2428.62L111.028,2448.57L123.387,2433.04L139.067,2425.45L132.341,2409.22L128.352,2392.56L111.028,2396.17Z" style="fill:rgb(102,225,223);fill-opacity:0.32;"/>
                    </g>
                    <g transform="matrix(1,0,0,1,-136.583,4.54747e-13)">
                        <path d="M105.08,2407.82L110.106,2395.79C110.233,2395.48 110.501,2395.26 110.824,2395.19L128.148,2391.58C128.677,2391.47 129.198,2391.8 129.324,2392.33L133.295,2408.91L139.991,2425.06C140.194,2425.55 139.98,2426.11 139.503,2426.35L124.028,2433.84L111.811,2449.19C111.594,2449.47 111.251,2449.61 110.905,2449.56C110.559,2449.52 110.261,2449.3 110.117,2448.98L101.322,2429.53L82.267,2426.74C81.926,2426.7 81.634,2426.47 81.496,2426.16C81.357,2425.84 81.391,2425.48 81.586,2425.19L92.042,2409.87C92.203,2409.63 92.456,2409.47 92.738,2409.44L105.08,2407.82ZM127.605,2393.74L111.748,2397.04L106.704,2409.12C106.566,2409.45 106.265,2409.68 105.911,2409.73L93.442,2411.36L84.139,2425L102.152,2427.63C102.49,2427.68 102.779,2427.9 102.919,2428.21L111.265,2446.67L122.605,2432.42C122.698,2432.3 122.816,2432.21 122.951,2432.14L137.782,2424.96L131.417,2409.6C131.397,2409.55 131.38,2409.5 131.368,2409.45L127.605,2393.74Z" style="fill:rgb(102,225,223);"/>
                    </g>
                </g>
            </g>
        </g>
    </g>
</svg>
