<?xml version="1.0" encoding="UTF-8" standalone="no"?>
<!DOCTYPE svg PUBLIC "-//W3C//DTD SVG 1.1//EN" "http://www.w3.org/Graphics/SVG/1.1/DTD/svg11.dtd">
<svg width="100%" height="100%" viewBox="0 0 80 80" version="1.1" xmlns="http://www.w3.org/2000/svg" xmlns:xlink="http://www.w3.org/1999/xlink" xml:space="preserve" xmlns:serif="http://www.serif.com/" style="fill-rule:evenodd;clip-rule:evenodd;stroke-linejoin:round;stroke-miterlimit:2;">
    <g transform="matrix(1,0,0,1,860.25,-531.12)">
        <g>
            <g transform="matrix(0.521152,0,0,0.521152,-1308.41,548.576)">
                <rect x="859.943" y="-33.506" width="153.506" height="153.506" style="fill:none;"/>
            </g>
            <g transform="matrix(1,0,0,1,-1069.85,-309.647)">
                <g transform="matrix(1,0,0,1,0.843528,2.89761)">
                    <g transform="matrix(-0.294877,0,0,0.76018,242.083,826.462)">
                        <rect x="60.75" y="36.125" width="13.565" height="63" style="fill:url(#_Linear1);"/>
                    </g>
                    <g transform="matrix(-0.294877,0,0,0.560743,247.073,846.231)">
                        <rect x="60.75" y="36.125" width="13.565" height="63" style="fill:url(#_Linear2);"/>
                    </g>
                    <g transform="matrix(-0.294877,0,0,0.340572,265.346,868.056)">
                        <rect x="60.75" y="36.125" width="13.565" height="63" style="fill:url(#_Linear3);"/>
                    </g>
                    <g transform="matrix(-0.294877,0,0,0.681144,270.336,834.297)">
                        <rect x="60.75" y="36.125" width="13.565" height="63" style="fill:url(#_Linear4);"/>
                    </g>
                    <g transform="matrix(-0.296296,0,0,0.522603,306.353,846.485)">
                        <rect x="114.75" y="36.125" width="13.5" height="69.75" style="fill:url(#_Linear5);"/>
                    </g>
                    <g transform="matrix(-0.296296,0,0,0.683016,311.343,829.5)">
                        <rect x="114.75" y="36.125" width="13.5" height="69.75" style="fill:url(#_Linear6);"/>
                    </g>
                </g>
                <g transform="matrix(0.970072,0,0,2.07897,-660.014,-3451.59)">
                    <path d="M947.871,2082.01L968.397,2075.1C968.858,2074.94 969.503,2074.99 969.836,2075.21C970.169,2075.42 970.065,2075.72 969.603,2075.88L948.594,2082.95C948.295,2083.05 947.904,2083.07 947.568,2083L926.658,2078.61L906.105,2083.81C905.605,2083.94 904.979,2083.85 904.707,2083.62C904.436,2083.38 904.622,2083.09 905.122,2082.96L926.123,2077.65C926.406,2077.57 926.745,2077.57 927.038,2077.63L947.871,2082.01Z" style="fill:rgb(253,146,109);"/>
                </g>
                <g transform="matrix(0.970072,0,0,2.07897,-660.014,-3464.55)">
                    <path d="M948.644,2084.5L968.19,2072.92C968.542,2072.72 969.191,2072.68 969.638,2072.84C970.085,2073.01 970.162,2073.31 969.81,2073.52L950.049,2085.23C949.909,2085.31 949.715,2085.37 949.497,2085.39L927.969,2087.99L906.193,2094.91C905.723,2095.05 905.081,2095 904.761,2094.78C904.441,2094.56 904.563,2094.26 905.034,2094.11L926.957,2087.15C927.055,2087.12 927.164,2087.1 927.279,2087.08L948.644,2084.5Z" style="fill:rgb(255,234,146);"/>
                </g>
            </g>
        </g>
    </g>
    <defs>
        <linearGradient id="_Linear1" x1="0" y1="0" x2="1" y2="0" gradientUnits="userSpaceOnUse" gradientTransform="matrix(-1.19352e-15,-65.8367,26.8011,-5.54308e-15,60.75,99.5545)"><stop offset="0" style="stop-color:rgb(21,154,255);stop-opacity:0"/><stop offset="1" style="stop-color:rgb(21,154,255);stop-opacity:1"/></linearGradient>
        <linearGradient id="_Linear2" x1="0" y1="0" x2="1" y2="0" gradientUnits="userSpaceOnUse" gradientTransform="matrix(-3.01718e-15,-62.5122,180.383,-1.40127e-14,60.75,98.6783)"><stop offset="0" style="stop-color:rgb(102,225,223);stop-opacity:0"/><stop offset="1" style="stop-color:rgb(102,225,223);stop-opacity:1"/></linearGradient>
        <linearGradient id="_Linear3" x1="0" y1="0" x2="1" y2="0" gradientUnits="userSpaceOnUse" gradientTransform="matrix(-1.19352e-15,-65.8367,26.8011,-5.54308e-15,60.75,99.5545)"><stop offset="0" style="stop-color:rgb(21,154,255);stop-opacity:0"/><stop offset="1" style="stop-color:rgb(21,154,255);stop-opacity:1"/></linearGradient>
        <linearGradient id="_Linear4" x1="0" y1="0" x2="1" y2="0" gradientUnits="userSpaceOnUse" gradientTransform="matrix(-3.01718e-15,-62.5122,180.383,-1.40127e-14,60.75,98.6783)"><stop offset="0" style="stop-color:rgb(102,225,223);stop-opacity:0"/><stop offset="1" style="stop-color:rgb(102,225,223);stop-opacity:1"/></linearGradient>
        <linearGradient id="_Linear5" x1="0" y1="0" x2="1" y2="0" gradientUnits="userSpaceOnUse" gradientTransform="matrix(-1.1878e-15,-72.8906,26.6726,-6.13698e-15,114.75,106.351)"><stop offset="0" style="stop-color:rgb(21,154,255);stop-opacity:0"/><stop offset="1" style="stop-color:rgb(21,154,255);stop-opacity:1"/></linearGradient>
        <linearGradient id="_Linear6" x1="0" y1="0" x2="1" y2="0" gradientUnits="userSpaceOnUse" gradientTransform="matrix(-3.00272e-15,-69.21,179.519,-1.55141e-14,114.75,105.38)"><stop offset="0" style="stop-color:rgb(102,225,223);stop-opacity:0"/><stop offset="1" style="stop-color:rgb(102,225,223);stop-opacity:1"/></linearGradient>
    </defs>
</svg>
