<?xml version="1.0" encoding="UTF-8" standalone="no"?>
<!DOCTYPE svg PUBLIC "-//W3C//DTD SVG 1.1//EN" "http://www.w3.org/Graphics/SVG/1.1/DTD/svg11.dtd">
<svg width="100%" height="100%" viewBox="0 0 80 80" version="1.1" xmlns="http://www.w3.org/2000/svg" xmlns:xlink="http://www.w3.org/1999/xlink" xml:space="preserve" xmlns:serif="http://www.serif.com/" style="fill-rule:evenodd;clip-rule:evenodd;stroke-linejoin:round;stroke-miterlimit:2;">
    <g transform="matrix(1,0,0,1,2730.1,-1380.4)">
        <g>
            <g transform="matrix(0.521152,0,0,0.521152,-3178.26,1397.92)">
                <rect x="859.943" y="-33.506" width="153.506" height="153.506" style="fill:none;"/>
            </g>
            <g transform="matrix(0.1875,0,0,0.1875,-3402.24,1193.85)">
                <g transform="matrix(0.979342,0,0,1.73087,7932.57,1054.11)">
                    <g transform="matrix(2.20303,0,0,0.548483,-10890.6,-474.304)">
                        <rect x="2934.15" y="961.063" width="4.944" height="108.516" style="fill:white;fill-opacity:0.2;"/>
                    </g>
                    <g transform="matrix(1.65305,0,0,0.93531,-9299.38,-837.625)">
                        <circle cx="2951.09" cy="952.119" r="9.883" style="fill:rgb(208,222,238);"/>
                    </g>
                    <g transform="matrix(1.65305,0,0,0.93531,-9299.38,-778.185)">
                        <circle cx="2951.09" cy="952.119" r="9.883" style="fill:rgb(17,155,255);"/>
                    </g>
                </g>
                <g transform="matrix(0.979342,0,0,1.73087,8010.44,1091.44)">
                    <g transform="matrix(2.20303,0,0,1.28675,-10890.6,-1233.13)">
                        <rect x="2934.15" y="961.063" width="4.944" height="108.516" style="fill:white;fill-opacity:0.2;"/>
                    </g>
                    <g transform="matrix(1.65305,0,0,0.93531,-9299.38,-890.007)">
                        <circle cx="2951.09" cy="952.119" r="9.883" style="fill:rgb(208,222,238);"/>
                    </g>
                    <g transform="matrix(1.65305,0,0,0.93531,-9299.38,-741.209)">
                        <circle cx="2951.09" cy="952.119" r="9.883" style="fill:rgb(17,155,255);"/>
                    </g>
                </g>
                <g transform="matrix(0.979342,0,0,1.73087,8088.31,1102.11)">
                    <g transform="matrix(2.20303,0,0,0.548483,-10890.6,-477.386)">
                        <rect x="2934.15" y="961.063" width="4.944" height="108.516" style="fill:white;fill-opacity:0.2;"/>
                    </g>
                    <g transform="matrix(1.65305,0,0,0.93531,-9299.38,-840.706)">
                        <circle cx="2951.09" cy="952.119" r="9.883" style="fill:rgb(208,222,238);"/>
                    </g>
                    <g transform="matrix(1.65305,0,0,0.93531,-9299.38,-784.348)">
                        <circle cx="2951.09" cy="952.119" r="9.883" style="fill:rgb(17,155,255);"/>
                    </g>
                </g>
                <g transform="matrix(0.979342,0,0,1.73087,8166.17,1091.44)">
                    <g transform="matrix(2.20303,0,0,0.463298,-10890.6,-410.924)">
                        <rect x="2934.15" y="961.063" width="4.944" height="108.516" style="fill:white;fill-opacity:0.2;"/>
                    </g>
                    <g transform="matrix(1.65305,0,0,0.93531,-9299.38,-856.112)">
                        <circle cx="2951.09" cy="952.119" r="9.883" style="fill:rgb(208,222,238);"/>
                    </g>
                    <g transform="matrix(1.65305,0,0,0.93531,-9299.38,-802.835)">
                        <circle cx="2951.09" cy="952.119" r="9.883" style="fill:rgb(17,155,255);"/>
                    </g>
                </g>
                <g transform="matrix(0.979342,0,0,1.73087,8244.04,1006.11)">
                    <g transform="matrix(2.20303,0,0,1.14478,-10890.6,-1065.87)">
                        <rect x="2934.15" y="961.063" width="4.944" height="108.516" style="fill:white;fill-opacity:0.2;"/>
                    </g>
                    <g transform="matrix(1.65305,0,0,0.93531,-9299.38,-856.112)">
                        <circle cx="2951.09" cy="952.119" r="9.883" style="fill:rgb(208,222,238);"/>
                    </g>
                    <g transform="matrix(1.65305,0,0,0.93531,-9299.38,-731.965)">
                        <circle cx="2951.09" cy="952.119" r="9.883" style="fill:rgb(17,155,255);"/>
                    </g>
                </g>
                <g transform="matrix(0.979342,0,0,1.73087,8321.91,1059.44)">
                    <g transform="matrix(2.20303,0,0,1.14478,-10890.6,-1065.87)">
                        <rect x="2934.15" y="961.063" width="4.944" height="108.516" style="fill:white;fill-opacity:0.2;"/>
                    </g>
                    <g transform="matrix(1.65305,0,0,0.93531,-9299.38,-856.112)">
                        <circle cx="2951.09" cy="952.119" r="9.883" style="fill:rgb(208,222,238);"/>
                    </g>
                    <g transform="matrix(1.65305,0,0,0.93531,-9299.38,-731.965)">
                        <circle cx="2951.09" cy="952.119" r="9.883" style="fill:rgb(17,155,255);"/>
                    </g>
                </g>
            </g>
        </g>
    </g>
</svg>
