<?xml version="1.0" encoding="UTF-8" standalone="no"?>
<!DOCTYPE svg PUBLIC "-//W3C//DTD SVG 1.1//EN" "http://www.w3.org/Graphics/SVG/1.1/DTD/svg11.dtd">
<svg width="100%" height="100%" viewBox="0 0 80 80" version="1.1" xmlns="http://www.w3.org/2000/svg" xmlns:xlink="http://www.w3.org/1999/xlink" xml:space="preserve" xmlns:serif="http://www.serif.com/" style="fill-rule:evenodd;clip-rule:evenodd;stroke-linejoin:round;stroke-miterlimit:2;">
    <g transform="matrix(1.79259,0,0,6.19632,-1494.06,-1891.39)">
        <g>
            <g>
                <g transform="matrix(0.290726,0,0,0.0841067,583.457,308.056)">
                    <rect x="859.943" y="-33.506" width="153.506" height="153.506" style="fill:none;"/>
                </g>
                <g transform="matrix(0.25423,0,0,0.147097,872.039,182.157)">
                    <g transform="matrix(-1.13233,0,0,0.966782,20.1937,823.187)">
                        <rect x="60.75" y="36.125" width="13.565" height="63" style="fill:rgb(208,222,238);"/>
                    </g>
                    <g transform="matrix(-1.13233,0,0,0.597832,20.1937,859.759)">
                        <rect x="60.75" y="36.125" width="13.565" height="63" style="fill:rgb(17,155,255);"/>
                    </g>
                    <g transform="matrix(-1.13233,0,0,0.682021,35.5537,851.414)">
                        <rect x="60.75" y="36.125" width="13.565" height="63" style="fill:rgb(208,222,238);"/>
                    </g>
                    <g transform="matrix(-1.13778,0,0,0.308009,128.045,886.409)">
                        <rect x="114.75" y="36.125" width="13.5" height="69.75" style="fill:rgb(208,222,238);"/>
                    </g>
                    <g transform="matrix(-1.13778,0,0,0.777392,81.9649,854.204)">
                        <rect x="87.75" y="36.125" width="13.5" height="47.25" style="fill:rgb(208,222,238);"/>
                    </g>
                    <g transform="matrix(-1.13778,0,0,0.25471,174.125,901.794)">
                        <rect x="141.75" y="36.125" width="13.5" height="31.5" style="fill:rgb(208,222,238);"/>
                    </g>
                    <g transform="matrix(-1.13233,0,0,0.151417,-56.6063,904.01)">
                        <rect x="60.75" y="36.125" width="13.565" height="63" style="fill:rgb(208,222,238);"/>
                    </g>
                    <g transform="matrix(-1.13233,0,0,0.220573,-41.2463,897.155)">
                        <rect x="60.75" y="36.125" width="13.565" height="63" style="fill:rgb(208,222,238);"/>
                    </g>
                    <g transform="matrix(-1.13778,0,0,0.645253,51.2449,850.703)">
                        <rect x="114.75" y="36.125" width="13.5" height="69.75" style="fill:rgb(208,222,238);"/>
                    </g>
                    <g transform="matrix(-1.13778,0,0,0.585167,5.16494,870.159)">
                        <rect x="87.75" y="36.125" width="13.5" height="47.25" style="fill:rgb(208,222,238);"/>
                    </g>
                    <g transform="matrix(-1.13778,0,0,2.4381,97.3249,754.143)">
                        <rect x="141.75" y="36.125" width="13.5" height="31.5" style="fill:rgb(208,222,238);"/>
                    </g>
                    <g transform="matrix(-1.13778,0,0,0.0408037,128.045,914.699)">
                        <rect x="114.75" y="36.125" width="13.5" height="69.75" style="fill:rgb(102,225,223);"/>
                    </g>
                    <g transform="matrix(-1.13778,0,0,0.368557,81.9649,888.219)">
                        <rect x="87.75" y="36.125" width="13.5" height="47.25" style="fill:rgb(102,225,223);"/>
                    </g>
                    <g transform="matrix(-1.13233,0,0,0.0399484,-56.6063,915.059)">
                        <rect x="60.75" y="36.125" width="13.565" height="63" style="fill:rgb(102,225,223);"/>
                    </g>
                    <g transform="matrix(-1.13233,0,0,0.455373,35.5537,873.88)">
                        <rect x="60.75" y="36.125" width="13.565" height="63" style="fill:rgb(102,225,223);"/>
                    </g>
                    <g transform="matrix(-1.13778,0,0,0.348293,51.2449,882.144)">
                        <rect x="114.75" y="36.125" width="13.5" height="69.75" style="fill:rgb(102,225,223);"/>
                    </g>
                    <g transform="matrix(-1.13778,0,0,0.377814,5.16494,887.447)">
                        <rect x="87.75" y="36.125" width="13.5" height="47.25" style="fill:rgb(102,225,223);"/>
                    </g>
                    <g transform="matrix(-1.13778,0,0,1.76357,97.3249,799.758)">
                        <rect x="141.75" y="36.125" width="13.5" height="31.5" style="fill:rgb(102,225,223);"/>
                    </g>
                    <g transform="matrix(-1.13233,0,0,0.231441,35.5537,896.078)">
                        <rect x="60.75" y="36.125" width="13.565" height="63" style="fill:rgb(17,155,255);"/>
                    </g>
                    <g transform="matrix(-1.13778,0,0,0.117441,81.9649,909.228)">
                        <rect x="87.75" y="36.125" width="13.5" height="47.25" style="fill:rgb(17,155,255);"/>
                    </g>
                    <g transform="matrix(-1.13233,0,0,0.110286,-41.2463,908.087)">
                        <rect x="60.75" y="36.125" width="13.565" height="63" style="fill:rgb(17,155,255);"/>
                    </g>
                    <g transform="matrix(-1.13778,0,0,0.185028,51.2449,899.429)">
                        <rect x="114.75" y="36.125" width="13.5" height="69.75" style="fill:rgb(17,155,255);"/>
                    </g>
                    <g transform="matrix(-1.13778,0,0,0.234882,5.16494,899.436)">
                        <rect x="87.75" y="36.125" width="13.5" height="47.25" style="fill:rgb(17,155,255);"/>
                    </g>
                    <g transform="matrix(-1.13778,0,0,0.819412,97.3249,863.606)">
                        <rect x="141.75" y="36.125" width="13.5" height="31.5" style="fill:rgb(17,155,255);"/>
                    </g>
                </g>
            </g>
        </g>
    </g>
</svg>
