<?xml version="1.0" encoding="UTF-8" standalone="no"?>
<!DOCTYPE svg PUBLIC "-//W3C//DTD SVG 1.1//EN" "http://www.w3.org/Graphics/SVG/1.1/DTD/svg11.dtd">
<svg width="100%" height="100%" viewBox="0 0 80 80" version="1.1" xmlns="http://www.w3.org/2000/svg" xmlns:xlink="http://www.w3.org/1999/xlink" xml:space="preserve" xmlns:serif="http://www.serif.com/" style="fill-rule:evenodd;clip-rule:evenodd;stroke-linejoin:round;stroke-miterlimit:2;">
    <g transform="matrix(1,0,0,1,1859.93,-223.14)">
        <g>
            <g transform="matrix(0.521152,0,0,0.521152,-2308.1,240.628)">
                <rect x="859.943" y="-33.506" width="153.506" height="153.506" style="fill:none;"/>
            </g>
            <g transform="matrix(1.68593e-17,0.275333,-0.486617,2.97967e-17,-2031.95,739.534)">
                <g>
                    <g>
                        <g transform="matrix(1.02109,0,0,0.761947,-37924.9,-3419.69)">
                            <path d="M35402.6,3989.71C35409.3,3975.91 35417,3960.39 35417,3944C35417,3924.65 35411.7,3906.52 35402.5,3891L35487.3,3891C35478.1,3906.53 35472.8,3924.65 35472.8,3944C35472.8,3960.39 35484.8,3975.91 35491.6,3989.71L35402.6,3989.71Z" style="fill:url(#_Linear1);"/>
                        </g>
                        <g transform="matrix(0.846069,0,0,0.478714,-31315,-2335.08)">
                            <circle cx="34967.4" cy="3878.59" r="80.592" style="fill:rgb(17,155,255);"/>
                        </g>
                        <g transform="matrix(0.564046,0,0,0.319143,-21453.4,-1617.56)">
                            <circle cx="34967.4" cy="3878.59" r="80.592" style="fill:rgb(102,225,223);"/>
                        </g>
                        <g transform="matrix(0.0506796,0,0,0.028675,-3502.28,-589.567)">
                            <circle cx="34967.4" cy="3878.59" r="80.592" style="fill:white;"/>
                        </g>
                        <g transform="matrix(0.0506796,0,0,0.028675,-3502.28,-490.958)">
                            <circle cx="34967.4" cy="3878.59" r="80.592" style="fill:white;"/>
                        </g>
                    </g>
                </g>
            </g>
        </g>
    </g>
    <defs>
        <linearGradient id="_Linear1" x1="0" y1="0" x2="1" y2="0" gradientUnits="userSpaceOnUse" gradientTransform="matrix(6.33687e-15,103.489,-103.489,6.33687e-15,35444,3891)"><stop offset="0" style="stop-color:rgb(11,120,255);stop-opacity:0.6"/><stop offset="1" style="stop-color:rgb(102,225,223);stop-opacity:0.6"/></linearGradient>
    </defs>
</svg>
