<?xml version="1.0" encoding="UTF-8" standalone="no"?>
<!DOCTYPE svg PUBLIC "-//W3C//DTD SVG 1.1//EN" "http://www.w3.org/Graphics/SVG/1.1/DTD/svg11.dtd">
<svg width="100%" height="100%" viewBox="0 0 80 80" version="1.1" xmlns="http://www.w3.org/2000/svg" xmlns:xlink="http://www.w3.org/1999/xlink" xml:space="preserve" xmlns:serif="http://www.serif.com/" style="fill-rule:evenodd;clip-rule:evenodd;stroke-linejoin:round;stroke-miterlimit:2;">
    <g transform="matrix(1,0,0,1,892.39,-3934.48)">
        <g>
            <g transform="matrix(0.521152,0,0,0.521152,-1340.55,3951.99)">
                <rect x="859.943" y="-33.506" width="153.506" height="153.506" style="fill:none;"/>
            </g>
            <g transform="matrix(1,0,0,1,1780.63,526.279)">
                <g transform="matrix(1,0,0,1,-7.47718,0.935875)">
                    <path d="M-2610.43,3429.82L-2610.43,3433.82L-2656.54,3433.82L-2656.54,3460.82L-2610.43,3460.82L-2610.43,3464.82L-2660.54,3464.82L-2660.54,3429.82L-2610.43,3429.82ZM-2590.54,3464.82L-2600.43,3464.82L-2600.43,3460.82L-2594.54,3460.82L-2594.54,3433.82L-2600.43,3433.82L-2600.43,3429.82L-2590.54,3429.82L-2590.54,3464.82Z" style="fill:url(#_Linear1);"/>
                </g>
                <g transform="matrix(1,0,0,1,2.52273,0.93588)">
                    <path d="M-2610.43,3426.82L-2613.43,3426.82L-2613.43,3467.82L-2610.43,3467.82L-2610.43,3471.82L-2620.43,3471.82L-2620.43,3467.82L-2617.43,3467.82L-2617.43,3426.82L-2620.43,3426.82L-2620.43,3422.82L-2610.43,3422.82L-2610.43,3426.82Z" style="fill:rgb(108,221,195);"/>
                </g>
            </g>
        </g>
    </g>
    <defs>
        <linearGradient id="_Linear1" x1="0" y1="0" x2="1" y2="0" gradientUnits="userSpaceOnUse" gradientTransform="matrix(70.1138,0,0,70.1138,-2660.54,3445.83)"><stop offset="0" style="stop-color:rgb(17,155,255);stop-opacity:1"/><stop offset="0.47" style="stop-color:rgb(102,225,223);stop-opacity:1"/><stop offset="1" style="stop-color:rgb(208,222,238);stop-opacity:1"/></linearGradient>
    </defs>
</svg>
