<?xml version="1.0" encoding="UTF-8" standalone="no"?>
<!DOCTYPE svg PUBLIC "-//W3C//DTD SVG 1.1//EN" "http://www.w3.org/Graphics/SVG/1.1/DTD/svg11.dtd">
<svg width="100%" height="100%" viewBox="0 0 80 80" version="1.1" xmlns="http://www.w3.org/2000/svg" xmlns:xlink="http://www.w3.org/1999/xlink" xml:space="preserve" xmlns:serif="http://www.serif.com/" style="fill-rule:evenodd;clip-rule:evenodd;stroke-linejoin:round;stroke-miterlimit:2;">
    <g transform="matrix(0.911458,0,0,0.911458,63.181,-762.877)">
        <g>
            <g>
                <g transform="matrix(0.571778,0,0,0.571778,-561.017,856.09)">
                    <rect x="859.943" y="-33.506" width="153.506" height="153.506" style="fill:none;"/>
                </g>
                <g transform="matrix(1.09714,0,0,1.51064,-453.488,-464.976)">
                    <g transform="matrix(-0.589753,0,0,0.320275,408.094,878.224)">
                        <rect x="60.75" y="36.125" width="13.565" height="63" style="fill:url(#_Linear1);"/>
                    </g>
                    <g transform="matrix(-0.592593,0,0,0.285694,484.231,868.803)">
                        <g>
                            <rect x="114.75" y="36.125" width="13.5" height="69.75" style="fill:url(#_Linear2);"/>
                        </g>
                    </g>
                    <g transform="matrix(-0.592593,0,0,0.497188,445.386,853.618)">
                        <rect x="87.75" y="36.125" width="13.5" height="47.25" style="fill:url(#_Linear3);"/>
                    </g>
                </g>
            </g>
        </g>
    </g>
    <defs>
        <linearGradient id="_Linear1" x1="0" y1="0" x2="1" y2="0" gradientUnits="userSpaceOnUse" gradientTransform="matrix(-1.19352e-15,-65.8367,26.8011,-5.54308e-15,60.75,99.5545)"><stop offset="0" style="stop-color:rgb(21,154,255);stop-opacity:0"/><stop offset="1" style="stop-color:rgb(21,154,255);stop-opacity:1"/></linearGradient>
        <linearGradient id="_Linear2" x1="0" y1="0" x2="1" y2="0" gradientUnits="userSpaceOnUse" gradientTransform="matrix(-3.00272e-15,-69.21,179.519,-1.55141e-14,114.75,105.38)"><stop offset="0" style="stop-color:rgb(102,225,223);stop-opacity:0"/><stop offset="1" style="stop-color:rgb(102,225,223);stop-opacity:1"/></linearGradient>
        <linearGradient id="_Linear3" x1="0" y1="0" x2="1" y2="0" gradientUnits="userSpaceOnUse" gradientTransform="matrix(-5.34455e-15,-47.55,560.762,-1.87059e-14,87.75,83.5997)"><stop offset="0" style="stop-color:rgb(208,222,238);stop-opacity:0"/><stop offset="1" style="stop-color:rgb(208,222,238);stop-opacity:1"/></linearGradient>
    </defs>
</svg>
