<?xml version="1.0" encoding="UTF-8" standalone="no"?>
<!DOCTYPE svg PUBLIC "-//W3C//DTD SVG 1.1//EN" "http://www.w3.org/Graphics/SVG/1.1/DTD/svg11.dtd">
<svg width="100%" height="100%" viewBox="0 0 80 80" version="1.1" xmlns="http://www.w3.org/2000/svg" xmlns:xlink="http://www.w3.org/1999/xlink" xml:space="preserve" xmlns:serif="http://www.serif.com/" style="fill-rule:evenodd;clip-rule:evenodd;stroke-linejoin:round;stroke-miterlimit:1;">
    <g transform="matrix(1,0,0,1,2981.87,-2276.87)">
        <g>
            <g transform="matrix(0.521152,0,0,0.521152,-3430.03,2294.38)">
                <rect x="859.943" y="-33.506" width="153.506" height="153.506" style="fill:none;"/>
            </g>
            <g transform="matrix(1,0,0,1,-2916.42,-487.141)">
                <g transform="matrix(1,0,0,0.267479,-413.572,2633.96)">
                    <g transform="matrix(1.17647,0,0,0.977492,-1007.28,-1733.43)">
                        <path d="M1220,2328L1220,2370L1152,2370L1152,2354L1165.6,2343L1179.2,2336L1192.8,2308.62L1206.4,2325L1220,2328Z" style="fill:url(#_Linear1);"/>
                    </g>
                    <g transform="matrix(1.17647,0,0,0.977492,-1007.28,-1733.43)">
                        <path d="M1152,2354L1165.6,2343L1179.2,2336L1192.8,2308.62L1206.4,2325L1220,2328" style="fill:none;stroke:rgb(17,155,255);stroke-width:2.35px;"/>
                    </g>
                </g>
                <g transform="matrix(1,0,0,0.267479,-413.572,2655.83)">
                    <g transform="matrix(1.17647,0,0,0.977492,-1007.28,-1733.43)">
                        <path d="M1220,2344.97L1220,2370L1152,2370L1152,2354L1165.6,2327.03L1179.2,2316.74L1192.8,2339.31L1206.4,2333.73L1220,2344.97Z" style="fill:url(#_Linear2);"/>
                    </g>
                    <g transform="matrix(1.17647,0,0,0.977492,-1007.28,-1733.43)">
                        <path d="M1152,2354L1165.6,2327.03L1179.2,2316.74L1192.8,2339.31L1206.4,2333.73L1220,2344.97" style="fill:none;stroke:rgb(102,225,223);stroke-width:2.35px;"/>
                    </g>
                </g>
                <g transform="matrix(1,0,0,0.267479,-413.572,2677.7)">
                    <g transform="matrix(1.17647,0,0,0.977492,-1007.28,-1733.43)">
                        <path d="M1220,2338.55L1220,2370L1152,2370L1152,2354L1165.6,2315.47L1179.2,2329.64L1192.8,2335.17L1206.4,2351.56L1220,2338.55Z" style="fill:url(#_Linear3);"/>
                    </g>
                    <g transform="matrix(1.17647,0,0,0.977492,-1007.28,-1733.43)">
                        <path d="M1152,2354L1165.6,2315.47L1179.2,2329.64L1192.8,2335.17L1206.4,2351.56L1220,2338.55" style="fill:none;stroke:rgb(181,228,170);stroke-width:2.35px;"/>
                    </g>
                </g>
            </g>
        </g>
    </g>
    <defs>
        <linearGradient id="_Linear1" x1="0" y1="0" x2="1" y2="0" gradientUnits="userSpaceOnUse" gradientTransform="matrix(8.82191e-16,64.8275,-2.89016,7.96307e-16,1192.89,2305.17)"><stop offset="0" style="stop-color:rgb(0,126,255);stop-opacity:0.6"/><stop offset="1" style="stop-color:rgb(0,126,255);stop-opacity:0"/></linearGradient>
        <linearGradient id="_Linear2" x1="0" y1="0" x2="1" y2="0" gradientUnits="userSpaceOnUse" gradientTransform="matrix(8.82191e-16,56.2515,-2.89016,6.90963e-16,1192.89,2313.75)"><stop offset="0" style="stop-color:rgb(102,225,223);stop-opacity:0.6"/><stop offset="1" style="stop-color:rgb(102,225,223);stop-opacity:0"/></linearGradient>
        <linearGradient id="_Linear3" x1="0" y1="0" x2="1" y2="0" gradientUnits="userSpaceOnUse" gradientTransform="matrix(-2.69207e-14,-54.8763,2824.58,-2.1588e-14,1152,2370.26)"><stop offset="0" style="stop-color:rgb(208,222,238);stop-opacity:0"/><stop offset="1" style="stop-color:rgb(208,222,238);stop-opacity:0.6"/></linearGradient>
    </defs>
</svg>
