<?xml version="1.0" encoding="UTF-8" standalone="no"?>
<!DOCTYPE svg PUBLIC "-//W3C//DTD SVG 1.1//EN" "http://www.w3.org/Graphics/SVG/1.1/DTD/svg11.dtd">
<svg width="100%" height="100%" viewBox="0 0 80 80" version="1.1" xmlns="http://www.w3.org/2000/svg" xmlns:xlink="http://www.w3.org/1999/xlink" xml:space="preserve" xmlns:serif="http://www.serif.com/" style="fill-rule:evenodd;clip-rule:evenodd;stroke-linejoin:round;stroke-miterlimit:2;">
    <g transform="matrix(1,0,0,1,2240.35,-3889.86)">
        <g>
            <g transform="matrix(0.521152,0,0,0.521152,-2688.51,3907.37)">
                <rect x="859.943" y="-33.506" width="153.506" height="153.506" style="fill:none;"/>
            </g>
            <g transform="matrix(1,0,0,1,-2449.95,358.859)">
                <g transform="matrix(3.04911,0,0,3.04911,-868.725,-4913.26)">
                    <path d="M376.009,2791.78C378.469,2789.32 379.852,2785.98 379.852,2782.51C379.852,2775.26 373.973,2769.39 366.733,2769.39C359.493,2769.39 353.614,2775.26 353.614,2782.51C353.614,2785.98 354.997,2789.32 357.457,2791.78L359.312,2789.93C357.344,2787.96 356.238,2785.29 356.238,2782.51C356.238,2776.71 360.941,2772.01 366.733,2772.01C372.525,2772.01 377.228,2776.71 377.228,2782.51C377.228,2785.29 376.122,2787.96 374.154,2789.93L376.009,2791.78Z" style="fill:white;fill-opacity:0.1;"/>
                </g>
                <g transform="matrix(3.04911,0,0,3.04911,-868.725,-4913.26)">
                    <path d="M357.457,2773.23C354.997,2775.69 353.614,2779.03 353.614,2782.51C353.614,2785.98 354.997,2789.32 357.457,2791.78L359.312,2789.93C357.344,2787.96 356.238,2785.29 356.238,2782.51C356.238,2779.72 357.344,2777.05 359.312,2775.08L357.457,2773.23Z" style="fill:rgb(17,155,255);"/>
                </g>
                <g transform="matrix(3.04911,0,0,3.04911,-868.725,-4913.26)">
                    <path d="M376.009,2773.23C373.549,2770.77 370.212,2769.39 366.733,2769.39C363.254,2769.39 359.917,2770.77 357.457,2773.23L359.312,2775.08C361.28,2773.12 363.95,2772.01 366.733,2772.01C369.516,2772.01 372.186,2773.12 374.154,2775.08L376.009,2773.23Z" style="fill:rgb(102,225,223);"/>
                </g>
                <g transform="matrix(3.04911,0,0,3.04911,-868.725,-4913.26)">
                    <path d="M376.009,2791.78C378.469,2789.32 379.852,2785.98 379.852,2782.51C379.852,2779.03 378.469,2775.69 376.009,2773.23L374.154,2775.08C376.122,2777.05 377.228,2779.72 377.228,2782.51C377.228,2785.29 376.122,2787.96 374.154,2789.93L376.009,2791.78Z" style="fill:rgb(208,222,238);"/>
                </g>
                <g transform="matrix(0.642788,-0.766044,0.766044,0.642788,-2735.58,1572.69)">
                    <path d="M389.129,3569.28C389.634,3569.65 389.964,3570.24 389.964,3570.91C389.964,3572.01 389.068,3572.91 387.964,3572.91C386.86,3572.91 385.964,3572.01 385.964,3570.91C385.964,3570.24 386.293,3569.65 386.799,3569.28L387.964,3549.46L389.129,3569.28Z" style="fill:rgb(17,155,255);"/>
                </g>
            </g>
        </g>
    </g>
</svg>
