<?xml version="1.0" encoding="UTF-8" standalone="no"?>
<!DOCTYPE svg PUBLIC "-//W3C//DTD SVG 1.1//EN" "http://www.w3.org/Graphics/SVG/1.1/DTD/svg11.dtd">
<svg width="100%" height="100%" viewBox="0 0 80 80" version="1.1" xmlns="http://www.w3.org/2000/svg" xmlns:xlink="http://www.w3.org/1999/xlink" xml:space="preserve" xmlns:serif="http://www.serif.com/" style="fill-rule:evenodd;clip-rule:evenodd;stroke-linejoin:round;stroke-miterlimit:2;">
    <g transform="matrix(1,0,0,1,-339,-244)">
        <g transform="matrix(1.08573,0,0,1.1367,-908.848,-2369.12)">
            <path d="M1154.44,2357.89L1166.55,2344.64C1166.55,2344.64 1179.48,2342.74 1179.48,2342.74C1180.11,2342.65 1180.64,2342.25 1180.89,2341.69L1193.28,2314.03C1193.28,2314.03 1204.96,2328.09 1204.96,2328.09C1205.46,2328.7 1206.31,2328.92 1207.06,2328.64L1220.66,2323.64C1221.61,2323.29 1222.08,2322.27 1221.72,2321.37C1221.35,2320.46 1220.29,2320.01 1219.34,2320.36L1207,2324.89C1207,2324.89 1194.24,2309.53 1194.24,2309.53C1193.84,2309.04 1193.2,2308.79 1192.56,2308.88C1191.91,2308.96 1191.36,2309.36 1191.11,2309.93L1177.91,2339.41C1177.91,2339.41 1165.32,2341.26 1165.32,2341.26C1164.89,2341.32 1164.5,2341.53 1164.21,2341.84L1151.66,2355.57C1150.99,2356.3 1151.07,2357.42 1151.84,2358.05C1152.6,2358.69 1153.77,2358.62 1154.44,2357.89Z" style="fill:url(#_Linear1);"/>
        </g>
        <g transform="matrix(1.07699,0,0,0.979441,-898.423,-1993.14)">
            <g>
                <path d="M1153.41,2327.19L1164.54,2322.8C1164.54,2322.8 1177.44,2352.06 1177.44,2352.06C1177.73,2352.73 1178.34,2353.17 1179.01,2353.21C1179.68,2353.25 1180.33,2352.88 1180.68,2352.26L1193.56,2329.66C1193.56,2329.66 1205.84,2333.71 1205.84,2333.71C1206.75,2334.01 1207.72,2333.5 1208.08,2332.54L1220.78,2299.09C1221.18,2298.05 1220.73,2296.85 1219.79,2296.42C1218.84,2295.98 1217.75,2296.47 1217.36,2297.51L1205.3,2329.27C1205.3,2329.27 1193.27,2325.3 1193.27,2325.3C1192.47,2325.04 1191.61,2325.4 1191.17,2326.18L1179.32,2346.96C1179.32,2346.96 1167.15,2319.37 1167.15,2319.37C1166.74,2318.43 1165.75,2317.99 1164.85,2318.34L1152.15,2323.35C1151.19,2323.73 1150.69,2324.9 1151.03,2325.96C1151.38,2327.02 1152.44,2327.57 1153.41,2327.19Z" style="fill:url(#_Linear2);"/>
            </g>
        </g>
    </g>
    <defs>
        <linearGradient id="_Linear1" x1="0" y1="0" x2="1" y2="0" gradientUnits="userSpaceOnUse" gradientTransform="matrix(2.74861e-15,-42.8753,32.367,1.89303e-15,1220,2357.84)"><stop offset="0" style="stop-color:rgb(21,154,255);stop-opacity:0"/><stop offset="1" style="stop-color:rgb(21,154,255);stop-opacity:1"/></linearGradient>
        <linearGradient id="_Linear2" x1="0" y1="0" x2="1" y2="0" gradientUnits="userSpaceOnUse" gradientTransform="matrix(2.91652e-15,-52.3742,34.5471,2.32609e-15,1219.07,2352.5)"><stop offset="0" style="stop-color:rgb(102,225,223);stop-opacity:0"/><stop offset="1" style="stop-color:rgb(102,225,223);stop-opacity:1"/></linearGradient>
    </defs>
</svg>
