<?xml version="1.0" encoding="UTF-8" standalone="no"?>
<!DOCTYPE svg PUBLIC "-//W3C//DTD SVG 1.1//EN" "http://www.w3.org/Graphics/SVG/1.1/DTD/svg11.dtd">
<svg width="100%" height="100%" viewBox="0 0 80 80" version="1.1" xmlns="http://www.w3.org/2000/svg" xmlns:xlink="http://www.w3.org/1999/xlink" xml:space="preserve" xmlns:serif="http://www.serif.com/" style="fill-rule:evenodd;clip-rule:evenodd;stroke-linejoin:round;stroke-miterlimit:2;">
    <g transform="matrix(1,0,0,1,1998.41,-223.282)">
        <g>
            <g transform="matrix(0.521152,0,0,0.521152,-2446.57,240.628)">
                <rect x="859.943" y="-33.506" width="153.506" height="153.506" style="fill:none;"/>
            </g>
            <g transform="matrix(1,0,0,1,-2208.01,-1227.15)">
                <g transform="matrix(0.143443,0,0,0.13194,360.6,1331.34)">
                    <g transform="matrix(0.946711,0,0,1.45918,-1201,-820.043)">
                        <rect x="192.646" y="1264.99" width="515.468" height="10.388" style="fill:white;fill-opacity:0.2;"/>
                    </g>
                    <g transform="matrix(0.946711,0,0,5.8368,-1201,-6357.69)">
                        <rect x="192.646" y="1264.99" width="515.468" height="10.388" style="fill:url(#_Linear1);"/>
                    </g>
                    <g transform="matrix(0.749644,0,0,0.815003,-1020.19,1014.36)">
                        <text x="0px" y="0px" style="font-family:'PingFangSC-Light', 'PingFang SC', sans-serif;font-weight:300;font-size:37.198px;fill:white;fill-opacity:0.8;">01</text>
                    </g>
                    <g transform="matrix(0.749644,0,0,0.815003,-963.82,1014.36)">
                        <text x="0px" y="0px" style="font-family:'PingFangSC-Light', 'PingFang SC', sans-serif;font-weight:300;font-size:37.198px;fill:white;fill-opacity:0.8;">指标A</text>
                    </g>
                    <g transform="matrix(0.749644,0,0,0.815003,-562.53,1014.36)">
                        <text x="0px" y="0px" style="font-family:'PingFangSC-Light', 'PingFang SC', sans-serif;font-weight:300;font-size:37.198px;fill:white;fill-opacity:0.8;">90</text>
                    </g>
                </g>
                <g transform="matrix(0.143443,0,0,0.13194,360.6,1353.4)">
                    <g transform="matrix(0.749644,0,0,0.815003,-1020.19,1014.36)">
                        <text x="0px" y="0px" style="font-family:'PingFangSC-Light', 'PingFang SC', sans-serif;font-weight:300;font-size:37.198px;fill:white;fill-opacity:0.8;">02</text>
                    </g>
                    <g transform="matrix(0.749644,0,0,0.815003,-963.82,1014.36)">
                        <text x="0px" y="0px" style="font-family:'PingFangSC-Light', 'PingFang SC', sans-serif;font-weight:300;font-size:37.198px;fill:white;fill-opacity:0.8;">指标B</text>
                    </g>
                    <g transform="matrix(0.946711,0,0,5.8368,-1201,-6357.16)">
                        <rect x="192.646" y="1264.99" width="515.468" height="10.388" style="fill:white;fill-opacity:0.2;"/>
                    </g>
                    <g transform="matrix(0.571447,0,0,5.8368,-1128.71,-6357.16)">
                        <rect x="192.646" y="1264.99" width="515.468" height="10.388" style="fill:url(#_Linear2);"/>
                    </g>
                    <g transform="matrix(0.749644,0,0,0.815003,-562.53,1014.36)">
                        <text x="0px" y="0px" style="font-family:'PingFangSC-Light', 'PingFang SC', sans-serif;font-weight:300;font-size:37.198px;fill:white;fill-opacity:0.8;">90</text>
                    </g>
                </g>
                <g transform="matrix(0.143443,0,0,0.13194,360.6,1375.47)">
                    <g transform="matrix(0.749644,0,0,0.815003,-1020.19,1014.36)">
                        <text x="0px" y="0px" style="font-family:'PingFangSC-Light', 'PingFang SC', sans-serif;font-weight:300;font-size:37.198px;fill:white;fill-opacity:0.8;">03</text>
                    </g>
                    <g transform="matrix(0.749644,0,0,0.815003,-963.82,1014.36)">
                        <text x="0px" y="0px" style="font-family:'PingFangSC-Light', 'PingFang SC', sans-serif;font-weight:300;font-size:37.198px;fill:white;fill-opacity:0.8;">指标C</text>
                    </g>
                    <g transform="matrix(0.946711,0,0,5.8368,-1201,-6356.78)">
                        <rect x="192.646" y="1264.99" width="515.468" height="10.388" style="fill:white;fill-opacity:0.2;"/>
                    </g>
                    <g transform="matrix(0.267712,0,0,5.8368,-1070.2,-6356.78)">
                        <rect x="192.646" y="1264.99" width="515.468" height="10.388" style="fill:url(#_Linear3);"/>
                    </g>
                    <g transform="matrix(0.749644,0,0,0.815003,-562.53,1014.36)">
                        <text x="0px" y="0px" style="font-family:'PingFangSC-Light', 'PingFang SC', sans-serif;font-weight:300;font-size:37.198px;fill:white;fill-opacity:0.8;">90</text>
                    </g>
                </g>
            </g>
        </g>
    </g>
    <defs>
        <linearGradient id="_Linear1" x1="0" y1="0" x2="1" y2="0" gradientUnits="userSpaceOnUse" gradientTransform="matrix(504.808,0,0,219.529,195.368,1264.59)"><stop offset="0" style="stop-color:rgb(21,154,255);stop-opacity:0"/><stop offset="1" style="stop-color:rgb(21,154,255);stop-opacity:1"/></linearGradient>
        <linearGradient id="_Linear2" x1="0" y1="0" x2="1" y2="0" gradientUnits="userSpaceOnUse" gradientTransform="matrix(515.468,0,0,10.388,192.646,1270.18)"><stop offset="0" style="stop-color:rgb(102,225,223);stop-opacity:0"/><stop offset="1" style="stop-color:rgb(102,225,223);stop-opacity:1"/></linearGradient>
        <linearGradient id="_Linear3" x1="0" y1="0" x2="1" y2="0" gradientUnits="userSpaceOnUse" gradientTransform="matrix(515.468,0,0,10.388,192.646,1270.18)"><stop offset="0" style="stop-color:rgb(208,222,238);stop-opacity:0"/><stop offset="1" style="stop-color:rgb(208,222,238);stop-opacity:1"/></linearGradient>
    </defs>
</svg>
