<?xml version="1.0" encoding="UTF-8" standalone="no"?>
<!DOCTYPE svg PUBLIC "-//W3C//DTD SVG 1.1//EN" "http://www.w3.org/Graphics/SVG/1.1/DTD/svg11.dtd">
<svg width="100%" height="100%" viewBox="0 0 80 80" version="1.1" xmlns="http://www.w3.org/2000/svg" xmlns:xlink="http://www.w3.org/1999/xlink" xml:space="preserve" xmlns:serif="http://www.serif.com/" style="fill-rule:evenodd;clip-rule:evenodd;stroke-linejoin:round;stroke-miterlimit:2;">
    <g transform="matrix(1,0,0,1,-2542.34,-446.023)">
        <g transform="matrix(6.12323e-17,1,-1,6.12323e-17,3011.85,1029.75)">
            <g id="_-" serif:id=" " transform="matrix(1,0,0,1,-932.223,-451.246)">
                <g transform="matrix(0.521152,0,0,0.521152,-99.6654,858.223)">
                    <rect x="859.943" y="-33.506" width="153.506" height="153.506" style="fill:none;"/>
                </g>
                <g>
                    <g transform="matrix(-0.442315,0,0,0.400186,386.256,875.951)">
                        <rect x="60.75" y="36.125" width="13.565" height="63" style="fill:rgb(17,155,255);"/>
                    </g>
                    <g transform="matrix(-0.442315,0,0,0.358508,386.256,854.87)">
                        <rect x="60.75" y="36.125" width="13.565" height="63" style="fill:rgb(108,221,195);"/>
                    </g>
                    <g transform="matrix(-0.442315,0,0,0.358508,386.256,832.81)">
                        <rect x="60.75" y="36.125" width="13.565" height="63" style="fill:rgb(255,234,146);"/>
                    </g>
                    <g transform="matrix(-0.442315,0,0,0.676762,402.256,848.535)">
                        <rect x="60.75" y="36.125" width="13.565" height="63" style="fill:rgb(17,155,255);"/>
                    </g>
                    <g transform="matrix(-0.442315,0,0,0.201459,402.256,853.456)">
                        <rect x="60.75" y="36.125" width="13.565" height="63" style="fill:rgb(108,221,195);"/>
                    </g>
                    <g transform="matrix(-0.442315,0,0,0.244669,402.256,836.923)">
                        <rect x="60.75" y="36.125" width="13.565" height="63" style="fill:rgb(255,234,146);"/>
                    </g>
                    <g transform="matrix(-0.444444,0,0,0.327531,458.386,880.942)">
                        <rect x="114.75" y="36.125" width="13.5" height="69.75" style="fill:rgb(17,155,255);"/>
                    </g>
                    <g transform="matrix(-0.444444,0,0,0.444752,458.386,846.047)">
                        <rect x="114.75" y="36.125" width="13.5" height="69.75" style="fill:rgb(108,221,195);"/>
                    </g>
                    <g transform="matrix(-0.444444,0,0,0.239616,458.386,837.105)">
                        <rect x="114.75" y="36.125" width="13.5" height="69.75" style="fill:rgb(255,234,146);"/>
                    </g>
                    <g transform="matrix(-0.444444,0,0,0.781832,430.386,850.434)">
                        <rect x="87.75" y="36.125" width="13.5" height="47.25" style="fill:rgb(17,155,255);"/>
                    </g>
                    <g transform="matrix(-0.444444,0,0,0.356105,430.386,849.355)">
                        <rect x="87.75" y="36.125" width="13.5" height="47.25" style="fill:rgb(108,221,195);"/>
                    </g>
                    <g transform="matrix(-0.444444,0,0,0.356105,430.386,832.897)">
                        <rect x="87.75" y="36.125" width="13.5" height="47.25" style="fill:rgb(255,234,146);"/>
                    </g>
                    <g transform="matrix(-0.444444,0,0,0.875375,486.386,856.422)">
                        <rect x="141.75" y="36.125" width="13.5" height="31.5" style="fill:rgb(17,155,255);"/>
                    </g>
                    <g transform="matrix(-0.444444,0,0,0.806306,486.386,833.897)">
                        <rect x="141.75" y="36.125" width="13.5" height="31.5" style="fill:rgb(108,221,195);"/>
                    </g>
                    <g transform="matrix(-0.444444,0,0,0.564565,486.386,825.224)">
                        <rect x="141.75" y="36.125" width="13.5" height="31.5" style="fill:rgb(255,234,146);"/>
                    </g>
                </g>
            </g>
        </g>
    </g>
</svg>
