<?xml version="1.0" encoding="UTF-8" standalone="no"?>
<!DOCTYPE svg PUBLIC "-//W3C//DTD SVG 1.1//EN" "http://www.w3.org/Graphics/SVG/1.1/DTD/svg11.dtd">
<svg width="100%" height="100%" viewBox="0 0 80 80" version="1.1" xmlns="http://www.w3.org/2000/svg" xmlns:xlink="http://www.w3.org/1999/xlink" xml:space="preserve" xmlns:serif="http://www.serif.com/" style="fill-rule:evenodd;clip-rule:evenodd;stroke-linejoin:round;stroke-miterlimit:2;">
    <g transform="matrix(0.998771,0,0,1.00482,-3.737e-05,-0.057092)">
        <rect x="-0.03" y="0.057" width="80.098" height="79.616" style="fill:none;"/>
    </g>
    <g transform="matrix(1,0,0,1,-342.942,-1310.85)">
        <g>
            <g transform="matrix(0.784314,0,0,1.04575,343.92,1325.48)">
                <g transform="matrix(0.23211,0,0,0.566667,8.91954,-32.7268)">
                    <rect x="11.25" y="58.5" width="47.25" height="13.5" style="fill:url(#_Linear1);"/>
                </g>
                <g transform="matrix(0.23211,0,0,0.566667,19.8868,-32.7268)">
                    <rect x="11.25" y="58.5" width="47.25" height="13.5" style="fill:url(#_Linear2);"/>
                </g>
                <g transform="matrix(1.14959,0,0,0.566667,20.5323,-32.7268)">
                    <rect x="11.25" y="58.5" width="47.25" height="13.5" style="fill:url(#_Linear3);"/>
                </g>
            </g>
            <g transform="matrix(0.744809,0,0,1.04575,344.376,1327.69)">
                <g transform="matrix(0.663905,0,0,0.566667,4.06184,-15.5143)">
                    <rect x="11.25" y="58.5" width="47.25" height="13.5" style="fill:url(#_Linear4);"/>
                </g>
                <g transform="matrix(0.601412,0,0,0.566667,35.9423,-15.5143)">
                    <rect x="11.25" y="58.5" width="47.25" height="13.5" style="fill:url(#_Linear5);"/>
                </g>
                <g transform="matrix(0.45326,0,0,0.566667,65.5138,-15.5143)">
                    <rect x="11.25" y="58.5" width="47.25" height="13.5" style="fill:url(#_Linear6);"/>
                </g>
            </g>
            <g transform="matrix(0.777496,0,0,1.04575,343.999,1331.34)">
                <g transform="matrix(0.468518,0,0,0.566667,6.25995,1.69815)">
                    <rect x="11.25" y="58.5" width="47.25" height="13.5" style="fill:url(#_Linear7);"/>
                </g>
                <g transform="matrix(0.52616,0,0,0.566667,27.5322,1.69815)">
                    <rect x="11.25" y="58.5" width="47.25" height="13.5" style="fill:url(#_Linear8);"/>
                </g>
                <g transform="matrix(0.651629,0,0,0.566667,50.5949,1.69815)">
                    <rect x="11.25" y="58.5" width="47.25" height="13.5" style="fill:url(#_Linear9);"/>
                </g>
            </g>
        </g>
    </g>
    <defs>
        <linearGradient id="_Linear1" x1="0" y1="0" x2="1" y2="0" gradientUnits="userSpaceOnUse" gradientTransform="matrix(46.2728,0,0,46.2728,11.4995,57.9842)"><stop offset="0" style="stop-color:rgb(21,154,255);stop-opacity:0"/><stop offset="1" style="stop-color:rgb(21,154,255);stop-opacity:1"/></linearGradient>
        <linearGradient id="_Linear2" x1="0" y1="0" x2="1" y2="0" gradientUnits="userSpaceOnUse" gradientTransform="matrix(47.25,0,0,47.25,11.25,65.25)"><stop offset="0" style="stop-color:rgb(208,222,238);stop-opacity:0.4"/><stop offset="1" style="stop-color:rgb(208,222,238);stop-opacity:1"/></linearGradient>
        <linearGradient id="_Linear3" x1="0" y1="0" x2="1" y2="0" gradientUnits="userSpaceOnUse" gradientTransform="matrix(47.25,0,0,47.25,11.25,65.25)"><stop offset="0" style="stop-color:rgb(102,225,223);stop-opacity:0.4"/><stop offset="1" style="stop-color:rgb(102,225,223);stop-opacity:1"/></linearGradient>
        <linearGradient id="_Linear4" x1="0" y1="0" x2="1" y2="0" gradientUnits="userSpaceOnUse" gradientTransform="matrix(46.2728,0,0,46.2728,11.4995,57.9842)"><stop offset="0" style="stop-color:rgb(21,154,255);stop-opacity:0"/><stop offset="1" style="stop-color:rgb(21,154,255);stop-opacity:1"/></linearGradient>
        <linearGradient id="_Linear5" x1="0" y1="0" x2="1" y2="0" gradientUnits="userSpaceOnUse" gradientTransform="matrix(47.25,0,0,47.25,11.25,65.25)"><stop offset="0" style="stop-color:rgb(208,222,238);stop-opacity:0.4"/><stop offset="1" style="stop-color:rgb(208,222,238);stop-opacity:1"/></linearGradient>
        <linearGradient id="_Linear6" x1="0" y1="0" x2="1" y2="0" gradientUnits="userSpaceOnUse" gradientTransform="matrix(47.25,0,0,47.25,11.25,65.25)"><stop offset="0" style="stop-color:rgb(102,225,223);stop-opacity:0.4"/><stop offset="1" style="stop-color:rgb(102,225,223);stop-opacity:1"/></linearGradient>
        <linearGradient id="_Linear7" x1="0" y1="0" x2="1" y2="0" gradientUnits="userSpaceOnUse" gradientTransform="matrix(46.2728,0,0,46.2728,11.4995,57.9842)"><stop offset="0" style="stop-color:rgb(21,154,255);stop-opacity:0"/><stop offset="1" style="stop-color:rgb(21,154,255);stop-opacity:1"/></linearGradient>
        <linearGradient id="_Linear8" x1="0" y1="0" x2="1" y2="0" gradientUnits="userSpaceOnUse" gradientTransform="matrix(47.25,0,0,47.25,11.25,65.25)"><stop offset="0" style="stop-color:rgb(208,222,238);stop-opacity:0.4"/><stop offset="1" style="stop-color:rgb(208,222,238);stop-opacity:1"/></linearGradient>
        <linearGradient id="_Linear9" x1="0" y1="0" x2="1" y2="0" gradientUnits="userSpaceOnUse" gradientTransform="matrix(47.25,0,0,47.25,11.25,65.25)"><stop offset="0" style="stop-color:rgb(102,225,223);stop-opacity:0.4"/><stop offset="1" style="stop-color:rgb(102,225,223);stop-opacity:1"/></linearGradient>
    </defs>
</svg>
