<?xml version="1.0" encoding="UTF-8" standalone="no"?>
<!DOCTYPE svg PUBLIC "-//W3C//DTD SVG 1.1//EN" "http://www.w3.org/Graphics/SVG/1.1/DTD/svg11.dtd">
<svg width="100%" height="100%" viewBox="0 0 80 80" version="1.1" xmlns="http://www.w3.org/2000/svg" xmlns:xlink="http://www.w3.org/1999/xlink" xml:space="preserve" xmlns:serif="http://www.serif.com/" style="fill-rule:evenodd;clip-rule:evenodd;stroke-linejoin:round;stroke-miterlimit:2;">
    <g transform="matrix(0.998771,0,0,1.00482,-3.737e-05,-0.057092)">
        <rect x="-0.03" y="0.057" width="80.098" height="79.616" style="fill:none;"/>
    </g>
    <g transform="matrix(1,0,0,1.37689,-350.154,-1186.68)">
        <g>
            <g transform="matrix(-0.589753,0,0,0.126729,408.094,897.409)">
                <rect x="60.75" y="36.125" width="13.565" height="63" style="fill:url(#_Linear1);"/>
            </g>
            <g transform="matrix(-0.589753,0,0,0.113531,408.094,890.734)">
                <rect x="60.75" y="36.125" width="13.565" height="63" style="fill:url(#_Linear2);"/>
            </g>
            <g transform="matrix(-0.589753,0,0,0.368814,408.094,858.443)">
                <rect x="60.75" y="36.125" width="13.565" height="63" style="fill:url(#_Linear3);"/>
            </g>
            <g transform="matrix(1,0,0,0.776371,0,199.111)">
                <g transform="matrix(-0.592593,0,0,0.174313,484.042,897.164)">
                    <rect x="114.75" y="36.125" width="13.5" height="69.75" style="fill:url(#_Linear4);"/>
                </g>
                <g transform="matrix(-0.592593,0,0,0.236698,484.042,878.593)">
                    <rect x="114.75" y="36.125" width="13.5" height="69.75" style="fill:url(#_Linear5);"/>
                </g>
                <g transform="matrix(-0.592593,0,0,0.301295,484.042,855.436)">
                    <rect x="114.75" y="36.125" width="13.5" height="69.75" style="fill:url(#_Linear6);"/>
                </g>
            </g>
            <g transform="matrix(-0.592593,0,0,0.426679,445.386,874.397)">
                <rect x="87.75" y="36.125" width="13.5" height="47.25" style="fill:url(#_Linear7);"/>
            </g>
            <g transform="matrix(-0.592593,0,0,0.194341,445.386,873.808)">
                <rect x="87.75" y="36.125" width="13.5" height="47.25" style="fill:url(#_Linear8);"/>
            </g>
            <g transform="matrix(-0.592593,0,0,0.194341,445.386,864.827)">
                <rect x="87.75" y="36.125" width="13.5" height="47.25" style="fill:url(#_Linear9);"/>
            </g>
        </g>
    </g>
    <defs>
        <linearGradient id="_Linear1" x1="0" y1="0" x2="1" y2="0" gradientUnits="userSpaceOnUse" gradientTransform="matrix(4.03134e-15,-65.8367,65.8367,4.03134e-15,60.75,99.5545)"><stop offset="0" style="stop-color:rgb(21,154,255);stop-opacity:0"/><stop offset="1" style="stop-color:rgb(21,154,255);stop-opacity:1"/></linearGradient>
        <linearGradient id="_Linear2" x1="0" y1="0" x2="1" y2="0" gradientUnits="userSpaceOnUse" gradientTransform="matrix(-1.01955e-14,-63.4001,63.4001,-1.01955e-14,60.75,99.4246)"><stop offset="0" style="stop-color:rgb(208,222,238);stop-opacity:0.4"/><stop offset="1" style="stop-color:rgb(208,222,238);stop-opacity:1"/></linearGradient>
        <linearGradient id="_Linear3" x1="0" y1="0" x2="1" y2="0" gradientUnits="userSpaceOnUse" gradientTransform="matrix(3.82777e-15,-62.5122,62.5122,3.82777e-15,60.75,98.6783)"><stop offset="0" style="stop-color:rgb(102,225,223);stop-opacity:0.4"/><stop offset="1" style="stop-color:rgb(102,225,223);stop-opacity:1"/></linearGradient>
        <linearGradient id="_Linear4" x1="0" y1="0" x2="1" y2="0" gradientUnits="userSpaceOnUse" gradientTransform="matrix(4.46326e-15,-72.8906,72.8906,4.46326e-15,114.75,106.351)"><stop offset="0" style="stop-color:rgb(21,154,255);stop-opacity:0"/><stop offset="1" style="stop-color:rgb(21,154,255);stop-opacity:1"/></linearGradient>
        <linearGradient id="_Linear5" x1="0" y1="0" x2="1" y2="0" gradientUnits="userSpaceOnUse" gradientTransform="matrix(4.29808e-15,-70.1929,70.1929,4.29808e-15,114.75,106.207)"><stop offset="0" style="stop-color:rgb(208,222,238);stop-opacity:0.4"/><stop offset="1" style="stop-color:rgb(208,222,238);stop-opacity:1"/></linearGradient>
        <linearGradient id="_Linear6" x1="0" y1="0" x2="1" y2="0" gradientUnits="userSpaceOnUse" gradientTransform="matrix(4.23789e-15,-69.21,69.21,4.23789e-15,114.75,105.38)"><stop offset="0" style="stop-color:rgb(102,225,223);stop-opacity:0.4"/><stop offset="1" style="stop-color:rgb(102,225,223);stop-opacity:1"/></linearGradient>
        <linearGradient id="_Linear7" x1="0" y1="0" x2="1" y2="0" gradientUnits="userSpaceOnUse" gradientTransform="matrix(3.0235e-15,-49.3775,49.3775,3.0235e-15,87.75,83.6971)"><stop offset="0" style="stop-color:rgb(21,154,255);stop-opacity:0"/><stop offset="1" style="stop-color:rgb(21,154,255);stop-opacity:1"/></linearGradient>
        <linearGradient id="_Linear8" x1="0" y1="0" x2="1" y2="0" gradientUnits="userSpaceOnUse" gradientTransform="matrix(2.9116e-15,-47.55,47.55,2.9116e-15,87.75,83.5997)"><stop offset="0" style="stop-color:rgb(208,222,238);stop-opacity:0.4"/><stop offset="1" style="stop-color:rgb(208,222,238);stop-opacity:1"/></linearGradient>
        <linearGradient id="_Linear9" x1="0" y1="0" x2="1" y2="0" gradientUnits="userSpaceOnUse" gradientTransform="matrix(2.87083e-15,-46.8842,46.8842,2.87083e-15,87.75,83.04)"><stop offset="0" style="stop-color:rgb(102,225,223);stop-opacity:0.4"/><stop offset="1" style="stop-color:rgb(102,225,223);stop-opacity:1"/></linearGradient>
    </defs>
</svg>
