<?xml version="1.0" encoding="UTF-8" standalone="no"?>
<!DOCTYPE svg PUBLIC "-//W3C//DTD SVG 1.1//EN" "http://www.w3.org/Graphics/SVG/1.1/DTD/svg11.dtd">
<svg width="100%" height="100%" viewBox="0 0 80 80" version="1.1" xmlns="http://www.w3.org/2000/svg" xmlns:xlink="http://www.w3.org/1999/xlink" xml:space="preserve" xmlns:serif="http://www.serif.com/" style="fill-rule:evenodd;clip-rule:evenodd;stroke-linejoin:round;stroke-miterlimit:2;">
    <g transform="matrix(1,0,0,1,1167.43,-3699.65)">
        <g>
            <g transform="matrix(0.521152,0,0,0.521152,-1615.59,3717.16)">
                <rect x="859.943" y="-33.506" width="153.506" height="153.506" style="fill:none;"/>
            </g>
            <g transform="matrix(1,0,0,1,-1528.91,0)">
                <path d="M431.475,3709.7L371.475,3709.7L371.475,3769.7L431.475,3769.7L431.475,3709.7ZM427.475,3749.52L427.475,3713.7L375.475,3713.7L375.475,3765.7L383.466,3765.7L412.149,3737.02C412.93,3736.24 414.197,3736.24 414.978,3737.02L427.475,3749.52ZM389.123,3765.7L427.475,3765.7L427.475,3755.17L413.564,3741.26L389.123,3765.7Z" style="fill:url(#_Linear1);"/>
            </g>
        </g>
    </g>
    <defs>
        <linearGradient id="_Linear1" x1="0" y1="0" x2="1" y2="0" gradientUnits="userSpaceOnUse" gradientTransform="matrix(56,61.3714,-61.3714,56,375.475,3713.7)"><stop offset="0" style="stop-color:rgb(17,155,255);stop-opacity:1"/><stop offset="0.5" style="stop-color:rgb(102,225,223);stop-opacity:1"/><stop offset="1" style="stop-color:rgb(208,222,238);stop-opacity:1"/></linearGradient>
    </defs>
</svg>
