<?xml version="1.0" encoding="UTF-8" standalone="no"?>
<!DOCTYPE svg PUBLIC "-//W3C//DTD SVG 1.1//EN" "http://www.w3.org/Graphics/SVG/1.1/DTD/svg11.dtd">
<svg width="100%" height="100%" viewBox="0 0 80 80" version="1.1" xmlns="http://www.w3.org/2000/svg" xmlns:xlink="http://www.w3.org/1999/xlink" xml:space="preserve" xmlns:serif="http://www.serif.com/" style="fill-rule:evenodd;clip-rule:evenodd;stroke-linejoin:round;stroke-miterlimit:2;">
    <g transform="matrix(1,0,0,1,-209,-1322)">
        <g transform="matrix(1,0,0,1,2862.87,518.053)">
            <g transform="matrix(0.521152,0,0,0.521152,-3102.03,821.457)">
                <rect x="859.943" y="-33.506" width="153.506" height="153.506" style="fill:none;"/>
            </g>
            <g transform="matrix(0.156165,-1.20103e-17,-4.08795e-17,0.102152,-1888.75,765.275)">
                <g transform="matrix(1.06535,0,4.93038e-32,1.62864,-14234.1,-3519.5)">
                    <path d="M9227.28,2633.33C9227.28,2508.84 9126.37,2407.92 9001.88,2407.92L9001.88,2633.33L9227.28,2633.33Z" style="fill:rgb(17,155,255);"/>
                </g>
                <g transform="matrix(1.06535,0,0,1.62864,-14234.1,-3519.5)">
                    <path d="M9078.97,2845.13C9168.02,2812.72 9227.28,2728.08 9227.28,2633.33L9001.88,2633.33L9078.97,2845.13Z" style="fill:rgb(62,191,218);"/>
                </g>
                <g transform="matrix(1.06535,0,0,1.62864,-14234.1,-3519.5)">
                    <path d="M8924.79,2421.52C8887.61,2435.05 8854.65,2458.13 8829.21,2488.44L9001.88,2633.33L8924.79,2421.52Z" style="fill:rgb(255,189,109);"/>
                </g>
                <g transform="matrix(1.06535,0,0,1.62864,-14234.1,-3519.5)">
                    <path d="M8829.21,2488.44C8795.15,2529.03 8776.48,2580.33 8776.48,2633.33L9001.88,2633.33L8829.21,2488.44Z" style="fill:rgb(255,234,146);"/>
                </g>
                <g transform="matrix(1.06535,0,0,1.62864,-14234.1,-3519.5)">
                    <path d="M9001.88,2407.92C8975.59,2407.92 8949.5,2412.52 8924.79,2421.52L9001.88,2633.33L9001.88,2407.92Z" style="fill:rgb(253,146,109);"/>
                </g>
                <g transform="matrix(1.06535,0,0,1.62864,-14234.1,-3519.5)">
                    <path d="M8857,2805.99C8897.59,2840.06 8948.89,2858.73 9001.88,2858.73C9028.18,2858.73 9054.27,2854.13 9078.97,2845.13L9001.88,2633.33L8857,2805.99Z" style="fill:rgb(108,221,195);"/>
                </g>
                <g transform="matrix(1.06535,0,0,1.62864,-14234.1,-3519.5)">
                    <path d="M8776.48,2633.33C8776.48,2699.95 8805.96,2763.17 8857,2805.99L9001.88,2633.33L8776.48,2633.33Z" style="fill:rgb(181,228,170);"/>
                </g>
            </g>
        </g>
    </g>
</svg>
