<?xml version="1.0" encoding="UTF-8" standalone="no"?>
<!DOCTYPE svg PUBLIC "-//W3C//DTD SVG 1.1//EN" "http://www.w3.org/Graphics/SVG/1.1/DTD/svg11.dtd">
<svg width="100%" height="100%" viewBox="0 0 80 80" version="1.1" xmlns="http://www.w3.org/2000/svg" xmlns:xlink="http://www.w3.org/1999/xlink" xml:space="preserve" xmlns:serif="http://www.serif.com/" style="fill-rule:evenodd;clip-rule:evenodd;stroke-linejoin:round;stroke-miterlimit:2;">
    <g transform="matrix(1,0,0,1,892.16,-3482.22)">
        <g>
            <g transform="matrix(0.521152,0,0,0.521152,-1340.32,3499.73)">
                <rect x="859.943" y="-33.506" width="153.506" height="153.506" style="fill:none;"/>
            </g>
            <g transform="matrix(1,0,0,1,-1101.16,-1857.78)">
                <path d="M249,5340.05C271.077,5340.05 289,5357.97 289,5380.05C289,5402.12 271.077,5420.05 249,5420.05C226.923,5420.05 209,5402.12 209,5380.05C209,5357.97 226.923,5340.05 249,5340.05ZM249,5344.05C268.869,5344.05 285,5360.18 285,5380.05C285,5399.92 268.869,5416.05 249,5416.05C229.131,5416.05 213,5399.92 213,5380.05C213,5360.18 229.131,5344.05 249,5344.05ZM248.649,5393.28C247.731,5393.28 246.975,5393.55 246.327,5394.2C245.679,5394.79 245.409,5395.55 245.409,5396.46C245.409,5397.38 245.679,5398.14 246.327,5398.79C246.975,5399.38 247.731,5399.7 248.649,5399.7C249.567,5399.7 250.323,5399.38 250.971,5398.79C251.619,5398.19 251.943,5397.44 251.943,5396.46C251.943,5395.55 251.619,5394.79 251.025,5394.2C250.377,5393.55 249.567,5393.28 248.649,5393.28ZM249.459,5360.39C245.571,5360.39 242.547,5361.58 240.387,5363.96C238.227,5366.22 237.201,5369.25 237.201,5373.03L241.467,5373.03C241.467,5370.38 242.061,5368.33 243.249,5366.82C244.545,5365.04 246.543,5364.17 249.243,5364.17C251.511,5364.17 253.293,5364.77 254.535,5366.06C255.723,5367.25 256.371,5368.92 256.371,5371.08C256.371,5372.6 255.831,5374 254.751,5375.35C254.427,5375.78 253.779,5376.43 252.915,5377.29C249.999,5379.89 248.217,5381.94 247.461,5383.56C246.813,5384.91 246.489,5386.47 246.489,5388.26L246.489,5389.5L250.809,5389.5L250.809,5388.26C250.809,5386.8 251.133,5385.5 251.835,5384.31C252.375,5383.34 253.185,5382.37 254.373,5381.34C256.749,5379.24 258.207,5377.83 258.747,5377.19C260.097,5375.4 260.799,5373.3 260.799,5370.87C260.799,5367.63 259.773,5365.09 257.775,5363.25C255.669,5361.31 252.915,5360.39 249.459,5360.39Z" style="fill:url(#_Linear1);"/>
            </g>
        </g>
    </g>
    <defs>
        <linearGradient id="_Linear1" x1="0" y1="0" x2="1" y2="0" gradientUnits="userSpaceOnUse" gradientTransform="matrix(74.6667,81.8285,-81.8285,74.6667,214.333,5345.38)"><stop offset="0" style="stop-color:rgb(17,155,255);stop-opacity:1"/><stop offset="0.5" style="stop-color:rgb(102,225,223);stop-opacity:1"/><stop offset="1" style="stop-color:rgb(208,222,238);stop-opacity:1"/></linearGradient>
    </defs>
</svg>
