<?xml version="1.0" encoding="UTF-8" standalone="no"?>
<!DOCTYPE svg PUBLIC "-//W3C//DTD SVG 1.1//EN" "http://www.w3.org/Graphics/SVG/1.1/DTD/svg11.dtd">
<svg width="100%" height="100%" viewBox="0 0 80 80" version="1.1" xmlns="http://www.w3.org/2000/svg" xmlns:xlink="http://www.w3.org/1999/xlink" xml:space="preserve" xmlns:serif="http://www.serif.com/" style="fill-rule:evenodd;clip-rule:evenodd;stroke-linejoin:round;stroke-miterlimit:1.5;">
    <g transform="matrix(1,0,0,1,2994.98,-1572.22)">
        <g>
            <g transform="matrix(0.521152,0,0,0.521152,-3443.14,1589.73)">
                <rect x="859.943" y="-33.506" width="153.506" height="153.506" style="fill:none;"/>
            </g>
            <g transform="matrix(1,0,0,1,-2929.53,-804.141)">
                <g transform="matrix(1.28526,0,0,1.28526,2.09264,-686.02)">
                    <path d="M-21.511,2382.63L-3.218,2388.57L8.088,2404.13L8.088,2423.37L-3.218,2438.93L-21.511,2444.87L-39.805,2438.93L-51.11,2423.37L-51.11,2404.13L-39.805,2388.57L-21.511,2382.63Z" style="fill:none;stroke:white;stroke-opacity:0.3;stroke-width:0.39px;"/>
                </g>
                <g transform="matrix(0.803287,0,0,0.803287,-8.27525,477.339)">
                    <path d="M-21.511,2382.63L-3.218,2388.57L8.088,2404.13L8.088,2423.37L-3.218,2438.93L-21.511,2444.87L-39.805,2438.93L-51.11,2423.37L-51.11,2404.13L-39.805,2388.57L-21.511,2382.63Z" style="fill:none;stroke:white;stroke-opacity:0.3;stroke-width:0.62px;"/>
                </g>
                <g transform="matrix(0.321315,0,0,0.321315,-18.6431,1640.7)">
                    <path d="M-21.511,2382.63L-3.218,2388.57L8.088,2404.13L8.088,2423.37L-3.218,2438.93L-21.511,2444.87L-39.805,2438.93L-51.11,2423.37L-51.11,2404.13L-39.805,2388.57L-21.511,2382.63Z" style="fill:none;stroke:white;stroke-opacity:0.3;stroke-width:1.56px;"/>
                </g>
                <path d="M-25.555,2456.27L-25.555,2376.27" style="fill:none;stroke:white;stroke-opacity:0.3;stroke-width:0.5px;"/>
                <g transform="matrix(0.809401,-0.587256,0.587256,0.809401,-1423.84,445.53)">
                    <path d="M-25.555,2456.27L-25.555,2376.27" style="fill:none;stroke:white;stroke-opacity:0.3;stroke-width:0.5px;"/>
                </g>
                <g transform="matrix(0.310262,-0.950651,0.950651,0.310262,-2314.66,1642.3)">
                    <path d="M-25.555,2456.27L-25.555,2376.27" style="fill:none;stroke:white;stroke-opacity:0.3;stroke-width:0.5px;"/>
                </g>
                <g transform="matrix(-0.307149,-0.951661,0.951661,-0.307149,-2332.88,3134.11)">
                    <path d="M-25.555,2456.27L-25.555,2376.27" style="fill:none;stroke:white;stroke-opacity:0.3;stroke-width:0.5px;"/>
                </g>
                <g transform="matrix(-0.807476,-0.589901,0.589901,-0.807476,-1471.55,4352.28)">
                    <path d="M-25.555,2456.27L-25.555,2376.27" style="fill:none;stroke:white;stroke-opacity:0.3;stroke-width:0.5px;"/>
                </g>
                <path d="M-25.555,2388.98L-36.727,2400.7L-47.286,2409.18L-40.933,2421.23L-45.322,2443.33L-25.555,2439.18L-8.232,2440.15L-9.488,2421.51L-14.905,2412.83L-12.134,2397.9L-25.555,2388.98Z" style="fill:rgb(21,154,255);fill-opacity:0.32;"/>
                <path d="M-25.001,2388.15C-25.406,2387.88 -25.944,2387.94 -26.279,2388.29L-37.405,2399.96C-37.405,2399.96 -47.912,2408.4 -47.912,2408.4C-48.286,2408.7 -48.394,2409.22 -48.171,2409.65L-41.983,2421.38C-41.983,2421.38 -46.303,2443.14 -46.303,2443.14C-46.368,2443.47 -46.264,2443.8 -46.025,2444.04C-45.787,2444.28 -45.445,2444.38 -45.117,2444.31L-25.479,2440.19C-25.479,2440.19 -8.288,2441.15 -8.288,2441.15C-8.002,2441.16 -7.722,2441.06 -7.521,2440.85C-7.319,2440.65 -7.215,2440.37 -7.234,2440.08L-8.49,2421.44C-8.501,2421.28 -8.553,2421.12 -8.64,2420.98L-13.851,2412.63C-13.851,2412.63 -11.151,2398.08 -11.151,2398.08C-11.078,2397.69 -11.247,2397.29 -11.58,2397.07L-25.001,2388.15ZM-25.41,2390.28L-13.238,2398.37C-13.238,2398.37 -15.888,2412.65 -15.888,2412.65C-15.934,2412.89 -15.886,2413.15 -15.753,2413.36L-10.469,2421.83C-10.469,2421.83 -9.306,2439.09 -9.306,2439.09C-9.306,2439.09 -25.499,2438.18 -25.499,2438.18C-25.587,2438.18 -25.675,2438.18 -25.76,2438.2L-44.046,2442.04C-44.046,2442.04 -39.952,2421.43 -39.952,2421.43C-39.907,2421.2 -39.941,2420.97 -40.048,2420.76L-46.017,2409.44C-46.017,2409.44 -36.101,2401.48 -36.101,2401.48C-36.066,2401.45 -36.034,2401.42 -36.003,2401.39L-25.41,2390.28Z" style="fill:rgb(21,154,255);"/>
            </g>
        </g>
    </g>
</svg>
