<?xml version="1.0" encoding="UTF-8" standalone="no"?>
<!DOCTYPE svg PUBLIC "-//W3C//DTD SVG 1.1//EN" "http://www.w3.org/Graphics/SVG/1.1/DTD/svg11.dtd">
<svg width="100%" height="100%" viewBox="0 0 80 80" version="1.1" xmlns="http://www.w3.org/2000/svg" xmlns:xlink="http://www.w3.org/1999/xlink" xml:space="preserve" xmlns:serif="http://www.serif.com/" style="fill-rule:evenodd;clip-rule:evenodd;stroke-linejoin:round;stroke-miterlimit:2;">
    <g transform="matrix(1,0,0,1,2468.87,-352.14)">
        <g>
            <g transform="matrix(0.521152,0,0,0.521152,-2917.03,369.628)">
                <rect x="859.943" y="-33.506" width="153.506" height="153.506" style="fill:none;"/>
            </g>
            <g transform="matrix(1,0,0,1,-2403.31,-1105.53)">
                <g transform="matrix(0.944899,0,0,0.944899,26.2113,76.2996)">
                    <path d="M-54.785,1542.38C-75.813,1542.38 -92.884,1525.31 -92.884,1504.28C-92.884,1483.25 -75.813,1466.18 -54.785,1466.18C-33.757,1466.18 -16.686,1483.25 -16.686,1504.28L-12.452,1504.28C-12.452,1480.92 -31.421,1461.95 -54.785,1461.95C-78.149,1461.95 -97.118,1480.92 -97.118,1504.28C-97.118,1527.65 -78.149,1546.61 -54.785,1546.61L-54.785,1542.38Z" style="fill:white;fill-opacity:0.15;"/>
                </g>
                <g transform="matrix(0.944899,0,0,0.944899,26.2113,76.2996)">
                    <path d="M-54.785,1542.38C-75.813,1542.38 -92.884,1525.31 -92.884,1504.28C-92.884,1483.25 -75.813,1466.18 -54.785,1466.18C-41.974,1466.18 -30.632,1472.52 -23.724,1482.23L-20.275,1479.77C-27.95,1468.99 -40.552,1461.95 -54.785,1461.95C-78.149,1461.95 -97.118,1480.92 -97.118,1504.28C-97.118,1527.65 -78.149,1546.61 -54.785,1546.61L-54.785,1542.38Z" style="fill:rgb(17,155,255);"/>
                </g>
                <g transform="matrix(0.745973,0,0,0.745973,15.3131,375.541)">
                    <path d="M-54.785,1541.82C-75.501,1541.82 -92.32,1525 -92.32,1504.28C-92.32,1483.57 -75.501,1466.75 -54.785,1466.75C-34.069,1466.75 -17.25,1483.57 -17.25,1504.28L-11.888,1504.28C-11.888,1480.61 -31.11,1461.38 -54.785,1461.38C-78.461,1461.38 -97.682,1480.61 -97.682,1504.28C-97.682,1527.96 -78.461,1547.18 -54.785,1547.18L-54.785,1541.82Z" style="fill:white;fill-opacity:0.15;"/>
                </g>
                <g transform="matrix(0.745973,0,0,0.745973,15.3131,375.541)">
                    <path d="M-54.785,1541.82C-75.501,1541.82 -92.32,1525 -92.32,1504.28C-92.32,1483.57 -75.501,1466.75 -54.785,1466.75C-50.254,1466.75 -45.909,1467.55 -41.886,1469.03L-40.041,1463.99C-44.639,1462.31 -49.606,1461.38 -54.785,1461.38C-78.461,1461.38 -97.682,1480.61 -97.682,1504.28C-97.682,1527.96 -78.461,1547.18 -54.785,1547.18L-54.785,1541.82Z" style="fill:rgb(62,191,218);"/>
                </g>
                <g transform="matrix(0.547047,0,0,0.547047,4.41493,674.782)">
                    <path d="M-54.785,1540.84C-74.963,1540.84 -91.345,1524.46 -91.345,1504.28C-91.345,1484.1 -74.963,1467.72 -54.785,1467.72C-34.607,1467.72 -18.225,1484.1 -18.225,1504.28L-10.913,1504.28C-10.913,1480.07 -30.571,1460.41 -54.785,1460.41C-78.999,1460.41 -98.657,1480.07 -98.657,1504.28C-98.657,1528.5 -78.999,1548.15 -54.785,1548.15L-54.785,1540.84Z" style="fill:white;fill-opacity:0.15;"/>
                </g>
                <g transform="matrix(0.547047,0,0,0.547047,4.41493,674.782)">
                    <path d="M-54.785,1540.84C-74.963,1540.84 -91.345,1524.46 -91.345,1504.28C-91.345,1489.98 -83.116,1477.59 -71.142,1471.58L-74.421,1465.05C-88.788,1472.25 -98.657,1487.12 -98.657,1504.28C-98.657,1528.5 -78.999,1548.15 -54.785,1548.15L-54.785,1540.84Z" style="fill:rgb(102,225,223);"/>
                </g>
                <g transform="matrix(0.348121,0,0,0.348121,-6.48325,974.023)">
                    <path d="M-54.785,1538.75C-73.81,1538.75 -89.256,1523.31 -89.256,1504.28C-89.256,1485.26 -73.81,1469.81 -54.785,1469.81C-35.76,1469.81 -20.314,1485.26 -20.314,1504.28L-8.824,1504.28C-8.824,1478.91 -29.418,1458.32 -54.785,1458.32C-80.152,1458.32 -100.746,1478.91 -100.746,1504.28C-100.746,1529.65 -80.152,1550.24 -54.785,1550.24L-54.785,1538.75Z" style="fill:white;fill-opacity:0.15;"/>
                </g>
                <g transform="matrix(0.348121,0,0,0.348121,-6.48325,974.023)">
                    <path d="M-54.785,1538.75C-73.81,1538.75 -89.256,1523.31 -89.256,1504.28C-89.256,1500.49 -88.643,1496.84 -87.509,1493.42L-98.413,1489.8C-99.926,1494.36 -100.746,1499.22 -100.746,1504.28C-100.746,1529.65 -80.152,1550.24 -54.785,1550.24L-54.785,1538.75Z" style="fill:rgb(181,228,170);"/>
                </g>
            </g>
        </g>
    </g>
</svg>
