<?xml version="1.0" encoding="UTF-8" standalone="no"?>
<!DOCTYPE svg PUBLIC "-//W3C//DTD SVG 1.1//EN" "http://www.w3.org/Graphics/SVG/1.1/DTD/svg11.dtd">
<svg width="100%" height="100%" viewBox="0 0 80 80" version="1.1" xmlns="http://www.w3.org/2000/svg" xmlns:xlink="http://www.w3.org/1999/xlink" xml:space="preserve" xmlns:serif="http://www.serif.com/" style="fill-rule:evenodd;clip-rule:evenodd;stroke-linejoin:round;stroke-miterlimit:1.5;">
    <g transform="matrix(1,0,0,1,714.09,-531.12)">
        <g>
            <g transform="matrix(0.521152,0,0,0.521152,-1162.25,548.576)">
                <rect x="859.943" y="-33.506" width="153.506" height="153.506" style="fill:none;"/>
            </g>
            <g transform="matrix(1,0,0,1,-1062.17,-445.921)">
                <g transform="matrix(1,0,0,1,-3894.94,-183.79)">
                    <g transform="matrix(0.376581,0,0,0.374053,4209.76,664.326)">
                        <circle cx="120.5" cy="1433.5" r="32.5" style="fill:rgb(17,155,255);"/>
                    </g>
                    <g transform="matrix(0.144242,0,0,0.0513253,-604.611,1019.25)">
                        <path d="M33692,3771L33692,4104.64" style="fill:none;stroke:white;stroke-opacity:0.3;stroke-width:9.24px;"/>
                    </g>
                    <g transform="matrix(0.144242,0,0,0.037831,-604.611,1034.16)">
                        <path d="M33692,3621.83L33692,4077.15" style="fill:none;stroke:white;stroke-opacity:0.3;stroke-width:9.48px;"/>
                    </g>
                </g>
                <g transform="matrix(1,0,0,1,-3888.17,-183.79)">
                    <g transform="matrix(0.292486,0,0,0.292486,4233.75,781.252)">
                        <circle cx="120.5" cy="1433.5" r="32.5" style="fill:rgb(62,191,218);"/>
                    </g>
                    <g transform="matrix(0.144242,0,0,0.0592896,-590.764,986.621)">
                        <path d="M33692,3771L33692,4103.61" style="fill:none;stroke:white;stroke-opacity:0.3;stroke-width:9.07px;"/>
                    </g>
                    <g transform="matrix(0.144242,0,0,0.0437014,-590.764,1012.02)">
                        <path d="M33692,3641.86L33692,4097" style="fill:none;stroke:white;stroke-opacity:0.3;stroke-width:9.38px;"/>
                    </g>
                </g>
                <g transform="matrix(1,0,0,1,-3881.39,-183.79)">
                    <g transform="matrix(0.204758,0,0,0.204758,4258.17,907.01)">
                        <circle cx="120.5" cy="1433.5" r="32.5" style="fill:rgb(102,225,223);"/>
                    </g>
                    <g transform="matrix(0.144242,0,0,0.0681388,-576.916,950.366)">
                        <path d="M33692,3771L33692,4102.75" style="fill:none;stroke:white;stroke-opacity:0.3;stroke-width:8.87px;"/>
                    </g>
                    <g transform="matrix(0.144242,0,0,0.0502239,-576.916,987.422)">
                        <path d="M33692,3658.64L33692,4127.04" style="fill:none;stroke:white;stroke-opacity:0.3;stroke-width:9.26px;"/>
                    </g>
                </g>
                <g transform="matrix(1,0,0,1,-3879.12,-183.79)">
                    <g transform="matrix(0.1755,0,0,0.1755,4280.05,948.951)">
                        <circle cx="120.5" cy="1433.5" r="32.5" style="fill:rgb(181,228,170);"/>
                    </g>
                    <g transform="matrix(0.144242,0,0,0.0709957,-558.593,938.661)">
                        <path d="M33692,3771L33692,4102.52" style="fill:none;stroke:white;stroke-opacity:0.3;stroke-width:8.8px;"/>
                    </g>
                    <g transform="matrix(0.144242,0,0,0.0523297,-558.593,979.481)">
                        <path d="M33692,3663.16L33692,4112.71" style="fill:none;stroke:white;stroke-opacity:0.3;stroke-width:9.22px;"/>
                    </g>
                </g>
            </g>
        </g>
    </g>
</svg>
