<?xml version="1.0" encoding="UTF-8" standalone="no"?>
<!DOCTYPE svg PUBLIC "-//W3C//DTD SVG 1.1//EN" "http://www.w3.org/Graphics/SVG/1.1/DTD/svg11.dtd">
<svg width="100%" height="100%" viewBox="0 0 80 80" version="1.1" xmlns="http://www.w3.org/2000/svg" xmlns:xlink="http://www.w3.org/1999/xlink" xml:space="preserve" xmlns:serif="http://www.serif.com/" style="fill-rule:evenodd;clip-rule:evenodd;stroke-linejoin:round;stroke-miterlimit:2;">
    <g transform="matrix(1,0,0,1,-729,-244)">
        <g transform="matrix(1,0,0,1,3103.05,878.648)">
            <g transform="matrix(1.14816,0,0,1.01125,-2304.95,-1293.32)">
                <g transform="matrix(0.453901,0,0,0.515354,-450.513,668.56)">
                    <rect x="859.943" y="-33.506" width="153.506" height="153.506" style="fill:none;"/>
                </g>
                <g transform="matrix(0.9875,0,0,1,-0.269589,0.140476)">
                    <g transform="matrix(0.64515,0,0,1.30797,9.44475,638.505)">
                        <path d="M0,43.844L0,43.852C-4.097,39.571 -5.511,41.934 -7.675,39.521C-9.932,37.006 -10.433,37.886 -16.8,37.057C-24.488,36.056 -21.776,33.691 -27,35.236C-32.224,36.781 -32.076,35.825 -33.842,35.677C-35.607,35.531 -37.278,31.756 -40.463,30.822C-41.285,30.581 -43.96,31.405 -46.681,30.228C-49.404,29.051 -53.101,28.792 -53.984,27.616C-54.867,26.438 -58.341,26.356 -60.769,24.297C-63.196,22.237 -64.006,24.149 -67.463,22.237C-70.921,20.324 -71.563,28.201 -73.336,29.474C-75.793,31.237 -76.464,27.916 -78.671,29.167C-80.878,30.418 -81.054,29.893 -85.146,32.621C-89.238,35.35 -88.714,37.619 -90.963,38.831C-93.211,40.043 -93.119,38.983 -98.349,41.304C-103.49,43.584 -107.968,43.853 -107.968,43.853L-107.978,43.844L0,43.844Z" style="fill:rgb(17,155,255);fill-rule:nonzero;"/>
                    </g>
                    <g transform="matrix(0.64515,0,0,1.30797,9.44475,659.76)">
                        <path d="M0,27.594L-0.072,27.594C-6.311,26.603 -5.384,25.631 -8.824,25.11C-11.145,24.758 -11.251,23.476 -18.178,23.326C-25.139,23.176 -22.119,20.807 -27.412,20.807C-28.414,20.807 -30.324,20.934 -32.628,20.807C-34.393,20.708 -38.24,22.542 -41.39,20.807C-45.207,18.705 -46.309,20.859 -49.03,20.078C-51.753,19.295 -53.117,16.107 -54,15.326C-54.883,14.544 -55.862,13.724 -58.621,12.757C-61.249,11.834 -60.66,12.831 -64.117,11.561C-67.575,10.291 -68.679,15.63 -70.889,15.817C-73.299,16.021 -74.614,15.191 -76.955,15.479C-79.577,15.801 -78.915,19.813 -83.068,21.479C-87.273,23.166 -86.99,23.663 -88.734,23.977C-90.584,24.311 -93.452,23.327 -96.635,25.375C-99.616,27.293 -107.946,27.479 -107.946,27.479L-107.977,27.594L0,27.594Z" style="fill:rgb(62,191,218);fill-rule:nonzero;"/>
                    </g>
                    <g transform="matrix(0.64515,0,0,0.630762,-60.2107,709.597)">
                        <path d="M0,-21.792L0,-21.774C7.136,-21.258 9.753,-14.23 13.505,-13.885C17.257,-13.542 21.55,-7.062 21.55,-7.062C27.803,-4.378 29.707,7.488 33.533,7.315C37.359,7.143 38.61,-3.204 41.774,-4.237C44.937,-5.27 44.698,-2.499 47.199,-2.361C49.701,-2.224 51.993,-6.691 53.979,-8.653C55.965,-10.615 59.265,-8.362 60.663,-8.465C62.061,-8.568 65.592,-11.554 67.431,-12.518C69.271,-13.481 70.447,-14.312 74.199,-14.862C77.951,-15.413 78.099,-14.896 80.82,-15.104C83.543,-15.31 86.633,-14.69 87.589,-14.243C88.546,-13.796 91.174,-14.34 93.396,-14.915C95.618,-15.49 97.888,-19.597 100.978,-19.012C104.068,-18.427 107.968,-21.775 107.968,-21.775L107.968,-21.792L0,-21.792Z" style="fill:rgb(255,234,146);fill-rule:nonzero;"/>
                    </g>
                    <g transform="matrix(0.64515,0,0,0.738811,-60.1968,697.793)">
                        <path d="M-0.054,-2.827C-0.054,-2.827 4.68,-3.141 7.661,-3.99C10.844,-4.896 11.789,-4.749 13.64,-4.897C15.383,-5.036 15.951,-5.713 20.156,-6.459C24.31,-7.197 24.324,-10.377 26.946,-10.519C29.287,-10.646 31.562,-10.036 33.715,-9.859C35.994,-9.672 37.025,-15.165 40.483,-14.603C43.94,-14.041 43.942,-10.154 46.571,-9.746C49.33,-9.317 51.566,-12.117 53.962,-11.267C55.935,-10.567 57.24,-6.075 59.963,-5.729C62.685,-5.382 67.12,-8.676 67.483,-8.501C67.87,-8.315 72.339,-7.118 74.104,-7.075C76.408,-7.018 80.228,-5.711 81.23,-5.711C86.523,-5.711 84.933,-4.953 91.332,-4.976C95.66,-4.992 96.612,-4.058 100.298,-3.622C102.753,-3.332 102.721,-3.643 107.947,-2.614C107.947,-2.614 103.617,-1.494 100.527,-1.861C97.437,-2.229 97.854,-2.039 94.713,-1.861C92.972,-1.762 88.524,-1.109 87.567,-1.39C86.611,-1.671 83.521,-2.06 80.799,-1.931C78.077,-1.801 77.93,-2.125 74.178,-1.78C70.426,-1.433 69.249,-0.911 67.409,-0.306C65.57,0.299 62.039,2.175 60.641,2.241C59.243,2.305 55.932,0.139 53.946,1.372C51.959,2.604 49.68,5.981 47.178,5.894C44.677,5.808 43.438,-0.298 40.275,0.351C37.111,0.999 37.54,6.544 33.715,6.651C29.889,6.759 31.391,1.514 25.138,-0.172C25.138,-0.172 17.283,1.031 13.531,0.816C9.779,0.599 7.083,-2.29 -0.054,-2.614L-0.054,-2.827Z" style="fill:rgb(181,228,170);fill-rule:nonzero;"/>
                    </g>
                </g>
            </g>
        </g>
    </g>
</svg>
