<?xml version="1.0" encoding="UTF-8" standalone="no"?>
<!DOCTYPE svg PUBLIC "-//W3C//DTD SVG 1.1//EN" "http://www.w3.org/Graphics/SVG/1.1/DTD/svg11.dtd">
<svg width="100%" height="100%" viewBox="0 0 80 80" version="1.1" xmlns="http://www.w3.org/2000/svg" xmlns:xlink="http://www.w3.org/1999/xlink" xml:space="preserve" xmlns:serif="http://www.serif.com/" style="fill-rule:evenodd;clip-rule:evenodd;stroke-linejoin:round;stroke-miterlimit:2;">
    <g transform="matrix(1,0,0,1,2866.68,-2355.7)">
        <g>
            <g transform="matrix(0.521152,0,0,0.521152,-3314.84,2373.21)">
                <rect x="859.943" y="-33.506" width="153.506" height="153.506" style="fill:none;"/>
            </g>
            <g transform="matrix(1,0,0,1,81.3785,262.068)">
                <g transform="matrix(0.808081,0,0,0.313563,-2948.17,2088.02)">
                    <rect x="0" y="49.5" width="4.5" height="31.5" style="fill:rgb(108,221,195);"/>
                </g>
                <g transform="matrix(0.808081,0,0,0.408733,-2948.17,2094.93)">
                    <rect x="0" y="49.5" width="4.5" height="31.5" style="fill:rgb(62,191,218);"/>
                </g>
                <g transform="matrix(0.808081,0,0,0.729594,-2948.17,2060.86)">
                    <rect x="94.5" y="58.5" width="4.5" height="22.5" style="fill:rgb(208,222,238);"/>
                </g>
                <g transform="matrix(0.808081,0,0,0.758257,-2948.17,2139.65)">
                    <rect x="94.5" y="0" width="4.5" height="31.5" style="fill:rgb(253,146,109);"/>
                </g>
                <g transform="matrix(0.808081,0,0,0.729594,-2948.17,2096.97)">
                    <rect x="94.5" y="33.75" width="4.5" height="22.5" style="fill:rgb(255,189,109);"/>
                </g>
                <g transform="matrix(0.808081,0,0,0.749808,-2948.17,2129.8)">
                    <rect x="0" y="0.009" width="4.5" height="44.991" style="fill:rgb(17,155,255);"/>
                </g>
                <g transform="matrix(0.850283,0,0,0.729594,-2950.27,2051.01)">
                    <rect x="6.75" y="72" width="85.5" height="9" style="fill:url(#_Linear1);"/>
                </g>
                <g transform="matrix(0.850283,0,0,0.729594,-2871.84,2110.1)">
                    <path d="M0,20.25C-20.195,20.25 -30.809,16.329 -41.071,12.537C-51.768,8.586 -62.827,4.5 -85.5,4.5L-85.5,0C-62.022,0 -50.579,4.228 -39.512,8.316C-29.164,12.14 -19.391,15.75 0,15.75L0,20.25Z" style="fill:url(#_Linear2);fill-rule:nonzero;"/>
                </g>
                <g transform="matrix(0.850283,0,0,0.712101,-2944.54,2124.88)">
                    <path d="M0,38.25L0,20.747C21.067,20.747 30.957,15.56 41.428,10.593C52.407,5.385 63.761,0 85.5,0L85.5,18.442C67.813,18.442 59.16,22.104 49.142,26.856C37.882,32.197 25.119,38.25 0,38.25" style="fill:url(#_Linear3);fill-rule:nonzero;"/>
                </g>
                <g transform="matrix(0.850283,0,0,0.729594,-2944.54,2157.71)">
                    <rect x="0" y="-7.636" width="85.5" height="15.273" style="fill:url(#_Linear4);"/>
                </g>
                <g transform="matrix(1,0,0,0.857143,-2887.91,-450.53)">
                    <path d="M-56.409,3014.22L-56.629,3014.22L-56.629,3010.39C-37.547,3010.39 -28.193,3004.48 -19.146,2998.76C-10.345,2993.19 -1.245,2987.44 16.07,2987.44L16.07,2991.27L15.878,2991.27L16.07,2991.27L16.07,2998.93C0.416,2998.93 -7.598,3004 -16.081,3009.36C-25.364,3015.23 -35.886,3021.88 -56.629,3021.88L-56.629,3014.22L-56.409,3014.22Z" style="fill:url(#_Linear5);fill-rule:nonzero;"/>
                </g>
                <g transform="matrix(1,0,0,0.857143,-2887.91,-450.53)">
                    <path d="M-56.624,3004.26L-56.629,3004.26L-56.629,2993.31C-34.871,2993.31 -24.011,3002.06 -14.43,3009.78C-5.948,3016.61 1.377,3021.88 16.07,3021.88L16.07,3033.04L16.073,3033.04L16.059,3036.42C5.347,3036.39 -5.111,3033.91 -13.758,3027.54C-24.069,3019.94 -33.71,3011.13 -47.159,3009.03C-50.292,3008.54 -53.464,3008.34 -56.636,3008.33L-56.624,3004.26Z" style="fill:url(#_Linear6);fill-rule:nonzero;"/>
                </g>
            </g>
        </g>
    </g>
    <defs>
        <linearGradient id="_Linear1" x1="0" y1="0" x2="1" y2="0" gradientUnits="userSpaceOnUse" gradientTransform="matrix(85.4935,0,0,85.4935,6.75655,100.797)"><stop offset="0" style="stop-color:rgb(108,221,195);stop-opacity:0.5"/><stop offset="1" style="stop-color:rgb(208,222,238);stop-opacity:0.5"/></linearGradient>
        <linearGradient id="_Linear2" x1="0" y1="0" x2="1" y2="0" gradientUnits="userSpaceOnUse" gradientTransform="matrix(85.4935,0,0,85.4935,-85.4935,19.7973)"><stop offset="0" style="stop-color:rgb(108,221,195);stop-opacity:0.5"/><stop offset="1" style="stop-color:rgb(255,189,109);stop-opacity:0.5"/></linearGradient>
        <linearGradient id="_Linear3" x1="0" y1="0" x2="1" y2="0" gradientUnits="userSpaceOnUse" gradientTransform="matrix(85.4935,0,0,85.4935,0.00654665,-0.463793)"><stop offset="0" style="stop-color:rgb(17,155,255);stop-opacity:0.5"/><stop offset="1" style="stop-color:rgb(255,189,109);stop-opacity:0.5"/></linearGradient>
        <linearGradient id="_Linear4" x1="0" y1="0" x2="1" y2="0" gradientUnits="userSpaceOnUse" gradientTransform="matrix(85.5,0,0,85.5,0,-1.4073)"><stop offset="0" style="stop-color:rgb(17,155,255);stop-opacity:0.5"/><stop offset="1" style="stop-color:rgb(253,146,109);stop-opacity:0.5"/></linearGradient>
        <linearGradient id="_Linear5" x1="0" y1="0" x2="1" y2="0" gradientUnits="userSpaceOnUse" gradientTransform="matrix(72.6936,0,0,72.6936,-56.6235,3004.26)"><stop offset="0" style="stop-color:rgb(17,155,255);stop-opacity:0.5"/><stop offset="1" style="stop-color:rgb(208,222,238);stop-opacity:0.5"/></linearGradient>
        <linearGradient id="_Linear6" x1="0" y1="0" x2="1" y2="0" gradientUnits="userSpaceOnUse" gradientTransform="matrix(72.6936,0,0,72.6936,-56.6235,3004.26)"><stop offset="0" style="stop-color:rgb(62,191,218);stop-opacity:0.5"/><stop offset="1" style="stop-color:rgb(253,146,109);stop-opacity:0.5"/></linearGradient>
    </defs>
</svg>
