<?xml version="1.0" encoding="UTF-8" standalone="no"?>
<!DOCTYPE svg PUBLIC "-//W3C//DTD SVG 1.1//EN" "http://www.w3.org/Graphics/SVG/1.1/DTD/svg11.dtd">
<svg width="100%" height="100%" viewBox="0 0 80 80" version="1.1" xmlns="http://www.w3.org/2000/svg" xmlns:xlink="http://www.w3.org/1999/xlink" xml:space="preserve" xmlns:serif="http://www.serif.com/" style="fill-rule:evenodd;clip-rule:evenodd;stroke-linejoin:round;stroke-miterlimit:2;">
    <g transform="matrix(1,0,0,1,2866.68,-1189.73)">
        <g>
            <g transform="matrix(0.521152,0,0,0.521152,-3314.84,1207.24)">
                <rect x="859.943" y="-33.506" width="153.506" height="153.506" style="fill:none;"/>
            </g>
            <g transform="matrix(-3.68758e-19,-0.232878,-0.226857,-3.68758e-19,-2820.46,1235.34)">
                <path d="M-11.509,-11.508C-17.864,-11.508 -23.016,-6.356 -23.016,0C-23.016,6.355 -17.864,11.509 -11.509,11.509C-5.153,11.509 -0.001,6.355 -0.001,0C-0.001,-6.356 -5.153,-11.508 -11.509,-11.508" style="fill:rgb(21,154,255);fill-opacity:0.78;fill-rule:nonzero;"/>
            </g>
            <g transform="matrix(-3.68758e-19,-0.232878,-0.226857,-3.68758e-19,-2820.46,1238.91)">
                <path d="M-11.509,-11.508C-17.864,-11.508 -23.016,-6.356 -23.016,0C-23.016,6.355 -17.864,11.509 -11.509,11.509C-5.153,11.509 -0.001,6.355 -0.001,0C-0.001,-6.356 -5.153,-11.508 -11.509,-11.508" style="fill:rgb(21,154,255);fill-opacity:0.78;fill-rule:nonzero;"/>
            </g>
            <g transform="matrix(-3.68758e-19,-0.232878,-0.226857,-3.68758e-19,-2838.73,1229.98)">
                <path d="M-11.509,-11.508C-17.864,-11.508 -23.016,-6.356 -23.016,0C-23.016,6.355 -17.864,11.509 -11.509,11.509C-5.153,11.509 -0.001,6.355 -0.001,0C-0.001,-6.356 -5.153,-11.508 -11.509,-11.508" style="fill:rgb(21,154,255);fill-opacity:0.78;fill-rule:nonzero;"/>
            </g>
            <g transform="matrix(-3.68758e-19,-0.232878,-0.226857,-3.68758e-19,-2825.68,1246.06)">
                <path d="M-11.509,-11.508C-17.864,-11.508 -23.016,-6.356 -23.016,0C-23.016,6.355 -17.864,11.509 -11.509,11.509C-5.153,11.509 -0.001,6.355 -0.001,0C-0.001,-6.356 -5.153,-11.508 -11.509,-11.508" style="fill:rgb(21,154,255);fill-opacity:0.78;fill-rule:nonzero;"/>
            </g>
            <g transform="matrix(-3.68758e-19,-0.232878,-0.226857,-3.68758e-19,-2825.68,1249.63)">
                <path d="M-11.509,-11.508C-17.864,-11.508 -23.016,-6.356 -23.016,0C-23.016,6.355 -17.864,11.509 -11.509,11.509C-5.153,11.509 -0.001,6.355 -0.001,0C-0.001,-6.356 -5.153,-11.508 -11.509,-11.508" style="fill:rgb(21,154,255);fill-opacity:0.78;fill-rule:nonzero;"/>
            </g>
            <g transform="matrix(-3.68758e-19,-0.232878,-0.226857,-3.68758e-19,-2825.68,1241.6)">
                <path d="M-11.509,-11.508C-17.864,-11.508 -23.016,-6.356 -23.016,0C-23.016,6.355 -17.864,11.509 -11.509,11.509C-5.153,11.509 -0.001,6.355 -0.001,0C-0.001,-6.356 -5.153,-11.508 -11.509,-11.508" style="fill:rgb(21,154,255);fill-opacity:0.78;fill-rule:nonzero;"/>
            </g>
            <g transform="matrix(-4.50692e-19,-0.284621,-0.277261,-4.50692e-19,-2795.61,1241.95)">
                <path d="M-9.416,-9.415C-14.615,-9.415 -18.831,-5.2 -18.831,0C-18.831,5.2 -14.615,9.416 -9.416,9.416C-4.216,9.416 0,5.2 0,0C0,-5.2 -4.216,-9.415 -9.416,-9.415" style="fill:rgb(21,154,255);fill-opacity:0.78;fill-rule:nonzero;"/>
            </g>
            <g transform="matrix(-4.50692e-19,-0.284621,-0.277261,-4.50692e-19,-2830.69,1223.19)">
                <path d="M-9.416,-9.415C-14.615,-9.415 -18.831,-5.2 -18.831,0C-18.831,5.2 -14.615,9.416 -9.416,9.416C-4.216,9.416 0,5.2 0,0C0,-5.2 -4.216,-9.415 -9.416,-9.415" style="fill:rgb(21,154,255);fill-opacity:0.78;fill-rule:nonzero;"/>
            </g>
            <g transform="matrix(-8.04223e-19,-0.507885,-0.494751,-8.04223e-19,-2801.86,1222.44)">
                <path d="M-5.278,-5.277C-8.191,-5.277 -10.554,-2.914 -10.554,0C-10.554,2.914 -8.191,5.278 -5.278,5.278C-2.363,5.278 0,2.914 0,0C0,-2.914 -2.363,-5.277 -5.278,-5.277" style="fill:rgb(21,154,255);fill-opacity:0.78;fill-rule:nonzero;"/>
            </g>
            <g transform="matrix(-1.35208e-18,-0.853865,-0.831783,-1.35208e-18,-2795.64,1204.47)">
                <path d="M-3.138,-3.139C-4.871,-3.139 -6.277,-1.734 -6.277,0C-6.277,1.733 -4.871,3.138 -3.138,3.138C-1.405,3.138 0,1.733 0,0C0,-1.734 -1.405,-3.139 -3.138,-3.139" style="fill:rgb(21,154,255);fill-opacity:0.78;fill-rule:nonzero;"/>
            </g>
            <g transform="matrix(-2.02747e-18,-1.28039,-1.24728,-2.02747e-18,-2814.21,1217.92)">
                <path d="M-2.092,-2.092C-3.247,-2.092 -4.185,-1.155 -4.185,-0.001C-4.185,1.156 -3.247,2.092 -2.092,2.092C-0.937,2.092 0.001,1.156 0.001,-0.001C0.001,-1.155 -0.937,-2.092 -2.092,-2.092" style="fill:rgb(21,154,255);fill-opacity:0.78;fill-rule:nonzero;"/>
            </g>
            <g transform="matrix(-2.02795e-18,-1.28069,-1.24757,-2.02795e-18,-2853.4,1239.4)">
                <path d="M-2.093,-2.092C-3.248,-2.092 -4.185,-1.155 -4.185,0C-4.185,1.156 -3.248,2.093 -2.093,2.093C-0.937,2.093 0,1.156 0,0C0,-1.155 -0.937,-2.092 -2.093,-2.092" style="fill:rgb(21,154,255);fill-opacity:0.78;fill-rule:nonzero;"/>
            </g>
            <g transform="matrix(-2.02795e-18,-1.28069,-1.24757,-2.02795e-18,-2857.75,1234.04)">
                <path d="M-2.093,-2.092C-3.248,-2.092 -4.185,-1.155 -4.185,0C-4.185,1.156 -3.248,2.093 -2.093,2.093C-0.937,2.093 0,1.156 0,0C0,-1.155 -0.937,-2.092 -2.093,-2.092" style="fill:rgb(21,154,255);fill-opacity:0.78;fill-rule:nonzero;"/>
            </g>
            <g transform="matrix(-1.01398e-18,-0.640347,-0.623787,-1.01398e-18,-2833.11,1236.25)">
                <path d="M-4.185,-4.185C-6.497,-4.185 -8.37,-2.311 -8.37,0C-8.37,2.311 -6.497,4.185 -4.185,4.185C-1.874,4.185 0,2.311 0,0C0,-2.311 -1.874,-4.185 -4.185,-4.185" style="fill:rgb(21,154,255);fill-opacity:0.78;fill-rule:nonzero;"/>
            </g>
            <g transform="matrix(-1.01398e-18,-0.640347,-0.623787,-1.01398e-18,-2847.9,1229.11)">
                <path d="M-4.185,-4.185C-6.497,-4.185 -8.37,-2.311 -8.37,0C-8.37,2.311 -6.497,4.185 -4.185,4.185C-1.874,4.185 0,2.311 0,0C0,-2.311 -1.874,-4.185 -4.185,-4.185" style="fill:rgb(21,154,255);fill-opacity:0.78;fill-rule:nonzero;"/>
            </g>
            <g transform="matrix(-1.01398e-18,-0.640347,-0.623787,-1.01398e-18,-2852.53,1213.85)">
                <path d="M-4.185,-4.185C-6.497,-4.185 -8.37,-2.311 -8.37,0C-8.37,2.311 -6.497,4.185 -4.185,4.185C-1.874,4.185 0,2.311 0,0C0,-2.311 -1.874,-4.185 -4.185,-4.185" style="fill:rgb(21,154,255);fill-opacity:0.78;fill-rule:nonzero;"/>
            </g>
            <g transform="matrix(-3.68758e-19,-0.232878,-0.226857,-3.68758e-19,-2820.46,1232.66)">
                <path d="M-11.509,-11.508C-17.864,-11.508 -23.016,-6.356 -23.016,0C-23.016,6.355 -17.864,11.509 -11.509,11.509C-5.153,11.509 -0.001,6.355 -0.001,0C-0.001,-6.356 -5.153,-11.508 -11.509,-11.508" style="fill:rgb(208,222,238);fill-opacity:0.9;fill-rule:nonzero;"/>
            </g>
            <g transform="matrix(-2.02747e-18,-1.28039,-1.24728,-2.02747e-18,-2810.73,1230.43)">
                <path d="M-2.092,-2.092C-3.247,-2.092 -4.185,-1.155 -4.185,-0.001C-4.185,1.156 -3.247,2.092 -2.092,2.092C-0.937,2.092 0.001,1.156 0.001,-0.001C0.001,-1.155 -0.937,-2.092 -2.092,-2.092" style="fill:rgb(208,222,238);fill-opacity:0.9;fill-rule:nonzero;"/>
            </g>
            <g transform="matrix(-4.50692e-19,-0.284621,-0.277261,-4.50692e-19,-2830.69,1218.73)">
                <path d="M-9.416,-9.415C-14.615,-9.415 -18.831,-5.2 -18.831,0C-18.831,5.2 -14.615,9.416 -9.416,9.416C-4.216,9.416 0,5.2 0,0C0,-5.2 -4.216,-9.415 -9.416,-9.415" style="fill:rgb(208,222,238);fill-opacity:0.9;fill-rule:nonzero;"/>
            </g>
            <g transform="matrix(-3.1201e-19,-0.197041,-0.191946,-3.1201e-19,-2838.97,1223.62)">
                <path d="M-13.6,-13.6C-21.112,-13.6 -27.2,-7.511 -27.2,0C-27.2,7.511 -21.112,13.6 -13.6,13.6C-6.089,13.6 0,7.511 0,0C0,-7.511 -6.089,-13.6 -13.6,-13.6" style="fill:rgb(208,222,238);fill-opacity:0.9;fill-rule:nonzero;"/>
            </g>
            <g transform="matrix(-3.68758e-19,-0.232878,-0.226857,-3.68758e-19,-2820.46,1223.73)">
                <path d="M-11.509,-11.508C-17.864,-11.508 -23.016,-6.356 -23.016,0C-23.016,6.355 -17.864,11.509 -11.509,11.509C-5.153,11.509 -0.001,6.355 -0.001,0C-0.001,-6.356 -5.153,-11.508 -11.509,-11.508" style="fill:rgb(208,222,238);fill-opacity:0.9;fill-rule:nonzero;"/>
            </g>
            <g transform="matrix(-8.04223e-19,-0.507885,-0.494751,-8.04223e-19,-2798.38,1210.83)">
                <path d="M-5.278,-5.277C-8.191,-5.277 -10.554,-2.914 -10.554,0C-10.554,2.914 -8.191,5.278 -5.278,5.278C-2.363,5.278 0,2.914 0,0C0,-2.914 -2.363,-5.277 -5.278,-5.277" style="fill:rgb(208,222,238);fill-opacity:0.9;fill-rule:nonzero;"/>
            </g>
            <g transform="matrix(-2.02795e-18,-1.28069,-1.24757,-2.02795e-18,-2853.4,1243.86)">
                <path d="M-2.093,-2.092C-3.248,-2.092 -4.185,-1.155 -4.185,0C-4.185,1.156 -3.248,2.093 -2.093,2.093C-0.937,2.093 0,1.156 0,0C0,-1.155 -0.937,-2.092 -2.093,-2.092" style="fill:rgb(208,222,238);fill-opacity:0.9;fill-rule:nonzero;"/>
            </g>
            <g transform="matrix(-1.01398e-18,-0.640347,-0.623787,-1.01398e-18,-2847.9,1231.79)">
                <path d="M-4.185,-4.185C-6.497,-4.185 -8.37,-2.311 -8.37,0C-8.37,2.311 -6.497,4.185 -4.185,4.185C-1.874,4.185 0,2.311 0,0C0,-2.311 -1.874,-4.185 -4.185,-4.185" style="fill:rgb(208,222,238);fill-opacity:0.9;fill-rule:nonzero;"/>
            </g>
            <g transform="matrix(-2.02747e-18,-1.28039,-1.24728,-2.02747e-18,-2814.21,1214.35)">
                <path d="M-2.092,-2.092C-3.247,-2.092 -4.185,-1.155 -4.185,-0.001C-4.185,1.156 -3.247,2.092 -2.092,2.092C-0.937,2.092 0.001,1.156 0.001,-0.001C0.001,-1.155 -0.937,-2.092 -2.092,-2.092" style="fill:rgb(208,222,238);fill-opacity:0.9;fill-rule:nonzero;"/>
            </g>
            <g transform="matrix(-8.04223e-19,-0.507885,-0.494751,-8.04223e-19,-2842.76,1240.31)">
                <path d="M-5.278,-5.277C-8.191,-5.277 -10.554,-2.914 -10.554,0C-10.554,2.914 -8.191,5.278 -5.278,5.278C-2.363,5.278 0,2.914 0,0C0,-2.914 -2.363,-5.277 -5.278,-5.277" style="fill:rgb(102,225,223);fill-opacity:0.9;fill-rule:nonzero;"/>
            </g>
            <g transform="matrix(-8.04223e-19,-0.507885,-0.494751,-8.04223e-19,-2842.76,1236.73)">
                <path d="M-5.278,-5.277C-8.191,-5.277 -10.554,-2.914 -10.554,0C-10.554,2.914 -8.191,5.278 -5.278,5.278C-2.363,5.278 0,2.914 0,0C0,-2.914 -2.363,-5.277 -5.278,-5.277" style="fill:rgb(102,225,223);fill-opacity:0.9;fill-rule:nonzero;"/>
            </g>
            <g transform="matrix(-4.50692e-19,-0.284621,-0.277261,-4.50692e-19,-2810.67,1234.8)">
                <path d="M-9.416,-9.415C-14.615,-9.415 -18.831,-5.2 -18.831,0C-18.831,5.2 -14.615,9.416 -9.416,9.416C-4.216,9.416 0,5.2 0,0C0,-5.2 -4.216,-9.415 -9.416,-9.415" style="fill:rgb(102,225,223);fill-opacity:0.9;fill-rule:nonzero;"/>
            </g>
            <g transform="matrix(-2.02795e-18,-1.28069,-1.24757,-2.02795e-18,-2853.4,1247.43)">
                <path d="M-2.093,-2.092C-3.248,-2.092 -4.185,-1.155 -4.185,0C-4.185,1.156 -3.248,2.093 -2.093,2.093C-0.937,2.093 0,1.156 0,0C0,-1.155 -0.937,-2.092 -2.093,-2.092" style="fill:rgb(102,225,223);fill-opacity:0.9;fill-rule:nonzero;"/>
            </g>
            <g transform="matrix(-1.01398e-18,-0.640347,-0.623787,-1.01398e-18,-2827.54,1230.53)">
                <path d="M-4.185,-4.185C-6.497,-4.185 -8.37,-2.311 -8.37,0C-8.37,2.311 -6.497,4.185 -4.185,4.185C-1.874,4.185 0,2.311 0,0C0,-2.311 -1.874,-4.185 -4.185,-4.185" style="fill:rgb(102,225,223);fill-opacity:0.9;fill-rule:nonzero;"/>
            </g>
            <g transform="matrix(-1.01398e-18,-0.640347,-0.623787,-1.01398e-18,-2833.11,1239.83)">
                <path d="M-4.185,-4.185C-6.497,-4.185 -8.37,-2.311 -8.37,0C-8.37,2.311 -6.497,4.185 -4.185,4.185C-1.874,4.185 0,2.311 0,0C0,-2.311 -1.874,-4.185 -4.185,-4.185" style="fill:rgb(102,225,223);fill-opacity:0.9;fill-rule:nonzero;"/>
            </g>
        </g>
    </g>
</svg>
