<?xml version="1.0" encoding="UTF-8" standalone="no"?>
<!DOCTYPE svg PUBLIC "-//W3C//DTD SVG 1.1//EN" "http://www.w3.org/Graphics/SVG/1.1/DTD/svg11.dtd">
<svg width="100%" height="100%" viewBox="0 0 80 80" version="1.1" xmlns="http://www.w3.org/2000/svg" xmlns:xlink="http://www.w3.org/1999/xlink" xml:space="preserve" xmlns:serif="http://www.serif.com/" style="fill-rule:evenodd;clip-rule:evenodd;stroke-miterlimit:1.5;">
    <g transform="matrix(1,0,0,1,-339,-5074)">
        <g transform="matrix(1,0,0,1,951.765,1139.52)">
            <g transform="matrix(0.521152,0,0,0.521152,-1060.93,3951.99)">
                <rect x="859.943" y="-33.506" width="153.506" height="153.506" style="fill:none;"/>
            </g>
            <g transform="matrix(1.79259,0,0,6.19632,-1892.68,-1405.52)">
                <g transform="matrix(0.557853,0,0,0.161386,202.931,226.831)">
                    <path d="M926.143,4004.36L926.143,3944.53L986.143,3944.53L986.143,4004.36L926.143,4004.36ZM982.143,3972.55L930.143,3972.55L930.143,4000.36L982.143,4000.36L982.143,3972.55ZM982.143,3968.53L982.143,3948.53L930.143,3948.53L930.143,3968.53L982.143,3968.53Z" style="fill:url(#_Linear1);"/>
                </g>
                <g transform="matrix(0.815255,0,0,0.235852,-48.1703,-68.8248)">
                    <path d="M965.379,3959.53L970.853,3965L976.327,3959.53" style="fill:none;stroke:rgb(108,221,195);stroke-width:2.74px;"/>
                </g>
            </g>
        </g>
    </g>
    <defs>
        <linearGradient id="_Linear1" x1="0" y1="0" x2="1" y2="0" gradientUnits="userSpaceOnUse" gradientTransform="matrix(58.5889,63.1539,-63.1539,58.5889,930.212,3941.37)"><stop offset="0" style="stop-color:rgb(17,155,255);stop-opacity:1"/><stop offset="0.47" style="stop-color:rgb(108,221,195);stop-opacity:1"/><stop offset="1" style="stop-color:rgb(255,234,146);stop-opacity:1"/></linearGradient>
    </defs>
</svg>
