<?xml version="1.0" encoding="UTF-8" standalone="no"?>
<!DOCTYPE svg PUBLIC "-//W3C//DTD SVG 1.1//EN" "http://www.w3.org/Graphics/SVG/1.1/DTD/svg11.dtd">
<svg width="100%" height="100%" viewBox="0 0 80 80" version="1.1" xmlns="http://www.w3.org/2000/svg" xmlns:xlink="http://www.w3.org/1999/xlink" xml:space="preserve" xmlns:serif="http://www.serif.com/" style="fill-rule:evenodd;clip-rule:evenodd;stroke-linejoin:round;stroke-miterlimit:1.5;">
    <g transform="matrix(1,0,0,1,2369.18,-467.118)">
        <g>
            <g transform="matrix(0.521152,0,0,0.521152,-2817.34,484.574)">
                <rect x="859.943" y="-33.506" width="153.506" height="153.506" style="fill:none;"/>
            </g>
            <g transform="matrix(1,0,0,1,-2303.62,-646.419)">
                <g transform="matrix(0.198581,0,0,0.350967,21.0785,1309.27)">
                    <g transform="matrix(0.617591,0,0,0.349439,-22681.4,-1846.2)">
                        <path d="M36245.5,3912.5C36245.5,3868.59 36209.9,3833 36166,3833C36122.1,3833 36086.5,3868.59 36086.5,3912.5L36245.5,3912.5Z" style="fill:rgb(102,225,223);"/>
                    </g>
                    <g transform="matrix(0.823454,0,0,0.465918,-30126.6,-2301.93)">
                        <path d="M36086.5,3912.5C36086.5,3956.41 36122.1,3992 36166,3992C36209.9,3992 36245.5,3956.41 36245.5,3912.5L36086.5,3912.5Z" style="fill:rgb(17,155,255);"/>
                    </g>
                    <g transform="matrix(-2.01411e-17,0.233365,0.604595,3.55561e-17,-734.149,-456.039)">
                        <path d="M120,640L480,640" style="fill:none;stroke:white;stroke-opacity:0.3;stroke-width:9.73px;stroke-dasharray:29.19,29.19,0,0;"/>
                    </g>
                </g>
                <g transform="matrix(0.198581,0,0,0.350967,61.0785,1309.27)">
                    <g transform="matrix(0.807618,0,0,0.456958,-29553.9,-2266.56)">
                        <path d="M36245.5,3912.5C36245.5,3868.59 36209.9,3833 36166,3833C36122.1,3833 36086.5,3868.59 36086.5,3912.5L36245.5,3912.5Z" style="fill:rgb(102,225,223);"/>
                    </g>
                    <g transform="matrix(1.07682,0,0,0.609278,-39290,-2862.51)">
                        <path d="M36086.5,3912.5C36086.5,3956.41 36122.1,3992 36166,3992C36209.9,3992 36245.5,3956.41 36245.5,3912.5L36086.5,3912.5Z" style="fill:rgb(17,155,255);"/>
                    </g>
                    <g transform="matrix(-2.01411e-17,0.233365,0.604595,3.55561e-17,-734.149,-456.039)">
                        <path d="M120,640L480,640" style="fill:none;stroke:white;stroke-opacity:0.3;stroke-width:9.73px;stroke-dasharray:29.19,29.19,0,0;"/>
                    </g>
                </g>
            </g>
        </g>
    </g>
</svg>
