<?xml version="1.0" encoding="UTF-8" standalone="no"?>
<!DOCTYPE svg PUBLIC "-//W3C//DTD SVG 1.1//EN" "http://www.w3.org/Graphics/SVG/1.1/DTD/svg11.dtd">
<svg width="100%" height="100%" viewBox="0 0 80 80" version="1.1" xmlns="http://www.w3.org/2000/svg" xmlns:xlink="http://www.w3.org/1999/xlink" xml:space="preserve" xmlns:serif="http://www.serif.com/" style="fill-rule:evenodd;clip-rule:evenodd;stroke-linejoin:round;stroke-miterlimit:2;">
    <g transform="matrix(1,0,0,1,-209,-1462)">
        <g transform="matrix(1,0,0,1,2862.87,520.217)">
            <g transform="matrix(0.521152,0,0,0.521152,-3102.03,959.293)">
                <rect x="859.943" y="-33.506" width="153.506" height="153.506" style="fill:none;"/>
            </g>
            <g transform="matrix(1.33377,0,0,1.33377,-7862.46,-626.827)">
                <g transform="matrix(0.122418,0,0,0.216359,4472.32,1404.52)">
                    <g transform="matrix(1.02054,-4.44089e-17,-2.67147e-16,0.377716,350.57,-1208.08)">
                        <g transform="matrix(1.06535,0,0,1.62864,-14234.1,-3519.5)">
                            <path d="M9226.74,2649.05C9227.1,2643.82 9227.28,2638.57 9227.28,2633.33C9227.28,2620.2 9226.14,2607.11 9223.86,2594.18L9155.73,2606.2C9157.3,2615.16 9158.1,2624.23 9158.1,2633.33C9158.1,2636.96 9157.97,2640.6 9157.72,2644.22L9226.74,2649.05Z" style="fill:rgb(170,230,243);"/>
                        </g>
                        <g transform="matrix(1.06535,0,0,1.62864,-14234.1,-3519.5)">
                            <path d="M9190.92,2510.56C9185.92,2502.86 9180.45,2495.47 9174.55,2488.44L9121.55,2532.91C9125.64,2537.79 9129.43,2542.91 9132.9,2548.24L9190.92,2510.56Z" style="fill:rgb(139,206,255);"/>
                        </g>
                        <g transform="matrix(1.06535,2.46519e-32,-4.93038e-32,1.62864,-14234.1,-3519.5)">
                            <path d="M9052.59,2413.7C9035.96,2409.86 9018.95,2407.92 9001.88,2407.92L9001.88,2477.11C9013.71,2477.11 9025.5,2478.45 9037.02,2481.11L9052.59,2413.7Z" style="fill:rgb(139,206,255);"/>
                        </g>
                        <g transform="matrix(1.06535,0,0,1.62864,-14234.1,-3519.5)">
                            <path d="M8974.41,2409.6C8970.51,2410.08 8966.62,2410.66 8962.74,2411.35L8974.76,2479.48C8977.44,2479.01 8980.14,2478.61 8982.84,2478.27L8974.41,2409.6Z" style="fill:rgb(248,218,208);"/>
                        </g>
                        <g transform="matrix(1.06535,0,0,1.62864,-14234.1,-3519.5)">
                            <path d="M8821.87,2497.68C8816.34,2505.01 8811.27,2512.67 8806.68,2520.62L8866.59,2555.22C8869.78,2549.71 8873.29,2544.39 8877.12,2539.31L8821.87,2497.68Z" style="fill:rgb(255,207,191);"/>
                        </g>
                        <g transform="matrix(1.06535,0,0,1.62864,-14234.1,-3519.5)">
                            <path d="M8777.03,2617.6C8776.66,2622.84 8776.48,2628.08 8776.48,2633.33C8776.48,2646.45 8777.63,2659.54 8779.91,2672.47L8848.04,2660.45C8846.46,2651.5 8845.67,2642.42 8845.67,2633.33C8845.67,2629.69 8845.79,2626.05 8846.05,2622.43L8777.03,2617.6Z" style="fill:rgb(254,245,206);"/>
                        </g>
                        <g transform="matrix(1.06535,0,0,1.62864,-14234.1,-3519.5)">
                            <path d="M8921.1,2422.89C8910.08,2427.13 8899.41,2432.22 8889.18,2438.12L8923.77,2498.04C8930.86,2493.95 8938.26,2490.42 8945.9,2487.49L8921.1,2422.89Z" style="fill:rgb(255,211,196);"/>
                        </g>
                        <g transform="matrix(1.06535,0,0,1.62864,-14234.1,-3519.5)">
                            <path d="M9064.01,2850C9081.68,2844.93 9098.66,2837.72 9114.58,2828.53L9079.99,2768.61C9068.96,2774.98 9057.19,2779.98 9044.94,2783.49L9064.01,2850Z" style="fill:rgb(181,250,234);"/>
                        </g>
                        <g transform="matrix(1.06535,0,0,1.62864,-14234.1,-3519.5)">
                            <path d="M8848.16,2798.17C8860.64,2809.81 8874.4,2820 8889.18,2828.53L8923.77,2768.61C8913.53,2762.7 8903.99,2755.64 8895.34,2747.58L8848.16,2798.17Z" style="fill:rgb(252,241,193);"/>
                        </g>
                    </g>
                    <g transform="matrix(0.850446,-3.70074e-17,-2.22623e-16,0.314763,-439.321,-1159.66)">
                        <g transform="matrix(1.06535,0,0,1.62864,-14234.1,-3519.5)">
                            <path d="M9172,2781.2C9207.65,2740.19 9227.28,2687.67 9227.28,2633.33C9227.28,2620.2 9226.14,2607.11 9223.86,2594.18L9148.36,2607.5C9149.87,2616.02 9150.62,2624.67 9150.62,2633.33C9150.62,2669.19 9137.67,2703.84 9114.14,2730.91L9172,2781.2Z" style="fill:rgb(124,213,232);"/>
                        </g>
                        <g transform="matrix(1.06535,0,0,1.62864,-14234.1,-3519.5)">
                            <path d="M9204.47,2534.52C9196.41,2517.99 9186.37,2502.52 9174.55,2488.44L9121.55,2532.91C9129.74,2542.67 9136.7,2553.39 9142.29,2564.85L9204.47,2534.52Z" style="fill:rgb(67,176,255);"/>
                        </g>
                        <g transform="matrix(1.06535,2.46519e-32,-4.93038e-32,1.62864,-14234.1,-3519.5)">
                            <path d="M9143.73,2458.16C9103.6,2425.66 9053.52,2407.92 9001.88,2407.92L9001.88,2477.11C9037.67,2477.11 9072.38,2489.4 9100.19,2511.92L9143.73,2458.16Z" style="fill:rgb(67,176,255);"/>
                        </g>
                        <g transform="matrix(1.06535,0,0,1.62864,-14234.1,-3519.5)">
                            <path d="M9001.88,2407.92C8988.76,2407.92 8975.66,2409.07 8962.74,2411.35L8974.76,2479.48C8983.71,2477.9 8992.79,2477.11 9001.88,2477.11L9001.88,2407.92Z" style="fill:rgb(254,211,197);"/>
                        </g>
                        <g transform="matrix(1.06535,0,0,1.62864,-14234.1,-3519.5)">
                            <path d="M8857,2460.66C8836.85,2477.56 8819.83,2497.85 8806.68,2520.62L8866.59,2555.22C8875.71,2539.44 8887.51,2525.37 8901.47,2513.66L8857,2460.66Z" style="fill:rgb(254,177,151);"/>
                        </g>
                        <g transform="matrix(1.06535,0,0,1.62864,-14234.1,-3519.5)">
                            <path d="M8790.07,2556.23C8781.08,2580.94 8776.48,2607.03 8776.48,2633.33C8776.48,2646.45 8777.63,2659.54 8779.91,2672.47L8848.04,2660.45C8846.46,2651.5 8845.67,2642.42 8845.67,2633.33C8845.67,2615.1 8848.85,2597.02 8855.09,2579.9L8790.07,2556.23Z" style="fill:rgb(255,243,192);"/>
                        </g>
                        <g transform="matrix(1.06535,0,0,1.62864,-14234.1,-3519.5)">
                            <path d="M8962.74,2411.35C8936.85,2415.91 8911.95,2424.97 8889.18,2438.12L8923.77,2498.04C8939.56,2488.93 8956.81,2482.65 8974.76,2479.48L8962.74,2411.35Z" style="fill:rgb(252,189,168);"/>
                        </g>
                        <g transform="matrix(1.06535,0,0,1.62864,-14234.1,-3519.5)">
                            <path d="M8951.18,2852.95C8967.81,2856.79 8984.82,2858.73 9001.88,2858.73C9041.45,2858.73 9080.32,2848.31 9114.58,2828.53L9079.99,2768.61C9056.24,2782.32 9029.3,2789.54 9001.88,2789.54C8990.06,2789.54 8978.27,2788.2 8966.74,2785.54L8951.18,2852.95Z" style="fill:rgb(165,235,219);"/>
                        </g>
                        <g transform="matrix(1.06535,0,0,1.62864,-14234.1,-3519.5)">
                            <path d="M8788.76,2706.71C8806.45,2758.09 8842.12,2801.36 8889.18,2828.53L8923.77,2768.61C8891.16,2749.78 8866.44,2719.8 8854.18,2684.18L8788.76,2706.71Z" style="fill:rgb(255,239,171);"/>
                        </g>
                    </g>
                </g>
                <g transform="matrix(0.0832878,-6.4055e-18,-2.18024e-17,0.0544813,4321.85,1164.08)">
                    <g>
                        <g transform="matrix(1.06535,0,0,1.62864,-14234.1,-3519.5)">
                            <path d="M9114.58,2828.53C9184.32,2788.26 9227.28,2713.85 9227.28,2633.33C9227.28,2620.2 9226.14,2607.11 9223.86,2594.18L9167.72,2604.08C9169.42,2613.74 9170.28,2623.52 9170.28,2633.33C9170.28,2693.49 9138.18,2749.08 9086.08,2779.16L9114.58,2828.53Z" style="fill:rgb(62,191,218);"/>
                        </g>
                        <g transform="matrix(1.06535,0,0,1.62864,-14234.1,-3519.5)">
                            <path d="M9223.86,2594.18C9204.86,2486.46 9111.27,2407.92 9001.88,2407.92L9001.88,2464.93C9083.6,2464.93 9153.53,2523.61 9167.72,2604.08L9223.86,2594.18Z" style="fill:rgb(17,155,255);"/>
                        </g>
                        <g transform="matrix(1.06535,0,0,1.62864,-14234.1,-3519.5)">
                            <path d="M9001.88,2407.92C8988.76,2407.92 8975.66,2409.07 8962.74,2411.35L8972.64,2467.49C8982.3,2465.79 8992.08,2464.93 9001.88,2464.93L9001.88,2407.92Z" style="fill:rgb(253,146,109);"/>
                        </g>
                        <g transform="matrix(1.06535,0,0,1.62864,-14234.1,-3519.5)">
                            <path d="M8889.18,2438.12C8854.92,2457.91 8826.46,2486.36 8806.68,2520.62L8856.05,2549.13C8870.83,2523.53 8892.09,2502.27 8917.68,2487.49L8889.18,2438.12Z" style="fill:rgb(253,146,109);"/>
                        </g>
                        <g transform="matrix(1.06535,0,0,1.62864,-14234.1,-3519.5)">
                            <path d="M8806.68,2520.62C8786.9,2554.89 8776.48,2593.76 8776.48,2633.33C8776.48,2646.45 8777.63,2659.54 8779.91,2672.47L8836.05,2662.57C8834.34,2652.91 8833.49,2643.13 8833.49,2633.33C8833.49,2603.77 8841.27,2574.73 8856.05,2549.13L8806.68,2520.62Z" style="fill:rgb(255,234,146);"/>
                        </g>
                        <g transform="matrix(1.06535,0,0,1.62864,-14234.1,-3519.5)">
                            <path d="M8962.74,2411.35C8936.85,2415.91 8911.95,2424.97 8889.18,2438.12L8917.68,2487.49C8934.7,2477.67 8953.3,2470.9 8972.64,2467.49L8962.74,2411.35Z" style="fill:rgb(253,146,109);"/>
                        </g>
                        <g transform="matrix(1.06535,0,0,1.62864,-14234.1,-3519.5)">
                            <path d="M8889.18,2828.53C8923.45,2848.31 8962.32,2858.73 9001.88,2858.73C9041.45,2858.73 9080.32,2848.31 9114.58,2828.53L9086.08,2779.16C9060.48,2793.94 9031.44,2801.72 9001.88,2801.72C8972.32,2801.72 8943.28,2793.94 8917.68,2779.16L8889.18,2828.53Z" style="fill:rgb(108,221,195);"/>
                        </g>
                        <g transform="matrix(1.06535,0,0,1.62864,-14234.1,-3519.5)">
                            <path d="M8779.91,2672.47C8791.47,2738.08 8831.48,2795.22 8889.18,2828.53L8917.68,2779.16C8874.58,2754.27 8844.69,2711.59 8836.05,2662.57L8779.91,2672.47Z" style="fill:rgb(255,234,146);"/>
                        </g>
                    </g>
                </g>
            </g>
        </g>
    </g>
</svg>
