<?xml version="1.0" encoding="UTF-8" standalone="no"?>
<!DOCTYPE svg PUBLIC "-//W3C//DTD SVG 1.1//EN" "http://www.w3.org/Graphics/SVG/1.1/DTD/svg11.dtd">
<svg width="100%" height="100%" viewBox="0 0 80 80" version="1.1" xmlns="http://www.w3.org/2000/svg" xmlns:xlink="http://www.w3.org/1999/xlink" xml:space="preserve" xmlns:serif="http://www.serif.com/" style="fill-rule:evenodd;clip-rule:evenodd;stroke-linejoin:round;stroke-miterlimit:2;">
    <g transform="matrix(1,0,0,1,753.91,-3483.96)">
        <g>
            <g transform="matrix(0.521152,0,0,0.521152,-1202.08,3501.47)">
                <rect x="859.943" y="-33.506" width="153.506" height="153.506" style="fill:none;"/>
            </g>
            <g transform="matrix(1,0,0,1,-1528.91,1.42109e-14)">
                <path d="M814.994,3489.01C834.311,3489.01 849.994,3504.69 849.994,3524.01C849.994,3543.33 834.311,3559.01 814.994,3559.01C795.677,3559.01 779.994,3543.33 779.994,3524.01C779.994,3504.69 795.677,3489.01 814.994,3489.01ZM814.994,3493.01C832.103,3493.01 845.994,3506.9 845.994,3524.01C845.994,3541.12 832.103,3555.01 814.994,3555.01C797.885,3555.01 783.994,3541.12 783.994,3524.01C783.994,3506.9 797.885,3493.01 814.994,3493.01ZM816.994,3522.91L831.626,3532.3L829.467,3535.66L812.994,3525.1L812.994,3499.15L816.994,3499.15L816.994,3522.91Z" style="fill:url(#_Linear1);"/>
            </g>
        </g>
    </g>
    <defs>
        <linearGradient id="_Linear1" x1="0" y1="0" x2="1" y2="0" gradientUnits="userSpaceOnUse" gradientTransform="matrix(65.3333,71.6,-71.6,65.3333,784.661,3493.68)"><stop offset="0" style="stop-color:rgb(17,155,255);stop-opacity:1"/><stop offset="0.5" style="stop-color:rgb(102,225,223);stop-opacity:1"/><stop offset="1" style="stop-color:rgb(208,222,238);stop-opacity:1"/></linearGradient>
    </defs>
</svg>
