<?xml version="1.0" encoding="UTF-8" standalone="no"?>
<!DOCTYPE svg PUBLIC "-//W3C//DTD SVG 1.1//EN" "http://www.w3.org/Graphics/SVG/1.1/DTD/svg11.dtd">
<svg width="100%" height="100%" viewBox="0 0 80 80" version="1.1" xmlns="http://www.w3.org/2000/svg" xmlns:xlink="http://www.w3.org/1999/xlink" xml:space="preserve" xmlns:serif="http://www.serif.com/" style="fill-rule:evenodd;clip-rule:evenodd;stroke-linejoin:round;stroke-miterlimit:2;">
    <g transform="matrix(1,0,0,1,-339,-4934)">
        <g transform="matrix(1,0,0,1,1369.85,845.461)">
            <g transform="matrix(0.521152,0,0,0.521152,-1479.01,4106.05)">
                <rect x="859.943" y="-33.506" width="153.506" height="153.506" style="fill:none;"/>
            </g>
            <g transform="matrix(1.79259,0,0,6.19632,-1897.68,-1405.52)">
                <g transform="matrix(0.456532,0,0,0.161386,260.994,226.831)">
                    <path d="M573.059,4098.83L541.289,4098.83L541.289,4112.68L573.059,4112.68L573.059,4098.83ZM546.176,4102.83L546.176,4108.68L568.171,4108.68L568.171,4102.83L546.176,4102.83Z" style="fill:rgb(108,221,195);"/>
                </g>
                <g transform="matrix(0.557853,0,0,0.161386,202.931,226.831)">
                    <path d="M543.059,4116.02L573.059,4116.02L573.059,4158.59L513.059,4158.59L513.059,4098.83L543.059,4098.83L543.059,4116.02ZM539.059,4102.83L517.059,4102.83L517.059,4154.59L569.059,4154.59L569.059,4120.02L539.059,4120.02L539.059,4102.83Z" style="fill:url(#_Linear1);"/>
                </g>
                <g transform="matrix(0.814719,0,0,0.235697,69.0474,-80.9187)">
                    <text x="520.579px" y="4144.2px" style="font-family:'PingFangSC-Medium', 'PingFang SC', sans-serif;font-weight:500;font-size:17.742px;fill:rgb(108,221,195);">Tab</text>
                </g>
            </g>
        </g>
    </g>
    <defs>
        <linearGradient id="_Linear1" x1="0" y1="0" x2="1" y2="0" gradientUnits="userSpaceOnUse" gradientTransform="matrix(64.2942,63.3333,-63.3333,64.2942,513.059,4098.59)"><stop offset="0" style="stop-color:rgb(17,155,255);stop-opacity:1"/><stop offset="0.66" style="stop-color:rgb(108,221,195);stop-opacity:1"/><stop offset="1" style="stop-color:rgb(255,234,146);stop-opacity:1"/></linearGradient>
    </defs>
</svg>
