<?xml version="1.0" encoding="UTF-8" standalone="no"?>
<!DOCTYPE svg PUBLIC "-//W3C//DTD SVG 1.1//EN" "http://www.w3.org/Graphics/SVG/1.1/DTD/svg11.dtd">
<svg width="100%" height="100%" viewBox="0 0 80 80" version="1.1" xmlns="http://www.w3.org/2000/svg" xmlns:xlink="http://www.w3.org/1999/xlink" xml:space="preserve" xmlns:serif="http://www.serif.com/" style="fill-rule:evenodd;clip-rule:evenodd;stroke-linejoin:round;stroke-miterlimit:2;">
    <g transform="matrix(1,0,0,1,1127.61,-531.12)">
        <g>
            <g transform="matrix(0.521152,0,0,0.521152,-1575.77,548.576)">
                <rect x="859.943" y="-33.506" width="153.506" height="153.506" style="fill:none;"/>
            </g>
            <g transform="matrix(1,0,0,1,-1274.28,427.767)">
                <g transform="matrix(-0.589753,0,0,0.174603,207.607,151.354)">
                    <rect x="60.75" y="36.125" width="13.565" height="63" style="fill:url(#_Linear1);"/>
                </g>
                <g transform="matrix(-0.589753,0,0,0.314286,226.318,127.132)">
                    <rect x="60.75" y="36.125" width="13.565" height="63" style="fill:url(#_Linear2);"/>
                </g>
                <g transform="matrix(-0.592593,0,0,1.60685,293.557,59.9974)">
                    <rect x="141.75" y="36.125" width="13.5" height="31.5" style="fill:url(#_Linear3);"/>
                </g>
            </g>
        </g>
    </g>
    <defs>
        <linearGradient id="_Linear1" x1="0" y1="0" x2="1" y2="0" gradientUnits="userSpaceOnUse" gradientTransform="matrix(-1.19352e-15,-65.8367,26.8011,-5.54308e-15,60.75,99.5545)"><stop offset="0" style="stop-color:rgb(21,154,255);stop-opacity:0"/><stop offset="1" style="stop-color:rgb(21,154,255);stop-opacity:1"/></linearGradient>
        <linearGradient id="_Linear2" x1="0" y1="0" x2="1" y2="0" gradientUnits="userSpaceOnUse" gradientTransform="matrix(-2.01823e-15,-61.8494,81.5766,-9.37328e-15,60.75,97.9937)"><stop offset="0" style="stop-color:rgb(208,222,238);stop-opacity:0"/><stop offset="1" style="stop-color:rgb(208,222,238);stop-opacity:1"/></linearGradient>
        <linearGradient id="_Linear3" x1="0" y1="0" x2="1" y2="0" gradientUnits="userSpaceOnUse" gradientTransform="matrix(-5.24818e-15,-31.6089,542.279,-1.22457e-14,141.75,67.5966)"><stop offset="0" style="stop-color:rgb(102,225,223);stop-opacity:0"/><stop offset="1" style="stop-color:rgb(102,225,223);stop-opacity:1"/></linearGradient>
    </defs>
</svg>
