<?xml version="1.0" encoding="UTF-8" standalone="no"?>
<!DOCTYPE svg PUBLIC "-//W3C//DTD SVG 1.1//EN" "http://www.w3.org/Graphics/SVG/1.1/DTD/svg11.dtd">
<svg width="100%" height="100%" viewBox="0 0 80 80" version="1.1" xmlns="http://www.w3.org/2000/svg" xmlns:xlink="http://www.w3.org/1999/xlink" xml:space="preserve" xmlns:serif="http://www.serif.com/" style="fill-rule:evenodd;clip-rule:evenodd;stroke-linejoin:round;stroke-miterlimit:2;">
    <g transform="matrix(6.12323e-17,1,-1,6.12323e-17,611.114,1127.62)">
        <g>
            <g>
                <g transform="matrix(0.521152,0,0,0.521152,-1575.77,548.576)">
                    <rect x="859.943" y="-33.506" width="153.506" height="153.506" style="fill:none;"/>
                </g>
                <g transform="matrix(6.12323e-17,-1,1,6.12323e-17,-2438.47,954.056)">
                    <g transform="matrix(0.784314,0,0,1.04575,343.92,1325.48)">
                        <g transform="matrix(0.84282,0,0,0.566667,2.04905,-32.7268)">
                            <rect x="11.25" y="58.5" width="47.25" height="13.5" style="fill:url(#_Linear1);"/>
                        </g>
                    </g>
                    <g transform="matrix(0.548855,0,0,0.592593,380.812,1311.47)">
                        <g>
                            <rect x="11.25" y="58.5" width="47.25" height="13.5" style="fill:url(#_Linear2);"/>
                        </g>
                    </g>
                    <g transform="matrix(0.775464,0,0,1.04575,344.027,1331.34)">
                        <g transform="matrix(1.6265,0,0,0.566667,-6.2607,1.69815)">
                            <rect x="11.25" y="58.5" width="47.25" height="13.5" style="fill:url(#_Linear3);"/>
                        </g>
                    </g>
                </g>
            </g>
        </g>
    </g>
    <defs>
        <linearGradient id="_Linear1" x1="0" y1="0" x2="1" y2="0" gradientUnits="userSpaceOnUse" gradientTransform="matrix(46.2728,0,0,285.295,11.4995,57.9842)"><stop offset="0" style="stop-color:rgb(21,154,255);stop-opacity:0"/><stop offset="1" style="stop-color:rgb(21,154,255);stop-opacity:1"/></linearGradient>
        <linearGradient id="_Linear2" x1="0" y1="0" x2="1" y2="0" gradientUnits="userSpaceOnUse" gradientTransform="matrix(47.25,0,0,13.5,11.25,65.25)"><stop offset="0" style="stop-color:rgb(102,225,223);stop-opacity:0"/><stop offset="1" style="stop-color:rgb(102,225,223);stop-opacity:1"/></linearGradient>
        <linearGradient id="_Linear3" x1="0" y1="0" x2="1" y2="0" gradientUnits="userSpaceOnUse" gradientTransform="matrix(47.25,0,0,13.5,11.25,65.25)"><stop offset="0" style="stop-color:rgb(208,222,238);stop-opacity:0"/><stop offset="1" style="stop-color:rgb(208,222,238);stop-opacity:1"/></linearGradient>
    </defs>
</svg>
